<?xml version="1.0" encoding="utf-8"?>
<!-- Generator: Adobe Illustrator 16.0.4, SVG Export Plug-In . SVG Version: 6.00 Build 0)  -->
<!DOCTYPE svg PUBLIC "-//W3C//DTD SVG 1.1//EN" "http://www.w3.org/Graphics/SVG/1.1/DTD/svg11.dtd">
<svg version="1.1" id="Your_Icon" xmlns="http://www.w3.org/2000/svg" xmlns:xlink="http://www.w3.org/1999/xlink" x="0px" y="0px"
	 width="100px" height="100px" viewBox="0 0 100 100" enable-background="new 0 0 100 100" xml:space="preserve">
<path fill="#FCFCFC" d="M17.34,100h65.32c8.404,0,15.244-6.839,15.244-15.245V49.707v-8.341V21.938v-6.049v-0.644
	C97.904,6.839,91.064,0,82.66,0H17.34C8.935,0,2.095,6.839,2.095,15.246v0.644v6.049v19.428v8.341v35.048
	C2.095,93.161,8.935,100,17.34,100z M85.38,84.755c0,1.476-1.247,2.72-2.72,2.72H17.34c-1.475,0-2.72-1.244-2.72-2.72V28.841
	c0-1.475,1.245-2.72,2.72-2.72h65.32c1.473,0,2.72,1.245,2.72,2.72V84.755z"/>
<g>
	<path fill="#FCFCFC" d="M27.629,52.721c-0.301-0.434-0.602-0.935-0.902-1.503c-0.301-0.567-0.585-1.152-0.852-1.754
		c-0.267-0.601-0.501-1.21-0.702-1.829c-0.198-0.617-0.35-1.209-0.45-1.778l14.68-6.263h2.153v25.251h6.414
		c0.301,1.304,0.45,2.539,0.45,3.708c0,1.236-0.149,2.506-0.45,3.809H26.526c-0.298-1.303-0.45-2.571-0.45-3.809
		c0-1.169,0.152-2.404,0.45-3.708h6.515V50.616L27.629,52.721z"/>
	<path fill="#FCFCFC" d="M54.482,52.721c-0.301-0.434-0.603-0.935-0.899-1.503c-0.301-0.567-0.585-1.152-0.854-1.754
		c-0.267-0.601-0.498-1.21-0.699-1.829c-0.199-0.617-0.353-1.209-0.451-1.778l14.68-6.263h2.155v25.251h6.412
		c0.301,1.304,0.45,2.539,0.45,3.708c0,1.236-0.149,2.506-0.45,3.809H53.382c-0.301-1.303-0.452-2.571-0.452-3.809
		c0-1.169,0.151-2.404,0.452-3.708h6.513V50.616L54.482,52.721z"/>
</g>
</svg>
