<?xml version="1.0" encoding="utf-8"?>
<!-- Generator: Adobe Illustrator 16.0.4, SVG Export Plug-In . SVG Version: 6.00 Build 0)  -->
<!DOCTYPE svg PUBLIC "-//W3C//DTD SVG 1.1//EN" "http://www.w3.org/Graphics/SVG/1.1/DTD/svg11.dtd">
<svg version="1.1" id="Your_Icon" xmlns="http://www.w3.org/2000/svg" xmlns:xlink="http://www.w3.org/1999/xlink" x="0px" y="0px"
	 width="100px" height="100px" viewBox="0 0 100 100" enable-background="new 0 0 100 100" xml:space="preserve">
<path fill="#FCFCFC" d="M82.812-0.451L65.727,20.262c-4.689-2.67-10.299-4-16.053-4c-5.796,0-11.239,1.349-15.951,4.061L17-0.451
	l-0.012,52.029c-0.084,1.359,0,2.744,0,4.186c0,19.906,8.122,36.99,19.742,44.344c-6.544-8.438-12.21-17.596-9.585-26.491
	c15.041-0.605,16.631-0.685,16.631-0.685l5.313,4.33l6.533-4.33c10.938,0.078,16.103,0.305,16.103,0.305
	c0.678,5.574-0.291,17.798-9.644,26.968C73.777,92.9,82.061,75.755,82.061,55.766c0-1.4-0.061-2.755-0.061-4.076L82.812-0.451z
	 M42.309,58.221c-1.57,0.629-5.087,2.701-6.72,3.203c-1.634,0.503-3.894,0.816-4.774,0s-3.707-3.518-4.271-4.145
	c-0.566-0.631-0.943-5.656,2.386-5.403c3.391,0.257,12.563,4.021,13.128,4.208C42.624,56.273,43.88,57.592,42.309,58.221z
	 M72.324,57.279c-0.564,0.627-3.393,3.328-4.271,4.145c-0.881,0.816-3.139,0.503-4.773,0c-1.633-0.502-5.149-2.574-6.721-3.203
	c-1.572-0.629-0.313-1.947,0.25-2.137c0.566-0.188,9.738-3.951,13.129-4.208C73.268,51.623,72.891,56.648,72.324,57.279z"/>
</svg>
