<?xml version="1.0" encoding="utf-8"?>
<!-- Generator: Adobe Illustrator 16.0.4, SVG Export Plug-In . SVG Version: 6.00 Build 0)  -->
<!DOCTYPE svg PUBLIC "-//W3C//DTD SVG 1.1//EN" "http://www.w3.org/Graphics/SVG/1.1/DTD/svg11.dtd">
<svg version="1.1" id="Layer_1" xmlns="http://www.w3.org/2000/svg" xmlns:xlink="http://www.w3.org/1999/xlink" x="0px" y="0px"
	 width="100px" height="100px" viewBox="0 0 100 100" enable-background="new 0 0 100 100" xml:space="preserve">
<polygon fill="#FCFCFC" points="62.5,37.5 0,37.5 0,25 62.5,25 "/>
<polygon fill="#FCFCFC" points="75,100 0,100 0,87.5 75,87.5 "/>
<polygon fill="#FCFCFC" points="100,12.5 0,12.5 0,0 100,0 "/>
<polygon fill="#FCFCFC" points="100,75 0,75 0,62.5 100,62.5 "/>
<path fill="#FCFCFC" d="M100,93.75c0,3.455-2.809,6.25-6.25,6.25c-3.467,0-6.262-2.795-6.262-6.25s2.795-6.25,6.262-6.25
	C97.191,87.5,100,90.295,100,93.75z"/>
</svg>
