<svg xmlns="http://www.w3.org/2000/svg" width="24" height="24"><path fill="#fff" d="M12 0C5.373 0 0 5.373 0 12s5.373 12 12 12 12-5.373 12-12S18.627 0 12 0zm7.453 19.395c-1.084-1.785-4.486-3.244-5.525-3.41-.385-.06-.393-1.118-.393-1.118s1.13-1.12 1.377-2.623c.662 0 1.072-1.6.408-2.162.027-.592.852-4.652-3.32-4.652s-3.348 4.06-3.32 4.652c-.664.563-.254 2.162.408 2.162.246 1.506 1.377 2.625 1.377 2.625s-.01 1.056-.394 1.117c-1.038.164-4.44 1.623-5.523 3.408A10.462 10.462 0 0 1 1.5 12C1.5 6.2 6.2 1.5 12 1.5S22.5 6.2 22.5 12c0 2.885-1.164 5.496-3.047 7.395z"/></svg>