<svg xmlns="http://www.w3.org/2000/svg" viewBox="290 382.1 32 27.7"><path fill="#444" d="M316.7 390.7h-1.1v-4.3c0-2.3-5.8-4.3-12.8-4.3-7 0-12.8 1.9-12.8 4.3v19.2c0 2.3 5.8 4.3 12.8 4.3 7 0 12.8-1.9 12.8-4.3v-4.3h1.1c3 0 5.3-2.3 5.3-5.3s-2.3-5.3-5.3-5.3zm-21.5-3c-1.6-.5-2.5-1-2.9-1.3.4-.3 1.3-.7 2.9-1.3 2.1-.5 4.8-.9 7.6-.9s5.4.3 7.6.9c1.6.4 2.5 1 2.9 1.3-.4.3-1.3.7-2.9 1.3-2.1.5-4.8.9-7.6.9-2.8-.1-5.4-.4-7.6-.9zm23.7 10.5c-.6.6-1.4 1-2.2 1h-1.1v-6.4h1.1c.9 0 1.6.3 2.2 1 .6.6 1 1.4 1 2.2s-.4 1.6-1 2.2z"/></svg>