<svg xmlns="http://www.w3.org/2000/svg" width="32" height="22" viewBox="0 0 32 22"><path d="M16 6C9.457 6 3.65 9.143 0 14c3.65 4.86 9.457 8 16 8s12.352-3.14 16-8c-3.648-4.857-9.457-8-16-8zm2 3a2 2 0 1 1 .001 3.999A2 2 0 0 1 18 9zm6.175 9.04a17.81 17.81 0 0 1-3.9 1.45c-1.39.338-2.83.51-4.275.51-1.446 0-2.884-.172-4.274-.51a17.771 17.771 0 0 1-3.9-1.45A18.125 18.125 0 0 1 2.586 14a18.152 18.152 0 0 1 5.238-4.04c1.01-.517 2.07-.935 3.16-1.25A6 6 0 1 0 22 12c0-1.215-.36-2.346-.984-3.29 1.09.313 2.15.733 3.16 1.25A18.186 18.186 0 0 1 29.414 14a18.125 18.125 0 0 1-5.24 4.04zm2.73-15.423C23.504.88 19.837 0 16 0S8.494.88 5.096 2.617A24.003 24.003 0 0 0 0 6.12v2.786a22.23 22.23 0 0 1 6.006-4.51C9.12 2.806 12.482 2 16 2s6.88.807 9.994 2.398A22.21 22.21 0 0 1 32 8.908v-2.79a24.064 24.064 0 0 0-5.096-3.5z"/></svg>