<svg xmlns="http://www.w3.org/2000/svg" width="18" height="15.75" viewBox="0 0 18 15.75"><path fill="#444545" d="M13.22 1.125a3.66 3.66 0 0 1 3.655 3.656c0 1.256-.41 2.54-1.22 3.82-.68 1.08-1.64 2.16-2.853 3.21A24.175 24.175 0 0 1 9 14.471a24.035 24.035 0 0 1-3.766-2.63c-1.222-1.05-2.19-2.133-2.876-3.217-.818-1.286-1.233-2.58-1.233-3.84a3.66 3.66 0 0 1 6.886-1.719L9 4.917l.992-1.855a3.657 3.657 0 0 1 3.227-1.935m0-1.125A4.765 4.765 0 0 0 9 2.53a4.78 4.78 0 0 0-9 2.25c0 6.47 9 10.97 9 10.97s9-4.5 9-10.97A4.78 4.78 0 0 0 13.22 0z"/></svg>