<svg xmlns="http://www.w3.org/2000/svg" viewBox="-193.3 201.4 88.2 99.2"><path d="M-105.2 223.7c0-.2-.1-.3-.1-.4v-.1c0-.1-.1-.2-.1-.4v-.1c0-.1-.1-.1-.1-.2 0 0 0-.1-.1-.1 0 0 0-.1-.1-.1-.1-.1-.1-.2-.2-.3l-.3-.3h-.1c-.1-.1-.2-.1-.3-.2h-.1c-.1-.1-.2-.1-.3-.2l-41-19.7c-.8-.4-1.8-.4-2.7 0l-41 19.7c-.1.1-.2.1-.3.2h-.1c-.1.1-.2.1-.3.2l-.1.1-.3.3c-.1.1-.1.2-.2.3 0 0 0 .1-.1.1 0 0 0 .1-.1.1 0 .1-.1.1-.1.2v.1c-.1.1-.1.2-.1.4v.1c0 .1-.1.2-.1.3v51.1c0 1.1.6 2.2 1.6 2.7l41 22.7c.5.3 1 .4 1.5.4s1-.1 1.5-.4l41-22.7c1-.5 1.6-1.6 1.6-2.7v-50.7c.1-.1.1-.3.1-.4zm-44.1 70.3l-37.9-21v-43.6l20.1 11.2c.5.3 1 .4 1.5.4 1.1 0 2.1-.6 2.7-1.6.8-1.5.3-3.4-1.2-4.2l-19.5-10.8 34.3-16.5 34.3 16.5-19.5 10.8c-1.5.8-2 2.7-1.2 4.2.6 1 1.6 1.6 2.7 1.6.5 0 1-.1 1.5-.4l20.1-11.2V273l-37.9 21zm3.1-42.4c-.1-.3-.4-.5-.7-.4-1.5.4-3.2.4-4.8 0-.3-.1-.6.1-.7.4l-8.7 27.7c-.1.2 0 .5.2.6l11.2 9.9c.1.1.3.2.4.2.1 0 .3-.1.4-.2l11.2-9.9c.2-.2.3-.4.2-.6l-8.7-27.7zm-11.2-11.8l5.1 8.7c.1.1.2.2.4.3.2 0 .3.1.5.1.7.2 1.4.4 2.1.4.8 0 1.4-.2 2.1-.4.2-.1.4-.1.5-.2.2 0 .3-.2.4-.3l4.8-8.7c.2-.3.3-1.1-.2-1.9-.9-1.4-3.4-2.1-7.6-2.1-4.2 0-6.8.7-7.8 2.1-.6 1-.3 1.8-.3 2z"/></svg>