<svg xmlns="http://www.w3.org/2000/svg" width="56.426" height="75"><path d="M3.338 47.445c0-.82.667-1.484 1.486-1.484h1.672v-1.85h43.436v1.86h1.67c.82 0 1.49.67 1.49 1.49s-.67 1.49-1.49 1.49v8.54h-1.856V50.8c0-.82-.663-1.488-1.48-1.488-.82 0-1.487.665-1.487 1.484v6.68h-3.72v-6.68c0-.82-.67-1.488-1.49-1.488s-1.49.668-1.49 1.487v6.68h-3.71v-6.68c0-.82-.66-1.487-1.48-1.487s-1.49.667-1.49 1.486v6.68h-3.7v-6.68a1.491 1.491 0 0 0-2.98-.001v6.68h-3.71v-6.68c0-.82-.666-1.486-1.484-1.486-.82 0-1.483.667-1.483 1.486v6.68H16.33v-6.68c0-.82-.663-1.488-1.483-1.488s-1.483.667-1.483 1.486v6.68H9.65v-6.68c0-.82-.665-1.48-1.483-1.48-.82 0-1.485.67-1.485 1.49v6.68H4.824v-8.54c-.82 0-1.486-.66-1.486-1.48zm51.607 11.138H1.485a1.484 1.484 0 1 0 .001 2.969V75H2.97V63.407a1.855 1.855 0 0 1 3.711 0V75h2.97V63.407c0-1.022.84-1.854 1.86-1.854 1.03 0 1.86.832 1.86 1.854V75h2.97V63.407c0-1.022.83-1.854 1.86-1.854 1.03 0 1.86.832 1.86 1.854V75h2.97V63.407c0-1.022.83-1.854 1.86-1.854 1.02 0 1.86.832 1.86 1.854V75h2.97V63.407c0-1.022.83-1.854 1.86-1.854 1.03 0 1.86.832 1.86 1.854V75h2.96V63.407a1.858 1.858 0 0 1 3.716 0V75h2.97V63.407a1.856 1.856 0 0 1 3.711 0V75h2.97V63.407a1.851 1.851 0 1 1 3.704 0V75h1.49V61.553c.82 0 1.48-.664 1.48-1.486a1.47 1.47 0 0 0-1.48-1.484zM8.167 40.916c0-1.062.86-1.92 1.916-1.92h.138c.81-6.825 5.26-12.498 11.3-14.955-1.88 1.78-6.45 6.94-6.45 14.99 0 .22.18.4.39.4.22 0 .39-.17.39-.39 0-9.67 6.87-15.01 6.94-15.06.17-.13.21-.37.08-.54-.09-.13-.25-.15-.39-.113V20.8h2.23c0-.354.29-.64.65-.64V12.8a.637.637 0 1 1 0-1.276h1.43v-8h.8V.638c0-.358.29-.638.64-.638.35 0 .64.28.64.636v2.877h.8v7.993h1.43a.64.64 0 1 1 0 1.278v7.356c.354 0 .64.284.64.638h2.24v2.874h-.087c6.564 2.206 11.47 8.136 12.328 15.345h.13c1.07 0 1.93.858 1.93 1.92a1.92 1.92 0 0 1-1.93 1.917H10.08a1.918 1.918 0 0 1-1.914-1.918zM27.625 18.91a.588.588 0 1 0 1.176 0v-3.918a.585.585 0 1 0-1.17 0v3.92zM24.47 39.026a.39.39 0 0 0 .39.393c.216 0 .39-.18.39-.4 0-9.84.81-15.26.817-15.31a.39.39 0 0 0-.326-.45c-.25-.04-.41.11-.44.33-.01.05-.82 5.52-.82 15.43zm-4.704 0a.391.391 0 1 0 .784-.007c0-9.73 3.84-15.09 3.878-15.14a.395.395 0 0 0-.08-.55.388.388 0 0 0-.55.08c-.165.22-4.032 5.6-4.032 15.6z"/></svg>