<svg xmlns="http://www.w3.org/2000/svg" width="22.156" height="18.721"><path fill="#038798" d="M12.098 0h-5.8C3.7 0 1.253 1.97 1.253 4.25c0 2.333 1.773 4.212 4.42 4.212.182 0 .36-.002.535-.017-.172.328-.294.7-.294 1.086 0 .65.348 1.175.79 1.6l-1.006.01C2.48 11.145 0 13.194 0 15.32c0 2.094 2.716 3.402 5.936 3.402 3.67 0 5.697-2.082 5.697-4.176 0-1.68-.497-2.685-2.028-3.77-.524-.367-1.525-1.27-1.525-1.8 0-.62.177-.927 1.113-1.657.96-.75 1.637-1.805 1.637-3.027 0-1.457-.65-2.88-1.868-3.35H10.8L12.097 0zM10.07 14.183c.047.194.073.396.073.6 0 1.69-1.09 3.015-4.22 3.015-2.226 0-3.832-1.408-3.832-3.102 0-1.658 1.997-3.038 4.22-3.016.52.005 1.006.09 1.444.23 1.21.842 2.075 1.317 2.32 2.273zm-3.56-6.31c-1.493-.046-2.914-1.67-3.17-3.633C3.08 2.278 4.08.777 5.574.82c1.493.046 2.913 1.62 3.17 3.58.26 1.963-.743 3.518-2.236 3.473zM18 4.155V0h-1.385v4.154H12.46V5.54h4.155v4.153H18V5.54h4.154V4.155H18z"/></svg>