<svg xmlns="http://www.w3.org/2000/svg" viewBox="290 381.6 32 28.9"><path fill="#444" d="M313 403.7c-.6-.1-.6-1.7-.6-1.7s1.7-1.7 2.1-4c1 0 1.6-2.4.6-3.3 0-.9 1.3-7.1-5.1-7.1s-5.2 6.2-5.1 7.1c-1 .9-.4 3.3.6 3.3.4 2.3 2.1 4 2.1 4s0 1.6-.6 1.7c-1.9.3-9 3.4-9 6.8h24c0-3.4-7.1-6.5-9-6.8zm-12.2.6c1.4-.8 3.1-1.6 4.4-2.1-.5-.7-1-1.7-1.4-2.8-.5-.4-.9-1-1.1-1.6-.3-.7-.3-1.5-.3-2.2.1-.5.2-1 .4-1.4-.1-1.5-.2-4.3 1.6-6.4.7-.8 1.6-1.4 2.7-1.7-.1-2.1-1.1-4.5-5.1-4.5-6.4 0-5.2 6.2-5.1 7.1-1 .9-.4 3.3.6 3.3.4 2.3 2.1 4 2.1 4s0 1.6-.6 1.7c-1.9.3-9 3.4-9 6.8h10.3c.1-.1.3-.1.5-.2z"/></svg>