<svg xmlns="http://www.w3.org/2000/svg" viewBox="-160.5 239 24 24"><path d="M-150.9 239h4.8c.4 0 .8.4.8.8v4.8c0 .4-.4.8-.8.8h-4.8c-.4 0-.8-.4-.8-.8v-4.8c0-.4.4-.8.8-.8zm8.8 0h4.8c.4 0 .8.4.8.8v4.8c0 .4-.4.8-.8.8h-4.8c-.4 0-.8-.4-.8-.8v-4.8c0-.4.4-.8.8-.8zm-17.6 0h4.8c.4 0 .8.4.8.8v4.8c0 .4-.4.8-.8.8h-4.8c-.4 0-.8-.4-.8-.8v-4.8c0-.4.4-.8.8-.8zm8.8 8.8h4.8c.4 0 .8.4.8.8v4.8c0 .4-.4.8-.8.8h-4.8c-.4 0-.8-.4-.8-.8v-4.8c0-.4.4-.8.8-.8zm8.8 0h4.8c.4 0 .8.4.8.8v4.8c0 .4-.4.8-.8.8h-4.8c-.4 0-.8-.4-.8-.8v-4.8c0-.4.4-.8.8-.8zm-17.6 0h4.8c.4 0 .8.4.8.8v4.8c0 .4-.4.8-.8.8h-4.8c-.4 0-.8-.4-.8-.8v-4.8c0-.4.4-.8.8-.8zm8.8 8.8h4.8c.4 0 .8.4.8.8v4.8c0 .4-.4.8-.8.8h-4.8c-.4 0-.8-.4-.8-.8v-4.8c0-.4.4-.8.8-.8zm8.8 0h4.8c.4 0 .8.4.8.8v4.8c0 .4-.4.8-.8.8h-4.8c-.4 0-.8-.4-.8-.8v-4.8c0-.4.4-.8.8-.8zm-17.6 0h4.8c.4 0 .8.4.8.8v4.8c0 .4-.4.8-.8.8h-4.8c-.4 0-.8-.4-.8-.8v-4.8c0-.4.4-.8.8-.8z" fill="#fff"/></svg>