<svg xmlns="http://www.w3.org/2000/svg" viewBox="0 0 500 500"><path d="M129.7 208.2v83.6H94.6v-30H34.5v30H0v-83.6h34.5v34.2h60.1v-34.2h35.1M240.6 229h-96.5l.1-20.8h106.6c6.3 0 11.8 2.1 16.3 6.4 4.6 4.3 6.8 9.5 6.8 15.6v39.6c0 6.1-2.3 11.3-6.8 15.6-4.5 4.3-10 6.4-16.3 6.4H144.2l-.1-49.4h33.4l.1 28.7h63V229m204.1-14.3c4.5 4.3 6.8 9.5 6.8 15.5v61.6h-33.4v-62.7h-31.8v62.7h-33.2v-62.7h-31.8v62.7h-33.4v-83.6h140.5c6.4 0 11.8 2.1 16.3 6.5m55.3 47.1v30h-34.4v-83.6H500v34.2l-.1 11.2.1 8.2" fill="#231F20"/></svg>