<svg xmlns="http://www.w3.org/2000/svg" viewBox="-235.7 246.2 25 25"><path d="M-214.8 246.2h-16.7c-2.3 0-4.2 1.9-4.2 4.2V267c0 2.3 1.9 4.2 4.2 4.2h16.7c2.3 0 4.2-1.9 4.2-4.2v-16.7c-.1-2.3-1.9-4.1-4.2-4.1zm-12.9 10.9h9c.2.5.3 1 .3 1.6 0 2.6-2.1 4.8-4.8 4.8-2.6 0-4.8-2.1-4.8-4.8.1-.6.2-1.1.3-1.6zm13.9 0v9.3c0 .9-.7 1.6-1.6 1.6H-231c-.9 0-1.6-.7-1.6-1.6v-9.3h2.4c-.1.5-.2 1-.2 1.6 0 3.9 3.2 7.1 7.1 7.1 3.9 0 7.1-3.2 7.1-7.1 0-.5-.1-1.1-.2-1.6h2.6zm0-5.5c0 .4-.4.8-.8.8h-1.6c-.4 0-.8-.4-.8-.8V250c0-.4.4-.8.8-.8h1.6c.4 0 .8.4.8.8v1.6z"/></svg>