<svg xmlns="http://www.w3.org/2000/svg" width="36.366" height="36.365"><path d="M18.183 0C8.14 0 0 8.14 0 18.183s8.14 18.183 18.183 18.183c10.044 0 18.183-8.14 18.183-18.183S28.226 0 18.183 0zm0 34.093c-8.787 0-15.91-7.123-15.91-15.91s7.123-15.91 15.91-15.91c8.786 0 15.91 7.123 15.91 15.91s-7.124 15.91-15.91 15.91z"/><path d="M22.14 27.326c-.276.09-.468.18-.67.208-.5.074-1.006.196-1.5.156-.972-.075-1.364-.6-1.173-1.57.244-1.25.55-2.487.857-3.724.354-1.424.906-2.804.93-4.3.012-.8-.16-1.52-.72-2.12-.796-.862-1.842-1.04-2.93-1.02-1.396.024-2.657.59-3.932 1.08a.32.32 0 0 0-.17.192c-.1.356-.18.722-.277 1.128l.267-.062c.697-.242 1.398-.41 2.144-.26.536.108.822.366.86.91.028.41.045.843-.048 1.24a95.935 95.935 0 0 1-.93 3.59c-.346 1.27-.758 2.52-.807 3.85-.045 1.268.6 2.29 1.754 2.786.947.406 1.95.448 2.917.237 1.01-.224 1.98-.635 2.96-.975a.365.365 0 0 0 .196-.213c.1-.345.174-.7.276-1.135zm-2.472-14.72c1.172-.008 2.25-.717 2.607-1.713.488-1.366-.212-2.827-1.596-3.324-1.48-.533-3.18.194-3.673 1.565-.623 1.743.712 3.486 2.66 3.47z" fill-rule="evenodd" clip-rule="evenodd"/></svg>