<svg xmlns="http://www.w3.org/2000/svg" width="70.131" height="75" viewbox="0 0 70.131 75"><path d="M5.168 45.61c4.707-2.898 9.326-5.74 14.083-8.667v2.838c0 .89-.01 1.78.01 2.67.03.87-.11 1.75.14 2.74l13.48-8.25v2.84c0 .89-.02 1.78.01 2.67.02.87-.11 1.75.13 2.75l13.48-8.26c0 1.58 0 2.99.01 4.41.01 1.41-.02 2.81.02 4.31H57.6c1.217 0 2.436 0 3.656.01l3.695.02v20.88l.03 3.52c.95 0 1.77-.024 2.59.01.84.033 1.69-.147 2.58.15v2.3c0 .776 0 1.56-.01 2.47H.02v-4.93h5.16c.01-8.237.01-16.36.01-24.46zm3.414 8.023c.744.196 8.654.244 9.85.068.23-.66.27-.33.075-1.55H8.582v1.49zm37.905-1.49H36.52c-.086 1.153-.07.382-.005 1.486.842.2 8.895.22 9.972.03v-1.52zm-13.99 0c-1.065-.12-2.14-.027-3.206-.046-1.11-.017-2.23-.003-3.34-.003H22.6c-.125 1.206-.07.437-.037 1.547.887.2 9.004.21 9.937.02v-1.51zM8.582 58.248c.744.193 8.654.242 9.85.067.23-.66.27-.333.075-1.554H8.582v1.49zm37.905-1.492H36.52c-.086 1.153-.07.383-.005 1.487.842.206 8.895.228 9.972.032v-1.52zm-13.99-.002c-1.065-.118-2.14-.024-3.206-.042-1.11-.018-2.23-.004-3.34-.004H22.6c-.125 1.205-.07.437-.037 1.545.887.2 9.004.21 9.937.015v-1.514zm-23.915 6.11c.744.193 8.654.242 9.85.066.23-.66.27-.332.075-1.555H8.582v1.49zm37.905-1.492H36.52c-.086 1.15-.07.382-.005 1.488.842.203 8.895.226 9.972.03v-1.518zm-13.99-.002c-1.065-.12-2.14-.022-3.206-.042-1.11-.02-2.23-.004-3.34-.004H22.6c-.125 1.205-.07.437-.037 1.545.887.2 9.004.21 9.937.01v-1.51zM62.55 43c-.635-9.634-1.266-19.147-1.895-28.702h-9.033c-.347.656-2.01 27.65-1.977 28.7H62.55zM12.16 0c.758 4.178 4.018 7.598 8.08 8.438 1.603.33 3.253.51 4.893.585 5.035.224 10.07.104 15.106-.113 2.2-.096 4.4-.138 6.61-.105 2.93.044 5.72.792 8.43 1.902l1 .392c-.18-.48-.28-.81-.42-1.13-.98-2.14-2.59-3.71-4.56-4.94-2.3-1.43-4.83-2.24-7.43-2.86-4.26-1.01-8.54-1-12.85-.32-2.7.42-5.41.8-8.12 1.09-3 .32-5.83-.33-8.47-1.79-.7-.38-1.44-.73-2.27-1.15z"/></svg>
