<svg xmlns="http://www.w3.org/2000/svg" viewBox="290 382 32 28"><path fill="#444" d="M296.3 399.7c-1.4-.9-2.4-1.8-3-2.4-.6-.6-1-1.1-1.2-1.3.2-.3.5-.7 1.2-1.3.6-.7 1.7-1.6 3.3-2.6 1.8-1.2 5.5-3.1 9.4-3.1h1l1.8-1.8c-1-.1-1.9-.2-2.8-.2-8 0-16 7-16 9 0 1 1.9 3.2 4.9 5.1l1.4-1.4zm18.3-10.3l5.4-5.4-2-2-26 26 2 2 6.1-6.1c1.9.7 3.9 1.1 5.9 1.1 8 0 16-7 16-9 0-1.2-3.1-4.4-7.4-6.6zm4.1 7.9c-.6.6-1.7 1.6-3.3 2.6-1.8 1.2-5.5 3.1-9.4 3.1-1.5 0-3-.3-4.3-.7l1.9-1.9c.7.4 1.5.6 2.4.6 2.8 0 5-2.2 5-5 0-.9-.2-1.7-.6-2.4l2.8-2.8c.9.4 1.6.9 2.2 1.2 1.6 1 2.7 2 3.3 2.6.6.6 1 1.1 1.2 1.3-.2.4-.6.8-1.2 1.4z"/></svg>