<svg xmlns="http://www.w3.org/2000/svg" width="31.627" height="36.371" viewBox="0 0 31.627 36.371"><path d="M23.313 9.815l-.6-.598a.517.517 0 0 1 0-.725c.2-.2.526-.2.727 0l1.257 1.257 2.657-2.66c.2-.2.524-.2.724 0 .2.2.2.52 0 .72l-2.658 2.66 2.676 2.67 2.66-2.66a.51.51 0 1 1 .723.724l-2.66 2.66 1.31 1.31a.51.51 0 0 1-.36.873c-.14 0-.27-.05-.37-.15l-.6-.597"/><path d="M11.666 25.337L1.684 34.75l1.335 1.337 10.18-9.214-1.54-1.536zm6.91-6.71l2.788-2.705a3.887 3.887 0 0 1 .585-4.743l1.36-1.37-.6-.6c-.2-.2-.2-.526 0-.727.2-.2.52-.2.72 0l1.257 1.257 2.657-2.66a.512.512 0 1 1 .724.725l-2.655 2.66 2.674 2.673 2.66-2.66c.2-.2.523-.2.724.002.2.2.2.523 0 .723l-2.657 2.66 1.31 1.31c.2.2.2.52 0 .72a.51.51 0 0 1-.725 0l-.6-.596-1.36 1.363a3.885 3.885 0 0 1-4.742.585l-2.79 2.704-1.338-1.334zm9.31 12.085L6.126 9.07l.61-.61A.769.769 0 0 0 5.65 7.373l-5.427 5.43a.767.767 0 1 0 1.085 1.085l.543-.543 21.76 21.642s2.72 2.715 4.89.54c2.17-2.17-.61-4.815-.61-4.815zm-16.802-10.17L2.87 12.33l2.17-2.172 8.216 8.215-2.172 2.173zM1.78 9.6a1.441 1.441 0 0 1 0-2.88 1.44 1.44 0 0 1-.002 2.88zm0-2.112a.672.672 0 1 0 .001 0zM3.89 5.76c-1.587 0-2.88-1.292-2.88-2.88S2.304 0 3.89 0a2.883 2.883 0 0 1 2.88 2.88 2.882 2.882 0 0 1-2.88 2.878zm0-4.222a1.345 1.345 0 0 0 0 2.692 1.345 1.345 0 0 0 0-2.688z"/></svg>