<svg xmlns="http://www.w3.org/2000/svg" viewBox="-385.5 396 144 144"><path d="M-270.8 520.7h-82.1c-.1-1.1-.2-2-.2-3 0-15.3 0-30.7-.1-46 0-2.1.7-3.3 2.5-4.4 12.3-7.2 24.6-14.5 36.9-21.6.9-.5 2.7-.6 3.7-.1 12.6 7.3 25.2 14.7 37.7 22.2.9.5 1.8 2 1.8 3 .1 16.1.1 32.2.1 48.4-.1.4-.2.8-.3 1.5zm-17.7-33.8c-.4-13.3-11.2-23.8-23.9-23.3-13.2.5-23.3 11.2-23 24.3.4 12.7 11.3 23 24 22.6 12.9-.2 23.3-11.1 22.9-23.6zm-18.5-64.8c-1.2 3.7.9 5.5 4.2 7.4 13.1 7.5 26.2 15.2 39.1 23.1 1.7 1 3.3 3.1 3.6 4.9.2 1.6-1 4.4-2.4 5.1-1.7.8-4.6.8-6.3-.2-11.2-6.3-22.2-12.9-33.3-19.5-2.5-1.5-5.1-2.9-7.6-4.5-1.7-1.1-3-1.1-4.7 0-13.4 8-26.7 16-40.2 23.7-1.8 1-4.8 1.5-6.6.7-4.3-1.8-3.9-7.2.4-9.9 6.4-3.9 12.9-7.7 19.4-11.5 7.4-4.4 14.8-8.8 22.2-13.1 1.8-1 2.5-2.2 2.3-4.2-.2-1.9-.1-3.9 0-5.9.1-3.3 2.1-5.3 5-5.2 2.8 0 4.6 2 4.8 5.1.1 1.2.1 2.4.1 4zm-8.6 59.6v-4.2c-.1-2.5.4-4.7 3.4-4.9 2.4-.2 3.6 1.6 3.6 5.1 0 1.7.2 3.5 0 5.2-.3 2.5 1 4 2.8 5.4 2.4 1.8 4.9 3.7 7.2 5.6 1.7 1.4 2.4 3.2.9 5.1-1.5 1.9-3.4 1.8-5.2.4-3.8-3-7.5-5.9-11.2-9-.8-.7-1.3-2.2-1.5-3.4-.2-1.8 0-3.6 0-5.3z"/></svg>