<svg xmlns="http://www.w3.org/2000/svg" width="32" height="32"><path d="M11.366 22.564l1.29-1.807-1.413-1.414-1.808 1.29a4.967 4.967 0 0 0-1.07-.444L8 18H6l-.365 2.19a4.917 4.917 0 0 0-1.07.444l-1.808-1.29-1.414 1.413 1.29 1.807a5.015 5.015 0 0 0-.443 1.07L0 24v2l2.19.365c.106.377.255.736.443 1.07l-1.29 1.81 1.413 1.413 1.808-1.29c.334.187.693.337 1.07.442L6 32h2l.365-2.19a4.911 4.911 0 0 0 1.07-.442l1.808 1.29 1.414-1.415-1.29-1.807c.186-.334.336-.693.443-1.07L14 26v-2l-2.19-.365a4.888 4.888 0 0 0-.444-1.07zM7 27a2 2 0 1 1-.001-3.999A2 2 0 0 1 7 27zm25-15v-2l-2.105-.383a9.184 9.184 0 0 0-.148-.742l1.8-1.16-.767-1.848-2.092.453a7.682 7.682 0 0 0-.422-.63l1.22-1.76-1.416-1.414-1.76 1.22a8.99 8.99 0 0 0-.63-.423l.452-2.092-1.847-.763-1.16 1.8c-.243-.06-.49-.11-.742-.15L22 0h-2l-.383 2.105c-.25.04-.5.09-.743.148l-1.16-1.8-1.847.767.45 2.092a9.832 9.832 0 0 0-.628.422l-1.76-1.22-1.416 1.416 1.22 1.76c-.15.203-.292.414-.423.63l-2.09-.45-.766 1.848 1.8 1.16c-.06.244-.11.492-.15.742L10 10v2l2.105.383c.04.252.088.5.148.744l-1.8 1.158.767 1.848 2.092-.45c.13.216.272.425.422.628l-1.22 1.765 1.415 1.414 1.76-1.22c.2.15.41.29.626.422l-.45 2.093 1.847.764 1.16-1.8c.243.06.49.11.742.15L20 22h2l.383-2.105c.25-.04.5-.088.743-.148l1.16 1.8 1.847-.765-.45-2.094c.214-.13.425-.27.628-.422l1.76 1.22 1.417-1.413-1.22-1.762c.15-.2.292-.41.423-.626l2.09.45.767-1.847-1.8-1.158c.06-.245.11-.493.15-.745L32 12zm-11 3.35a4.35 4.35 0 1 1 0-8.7 4.35 4.35 0 0 1 0 8.7z"/></svg>