<svg xmlns="http://www.w3.org/2000/svg" viewBox="-247 235 32 32"><path fill="#1D1D1B" d="M-217.7 252.7c1.6-.5 2.7-2 2.7-3.8 0-2.3-1.9-4.1-4.2-4-.5 0-1 .2-1.4.4v-4.1c0-1.3-1.1-2.4-2.4-2.4l-1.4.2h-.4l-5.9-.1h-.4l-5.9.1h-.4l-1.4-.2c-1.3 0-2.4 1.1-2.4 2.4v4.1c-.4-.2-.9-.4-1.5-.4-2.3-.1-4.2 1.7-4.2 4 0 1.8 1.1 3.2 2.7 3.8.2.1.3.3.3.5v4.3l-1.4 5.2c0 .3.2.5.5.5h27.5c.3 0 .5-.2.5-.5l-1.2-4.6v-5c-.1-.2.1-.4.3-.4zm-5.2 2.6c0 .6-.4 1-1 1h-14.2c-.6 0-1-.4-1-1v-2.8c0-.6.4-1 1-1h14.2c.6 0 1 .4 1 1v2.8z"/></svg>