<svg xmlns="http://www.w3.org/2000/svg" width="18" height="18"><path fill="#444545" d="M6.592 14.28l-.91.905a2.04 2.04 0 0 1-2.863 0c-.38-.377-.59-.877-.59-1.408s.21-1.03.585-1.408L6.17 9.04c.696-.69 2.003-1.703 2.955-.758a1.115 1.115 0 1 0 1.572-1.584c-1.62-1.607-4.012-1.31-6.097.758l-3.353 3.327C.442 11.585 0 12.647 0 13.777s.442 2.192 1.248 2.99C2.075 17.59 3.162 18 4.25 18s2.175-.41 3.003-1.232l.912-.904a1.116 1.116 0 0 0-1.573-1.583zm10.16-12.92c-1.74-1.726-4.17-1.82-5.78-.222L9.834 2.265a1.115 1.115 0 1 0 1.571 1.583l1.135-1.126c.835-.828 1.927-.485 2.64.222.38.376.588.876.588 1.408 0 .532-.21 1.032-.588 1.408l-3.578 3.548c-1.635 1.623-2.402.86-2.73.536a1.114 1.114 0 1 0-1.571 1.582c.75.746 1.61 1.115 2.51 1.115 1.1 0 2.26-.55 3.365-1.65l3.576-3.544C17.557 6.546 18 5.48 18 4.35s-.443-2.19-1.248-2.99z"/></svg>