<svg xmlns="http://www.w3.org/2000/svg" width="24" height="24"><path fill="#fff" d="M8.017 8.685c-3.252 1.887-3.065 4.96-2.954 6.1 4.202-4.98 10.486-4.737 10.486-4.737s-8.91 3.056-11.525 9.185c-.207.483.97 1.11 1.238.54.8-1.704 1.917-2.982 1.917-2.982 1.647.613 4.497 1.333 6.515-.088 2.685-1.89 2.408-6.074 6.24-8.11.893-.478-7.507-2.467-11.918.093zM12 0C5.372 0 0 5.372 0 12c0 6.627 5.372 12 12 12s12-5.373 12-12c0-6.628-5.372-12-12-12zm0 22.5C6.2 22.5 1.5 17.8 1.5 12S6.2 1.5 12 1.5 22.5 6.2 22.5 12 17.8 22.5 12 22.5z"/></svg>