<svg xmlns="http://www.w3.org/2000/svg" viewBox="581 768.6 32 23.3"><path fill="#444" d="M594.8 789.9c0 1.2 1 2.1 2.1 2.1s2.1-1 2.1-2.1-1-2.1-2.1-2.1c-1.2-.1-2.1.9-2.1 2.1zm2.2-21.3c-6.5 0-12.1 2.8-16 7.2l1.6 1.4c3.5-3.9 8.6-6.5 14.5-6.5 5.7 0 10.8 2.6 14.4 6.5l1.6-1.4c-4.1-4.4-9.8-7.2-16.1-7.2zm0 6.4c-4.5 0-8.5 2-11.2 5.1l1.5 1.4c2.3-2.7 5.7-4.4 9.6-4.4 3.9 0 7.2 1.7 9.6 4.4l1.6-1.4c-2.7-3.1-6.7-5.1-11.1-5.1zm0 6.4c-2.6 0-4.9 1.2-6.4 2.9l1.6 1.4c1.2-1.4 2.9-2.1 4.8-2.1s3.6.9 4.8 2.1l1.6-1.4c-1.7-1.8-3.9-2.9-6.4-2.9z"/></svg>