<?xml version="1.0" encoding="utf-8"?>
<!-- Generator: Adobe Illustrator 16.0.4, SVG Export Plug-In . SVG Version: 6.00 Build 0)  -->
<!DOCTYPE svg PUBLIC "-//W3C//DTD SVG 1.1//EN" "http://www.w3.org/Graphics/SVG/1.1/DTD/svg11.dtd">
<svg version="1.1" id="Layer_1" xmlns="http://www.w3.org/2000/svg" xmlns:xlink="http://www.w3.org/1999/xlink" x="0px" y="0px"
	 width="16px" height="16px" viewBox="248 248 16 16" enable-background="new 248 248 16 16" xml:space="preserve">
<path fill="#DD4B39" d="M256.735,249.241c0,0-3.14,0-4.187,0c-1.877,0-3.643,1.422-3.643,3.069c0,1.683,1.279,3.042,3.188,3.042
	c0.133,0,0.262-0.003,0.388-0.012c-0.124,0.237-0.212,0.504-0.212,0.782c0,0.468,0.251,0.847,0.57,1.157
	c-0.24,0-0.473,0.007-0.726,0.007c-2.325,0-4.114,1.48-4.114,3.016c0,1.513,1.961,2.459,4.287,2.459c2.65,0,4.114-1.504,4.114-3.017
	c0-1.212-0.357-1.938-1.463-2.721c-0.378-0.269-1.102-0.919-1.102-1.302c0-0.449,0.128-0.67,0.803-1.198
	c0.692-0.541,1.183-1.302,1.183-2.186c0-1.053-0.469-2.08-1.35-2.418h1.327L256.735,249.241z M255.273,259.482
	c0.033,0.141,0.051,0.284,0.051,0.432c0,1.222-0.787,2.177-3.046,2.177c-1.607,0-2.767-1.018-2.767-2.239
	c0-1.197,1.439-2.194,3.046-2.177c0.375,0.004,0.725,0.063,1.042,0.167C254.471,258.448,255.097,258.791,255.273,259.482z
	 M252.7,254.925c-1.079-0.032-2.104-1.207-2.29-2.623c-0.186-1.417,0.537-2.5,1.616-2.468c1.078,0.032,2.104,1.169,2.29,2.585
	C254.502,253.835,253.778,254.957,252.7,254.925z M261,252.241v-3h-1v3h-3v1h3v3h1v-3h3v-1H261z"/>
</svg>
