<?xml version="1.0" encoding="utf-8"?>
<!-- Generator: Adobe Illustrator 16.0.4, SVG Export Plug-In . SVG Version: 6.00 Build 0)  -->
<!DOCTYPE svg PUBLIC "-//W3C//DTD SVG 1.1//EN" "http://www.w3.org/Graphics/SVG/1.1/DTD/svg11.dtd">
<svg version="1.1" id="Layer_1" xmlns="http://www.w3.org/2000/svg" xmlns:xlink="http://www.w3.org/1999/xlink" x="0px" y="0px"
	 width="16px" height="16px" viewBox="248 248 16 16" enable-background="new 248 248 16 16" xml:space="preserve">
<path fill="#517FA4" d="M261.344,248h-10.688c-1.461,0-2.656,1.195-2.656,2.656v10.688c0,1.461,1.195,2.656,2.656,2.656h10.688
	c1.461,0,2.656-1.195,2.656-2.656v-10.688C264,249.195,262.805,248,261.344,248z M253.122,255h5.756c0.109,0.313,0.169,0.65,0.169,1
	c0,1.68-1.367,3.047-3.047,3.047c-1.68,0-3.047-1.367-3.047-3.047C252.953,255.65,253.013,255.313,253.122,255z M262,255.001V259v2
	c0,0.55-0.45,1-1,1h-10c-0.55,0-1-0.45-1-1v-2v-3.999V255h1.564c-0.072,0.322-0.111,0.656-0.111,1c0,2.507,2.04,4.547,4.547,4.547
	c2.508,0,4.547-2.04,4.547-4.547c0-0.344-0.039-0.678-0.111-1L262,255.001L262,255.001z M262,251.5c0,0.275-0.225,0.5-0.5,0.5h-1
	c-0.275,0-0.5-0.225-0.5-0.5v-1c0-0.275,0.225-0.5,0.5-0.5h1c0.275,0,0.5,0.225,0.5,0.5V251.5z"/>
</svg>
