<?xml version="1.0" encoding="utf-8"?>
<!-- Generator: Adobe Illustrator 16.0.4, SVG Export Plug-In . SVG Version: 6.00 Build 0)  -->
<!DOCTYPE svg PUBLIC "-//W3C//DTD SVG 1.1//EN" "http://www.w3.org/Graphics/SVG/1.1/DTD/svg11.dtd">
<svg version="1.1" id="nebson_x5F_locked" xmlns="http://www.w3.org/2000/svg" xmlns:xlink="http://www.w3.org/1999/xlink" x="0px"
	 y="0px" width="16px" height="16px" viewBox="42 42 16 16" enable-background="new 42 42 16 16" xml:space="preserve">
<g>
	<path fill="#555555" d="M55.193,49.579h-0.562v-2.807h-0.007c0.002-0.047,0.007-0.093,0.007-0.141C54.632,44.074,52.559,42,50,42
		c-2.556,0-4.63,2.074-4.63,4.631c0,0.048,0.004,0.094,0.005,0.141H45.37v2.807h-0.562c-0.465,0-0.842,0.377-0.842,0.842v6.737
		c0,0.465,0.376,0.842,0.842,0.842h10.386c0.465,0,0.842-0.377,0.842-0.842v-6.737C56.035,49.956,55.658,49.579,55.193,49.579z
		 M52.387,46.772v2.807h-4.773v-2.807h0.008c-0.003-0.047-0.008-0.093-0.008-0.141c0-1.317,1.068-2.385,2.386-2.385
		c1.317,0,2.387,1.068,2.387,2.385c0,0.048-0.005,0.094-0.008,0.141H52.387z"/>
</g>
</svg>
