<?xml version="1.0" encoding="utf-8"?>
<!-- Generator: Adobe Illustrator 16.0.4, SVG Export Plug-In . SVG Version: 6.00 Build 0)  -->
<!DOCTYPE svg PUBLIC "-//W3C//DTD SVG 1.1//EN" "http://www.w3.org/Graphics/SVG/1.1/DTD/svg11.dtd">
<svg version="1.1" id="Layer_1" xmlns="http://www.w3.org/2000/svg" xmlns:xlink="http://www.w3.org/1999/xlink" x="0px" y="0px"
	 width="16px" height="16px" viewBox="0 0 16 16" enable-background="new 0 0 16 16" xml:space="preserve">
<path fill="#444444" d="M0,8c0,4.419,3.582,8,8,8c4.418,0,8-3.581,8-8c0-4.418-3.582-8-8-8C3.582,0,0,3.582,0,8z M14,8
	c0,1.145-0.32,2.214-0.877,3.124L4.876,2.877C5.786,2.32,6.855,2,8,2C11.313,2,14,4.687,14,8z M2,8c0-1.145,0.32-2.213,0.876-3.123
	l8.247,8.247C10.213,13.68,9.145,14,8,14C4.687,14,2,11.313,2,8z"/>
</svg>
