<?xml version="1.0" encoding="utf-8"?>
<!-- Generator: Adobe Illustrator 16.0.4, SVG Export Plug-In . SVG Version: 6.00 Build 0)  -->
<!DOCTYPE svg PUBLIC "-//W3C//DTD SVG 1.1//EN" "http://www.w3.org/Graphics/SVG/1.1/DTD/svg11.dtd">
<svg version="1.1" id="Layer_1" xmlns="http://www.w3.org/2000/svg" xmlns:xlink="http://www.w3.org/1999/xlink" x="0px" y="0px"
	 width="16px" height="16.002px" viewBox="-0.002 249.498 16 16.002" enable-background="new -0.002 249.498 16 16.002"
	 xml:space="preserve">
<path fill="#00ACED" d="M15.998,252.537c-0.589,0.261-1.221,0.438-1.885,0.517c0.678-0.406,1.198-1.049,1.443-1.816
	c-0.634,0.376-1.337,0.649-2.084,0.796c-0.599-0.638-1.452-1.037-2.396-1.037c-1.813,0-3.283,1.47-3.283,3.283
	c0,0.257,0.029,0.508,0.085,0.748c-2.728-0.137-5.147-1.444-6.766-3.43c-0.282,0.484-0.444,1.048-0.444,1.65
	c0,1.139,0.58,2.144,1.46,2.732c-0.538-0.017-1.044-0.165-1.487-0.411c0,0.014,0,0.027,0,0.042c0,1.59,1.132,2.917,2.633,3.218
	c-0.275,0.076-0.565,0.115-0.865,0.115c-0.211,0-0.417-0.02-0.618-0.059c0.417,1.305,1.63,2.254,3.066,2.279
	c-1.124,0.881-2.539,1.406-4.077,1.406c-0.265,0-0.526-0.016-0.783-0.047C1.451,263.457,3.176,264,5.03,264
	c6.038,0,9.34-5.002,9.34-9.339c0-0.142-0.003-0.284-0.01-0.425C15.001,253.773,15.558,253.195,15.998,252.537z"/>
</svg>
