<?xml version="1.0" encoding="utf-8"?>
<!-- Generator: Adobe Illustrator 16.0.4, SVG Export Plug-In . SVG Version: 6.00 Build 0)  -->
<!DOCTYPE svg PUBLIC "-//W3C//DTD SVG 1.1//EN" "http://www.w3.org/Graphics/SVG/1.1/DTD/svg11.dtd">
<svg version="1.1" id="Layer_1" xmlns="http://www.w3.org/2000/svg" xmlns:xlink="http://www.w3.org/1999/xlink" x="0px" y="0px"
	 width="16px" height="16px" viewBox="248 248 16 16" enable-background="new 248 248 16 16" xml:space="preserve">
<g>
	<path fill="#BB0000" d="M261,250h-10c-1.65,0-3,1.35-3,3v6c0,1.65,1.35,3,3,3h10c1.65,0,3-1.35,3-3v-6
		C264,251.35,262.65,250,261,250z M263,259c0,0.531-0.209,1.032-0.588,1.412c-0.38,0.379-0.881,0.588-1.412,0.588h-10
		c-0.531,0-1.032-0.209-1.412-0.588c-0.379-0.38-0.588-0.881-0.588-1.412v-6c0-0.531,0.209-1.032,0.588-1.412
		c0.379-0.379,0.881-0.588,1.412-0.588h10c0.531,0,1.032,0.209,1.412,0.588c0.379,0.38,0.588,0.881,0.588,1.412V259z"/>
	<polygon fill="#BB0000" points="254,260 259,256 254,252 	"/>
</g>
</svg>
