<svg xmlns="http://www.w3.org/2000/svg" width="90" height="90" viewBox="0 0 90 90"><path fill="#fff" d="M77.37-.002H12.63C5.657-.002 0 5.656 0 12.605v64.61C0 84.196 5.658 90 12.63 90h64.74C84.343 90 90 84.195 90 77.217V12.605C90 5.645 84.342-.002 77.37-.002zm4.735 73.39c0 5.746-2.99 8.722-8.73 8.722h-56.75c-5.73 0-8.735-2.976-8.735-8.72V16.61c0-5.73 2.995-8.73 8.735-8.73H71.69c5.743 0 10.415 2.994 10.415 8.73v56.78zm-65.48 0h24.743v-24.7H16.625v24.7zM48.63 41.312h24.745v-24.7H48.63v24.7zm-32.005 0H41.37v-24.7H16.624v24.7z"/></svg>