<?xml version="1.0" encoding="utf-8"?>
<!-- Generator: Adobe Illustrator 16.0.4, SVG Export Plug-In . SVG Version: 6.00 Build 0)  -->
<!DOCTYPE svg PUBLIC "-//W3C//DTD SVG 1.1//EN" "http://www.w3.org/Graphics/SVG/1.1/DTD/svg11.dtd">
<svg version="1.1" id="Layer_1" xmlns="http://www.w3.org/2000/svg" xmlns:xlink="http://www.w3.org/1999/xlink" x="0px" y="0px"
	 width="24px" height="24px" viewBox="0 0 24 24" enable-background="new 0 0 24 24" xml:space="preserve">
<path fill="#444545" d="M12,0C5.373,0,0,5.373,0,12c0,6.627,5.373,12,12,12c6.627,0,12-5.373,12-12C24,5.373,18.627,0,12,0z
	 M19.453,19.395c-1.084-1.785-4.486-3.244-5.525-3.41c-0.385-0.061-0.393-1.119-0.393-1.119s1.129-1.119,1.377-2.623
	c0.662,0,1.072-1.6,0.408-2.162c0.027-0.592,0.852-4.652-3.32-4.652c-4.172,0-3.348,4.06-3.321,4.652
	c-0.663,0.563-0.253,2.162,0.409,2.162c0.246,1.506,1.377,2.625,1.377,2.625s-0.01,1.057-0.394,1.119
	c-1.039,0.164-4.441,1.623-5.524,3.408C2.664,17.496,1.5,14.885,1.5,12C1.5,6.201,6.201,1.5,12,1.5S22.5,6.201,22.5,12
	C22.5,14.885,21.336,17.496,19.453,19.395z"/>
</svg>
