<?xml version="1.0" encoding="utf-8"?>
<!-- Generator: Adobe Illustrator 16.0.4, SVG Export Plug-In . SVG Version: 6.00 Build 0)  -->
<!DOCTYPE svg PUBLIC "-//W3C//DTD SVG 1.1//EN" "http://www.w3.org/Graphics/SVG/1.1/DTD/svg11.dtd">
<svg version="1.1" id="Layer_1" xmlns="http://www.w3.org/2000/svg" xmlns:xlink="http://www.w3.org/1999/xlink" x="0px" y="0px"
	 width="24px" height="24px" viewBox="0 0 24 24" enable-background="new 0 0 24 24" xml:space="preserve">
<g>
	<g>
		<path fill="#444545" d="M12,0C5.372,0,0,5.371,0,12c0,6.627,5.372,12,12,12c6.628,0,12-5.373,12-12C24,5.371,18.628,0,12,0z
			 M12,22.5C6.201,22.5,1.5,17.799,1.5,12S6.201,1.5,12,1.5S22.5,6.201,22.5,12S17.799,22.5,12,22.5z M6,15.935h3.545L12,18.391
			l2.455-2.456H18v-9H6V15.935z M8,8.935h8v1H8V8.935z M8,10.935h8v1H8V10.935z M8,12.935h8v1H8V12.935z"/>
	</g>
</g>
</svg>
