<?xml version="1.0" encoding="utf-8"?>
<!-- Generator: Adobe Illustrator 16.0.4, SVG Export Plug-In . SVG Version: 6.00 Build 0)  -->
<!DOCTYPE svg PUBLIC "-//W3C//DTD SVG 1.1//EN" "http://www.w3.org/Graphics/SVG/1.1/DTD/svg11.dtd">
<svg version="1.1" id="Layer_1" xmlns="http://www.w3.org/2000/svg" xmlns:xlink="http://www.w3.org/1999/xlink" x="0px" y="0px"
	 width="24px" height="24px" viewBox="0 0 24 24" enable-background="new 0 0 24 24" xml:space="preserve">
<g>
	<g>
		<path fill="#444545" d="M16,8h-3v3h3V8z M16,13h-3v3h3V13z M16,18h-3v3h3V18z M21,8h-3v3h3V8z M21,13h-3v3h3V13z M11,18H8v3h3V18z
			 M21,0v2h-4V0H7v2H3V0H0v24h24V0H21z M23,23H1V4h22V23z M6,18H3v3h3V18z M11,13H8v3h3V13z M6,13H3v3h3V13z M11,8H8v3h3V8z"/>
	</g>
</g>
</svg>
