<?xml version="1.0" encoding="utf-8"?>
<!-- Generator: Adobe Illustrator 16.0.4, SVG Export Plug-In . SVG Version: 6.00 Build 0)  -->
<!DOCTYPE svg PUBLIC "-//W3C//DTD SVG 1.1//EN" "http://www.w3.org/Graphics/SVG/1.1/DTD/svg11.dtd">
<svg version="1.1" id="Layer_1" xmlns="http://www.w3.org/2000/svg" xmlns:xlink="http://www.w3.org/1999/xlink" x="0px" y="0px"
	 width="32px" height="22px" viewBox="0 0 32 22" enable-background="new 0 0 32 22" xml:space="preserve">
<g>
	<g>
		<path d="M16,6C9.457,6,3.649,9.143,0,14c3.649,4.859,9.457,8,16,8s12.352-3.141,16-8C28.352,9.143,22.543,6,16,6z M18,9
			c1.105,0,2,0.895,2,2s-0.895,2-2,2s-2-0.895-2-2S16.895,9,18,9z M24.175,18.041c-1.239,0.633-2.551,1.121-3.901,1.449
			C18.884,19.828,17.445,20,16,20c-1.446,0-2.884-0.172-4.274-0.51c-1.349-0.328-2.662-0.816-3.901-1.449
			c-1.97-1.006-3.757-2.387-5.24-4.041c1.482-1.652,3.27-3.035,5.239-4.041c1.011-0.516,2.07-0.934,3.159-1.25
			C10.362,9.654,10,10.785,10,12c0,3.314,2.686,6,6,6c3.314,0,6-2.686,6-6c0-1.215-0.361-2.346-0.984-3.291
			c1.09,0.314,2.149,0.734,3.159,1.25c1.97,1.008,3.757,2.389,5.239,4.041C27.932,15.654,26.145,17.035,24.175,18.041z
			 M26.904,2.617C23.506,0.881,19.838,0,16,0S8.494,0.881,5.096,2.617C3.26,3.555,1.542,4.738,0,6.119v2.787
			c1.729-1.83,3.772-3.367,6.006-4.51C9.119,2.807,12.482,2,16,2c3.518,0,6.881,0.807,9.994,2.398
			c2.234,1.143,4.277,2.68,6.006,4.51V6.119C30.458,4.738,28.74,3.555,26.904,2.617z"/>
	</g>
</g>
</svg>
