<?xml version="1.0" encoding="utf-8"?>
<!-- Generator: Adobe Illustrator 16.0.4, SVG Export Plug-In . SVG Version: 6.00 Build 0)  -->
<!DOCTYPE svg PUBLIC "-//W3C//DTD SVG 1.1//EN" "http://www.w3.org/Graphics/SVG/1.1/DTD/svg11.dtd">
<svg version="1.1" id="Layer_1" xmlns="http://www.w3.org/2000/svg" xmlns:xlink="http://www.w3.org/1999/xlink" x="0px" y="0px"
	 width="18px" height="15.75px" viewBox="0 0 18 15.75" enable-background="new 0 0 18 15.75" xml:space="preserve">
<path fill="#444545" d="M13.219,1.125c2.016,0,3.656,1.64,3.656,3.656c0,1.252-0.41,2.538-1.219,3.82
	c-0.682,1.08-1.642,2.16-2.854,3.207c-1.507,1.301-3.036,2.23-3.802,2.662c-0.758-0.428-2.265-1.343-3.766-2.633
	c-1.222-1.051-2.189-2.133-2.876-3.217C1.54,7.333,1.125,6.041,1.125,4.781c0-2.016,1.64-3.656,3.656-3.656
	c1.352,0,2.588,0.742,3.227,1.936L9,4.916l0.992-1.855C10.631,1.867,11.867,1.125,13.219,1.125 M13.219,0
	C11.393,0,9.805,1.024,9,2.53C8.195,1.024,6.608,0,4.781,0C2.141,0,0,2.141,0,4.781C0,11.25,9,15.75,9,15.75s9-4.5,9-10.969
	C18,2.141,15.859,0,13.219,0L13.219,0z"/>
</svg>
