<?xml version="1.0" encoding="utf-8"?>
<!-- Generator: Adobe Illustrator 16.0.4, SVG Export Plug-In . SVG Version: 6.00 Build 0)  -->
<!DOCTYPE svg PUBLIC "-//W3C//DTD SVG 1.1//EN" "http://www.w3.org/Graphics/SVG/1.1/DTD/svg11.dtd">
<svg version="1.1" id="Layer_1" xmlns="http://www.w3.org/2000/svg" xmlns:xlink="http://www.w3.org/1999/xlink" x="0px" y="0px"
	 width="22.156px" height="18.721px" viewBox="0 0 22.156 18.721" enable-background="new 0 0 22.156 18.721" xml:space="preserve">
<g>
	<path fill="#444545" d="M12.097,0c0,0-4.348,0-5.798,0C3.7,0,1.252,1.971,1.252,4.251c0,2.332,1.773,4.211,4.419,4.211
		c0.183,0,0.362-0.002,0.536-0.016c-0.172,0.328-0.294,0.7-0.294,1.085c0,0.646,0.348,1.172,0.789,1.6
		c-0.333,0-0.654,0.009-1.005,0.009C2.479,11.143,0,13.192,0,15.318c0,2.093,2.716,3.402,5.936,3.402
		c3.67,0,5.697-2.082,5.697-4.176c0-1.679-0.497-2.684-2.028-3.768C9.081,10.407,8.08,9.504,8.08,8.973
		c0-0.62,0.177-0.926,1.113-1.656c0.959-0.75,1.637-1.804,1.637-3.027c0-1.459-0.649-2.88-1.868-3.349h1.837L12.097,0z
		 M10.071,14.183c0.046,0.194,0.072,0.395,0.072,0.598c0,1.693-1.091,3.016-4.22,3.016c-2.226,0-3.832-1.408-3.832-3.101
		c0-1.659,1.994-3.039,4.219-3.016c0.52,0.005,1.004,0.09,1.442,0.23C8.961,12.752,9.827,13.227,10.071,14.183z M6.509,7.873
		C5.017,7.827,3.596,6.202,3.339,4.24C3.081,2.279,4.082,0.778,5.575,0.821c1.493,0.045,2.913,1.619,3.171,3.58
		C9.004,6.363,8.002,7.918,6.509,7.873z M18.002,4.155V0h-1.385v4.155h-4.154V5.54h4.154v4.154h1.385V5.54h4.154V4.155H18.002z"/>
</g>
</svg>
