<?xml version="1.0" encoding="utf-8"?>
<!-- Generator: Adobe Illustrator 16.0.4, SVG Export Plug-In . SVG Version: 6.00 Build 0)  -->
<!DOCTYPE svg PUBLIC "-//W3C//DTD SVG 1.1//EN" "http://www.w3.org/Graphics/SVG/1.1/DTD/svg11.dtd">
<svg version="1.1" id="Layer_1" xmlns="http://www.w3.org/2000/svg" xmlns:xlink="http://www.w3.org/1999/xlink" x="0px" y="0px"
	 width="24px" height="21px" viewBox="0 0 24 21" enable-background="new 0 0 24 21" xml:space="preserve">
<path fill="#444545" d="M13.961,0h-1.939H8.143h-1.94H0v6.109v2.037v4.073v2.036v4.073V21h2.324h3.879h1.94h3.878h1.939h7.758H24
	v-2.672v-4.073v-2.036V8.146V6.109V0H13.961z M6,1h4v4H6V1z M1,1h4v4H1V1z M5,15H1v-4h4V15z M10,15H6v-4h4V15z M23,15H11v-4h12V15z
	 M19,6h4v4h-4V6z M14,6h4v4h-4V6z M1,6h12v4H1V6z M19,16h4v4h-4V16z M14,16h4v4h-4V16z M1,16h12v4H1V16z M23,5H11V1h12V5z"/>
</svg>
