<?xml version="1.0" encoding="utf-8"?>
<!-- Generator: Adobe Illustrator 16.0.4, SVG Export Plug-In . SVG Version: 6.00 Build 0)  -->
<!DOCTYPE svg PUBLIC "-//W3C//DTD SVG 1.1//EN" "http://www.w3.org/Graphics/SVG/1.1/DTD/svg11.dtd">
<svg version="1.1" id="Layer_1" xmlns="http://www.w3.org/2000/svg" xmlns:xlink="http://www.w3.org/1999/xlink" x="0px" y="0px"
	 width="20.311px" height="19.414px" viewBox="0 0 20.311 19.414" enable-background="new 0 0 20.311 19.414" xml:space="preserve">
<g>
	<g>
		<path fill="#444545" d="M0.257,19.414h4.354V6.315H0.257V19.414z M15.298,6.007c-2.312,0-3.346,1.269-3.924,2.164V6.316H7.02
			c0.06,1.228,0,13.098,0,13.098h4.354v-7.316c0-0.392,0.028-0.781,0.143-1.061c0.314-0.782,1.031-1.593,2.233-1.593
			c1.576,0,2.206,1.201,2.206,2.961v7.009h4.353l0.002-7.51C20.311,7.88,18.161,6.007,15.298,6.007z M2.463,0
			C0.973,0,0,0.978,0,2.263c0,1.258,0.942,2.264,2.404,2.264h0.029c1.52,0,2.462-1.006,2.464-2.264C4.868,0.978,3.953,0,2.463,0z"/>
	</g>
</g>
</svg>
