<?xml version="1.0" encoding="utf-8"?>
<!-- Generator: Adobe Illustrator 16.0.4, SVG Export Plug-In . SVG Version: 6.00 Build 0)  -->
<!DOCTYPE svg PUBLIC "-//W3C//DTD SVG 1.1//EN" "http://www.w3.org/Graphics/SVG/1.1/DTD/svg11.dtd">
<svg version="1.1" id="Layer_1" xmlns="http://www.w3.org/2000/svg" xmlns:xlink="http://www.w3.org/1999/xlink" x="0px" y="0px"
	 width="24px" height="24px" viewBox="0 0 24 24" enable-background="new 0 0 24 24" xml:space="preserve">
<g>
	<path fill="#444545" d="M18,3.75l-12-3L0,4.5V24l6-3.75l12,3l6-3.75V0L18,3.75z M16,21.672l-8-2.214V2.329l8,2.214V21.672z
		 M5.83,19.177l-0.36,0.226L1,22.195V5.055l5.17-3.231L7,2.031v17.438l-0.757-0.189L5.83,19.177z M23,18.945l-5.17,3.231L17,21.969
		V4.531l0.758,0.189l0.412,0.103l0.359-0.226L23,1.805V18.945z"/>
</g>
</svg>
