<?xml version="1.0" encoding="utf-8"?>
<!-- Generator: Adobe Illustrator 16.0.4, SVG Export Plug-In . SVG Version: 6.00 Build 0)  -->
<!DOCTYPE svg PUBLIC "-//W3C//DTD SVG 1.1//EN" "http://www.w3.org/Graphics/SVG/1.1/DTD/svg11.dtd">
<svg version="1.1" id="Layer_1" xmlns="http://www.w3.org/2000/svg" xmlns:xlink="http://www.w3.org/1999/xlink" x="0px" y="0px"
	 width="22.334px" height="22.333px" viewBox="0 0 22.334 22.333" enable-background="new 0 0 22.334 22.333" xml:space="preserve">
<path fill="#444545" d="M16.377,13.4c-1.488,1.488-1.488,2.978-2.978,2.978c-1.487,0-2.978-1.489-4.465-2.978
	c-1.49-1.488-2.978-2.979-2.978-4.468c0-1.488,1.488-1.488,2.978-2.977C10.421,4.466,5.956,0,4.466,0C2.978,0,0,4.466,0,4.466
	c0,2.979,3.059,9.017,5.956,11.912c2.895,2.895,8.933,5.955,11.911,5.955c0,0,4.467-2.977,4.467-4.465
	C22.334,16.378,17.867,11.912,16.377,13.4z"/>
</svg>
