<?xml version="1.0" encoding="utf-8"?>
<!-- Generator: Adobe Illustrator 16.0.4, SVG Export Plug-In . SVG Version: 6.00 Build 0)  -->
<!DOCTYPE svg PUBLIC "-//W3C//DTD SVG 1.1//EN" "http://www.w3.org/Graphics/SVG/1.1/DTD/svg11.dtd">
<svg version="1.1" id="Layer_1" xmlns="http://www.w3.org/2000/svg" xmlns:xlink="http://www.w3.org/1999/xlink" x="0px" y="0px"
	 width="24.001px" height="24px" viewBox="0 0 24.001 24" enable-background="new 0 0 24.001 24" xml:space="preserve">
<path fill="#444545" d="M23.256,20.423l-5.686-4.835c-0.587-0.529-1.217-0.771-1.723-0.748C17.188,13.269,18,11.228,18,9
	c0-4.97-4.03-9-9-9S0,4.03,0,9c0,4.97,4.03,9,9,9c2.229,0,4.27-0.812,5.84-2.152c-0.023,0.507,0.219,1.135,0.75,1.723l4.834,5.686
	c0.828,0.92,2.18,0.998,3.006,0.173C24.254,22.604,24.176,21.25,23.256,20.423z M9,15.984c-3.857,0-6.984-3.128-6.984-6.985
	c0-3.856,3.127-6.984,6.984-6.984S15.984,5.143,15.984,9C15.984,12.856,12.857,15.984,9,15.984z"/>
</svg>
