<?xml version="1.0" encoding="utf-8"?>
<!-- Generator: Adobe Illustrator 16.0.4, SVG Export Plug-In . SVG Version: 6.00 Build 0)  -->
<!DOCTYPE svg PUBLIC "-//W3C//DTD SVG 1.1//EN" "http://www.w3.org/Graphics/SVG/1.1/DTD/svg11.dtd">
<svg version="1.1" id="Layer_1" xmlns="http://www.w3.org/2000/svg" xmlns:xlink="http://www.w3.org/1999/xlink" x="0px" y="0px"
	 width="18px" height="18px" viewBox="0 0 18 18" enable-background="new 0 0 18 18" xml:space="preserve">
<g>
	<path fill="#999999" d="M9,0C4.029,0,0,4.029,0,9s4.029,9,9,9s9-4.029,9-9S13.971,0,9,0z M9,16.875
		c-4.349,0-7.875-3.525-7.875-7.875c0-4.349,3.526-7.875,7.875-7.875c4.35,0,7.875,3.526,7.875,7.875
		C16.875,13.35,13.35,16.875,9,16.875z"/>
	<path fill="#999999" d="M8.12,4.283L6.388,6.014L9.274,8.9l-2.886,2.885l1.731,1.732L12.736,8.9L8.12,4.283z"/>
</g>
</svg>
