<?xml version="1.0" encoding="utf-8"?>
<!-- Generator: Adobe Illustrator 16.0.4, SVG Export Plug-In . SVG Version: 6.00 Build 0)  -->
<!DOCTYPE svg PUBLIC "-//W3C//DTD SVG 1.1//EN" "http://www.w3.org/Graphics/SVG/1.1/DTD/svg11.dtd">
<svg version="1.1" id="Layer_1" xmlns="http://www.w3.org/2000/svg" xmlns:xlink="http://www.w3.org/1999/xlink" x="0px" y="0px"
	 width="18px" height="18px" viewBox="0 0 18 18" enable-background="new 0 0 18 18" xml:space="preserve">
<path fill="#444545" d="M15.188,12.375c-0.793,0-1.511,0.33-2.021,0.858L5.59,9.445C5.613,9.301,5.625,9.151,5.625,9
	S5.613,8.7,5.59,8.555l7.576-3.788c0.511,0.528,1.229,0.858,2.021,0.858C16.741,5.625,18,4.366,18,2.812C18,1.26,16.741,0,15.188,0
	s-2.812,1.26-2.812,2.812c0,0.151,0.012,0.301,0.035,0.445L4.834,7.046C4.323,6.518,3.605,6.188,2.812,6.188
	C1.259,6.188,0,7.447,0,9c0,1.554,1.259,2.812,2.812,2.812c0.793,0,1.511-0.33,2.021-0.858l7.576,3.788
	c-0.023,0.146-0.035,0.294-0.035,0.445c0,1.554,1.259,2.812,2.812,2.812S18,16.741,18,15.188C18,13.635,16.741,12.375,15.188,12.375
	z"/>
</svg>
