<?xml version="1.0" encoding="utf-8"?>
<!-- Generator: Adobe Illustrator 16.0.4, SVG Export Plug-In . SVG Version: 6.00 Build 0)  -->
<!DOCTYPE svg PUBLIC "-//W3C//DTD SVG 1.1//EN" "http://www.w3.org/Graphics/SVG/1.1/DTD/svg11.dtd">
<svg version="1.1" id="Layer_1" xmlns="http://www.w3.org/2000/svg" xmlns:xlink="http://www.w3.org/1999/xlink" x="0px" y="0px"
	 width="18px" height="18px" viewBox="0 0 18 18" enable-background="new 0 0 18 18" xml:space="preserve">
<g>
	<path fill="#444545" d="M6.592,14.281l-0.911,0.904c-0.789,0.782-2.074,0.783-2.862,0c-0.379-0.377-0.588-0.877-0.588-1.408
		s0.208-1.031,0.587-1.408l3.353-3.326C6.866,8.354,8.173,7.34,9.125,8.285c0.437,0.434,1.143,0.431,1.578-0.006
		c0.434-0.437,0.432-1.143-0.006-1.577C9.078,5.095,6.685,5.392,4.6,7.46l-3.353,3.327C0.442,11.585,0,12.647,0,13.777
		c0,1.131,0.442,2.192,1.248,2.991C2.075,17.59,3.162,18,4.25,18s2.175-0.41,3.003-1.232l0.912-0.904
		c0.438-0.434,0.439-1.141,0.005-1.577C7.736,13.85,7.029,13.847,6.592,14.281z M16.752,1.36c-1.739-1.726-4.171-1.819-5.781-0.222
		L9.835,2.265c-0.437,0.434-0.44,1.14-0.006,1.577c0.434,0.438,1.141,0.44,1.578,0.006l1.135-1.126
		c0.835-0.828,1.927-0.485,2.639,0.222c0.38,0.376,0.589,0.876,0.589,1.408c0,0.532-0.209,1.032-0.588,1.408l-3.578,3.548
		c-1.635,1.623-2.402,0.86-2.729,0.536C8.437,9.41,7.731,9.412,7.297,9.85c-0.434,0.438-0.432,1.143,0.006,1.576
		c0.75,0.746,1.608,1.115,2.506,1.115c1.1,0,2.262-0.554,3.367-1.65l3.576-3.548C17.557,6.543,18,5.481,18,4.351
		C18,3.221,17.557,2.159,16.752,1.36z"/>
</g>
</svg>
