<?xml version="1.0" encoding="utf-8"?>
<!-- Generator: Adobe Illustrator 16.0.4, SVG Export Plug-In . SVG Version: 6.00 Build 0)  -->
<!DOCTYPE svg PUBLIC "-//W3C//DTD SVG 1.1//EN" "http://www.w3.org/Graphics/SVG/1.1/DTD/svg11.dtd">
<svg version="1.1" id="Layer_1" xmlns="http://www.w3.org/2000/svg" xmlns:xlink="http://www.w3.org/1999/xlink" x="0px" y="0px"
	 width="22.156px" height="18.008px" viewBox="0 0 22.156 18.008" enable-background="new 0 0 22.156 18.008" xml:space="preserve">
<path fill="#444545" d="M22.156,2.131c-0.814,0.363-1.69,0.606-2.609,0.716c0.938-0.562,1.657-1.452,1.997-2.515
	c-0.878,0.521-1.851,0.9-2.885,1.104C17.829,0.552,16.648,0,15.34,0c-2.511,0-4.545,2.036-4.545,4.546
	c0,0.357,0.041,0.704,0.118,1.035C7.136,5.392,3.785,3.582,1.544,0.832C1.153,1.504,0.929,2.284,0.929,3.117
	c0,1.576,0.802,2.971,2.021,3.783C2.206,6.876,1.505,6.673,0.892,6.334C0.89,6.352,0.89,6.37,0.89,6.39
	c0,2.203,1.567,4.039,3.646,4.457c-0.38,0.105-0.782,0.162-1.197,0.162c-0.292,0-0.578-0.031-0.855-0.084
	c0.58,1.805,2.257,3.122,4.247,3.156c-1.557,1.221-3.516,1.949-5.646,1.949c-0.368,0-0.727-0.022-1.084-0.065
	c2.01,1.288,4.401,2.043,6.969,2.043c8.361,0,12.933-6.929,12.933-12.937c0-0.196-0.005-0.391-0.016-0.585
	C20.775,3.845,21.547,3.043,22.156,2.131z"/>
</svg>
