<?xml version="1.0" encoding="utf-8"?>
<!-- Generator: Adobe Illustrator 16.0.4, SVG Export Plug-In . SVG Version: 6.00 Build 0)  -->
<!DOCTYPE svg PUBLIC "-//W3C//DTD SVG 1.1//EN" "http://www.w3.org/Graphics/SVG/1.1/DTD/svg11.dtd">
<svg version="1.1" id="Layer_1" xmlns="http://www.w3.org/2000/svg" xmlns:xlink="http://www.w3.org/1999/xlink" x="0px" y="0px"
	 width="24px" height="24px" viewBox="0 0 24 24" enable-background="new 0 0 24 24" xml:space="preserve">
<g>
	<g>
		<path fill="#444545" d="M8.017,8.685c-3.252,1.887-3.065,4.962-2.954,6.099c4.202-4.978,10.486-4.736,10.486-4.736
			s-8.908,3.056-11.524,9.185c-0.207,0.483,0.969,1.111,1.238,0.541C6.063,18.068,7.18,16.79,7.18,16.79
			c1.647,0.613,4.497,1.332,6.516-0.089c2.684-1.889,2.408-6.074,6.239-8.111C20.828,8.114,12.428,6.125,8.017,8.685z"/>
	</g>
	<path fill="#444545" d="M12,0C5.372,0,0,5.372,0,12c0,6.627,5.372,12,12,12s12-5.373,12-12C24,5.372,18.628,0,12,0z M12,22.5
		C6.201,22.5,1.5,17.799,1.5,12C1.5,6.201,6.201,1.5,12,1.5c5.799,0,10.5,4.701,10.5,10.5C22.5,17.799,17.799,22.5,12,22.5z"/>
</g>
</svg>
