<svg xmlns="http://www.w3.org/2000/svg" viewBox="0 0 976.83 498.66"><defs><style>.a,.az,.ba,.bb{fill:none}.d{clip-path:url(#b)}.k{fill:#1b7749}.aa,.ac,.ad,.ae,.af,.ag,.aj,.ak,.al,.am,.ap,.aq,.as,.bd,.be,.bf,.k,.l,.r,.s,.x,.z{fill-rule:evenodd}.k{opacity:.58}.l{fill:#145b4a;opacity:.5}.x{fill:#0f473d}.ab{opacity:.3}.r{fill:#5ba576}.s{fill:#368372}.z{fill:#319881}.aa{fill:#51a08d}.ac{fill:#42aa4a}.ad{fill:#3c8761}.ae{fill:#2fa069}.af{fill:#4ebc8b}.ag{fill:#147b3e}.aj{fill:#4caa48}.ak{fill:#4d934d}.al{fill:#297c54}.am{fill:#199366}.ap{fill:#318049}.aq{fill:#2fa063}.as{fill:#6dbc95}.av{fill:#768d97}.ay{fill:#06538f}.az,.ba,.bb{stroke:#06538f;stroke-linecap:round;stroke-linejoin:round}.az,.bb{stroke-width:1.75px}.ba{stroke-width:1.59px}.bb{stroke-dasharray:2 5}.bc{fill:#fff}.bd{fill:#1c8246;opacity:.65}.be{fill:#5fb280}.bf{fill:#459168}</style><clipPath id="a"><path class="a" d="M0 0h976.83v498.66H0z"/></clipPath><clipPath id="b"><path class="a" d="M0-76.64h976.83v648H0z"/></clipPath></defs><g clip-path="url(#a)"><path fill="#376e35" opacity=".4" d="M0-76.64h976.83v648H0z"/><g class="d"><g opacity=".6"><g opacity=".64" fill-rule="evenodd"><path d="M80.34 795.08c-24.46 5.31-51.19-24-63.59-70.33C8 692.19-8.8 694.53-14.19 673.73c-12.07-46.54 9.05-106.91 27.31-130.48s26.24-31.34 63.62-42.87 54.44-49.11 92.39-36.85 51.82-4.66 63.23 34.82 36.33 29.5 42.28 63.38-1.82 41.86 13.53 68.52 34 50.46 17.71 90.79 12.77 25.18-40.5 67-74.47 28.96-102.19 36.09-38.62-38.66-82.85-29.05z" opacity=".84" fill="#1b7749"/><path d="M180.12 514.81c-8.64 1.88-18.08-8.49-22.46-24.84-3.08-11.5-9-10.67-10.93-18-4.26-16.44 3.19-37.76 9.64-46.09s9.27-11.07 22.47-15.14 19.23-17.34 32.63-13 18.31-1.65 22.33 12.29 12.84 10.42 14.94 22.39-.64 14.78 4.78 24.2 12 17.82 6.25 32.07 4.51 8.89-14.3 23.67-26.3 10.21-36.09 12.73-13.64-13.67-29.26-10.28zM40.67 543.25c-9.43 2-19.74-9.27-24.52-27.12-3.36-12.56-9.85-11.65-11.93-19.67-4.65-17.95 3.49-41.22 10.53-50.31s10.11-12.08 24.53-16.53 21-18.94 35.62-14.21 20-1.79 24.38 13.43 14 11.37 16.3 24.44-.7 16.14 5.22 26.41 13.11 19.46 6.83 35 4.92 9.71-15.62 25.84-28.71 11.15-39.4 13.91-14.89-14.9-31.94-11.19z" opacity=".58" fill="#44a057"/><path d="M-230.93 658.25c-24.46 5.31-51.19-24-63.59-70.33-8.71-32.56-25.55-30.22-30.94-51-12.07-46.54 9-106.91 27.31-130.47s26.23-31.35 63.61-42.88 54.45-49.11 92.4-36.85 51.82-4.66 63.23 34.82S-42.58 391-36.63 424.9s-1.82 41.86 13.53 68.52 34 50.46 17.71 90.79 12.77 25.19-40.5 67-74.47 28.92-102.19 36.07-38.62-38.63-82.85-29.03z" opacity=".75" fill="#1b7749"/></g><g opacity=".75"><path class="k" d="M218.3-19.72c-1.11 11.28 13.48 21.77 34.95 24.93 15.1 2.21 14.92 9.91 24.56 11.25 21.56 3 47.61-9.65 57.25-19.1s12.73-13.44 16-30.85 19.25-27 11.75-43.48-.61-23.55-19-26.61-15.17-14.8-30.72-15.71-18.73 3-31.52-2.5-24.47-12.67-41.75-3.21-12-4.43-28 21.71-9.12 35-10.88 47.85 19.37 15.33 17.36 35.72z"/><path class="k" d="M504-19.45c.91 10.78-13.16 20.59-33.69 23.32-14.43 1.92-14.37 9.26-23.58 10.41-20.62 2.57-45.31-9.84-54.38-19s-12-13-14.82-29.65-18-26.07-10.63-41.64.9-22.46 18.45-25.15 14.67-13.92 29.52-14.57 17.83 3.11 30.11-2 23.52-11.76 39.89-2.52 11.5-4.07 26.45 21.09 8.24 33.52 9.75 45.8S502.31-38.93 504-19.45z"/></g><path class="l" d="M-240.92-133.11c0-25 34.35-44.93 82.22-47.22 33.67-1.61 34.95-18.56 56.42-19.42 48-1.92 102.56 31.53 121.71 54.37s25.07 32.29 28.4 71.27S84.28-10.48 64.24 24 57.8 75.63 16.8 78.4s-36.54 29.24-70.91 27.87-40.52-10.66-69.83-1.27-56.53 22.54-92.48-2-27.32 7.13-56.91-53.8-12.45-78.91-13.56-107.51 45.97-29.54 45.97-74.8z"/><path d="M6.21-37c-10-8.25-6.59-28.5 8.26-48.34 10.45-14 4.12-20 10.85-28.89 15.06-19.77 46.35-30.48 61.77-30.59s21.13.64 37.77 12.16 37.37 6.43 44.52 25.77 18.47 19.58 6.06 36.89-.37 24.2-12.24 37.45-17.6 12.6-23.53 27.36S130 24.78 108.42 31s-6.15 13.24-40.19 5S32.66 15 20.89 6s3.37-28.06-14.68-43z" fill="#4f9e80" opacity=".58" fill-rule="evenodd"/><path class="k" d="M1024.06 481.24c23.73-7.95 53.5 18.31 70.88 63 12.21 31.41 28.69 27.25 36.32 47.33 17.07 45 2.67 107.27-12.92 132.68s-22.66 34-58.56 49.56S1011 828.55 972 820.5s-51 10.28-66.64-27.72-39.34-25.36-48.95-58.4-2.75-41.8-20.92-66.63-39.32-46.45-27.5-88.32-15.45-23.64 32.94-71 70.88-36.87 97.65-47 42.55 34.18 85.48 19.81z"/><path d="M801.23-64.5c7.4 12.23-3.51 32.11-26.23 47.37C759-6.39 763.41 2.27 753.17 9c-22.91 15.14-59.44 14.9-75.55 9.4S655.83 10.05 642.68-8s-36.61-20.32-37-43.1-12.11-27.13 7.11-40.6 9.21-25.1 26.41-34.58 22.95-6.77 34.51-20 21-27.72 45.78-26.38 11.24-11.56 43.7 9.48 29.41 34.88 38.4 48.53-13.73 28.03-.36 50.15z" opacity=".45" fill="#0f473d" fill-rule="evenodd"/><path d="M1230.06 356.54c-4.78 24.57-42.29 37.55-89.72 30.67-33.36-4.85-37.85 11.55-59.09 8.3-47.53-7.29-94.66-50.51-109.1-76.6s-18.45-36.47-14.29-75.37-23.64-69.41 2.61-99.44 16.17-49.45 56.95-44.35 41.44-21.74 74.92-13.83 37.74 18.19 68.29 14.61 59.8-11.34 90.42 19.56 28.18-1.8 45.59 63.66-2.82 79.85-7.19 108.13-50.76 20.23-59.39 64.66z" opacity=".3" fill="#0c4f43" fill-rule="evenodd"/><path d="M810.1 514.57c7.87 6.78 4.81 23-7.45 38.64-8.62 11-3.64 16-9.19 23-12.42 15.62-37.7 23.69-50.07 23.51s-16.95-.87-30.1-10.39-29.87-5.79-35.28-21.43-14.48-16-4.23-29.66.71-19.41 10.46-29.84 14.33-9.84 19.34-21.58 8.24-23.88 25.68-28.54 5.16-10.52 32.33-3.3 28.18 17.48 37.46 24.88-3.17 22.44 11.05 34.71z" opacity=".25" fill="#4d995b" fill-rule="evenodd"/></g><g opacity=".25"><path class="r" d="M163.59 5.58c4.78-1 6.59 4.66 5.66 5.68.39 1.25 4.32 4.09 1.65 5.74.38.85-7.55 8.59-9.5 5.91-3.05-4.17-10.05.6-8.06-12.2 0 0 2.23-3.86 4.83-4.82 1.83-.66 3.51.11 5.42-.31z"/><path class="s" d="M161.4 22.91c-3.05-4.17-10.05.6-8.06-12.2 0 0 .11-.2.3-.5a13.91 13.91 0 0 0-1.21 1.79c-2 12.8 5 8 8.06 12.2 1.82 2.5 8.84-4.07 9.47-5.65-2.1 2.39-7.07 6.45-8.56 4.36z"/><path class="r" d="M176.13 28.3c-1.74.72-3.92-.95-5.2-4-.89-2.14-2.1-1.74-2.66-3.11-1.25-3.07-.2-7.58.94-9.48s1.66-2.56 4.29-3.89 3.57-4.2 6.43-3.88c3.37.37 7.35 1.75 8.46 5.34.71 2.27.21 2.94 1.54 4.58s2.88 3 2 6.07 1.13 1.58-2.41 5.25-5.19 3.07-7.15 4-3.1-2.18-6.24-.88z"/><path class="s" d="M170.69 25.73c1.28 3.05 3.46 4.72 5.2 4 3.14-1.3 4.3 1.74 6.26.84s3.61-.29 7.15-4c2.62-2.72 2.21-2.62 2.16-3.62a18.89 18.89 0 0 1-1.92 2.19c-3.54 3.67-5.19 3.07-7.15 4s-3.12-2.15-6.26-.85c-1.74.72-3.92-.95-5.2-4-.89-2.14-2.1-1.74-2.66-3.11a10.11 10.11 0 0 1-.47-4.83 11.17 11.17 0 0 0 .23 6.26c.56 1.39 1.77.98 2.66 3.12zM192-9c1.79-1.3 5 .12 7.68 3.43 1.88 2.32 3.16 1.53 4.35 3 2.65 3.34 3.1 9 2.47 11.57s-1 3.48-3.63 5.76-2.65 5.94-6.17 6.3-4 2.25-6.38-.55-4-1.09-5.7-3.62-1.36-3.46-3.56-5.07-4.57-2.88-4.7-6.73-1.94-1.59.88-6.89 5-5 7-6.6 4.51 1.81 7.76-.6z"/><path d="M192.25-11.26c1.79-1.31 5 .11 7.68 3.43 1.88 2.32 3.16 1.53 4.35 3 2.65 3.34 3.1 9 2.47 11.57s-1 3.48-3.63 5.76-2.65 5.94-6.17 6.31-4 2.23-6.38-.56-4-1.09-5.7-3.62-1.36-3.46-3.56-5.07-4.57-2.88-4.7-6.73-1.94-1.59.88-6.89 5-5 7-6.6 4.51 1.77 7.76-.6z" fill="#367b59" fill-rule="evenodd"/><path class="s" d="M190.31 20.57c2.35 2.8 2.86.92 6.38.56s3.56-4 6.17-6.31 3-3.2 3.62-5.76a9.67 9.67 0 0 0 .26-2.28c-.63 2.55-1 3.47-3.62 5.74s-2.65 5.94-6.17 6.31-4 2.23-6.37-.56-4-1.09-5.71-3.62-1.36-3.46-3.56-5.07-4.57-2.87-4.7-6.73a5.73 5.73 0 0 0-.48-2.4c-1.12 2.5.12 1.53.22 4.7.13 3.85 2.5 5.11 4.7 6.73s1.86 2.53 3.56 5.07 3.39.83 5.7 3.62z"/><path class="s" d="M196.16 9.26c1.79-1.31 5 .11 7.68 3.42 1.88 2.32 3.16 1.53 4.35 3 2.65 3.35 3.1 9 2.47 11.57s-1 3.48-3.62 5.76-2.66 5.94-6.18 6.31-4 2.24-6.37-.56-4-1.08-5.71-3.62-1.36-3.46-3.56-5.07-4.57-2.87-4.69-6.73-1.95-1.58.87-6.89 5-5 7-6.6 4.52 1.77 7.76-.59z"/><path class="r" d="M196.42 7c1.79-1.31 5 .11 7.68 3.42 1.88 2.33 3.16 1.53 4.35 3 2.65 3.35 3.1 9 2.47 11.57s-1 3.48-3.62 5.76-2.66 5.94-6.18 6.31-4 2.24-6.37-.56-4-1.08-5.71-3.62-1.36-3.46-3.56-5.07-4.57-2.87-4.69-6.73-1.95-1.58.87-6.89 5-5 7-6.6 4.52 1.73 7.76-.59z"/><path class="s" d="M194.49 38.78c2.34 2.8 2.86.92 6.37.56s3.56-4 6.18-6.31 3-3.19 3.62-5.76a10.29 10.29 0 0 0 .25-2.28c-.63 2.55-1 3.47-3.61 5.74s-2.66 5.94-6.18 6.31-4 2.24-6.37-.56-4-1.08-5.71-3.62-1.36-3.46-3.56-5.07-4.57-2.87-4.69-6.73a5.74 5.74 0 0 0-.49-2.39c-1.12 2.49.12 1.52.23 4.69.12 3.86 2.49 5.12 4.69 6.73s1.86 2.54 3.56 5.07 3.36.84 5.71 3.62z"/><path d="M139.16 27.15c.65.53.45 1.85-.5 3.15-.67.92-.25 1.31-.69 1.89a6 6 0 0 1-4 2 7.25 7.25 0 0 1-3.54-1.38c-1.09-.73-2.25-1-2.73-2.24s-1.22-1.26-.42-2.39 0-1.57.76-2.45 1.14-.83 1.51-1.8 1.34-.54 2.74-1 .39-.86 2.61-.35 2.33 1.34 3.1 1.92 0 1.69 1.16 2.65z" opacity=".45" fill="#145b4a" fill-rule="evenodd"/><path class="s" d="M134 34.23a7.25 7.25 0 0 1-3.54-1.38c-1.09-.73-2.25-1-2.73-2.24s-1.22-1.26-.42-2.39c.65-.94.23-1.4.49-2l-.25.27c-.76.87 0 1.31-.76 2.45s-.06 1.14.42 2.39 1.64 1.5 2.73 2.24a7.33 7.33 0 0 0 3.54 1.37 5.91 5.91 0 0 0 4-2 1 1 0 0 0 .15-.25 6.23 6.23 0 0 1-3.63 1.54z"/><path class="r" d="M150 19.73c4.79-1.05 6.59 4.66 5.67 5.68.38 1.25 4.32 4.09 1.64 5.74.39.85-7.54 8.59-9.5 5.91-3-4.17-10 .6-8.06-12.2 0-.05 2.24-3.86 4.83-4.82 1.75-.66 3.42.11 5.42-.31z"/><path class="s" d="M147.76 37.06c-3-4.17-10 .6-8.06-12.2 0 0 .11-.2.3-.5a17 17 0 0 0-1.21 1.78c-2 12.8 5 8 8.06 12.2 1.83 2.5 8.85-4.07 9.47-5.65-2.1 2.4-7.07 6.42-8.56 4.37z"/><path class="l" d="M156.54 40.11c-1.73.71-3.91-1-5.19-4-.89-2.14-2.1-1.74-2.66-3.11-1.25-3.07-.2-7.58.94-9.48s1.66-2.56 4.29-3.89 3.56-4.2 6.42-3.89c3.38.38 7.36 1.76 8.47 5.34.7 2.28.2 3 1.53 4.59s2.89 3 2 6.07 1.15 1.57-2.34 5.26-5.18 3.08-7.14 4-3.17-2.19-6.32-.89z"/><path class="s" d="M151.11 37.54c1.28 3.05 3.46 4.71 5.19 4 3.15-1.29 4.31 1.74 6.27.85s3.6-.29 7.14-4c2.63-2.72 2.21-2.62 2.17-3.62A17.69 17.69 0 0 1 170 37c-3.54 3.68-5.18 3.08-7.14 4s-3.12-2.14-6.27-.84c-1.73.71-3.91-1-5.19-4-.89-2.14-2.1-1.74-2.66-3.11a10 10 0 0 1-.47-4.83 11 11 0 0 0 .23 6.25c.5 1.33 1.72.92 2.61 3.07z"/><path class="r" d="M141.28 25.94c4.79-1.05 6.59 4.67 5.67 5.69.38 1.24 4.32 4.09 1.64 5.73.39.85-7.54 8.6-9.5 5.92-3.09-4.18-10.09.6-8.09-12.21 0 0 2.24-3.86 4.83-4.81 1.84-.67 3.54.1 5.45-.32z"/><path class="s" d="M139.09 43.28C136 39.1 129 43.88 131 31.07c0 0 .11-.19.3-.49a13.94 13.94 0 0 0-1.2 1.77c-2 12.8 5 8 8.06 12.2 1.82 2.5 8.84-4.07 9.47-5.65-2.08 2.4-7.05 6.42-8.54 4.38z"/><path class="r" d="M111.3 21.19c4.78-1.05 6.59 4.66 5.67 5.68.38 1.24 4.32 4.09 1.64 5.74.38.84-7.55 8.59-9.5 5.91-3-4.18-10 .6-8.06-12.2 0-.05 2.24-3.87 4.83-4.82 1.8-.66 3.51.11 5.42-.31z"/><path class="s" d="M109.11 38.52c-3-4.18-10 .6-8.06-12.2 0 0 .11-.2.3-.5a14.77 14.77 0 0 0-1.21 1.77c-2 12.8 5 8 8.06 12.2 1.82 2.5 8.85-4.06 9.47-5.65-2.1 2.4-7.07 6.42-8.56 4.38z"/></g><g opacity=".35"><g opacity=".58"><path class="x" d="M794.63 7.15c2-4.49 7.66-2.58 7.93-1.23 1.23.42 5.86-1.08 5.61 2.05.91.19 2.49 11.16-.83 11.16-5.17 0-5.44 8.47-14.6-.68 0 0-1.81-4.09-1-6.74.48-1.85 2.11-2.78 2.89-4.56z"/><path class="x" d="M807.34 19.13c-5.17 0-5.44 8.47-14.6-.68 0 0-.1-.21-.23-.54a15 15 0 0 0 .72 2c9.16 9.16 9.44.69 14.61.69 3.09 0 1.93-9.54 1-11 .71 3.15 1.03 9.53-1.5 9.53z"/></g><path d="M819.1-.4c-.44 1.82-3.07 2.6-6.28 1.83-2.26-.54-2.65.68-4.09.32-3.22-.8-6.24-4.31-7.1-6.35s-1.09-2.85-.62-5.76-1.28-5.35.66-7.48c2.29-2.5 5.75-4.9 9.3-3.69 2.26.78 2.5 1.57 4.61 1.47s4.15-.54 6.09 1.95 1.94 0 2.82 5-.58 6-1 8.11-3.58 1.29-4.39 4.6z" fill="#0f473d" opacity=".58" fill-rule="evenodd"/><path class="s" d="M813.83 2.47c3.21.77 5.84 0 6.29-1.84.8-3.3 3.94-2.45 4.37-4.56s1.89-3.08 1-8.11c-.65-3.72-.81-3.33-1.64-3.88a19.35 19.35 0 0 1 .63 2.85c.88 5-.58 6-1 8.11s-3.57 1.25-4.38 4.56c-.44 1.82-3.07 2.6-6.28 1.83-2.26-.54-2.65.68-4.09.32a10 10 0 0 1-4.18-2.47 11.06 11.06 0 0 0 5.19 3.5c1.44.36 1.83-.85 4.09-.31z"/><path class="z" d="M819.76 9.82c2-4.48 7.65-2.57 7.93-1.23 1.23.43 5.85-1.07 5.6 2.06.91.19 2.49 11.16-.82 11.16-5.17 0-5.45 8.47-14.61-.69 0 0-1.8-4.08-1.05-6.74.53-1.85 2.19-2.77 2.95-4.56z"/><path class="s" d="M832.47 21.81c-5.17 0-5.45 8.47-14.61-.69a4.15 4.15 0 0 1-.23-.53 17.68 17.68 0 0 0 .72 2c9.17 9.16 9.44.68 14.61.68 3.09 0 1.93-9.54 1-11 .72 3.16 1.04 9.54-1.49 9.54z"/><path class="aa" d="M822.59 17.69c-.44 1.83-3.07 2.61-6.29 1.84-2.26-.54-2.64.67-4.08.31-3.22-.8-6.24-4.3-7.1-6.34s-1.09-2.85-.62-5.76-1.29-5.36.66-7.48c2.29-2.51 5.75-4.91 9.3-3.69 2.26.77 2.5 1.57 4.61 1.46s4.14-.54 6.09 2S827.1 0 828 5s-.58 6-1 8.11-3.6 1.28-4.41 4.58z"/><path class="aa" d="M817.32 20.57c3.21.76 5.84 0 6.28-1.84.81-3.31 3.95-2.45 4.38-4.56s1.89-3.09 1-8.11c-.65-3.73-.81-3.33-1.65-3.89A18 18 0 0 1 828 5c.88 5-.58 6-1 8.11s-3.57 1.26-4.38 4.56c-.44 1.83-3.07 2.61-6.29 1.84-2.26-.54-2.64.67-4.08.31a10 10 0 0 1-4.25-2.44 11.15 11.15 0 0 0 5.19 3.5c1.48.36 1.87-.88 4.13-.31z"/><path class="s" d="M824.35-10.41c0-2 2.79-3.65 6.68-3.83 2.74-.13 2.84-1.51 4.58-1.58 3.91-.16 8.33 2.56 9.89 4.42s2 2.62 2.31 5.78 3 5.17 1.33 8-.52 4.2-3.85 4.42-3 2.38-5.76 2.26-3.29-.86-5.68-.1-4.59 1.83-7.51-.16-2.22.58-4.62-4.37-1-6.41-1.1-8.73 3.73-2.43 3.73-6.11z"/><path class="s" d="M822.79-11.84c0-2 2.79-3.65 6.68-3.84 2.74-.13 2.84-1.51 4.58-1.58 3.91-.15 8.33 2.57 9.89 4.42s2 2.62 2.31 5.79 3 5.17 1.33 8-.52 4.19-3.86 4.42-3 2.37-5.75 2.26-3.3-.87-5.68-.11-4.59 1.83-7.51-.16-2.22.58-4.62-4.36-1-6.41-1.1-8.74 3.73-2.43 3.73-6.1z"/><path class="s" d="M845.29 6.77c3.33-.22 2.22-1.62 3.85-4.42s-1.06-4.8-1.33-8-.76-3.93-2.31-5.78a9.63 9.63 0 0 0-1.5-1.39c1.55 1.84 2 2.61 2.3 5.77s3 5.17 1.33 8-.52 4.19-3.86 4.42-3 2.37-5.75 2.26-3.3-.87-5.68-.11-4.59 1.83-7.51-.16a5.35 5.35 0 0 0-2-.93c1.24 2.18 1.19.73 3.59 2.37 2.92 2 5.13.92 7.51.16s2.88 0 5.68.1S842 7 845.29 6.77zm-89.48-9.19c2-4.48 7.66-2.57 7.93-1.23 1.23.43 5.86-1.07 5.61 2.06.91.19 2.49 11.16-.83 11.16-5.17 0-5.44 8.47-14.61-.69 0 0-1.8-4.08-1-6.74.49-1.85 2.09-2.77 2.9-4.56z"/><path class="s" d="M768.52 9.57c-5.17 0-5.44 8.47-14.61-.69 0 0-.09-.2-.22-.53a14 14 0 0 0 .72 2c9.16 9.16 9.44.68 14.61.68 3.09 0 1.93-9.54 1-11 .71 3.15 1.03 9.54-1.5 9.54zM758.83 30c.81-.22 1.76.72 2.25 2.26.35 1.08.91 1 1.12 1.66a6 6 0 0 1-.7 4.43 7.3 7.3 0 0 1-3.2 2c-1.24.45-2.13 1.24-3.42.88s-1.74.25-2.18-1.06-1.27-.94-1.53-2.07 0-1.4-.56-2.28.35-1.4.83-2.78-.47-.82 1.25-2.32 2.46-1.09 3.38-1.37 1.29 1.07 2.76.65z"/><path class="s" d="M761.5 38.38a7.3 7.3 0 0 1-3.2 2c-1.24.45-2.13 1.24-3.42.88s-1.74.25-2.18-1.06c-.37-1.09-1-1-1.35-1.6 0 .11 0 .23.07.36.25 1.13 1.08.75 1.52 2.06s.89.72 2.19 1.07 2.18-.44 3.42-.89a7.17 7.17 0 0 0 3.19-2 6 6 0 0 0 .71-4.43 1.14 1.14 0 0 0-.12-.27 6.25 6.25 0 0 1-.83 3.88z"/><path class="aa" d="M759.2 16.94c2-4.49 7.65-2.58 7.93-1.23 1.23.42 5.85-1.08 5.61 2.05.91.19 2.49 11.16-.83 11.16-5.17 0-5.44 8.48-14.61-.68 0 0-1.8-4.09-1-6.74.49-1.85 2.11-2.77 2.9-4.56z"/><path class="s" d="M771.91 28.92c-5.17 0-5.44 8.48-14.61-.68 0 0-.09-.21-.22-.54a13 13 0 0 0 .72 2c9.16 9.16 9.43.69 14.61.69 3.09 0 1.92-9.54 1-11 .71 3.15 1.03 9.53-1.5 9.53z"/><path class="aa" d="M759.11 27.6c2-4.48 7.65-2.57 7.93-1.23 1.23.43 5.85-1.07 5.6 2.06.92.19 2.49 11.16-.82 11.16-5.17 0-5.44 8.47-14.61-.69 0 0-1.8-4.08-1-6.74.48-1.85 2.11-2.77 2.9-4.56z"/><path class="s" d="M771.82 39.59c-5.17 0-5.44 8.47-14.61-.69a3.51 3.51 0 0 1-.22-.53 14 14 0 0 0 .72 2c2.37 2.37 4.14 3.55 5.56 4H766c2.15-.8 3.52-3.34 6.34-3.34 3.1 0 1.93-9.54 1-11 .66 3.18 1.01 9.56-1.52 9.56z"/></g></g><g class="ab"><path class="ac" d="M549.62 204.74c-1.36 3.42-5.67 2.14-5.92 1.13-.93-.28-4.36 1-4.25-1.39-.69-.12-2.17-8.3.32-8.39 3.87-.13 3.85-6.49 11 .13 0 0 1.46 3 1 5-.42 1.42-1.61 2.16-2.15 3.52z"/><path class="s" d="M539.77 196.09c3.87-.13 3.85-6.49 11 .13 0 0 .08.15.18.39a11.45 11.45 0 0 0-.59-1.49c-7.12-6.62-7.1-.27-11-.13-2.32.09-1.19 7.21-.47 8.26-.61-2.31-1.02-7.09.88-7.16z"/><path class="ad" d="M666 35.7c2-4.48 7.65-2.57 7.93-1.22 1.23.42 5.85-1.08 5.6 2.05.91.19 2.49 11.16-.82 11.16-5.17 0-5.45 8.47-14.61-.68 0 0-1.8-4.09-1.05-6.74.5-1.85 2.13-2.78 2.95-4.57z"/><path class="s" d="M678.68 47.69c-5.17 0-5.45 8.47-14.61-.68a4.88 4.88 0 0 1-.22-.54 15.91 15.91 0 0 0 .71 2c9.17 9.16 9.44.69 14.61.69 3.09 0 1.93-9.55 1-11 .72 3.15 1.04 9.53-1.49 9.53z"/><path class="ae" d="M802.75 119.43c-.32 1.11-2.18 1.58-4.45 1.11-1.6-.32-1.87.41-2.89.19a8.48 8.48 0 0 1-5-3.83 4.27 4.27 0 0 1-.44-3.48c.33-1.76-.91-3.24.46-4.52 1.62-1.52 4.07-3 6.59-2.23 1.59.46 1.76 1 3.26.88s2.93-.33 4.31 1.18 1.37 0 2 3-.41 3.63-.72 4.91-2.55.8-3.12 2.79z"/><path class="s" d="M642.87 41c0-2.22 3-4 7.3-4.19 3-.14 3.1-1.65 5-1.72 4.26-.17 9.1 2.8 10.8 4.82s2.22 2.87 2.52 6.32 3.23 5.65 1.45 8.71-.57 4.58-4.2 4.82-3.24 2.6-6.29 2.47-3.6-.94-6.2-.11-5 2-8.2-.18-2.43.64-5-4.77-1.1-7-1.2-9.53 4.02-2.64 4.02-6.64z"/><path class="ae" d="M642.88 19.89c0-2.22 3-4 7.29-4.19 3-.14 3.1-1.64 5-1.72 4.27-.17 9.1 2.8 10.8 4.82s2.22 2.87 2.52 6.33 3.23 5.64 1.45 8.7-.57 4.58-4.2 4.82-3.24 2.6-6.29 2.48-3.6-1-6.2-.12-5 2-8.2-.17-2.43.63-5-4.78-1.11-7-1.2-9.53 4.03-2.62 4.03-6.64z"/><path class="ad" d="M668.9 70c0-2.22 3.05-4 7.29-4.19 3-.14 3.1-1.64 5-1.72 4.26-.17 9.1 2.8 10.79 4.83s2.23 2.86 2.52 6.32 3.24 5.64 1.46 8.7-.57 4.58-4.21 4.83-3.24 2.59-6.29 2.47-3.59-1-6.19-.12-5 2-8.21-.17-2.42.63-5.05-4.77-1.1-7-1.2-9.54 4.09-2.58 4.09-6.64z"/><path class="ae" d="M691.85 154.43c.81-.21 1.76.73 2.25 2.26.35 1.08.91 1 1.12 1.67a6 6 0 0 1-.7 4.43 7.2 7.2 0 0 1-3.2 2c-1.24.45-2.13 1.24-3.42.89s-1.74.24-2.18-1.07-1.27-.93-1.53-2.06 0-1.41-.56-2.28.35-1.4.83-2.78-.47-.83 1.25-2.32 2.46-1.09 3.38-1.38 1.29 1.04 2.76.64z"/><path class="s" d="M694.52 162.79a7.2 7.2 0 0 1-3.2 2c-1.24.45-2.13 1.24-3.42.89s-1.74.24-2.18-1.07c-.37-1.08-1-1-1.35-1.59 0 .11 0 .22.07.36.26 1.12 1.08.75 1.52 2.06s.89.71 2.19 1.07 2.18-.44 3.42-.89a7.12 7.12 0 0 0 3.19-2 6 6 0 0 0 .71-4.43 1.11 1.11 0 0 0-.12-.27 6.3 6.3 0 0 1-.83 3.87z"/><path class="ae" d="M780.84 118.94c1-2.19 3.73-1.25 3.87-.6.6.21 2.85-.52 2.73 1 .44.09 1.21 5.44-.41 5.44-2.51 0-2.65 4.12-7.11-.34a6 6 0 0 1-.51-3.28c.26-.9 1.05-1.35 1.43-2.22z"/><path class="s" d="M787 124.78c-2.51 0-2.65 4.12-7.11-.34 0 0 0-.1-.11-.26a6.75 6.75 0 0 0 .35 1c4.46 4.46 4.6.33 7.11.33 1.51 0 .94-4.65.5-5.35.37 1.51.52 4.62-.74 4.62z"/><path class="ae" d="M689.7 61.75c-.44 1.82-3.07 2.6-6.29 1.84-2.26-.55-2.64.67-4.08.31-3.22-.8-6.24-4.31-7.1-6.35s-1.09-2.85-.62-5.75-1.29-5.36.65-7.49c2.29-2.5 5.76-4.9 9.31-3.68 2.25.77 2.5 1.57 4.61 1.46s4.14-.54 6.09 1.95 1.94 0 2.82 5-.58 6-1 8.11-3.59 1.29-4.39 4.6z"/><path class="s" d="M684.42 64.62c3.22.77 5.85 0 6.29-1.84.81-3.3 3.94-2.45 4.38-4.56s1.89-3.08 1-8.11c-.65-3.72-.81-3.33-1.65-3.88a17.68 17.68 0 0 1 .64 2.85c.88 5-.58 6-1 8.11s-3.58 1.25-4.38 4.56c-.44 1.82-3.07 2.6-6.29 1.84-2.26-.55-2.64.67-4.08.31a10 10 0 0 1-4.18-2.47 11.1 11.1 0 0 0 5.19 3.51c1.44.35 1.82-.86 4.08-.32z"/><path class="ae" d="M552.43 69.33c1.33-3 5.16-1.73 5.35-.82.82.28 3.94-.73 3.77 1.38.62.13 1.68 7.52-.55 7.52-3.49 0-3.67 5.71-9.85-.46 0 0-1.21-2.75-.7-4.54.35-1.25 1.45-1.87 1.98-3.08z"/><path class="s" d="M561 77.41c-3.49 0-3.67 5.71-9.85-.46l-.15-.36a9.88 9.88 0 0 0 .48 1.36c6.18 6.17 6.37.46 9.85.46 2.08 0 1.3-6.43.69-7.4.47 2.1.68 6.4-1.02 6.4zm135-52.67c0-1.63 2.24-2.92 5.35-3.07 2.19-.11 2.28-1.21 3.67-1.27a11.57 11.57 0 0 1 7.98 3.54 6.35 6.35 0 0 1 1.85 4.64c.22 2.54 2.38 4.14 1.07 6.39s-.42 3.36-3.09 3.54-2.37 1.9-4.61 1.81-2.64-.69-4.55-.09-3.67 1.47-6-.12-1.78.46-3.71-3.5-.81-5.14-.88-7 2.92-1.92 2.92-4.87z"/><path class="ae" d="M694.77 23.59c0-1.63 2.24-2.92 5.35-3.07 2.19-.11 2.28-1.21 3.67-1.26a11.52 11.52 0 0 1 7.92 3.53 6.37 6.37 0 0 1 1.85 4.64c.22 2.54 2.38 4.14 1.07 6.39s-.42 3.36-3.09 3.54-2.37 1.9-4.61 1.81-2.64-.69-4.55-.08-3.68 1.46-6-.13-1.77.46-3.7-3.5-.81-5.14-.88-7 2.97-1.92 2.97-4.87zm-64.88 154.85c.81-.22 1.76.73 2.25 2.26.34 1.08.91 1 1.12 1.67a6 6 0 0 1-.71 4.43 7.2 7.2 0 0 1-3.19 2c-1.24.45-2.13 1.24-3.42.89s-1.74.24-2.18-1.07-1.27-.93-1.53-2.06 0-1.41-.56-2.28.34-1.4.83-2.78-.47-.83 1.25-2.32 2.46-1.09 3.38-1.38 1.29 1.04 2.76.64z"/><path class="s" d="M632.59 186.81a7.25 7.25 0 0 1-3.19 2c-1.24.45-2.13 1.24-3.42.89s-1.74.24-2.19-1.07c-.37-1.08-1-1-1.34-1.6 0 .11 0 .23.07.36.25 1.13 1.07.76 1.52 2.06s.89.72 2.18 1.07 2.19-.44 3.42-.88a7.3 7.3 0 0 0 3.2-2.05 6 6 0 0 0 .71-4.43 1.36 1.36 0 0 0-.13-.27 6.17 6.17 0 0 1-.83 3.92z"/><path class="ae" d="M719.86 194.92c.91-2.07 3.53-1.19 3.66-.57.56.2 2.7-.49 2.58 1 .42.09 1.15 5.15-.38 5.15-2.38 0-2.51 3.9-6.74-.32a5.75 5.75 0 0 1-.48-3.11c.25-.9 1-1.33 1.36-2.15z"/><path class="s" d="M725.72 200.45c-2.38 0-2.51 3.9-6.74-.32l-.1-.25a8.07 8.07 0 0 0 .33.94c4.23 4.22 4.36.31 6.74.31 1.43 0 .89-4.4.47-5.06.32 1.43.47 4.38-.7 4.38z"/><path class="ae" d="M718.9 206.87c1.1-2.5 4.27-1.44 4.43-.69.69.24 3.27-.6 3.13 1.15.51.11 1.39 6.24-.46 6.24-2.89 0-3 4.73-8.16-.38 0 0-1-2.29-.59-3.77.3-1.03 1.21-1.55 1.65-2.55z"/><path class="s" d="M726 213.57c-2.89 0-3 4.73-8.16-.38a2.36 2.36 0 0 1-.13-.3 9 9 0 0 0 .4 1.13c5.12 5.11 5.28.38 8.17.38 1.72 0 1.07-5.33.56-6.14.39 1.74.57 5.31-.84 5.31z"/><path class="ae" d="M725.63 201.57c1.41-3.2 5.46-1.84 5.66-.88.87.31 4.17-.76 4 1.47.65.14 1.77 8-.59 8-3.69 0-3.89 6-10.43-.49 0 0-1.29-2.92-.75-4.81.38-1.35 1.54-2.01 2.11-3.29z"/><path class="s" d="M734.7 210.13c-3.69 0-3.89 6-10.43-.49 0 0-.07-.15-.16-.38a11.3 11.3 0 0 0 .51 1.44c6.55 6.53 6.74.49 10.43.49 2.21 0 1.38-6.81.73-7.84.5 2.22.72 6.78-1.08 6.78z"/><path class="af" d="M456.39 302.11c1.7-4.6 7.48-3 7.84-1.71 1.25.35 5.78-1.43 5.72 1.71.92.13 3.16 11-.15 11.19-5.16.31-4.92 8.79-14.62.2 0 0-2.05-4-1.45-6.66.41-1.84 1.98-2.9 2.66-4.73z"/><path class="s" d="M469.8 313.3c-5.16.31-4.92 8.79-14.62.2a5 5 0 0 1-.26-.52 16.77 16.77 0 0 0 .84 2c9.71 8.59 9.47.12 14.63-.2 3.08-.19 1.34-9.64.35-11 .88 3.01 1.59 9.37-.94 9.52z"/><path class="af" d="M433.28 314c1.7-4.6 7.48-3 7.84-1.71 1.26.35 5.78-1.43 5.72 1.71.92.13 3.16 11-.15 11.19-5.16.31-4.91 8.79-14.62.2 0 0-2-4-1.45-6.66.38-1.84 1.98-2.86 2.66-4.73z"/><path class="s" d="M446.7 325.23c-5.17.31-4.92 8.79-14.63.2a5.18 5.18 0 0 1-.25-.52 14.65 14.65 0 0 0 .84 2c9.7 8.58 9.46.11 14.62-.21 3.09-.18 1.35-9.64.35-11 .88 3.02 1.59 9.38-.93 9.53z"/><path class="af" d="M409.42 327.32c1.7-4.6 7.48-3 7.84-1.71 1.25.35 5.78-1.43 5.72 1.71.92.14 3.16 11-.15 11.19-5.16.32-4.92 8.79-14.62.21 0 0-2-4-1.45-6.67.41-1.88 1.98-2.9 2.66-4.73z"/><path class="s" d="M422.83 338.51c-5.16.32-4.92 8.79-14.62.21 0 0-.11-.2-.26-.53a17.44 17.44 0 0 0 .84 2c9.71 8.58 9.47.11 14.63-.21 3.08-.18 1.34-9.64.35-11 .88 3.02 1.59 9.38-.94 9.53z"/><path class="ag" d="M903.49 186.19c-.45 1.82-3.08 2.6-6.29 1.83-2.26-.54-2.65.67-4.09.32-3.21-.8-6.23-4.31-7.1-6.35s-1.09-2.85-.61-5.76-1.29-5.35.65-7.48c2.29-2.5 5.76-4.9 9.31-3.69 2.25.78 2.49 1.57 4.6 1.46s4.15-.53 6.1 2 1.94 0 2.81 5-.57 6-1 8.12-3.58 1.24-4.38 4.55z"/><path class="s" d="M898.21 189.06c3.22.77 5.85 0 6.29-1.84.8-3.3 3.94-2.45 4.38-4.56s1.89-3.09 1-8.11c-.65-3.72-.82-3.33-1.65-3.89a18.67 18.67 0 0 1 .63 2.85c.88 5-.57 6-1 8.12s-3.57 1.25-4.37 4.56c-.45 1.82-3.08 2.6-6.29 1.83-2.26-.54-2.65.67-4.09.32a10 10 0 0 1-4.17-2.47 11 11 0 0 0 5.19 3.5c1.44.36 1.87-.85 4.08-.31z"/><path class="ag" d="M916 117c2-4.49 7.66-2.58 7.94-1.23 1.22.42 5.85-1.08 5.6 2 .91.19 2.49 11.16-.83 11.16-5.17 0-5.44 8.48-14.6-.68 0 0-1.81-4.09-1.05-6.74.51-1.82 2.14-2.74 2.94-4.51z"/><path class="s" d="M928.69 129c-5.17 0-5.44 8.48-14.6-.68 0 0-.1-.21-.23-.54a14.37 14.37 0 0 0 .72 2c9.17 9.16 9.44.69 14.61.69 3.09 0 1.93-9.54 1-11 .71 3.11 1.03 9.53-1.5 9.53z"/><path class="ag" d="M895.72 121.6c0-2.22 3-4 7.29-4.19 3-.14 3.1-1.64 5-1.72 4.27-.17 9.1 2.8 10.8 4.83s2.22 2.86 2.52 6.32 3.23 5.64 1.45 8.7-.57 4.58-4.2 4.83-3.24 2.59-6.29 2.47-3.6-1-6.2-.12-5 2-8.2-.17-2.43.63-5-4.77-1.1-7-1.2-9.54 4.03-2.62 4.03-6.64z"/><path d="M894.46 122.75c0-2.23 3-4 7.29-4.19 3-.15 3.1-1.65 5-1.73 4.26-.17 9.1 2.8 10.79 4.83s2.23 2.86 2.52 6.32 3.24 5.64 1.46 8.7-.57 4.58-4.21 4.83-3.23 2.59-6.31 2.49-3.59-.94-6.19-.12-5 2-8.21-.17-2.42.63-5-4.77-1.1-7-1.2-9.54 4.06-2.64 4.06-6.65z" fill="#2a9b69" fill-rule="evenodd"/><path class="s" d="M919 143.07c3.64-.24 2.43-1.76 4.21-4.82s-1.16-5.25-1.45-8.7-.82-4.3-2.52-6.33a10.1 10.1 0 0 0-1.69-1.54c1.69 2 2.21 2.85 2.5 6.3s3.24 5.64 1.46 8.7-.57 4.58-4.21 4.83-3.22 2.59-6.3 2.49-3.59-.94-6.19-.12-5 2-8.21-.17a5.7 5.7 0 0 0-2.22-1c1.36 2.38 1.31.8 3.93 2.59 3.19 2.17 5.6 1 8.2.17s3.15 0 6.2.12 2.68-2.27 6.29-2.52z"/><path class="z" d="M908.14 198.87c-.45 1.83-3.08 2.61-6.29 1.84-2.26-.54-2.65.67-4.09.31-3.21-.8-6.23-4.31-7.1-6.35s-1.09-2.84-.61-5.75-1.29-5.36.65-7.48c2.29-2.51 5.76-4.91 9.31-3.69 2.25.77 2.49 1.57 4.6 1.46s4.15-.54 6.1 1.95 1.93 0 2.81 5-.57 6-1 8.11-3.58 1.3-4.38 4.6z"/><path class="af" d="M902.86 201.74c3.22.77 5.84 0 6.29-1.84.8-3.3 3.94-2.45 4.38-4.55s1.88-3.09 1-8.12c-.66-3.72-.82-3.33-1.65-3.88a18.07 18.07 0 0 1 .63 2.85c.88 5-.57 6-1 8.11s-3.57 1.26-4.37 4.56c-.45 1.83-3.08 2.61-6.29 1.84-2.26-.54-2.65.67-4.09.31a10 10 0 0 1-4.17-2.46 11.1 11.1 0 0 0 5.19 3.5c1.43.35 1.82-.86 4.08-.32z"/><path class="z" d="M958.29 126.76c.82-.22 1.76.72 2.25 2.26.35 1.08.91 1 1.13 1.66a6 6 0 0 1-.71 4.43 7.3 7.3 0 0 1-3.2 2c-1.23.44-2.12 1.23-3.42.88s-1.73.24-2.18-1.07-1.27-.93-1.52-2.06 0-1.41-.57-2.28.35-1.4.83-2.78-.47-.83 1.26-2.32 2.45-1.09 3.37-1.38 1.29 1.05 2.76.66z"/><path class="s" d="M961 135.11a7.3 7.3 0 0 1-3.2 2c-1.23.44-2.12 1.23-3.42.88s-1.73.24-2.18-1.07c-.37-1.08-1-1-1.34-1.59a2.83 2.83 0 0 0 .07.36c.25 1.13 1.07.75 1.52 2.06s.88.72 2.18 1.07 2.18-.44 3.42-.89a7.29 7.29 0 0 0 3.2-2 6 6 0 0 0 .7-4.43.85.85 0 0 0-.12-.27 6.14 6.14 0 0 1-.83 3.88z"/><path class="ag" d="M933.34 122.12c2-4.48 7.66-2.57 7.93-1.23 1.23.43 5.86-1.07 5.61 2.06.91.19 2.49 11.16-.83 11.16-5.17 0-5.44 8.47-14.6-.69 0 0-1.81-4.08-1.05-6.74.53-1.85 2.16-2.77 2.94-4.56z"/><path class="af" d="M946.05 134.11c-5.17 0-5.44 8.47-14.6-.69a4.15 4.15 0 0 1-.23-.53 15.65 15.65 0 0 0 .72 2c9.16 9.16 9.44.68 14.61.68 3.09 0 1.93-9.54 1-11 .71 3.15 1.03 9.54-1.5 9.54z"/><path class="z" d="M922.08 224c-.44 1.82-3.07 2.6-6.29 1.83-2.26-.54-2.64.67-4.08.32-3.22-.8-6.24-4.31-7.1-6.35s-1.09-2.85-.62-5.76-1.28-5.35.66-7.48c2.29-2.5 5.75-4.9 9.3-3.69 2.25.78 2.5 1.57 4.61 1.46s4.14-.53 6.09 2 1.94 0 2.82 5-.58 6-1 8.12-3.58 1.22-4.39 4.55z"/><path d="M921.16 236.92c2-4.48 7.66-2.57 7.94-1.23 1.23.43 5.85-1.07 5.6 2.06.91.19 2.49 11.16-.83 11.16-5.17 0-5.44 8.47-14.6-.69 0 0-1.81-4.08-1-6.74.48-1.85 2.11-2.77 2.89-4.56z" fill="#2a783b" fill-rule="evenodd"/><path class="s" d="M933.87 248.91c-5.17 0-5.44 8.47-14.6-.69a4.15 4.15 0 0 1-.23-.53 15.65 15.65 0 0 0 .72 2c9.17 9.16 9.44.68 14.61.68 3.09 0 1.93-9.54 1-11 .71 3.16 1.03 9.54-1.5 9.54zm-22.12-109.76c0-2.22 3-4 7.29-4.19 3-.14 3.1-1.65 5-1.72 4.26-.17 9.09 2.79 10.79 4.82s2.23 2.86 2.52 6.32 3.23 5.65 1.46 8.7-.57 4.58-4.21 4.83-3.24 2.59-6.29 2.47-3.6-.94-6.2-.11-5 2-8.2-.18-2.42.64-5-4.77-1.1-7-1.2-9.54 4.04-2.62 4.04-6.63z"/><path class="ag" d="M910 137.58c0-2.22 3.05-4 7.3-4.19 3-.14 3.1-1.64 5-1.72 4.26-.17 9.1 2.8 10.8 4.82s2.22 2.87 2.52 6.33 3.23 5.64 1.45 8.7-.57 4.58-4.21 4.82-3.24 2.6-6.29 2.48-3.59-.95-6.19-.12-5 2-8.2-.17-2.43.63-5.05-4.78-1.11-7-1.2-9.53 4.07-2.62 4.07-6.64z"/><path class="s" d="M934.61 157.91c3.64-.25 2.43-1.77 4.21-4.83s-1.16-5.24-1.46-8.7-.82-4.29-2.52-6.32a10.88 10.88 0 0 0-1.68-1.55c1.68 2 2.2 2.86 2.5 6.31s3.23 5.64 1.45 8.7-.57 4.58-4.21 4.82-3.24 2.6-6.29 2.48-3.59-.95-6.19-.12-5 2-8.2-.17a5.67 5.67 0 0 0-2.22-1c1.35 2.37 1.3.8 3.92 2.58 3.19 2.18 5.6 1 8.2.18s3.15 0 6.2.11 2.68-2.24 6.29-2.49z"/><path class="af" d="M557.57 202.36c4.62 1.63 7.11-3.82 6.32-4.94.54-1.19 4.79-3.53 2.34-5.49.49-.8-6.42-9.46-8.69-7-3.54 3.76-9.9-1.84-9.51 11.11 0 .05 1.74 4.11 4.2 5.38 1.7.84 3.49.29 5.34.94z"/><path class="s" d="M557.54 184.89c-3.54 3.76-9.9-1.84-9.51 11.11a5 5 0 0 0 .24.53 14.8 14.8 0 0 1-1-1.91c-.4-13 6-7.34 9.5-11.11 2.12-2.25 8.28 5.13 8.7 6.78-1.77-2.64-6.2-7.29-7.93-5.4z"/><path class="af" d="M592.32 245.69c.84-1.12 0-3-1.91-4.52-1.38-1-.86-1.85-1.75-2.52-2-1.49-5.44-1.57-7-1.1a6 6 0 0 0-3.62 2.37c-1.47 1.66-3.72 1.8-4 3.94-.37 2.52-.12 5.67 2.26 7.15 1.51.94 2.09.71 3 2s1.65 2.66 4 2.61.92 1.12 4.25-.76 3.2-3.18 4.22-4.44-.99-2.69.55-4.73z"/><path class="s" d="M591.49 241.27c2 1.5 2.75 3.39 1.91 4.52-1.54 2 .44 3.45-.58 4.71s-.89 2.56-4.22 4.44c-2.47 1.39-2.32 1.11-3 .89a14.48 14.48 0 0 0 1.95-1c3.33-1.88 3.2-3.18 4.22-4.44s-1-2.67.58-4.71c.84-1.12 0-3-1.91-4.52-1.38-1-.86-1.85-1.75-2.52a7.5 7.5 0 0 0-3.4-1.25 8.25 8.25 0 0 1 4.48 1.35c.86.67.34 1.47 1.72 2.53zm-30.35 3.23c-.91.74-.61 2.58.72 4.39.94 1.27.36 1.82 1 2.62a8.25 8.25 0 0 0 5.57 2.8 4.57 4.57 0 0 0 3.43-1.08c1.51-1 3.38-.57 4-2.32s1.68-1.77.57-3.34 0-2.2-1.09-3.4-1.58-1.16-2.11-2.5-.86-2.72-2.81-3.3-.55-1.2-3.63-.47-3.23 1.9-4.3 2.71.29 2.54-1.35 3.89z"/><path class="af" d="M559.93 244.33c-.9.74-.61 2.58.72 4.38.94 1.27.36 1.82 1 2.63a8.23 8.23 0 0 0 5.56 2.8 4.57 4.57 0 0 0 3.43-1.09c1.51-1 3.38-.56 4-2.32s1.68-1.76.57-3.33 0-2.2-1.09-3.41-1.58-1.15-2.11-2.49-.85-2.72-2.81-3.3-.54-1.2-3.63-.47-3.23 1.89-4.3 2.7.3 2.57-1.34 3.9z"/><path class="s" d="M576.43 247.57c1.11 1.57.08 1.59-.57 3.34s-2.53 1.28-4 2.32a4.57 4.57 0 0 1-3.43 1.08 5.22 5.22 0 0 1-1.19-.17 4.55 4.55 0 0 0 3.41-1.09c1.51-1 3.38-.56 4-2.32s1.68-1.76.57-3.33 0-2.2-1.09-3.41-1.58-1.15-2.11-2.49-.85-2.72-2.81-3.3a2.92 2.92 0 0 1-1.15-.57c1.42-.24.76.27 2.36.74 2 .58 2.28 2 2.81 3.3s1 1.29 2.11 2.5-.03 1.83 1.09 3.4zM666.64 281c.67.73 2.22.4 3.69-.81 1-.86 1.53-.39 2.19-.94a7.09 7.09 0 0 0 2.13-4.87 3.93 3.93 0 0 0-1.07-2.86c-.67-.87-.71-1.92-1.2-2.64-1.7-.38-5.22-1.36-6.65.05-1 1-.9 1.4-2 1.91s-2.27.85-2.68 2.54-1 .52-.23 3.11 1.75 2.66 2.48 3.53 2.13-.41 3.34.98z"/><path class="aj" d="M666.55 282c.67.74 2.21.41 3.69-.81 1-.85 1.53-.39 2.18-.94a7.1 7.1 0 0 0 2.14-4.86 3.93 3.93 0 0 0-1.08-2.87c-.94-1.24-.63-2.85-2.14-3.33s-1.58-1.35-2.86-.33-1.86.11-2.84 1.07-.91 1.4-2 1.92-2.27.85-2.68 2.53-1 .52-.24 3.11 1.75 2.67 2.49 3.54 2.12-.38 3.34.97z"/><path class="s" d="M672.38 268.83c.49.72.53 1.77 1.2 2.64a3.93 3.93 0 0 1 1.07 2.86 4.42 4.42 0 0 1-.1 1 3.86 3.86 0 0 0-1.07-2.85c-.94-1.24-.63-2.85-2.14-3.33s-1.58-1.35-2.86-.33-1.86.11-2.84 1.07-.91 1.41-2 1.92-2.27.85-2.68 2.53a2.51 2.51 0 0 1-.43 1c-.27-1.2.19-.66.52-2 .41-1.69 1.57-2 2.68-2.54s.73-1.47 2-1.91c1.58-.55 4.84-1.17 6.65-.06z"/><path class="aj" d="M709.5 261.81c.54.65 1.85.42 3.14-.56.9-.68 1.3-.28 1.87-.72a6 6 0 0 0 2-4A7.32 7.32 0 0 0 715 253c-.76-1.08-1-2.23-2.3-2.69s-1.28-1.19-2.4-.37-1.57 0-2.43.81-.81 1.15-1.77 1.55-.52 1.34-.91 2.75-.86.41-.31 2.62 1.39 2.3 2 3.06 1.64-.08 2.62 1.08z"/><path class="s" d="M716.47 256.5A7.32 7.32 0 0 0 715 253c-.76-1.08-1-2.23-2.3-2.69s-1.28-1.19-2.4-.37c-.92.67-1.39.25-2 .53a3.18 3.18 0 0 1 .26-.25c.85-.78 1.31 0 2.43-.82s1.14-.08 2.4.38 1.53 1.61 2.29 2.69a7.18 7.18 0 0 1 1.45 3.5 6 6 0 0 1-2 4 1 1 0 0 1-.26.15 6.18 6.18 0 0 0 1.6-3.62z"/><path class="ak" d="M768.72 378.17c-1 4.81 4.79 6.5 5.79 5.56 1.25.36 4.18 4.24 5.77 1.53.85.37 8.44-7.72 5.72-9.62-4.23-3 .4-10.06-12.36-7.81 0 0-3.82 2.31-4.72 4.92-.63 1.82.18 3.51-.2 5.42z"/><path class="s" d="M786 375.64c-4.23-3 .4-10.06-12.36-7.81 0 0-.19.11-.49.31a15.27 15.27 0 0 1 1.75-1.25c12.76-2.24 8.12 4.86 12.36 7.82 2.53 1.77-3.89 8.92-5.46 9.58 2.35-2.15 6.28-7.2 4.2-8.65z"/><path class="aj" d="M689.65 221.76c-.95 4.8 4.8 6.5 5.8 5.55 1.25.36 4.17 4.24 5.77 1.53.85.37 8.44-7.71 5.72-9.61-4.24-3 .4-10.06-12.36-7.82 0 0-3.82 2.31-4.72 4.92-.63 1.82.14 3.51-.21 5.43z"/><path class="s" d="M706.94 219.23c-4.24-3 .4-10.06-12.36-7.82 0 0-.19.11-.49.31a14.4 14.4 0 0 1 1.75-1.24c12.76-2.25 8.12 4.85 12.36 7.82a1.22 1.22 0 0 1 .32.32v2.17c-1 2.77-4.65 6.61-5.79 7.08 2.36-2.14 6.27-7.19 4.21-8.64z"/><path class="aj" d="M663.42 272.56c3.85 1.71 6.35-2.78 5.75-3.8.54-1 4.34-2.69 2.37-4.54.47-.65-4.86-8.53-7-6.61-3.29 3-8.35-2.24-8.89 8.87 0 0 1.22 3.63 3.23 4.88 1.44.87 3.01.52 4.54 1.2z"/><path class="s" d="M664.58 257.61c-3.29 3-8.35-2.24-8.89 8.87 0 0 .06.18.17.47a14.1 14.1 0 0 1-.71-1.7c.54-11.11 5.6-5.89 8.88-8.87 2-1.79 6.74 4.95 7 6.39-1.36-2.38-4.85-6.62-6.45-5.16z"/><path class="ak" d="M700.74 242.51c.54.64 1.86.41 3.14-.57.91-.68 1.31-.27 1.88-.72a6 6 0 0 0 2-4 7.25 7.25 0 0 0-1.45-3.51c-.75-1.07-1-2.23-2.29-2.69s-1.28-1.19-2.4-.37-1.57 0-2.43.81-.81 1.15-1.77 1.55-.52 1.34-.92 2.75-.85.41-.3 2.62 1.39 2.3 2 3.06 1.56-.1 2.54 1.07z"/><path class="s" d="M707.72 237.19a7.25 7.25 0 0 0-1.45-3.51c-.75-1.07-1-2.23-2.29-2.69s-1.28-1.19-2.4-.37c-.92.67-1.4.26-2 .53l.27-.25c.85-.78 1.31 0 2.43-.82s1.13-.07 2.4.38 1.53 1.61 2.29 2.69a7.31 7.31 0 0 1 1.45 3.51 6 6 0 0 1-2 4 .83.83 0 0 1-.25.15 6.15 6.15 0 0 0 1.55-3.62z"/><path class="af" d="M524.52 247.49c-1.67 3.28 2.12 5.67 3 5.19.82.51 2.14 3.91 3.84 2.28.54.44 7.64-3.86 6.07-5.79-2.44-3 2.34-7.18-7.3-8.15 0 0-3.22.9-4.4 2.6-.73 1.18-.55 2.57-1.21 3.87z"/><path class="s" d="M537.47 249.17c-2.44-3 2.34-7.18-7.3-8.15 0 0-.16 0-.41.13a10.14 10.14 0 0 1 1.51-.55c9.64 1 4.86 5.15 7.3 8.16 1.46 1.79-4.62 5.65-5.88 5.81 2.13-1.08 5.98-3.93 4.78-5.4z"/><path class="al" d="M875.33 260.73c1.17-.34 2.46.89 3.06 2.95.43 1.45 1.23 1.27 1.5 2.2a8.15 8.15 0 0 1-1.29 6 5.27 5.27 0 0 1-3.05 2.21c-1.79.67-2.6 2.45-4.42 2-2.15-.49-4.62-1.66-5.08-4.06-.29-1.51.08-1.91-.66-3.06s-1.64-2.16-.86-4.06-.62-1.1 1.93-3.21 3.56-1.61 4.89-2 1.86 1.64 3.98 1.03z"/><path class="s" d="M878.65 262.77c-.6-2-1.89-3.28-3.06-2.95-2.12.62-2.65-1.43-4-1s-2.35-.07-4.9 2c-1.88 1.57-1.61 1.53-1.65 2.18a12.6 12.6 0 0 1 1.4-1.27c2.55-2.12 3.56-1.61 4.89-2s1.86 1.61 4 1c1.17-.34 2.46.89 3.06 2.95.43 1.45 1.23 1.27 1.5 2.2a6.47 6.47 0 0 1 0 3.15 7.17 7.17 0 0 0 .3-4.06c-.31-.92-1.12-.75-1.54-2.2zm-19.76-32.9c.89-.2 1.86.86 2.31 2.54.32 1.17.93 1.09 1.13 1.84a6.44 6.44 0 0 1-1 4.73 3.61 3.61 0 0 1-2.3 1.56c-1.35.42-2 1.78-3.34 1.34s-1.88.18-2.29-1.25-1.32-1.07-1.54-2.29.06-1.52-.5-2.48-1.24-1.82-.65-3.29-.47-.91 1.45-2.43 2.7-1 3.7-1.32 1.43 1.4 3.03 1.05z"/><path class="al" d="M859.37 229.05c.88-.2 1.85.86 2.31 2.54.32 1.18.93 1.09 1.13 1.84a6.43 6.43 0 0 1-1 4.73 3.55 3.55 0 0 1-2.3 1.56c-1.35.42-2 1.78-3.34 1.34s-1.87.18-2.29-1.25-1.32-1.06-1.54-2.29.06-1.51-.5-2.48-1.23-1.82-.65-3.28-.46-.91 1.46-2.43 2.69-1.06 3.7-1.32 1.42 1.39 3.02 1.04z"/><path class="s" d="M853.43 240.63c.41 1.43.91.81 2.29 1.25s2-.92 3.34-1.34a3.61 3.61 0 0 0 2.3-1.56 4.83 4.83 0 0 0 .47-.81 3.57 3.57 0 0 1-2.3 1.55c-1.35.42-2 1.78-3.34 1.34s-1.87.18-2.29-1.25-1.32-1.06-1.54-2.29.06-1.51-.5-2.48-1.23-1.82-.65-3.28a2.28 2.28 0 0 0 .21-1c-.83.75-.2.59-.68 1.79-.59 1.47.09 2.33.65 3.29s.28 1.25.5 2.48 1.11.88 1.54 2.31zm-45.74-70.35c-1.36.2-2.73-1.52-3.24-4.12-.36-1.82-1.29-1.76-1.51-2.93a9.75 9.75 0 0 1 2-7.08 5.42 5.42 0 0 1 3.66-2.13c2.11-.49 3.19-2.5 5.23-1.68s2.87-.07 3.36 2.15 1.89 1.76 2.09 3.65-.26 2.3.49 3.83 1.69 2.91.64 5.07.61 1.44-2.48 3.54-4.21 1.32-5.77 1.61-1.99-2.28-4.47-1.91z"/><path class="s" d="M806.88 171.47c-1.36.2-2.73-1.52-3.24-4.12-.36-1.82-1.29-1.76-1.51-2.92a9.78 9.78 0 0 1 2-7.09 5.42 5.42 0 0 1 3.66-2.13c2.11-.49 3.19-2.5 5.23-1.68s2.87-.07 3.36 2.15 1.89 1.77 2.09 3.66-.26 2.3.49 3.82 1.69 2.91.64 5.07.61 1.44-2.48 3.55-4.21 1.31-5.77 1.6-1.99-2.27-4.47-1.91z"/><path class="s" d="M817.18 154.49c-.49-2.22-1.31-1.34-3.36-2.15s-3.12 1.19-5.23 1.68a5.42 5.42 0 0 0-3.66 2.13 6 6 0 0 0-.8 1.18 5.45 5.45 0 0 1 3.65-2.12c2.11-.49 3.19-2.5 5.23-1.68s2.87-.07 3.36 2.15 1.89 1.77 2.09 3.66-.26 2.3.49 3.82 1.69 2.91.64 5.07a3.79 3.79 0 0 0-.43 1.46c1.34-1 .38-.87 1.24-2.65 1.05-2.16.11-3.54-.64-5.07s-.29-1.94-.49-3.83-1.61-1.43-2.09-3.65z"/><path class="am" d="M984.73 297.18c3.11 1.7 1.38 5.67.39 5.79-.38.86.41 4.29-1.83 3.91-.19.65-8.2 1.11-8-1.28.32-3.73-5.77-4.45 1.4-10.49 0 0 3.06-1.05 4.92-.34 1.31.5 1.88 1.73 3.12 2.41z"/><path class="s" d="M975.3 305.6c.32-3.73-5.77-4.45 1.4-10.49a2.31 2.31 0 0 1 .4-.13 11.21 11.21 0 0 0-1.5.39c-7.17 6-1.08 6.76-1.4 10.49-.2 2.23 6.76 2 7.85 1.42-2.29.31-6.91.14-6.75-1.68z"/><path class="am" d="M961.26 342.2c-1.29-.43-1.69-2.38-.93-4.65.53-1.59-.32-1.95 0-3 .78-2.27 3.5-4.23 5-4.73a5.88 5.88 0 0 1 4.19-.08c2.07.52 3.94-.6 5.35.93 1.67 1.81 3.18 4.46 2.08 6.94-.69 1.58-1.28 1.7-1.34 3.23s.14 3-1.78 4.27-.13 1.4-3.81 1.72-4.29-.79-5.78-1.23-.65-2.6-2.98-3.4zm18.53-56.47c.1.6-.64 1.22-1.77 1.48-.8.18-.76.59-1.27.71a4.29 4.29 0 0 1-3.15-.79 5.26 5.26 0 0 1-1.28-2.43c-.24-.92-.76-1.61-.43-2.52s-.06-1.27.91-1.51.75-.85 1.58-1 1 .08 1.68-.26 1 .33 2 .77.63-.29 1.6 1.05a3.8 3.8 0 0 1 .78 2.52c.1.71-.85.89-.65 1.98z"/><path class="s" d="M973.6 287.13a5.26 5.26 0 0 1-1.28-2.43c-.24-.92-.76-1.61-.43-2.52s-.06-1.27.91-1.51c.8-.2.79-.65 1.23-.87h-.26c-.83.11-.61.73-1.58 1s-.57.59-.91 1.51.19 1.6.43 2.52a5.26 5.26 0 0 0 1.28 2.43 4.33 4.33 0 0 0 3.15.78.59.59 0 0 0 .2-.07 4.44 4.44 0 0 1-2.74-.84z"/><path class="am" d="M977.07 314.66c3.14-1.64 5.48 2 5 2.9.5.8 3.79 2 2.23 3.7.43.52-3.65 7.42-5.52 5.92-2.92-2.34-6.91 2.31-7.93-7 0 0 .83-3.12 2.46-4.27 1.17-.82 2.5-.6 3.76-1.25z"/><path class="s" d="M978.81 327.18c-2.92-2.34-6.91 2.31-7.93-7a4.1 4.1 0 0 1 .11-.4 10.76 10.76 0 0 0-.51 1.47c1 9.32 5 4.66 7.93 7 1.75 1.4 5.41-4.51 5.55-5.73-.96 2.06-3.73 5.81-5.15 4.66z"/><path d="M916.55 372.92c1.91 1.05.85 3.49.24 3.56-.23.53.26 2.63-1.12 2.4-.12.4-5 .68-4.91-.79.2-2.29-3.54-2.73.86-6.44a5.55 5.55 0 0 1 3-.2c.82.3 1.17 1.06 1.93 1.47z" fill="#3d8e64" fill-rule="evenodd"/><path class="s" d="M910.76 378.09c.2-2.29-3.54-2.73.86-6.44l.25-.08a5.87 5.87 0 0 0-.92.25c-4.41 3.7-.67 4.15-.86 6.43-.12 1.37 4.15 1.22 4.82.87-1.41.19-4.24.09-4.15-1.03z"/><path d="M912 381.34c-.86-.29-1.13-1.59-.63-3.11.36-1.06-.21-1.3 0-2a6.06 6.06 0 0 1 3.36-3.16 3.9 3.9 0 0 1 2.8-.06c1.39.35 2.64-.4 3.59.63 1.11 1.21 2.12 3 1.39 4.64-.47 1.05-.86 1.14-.9 2.16s.09 2-1.19 2.86-.09.93-2.55 1.15-2.87-.53-3.87-.83-.4-1.75-2-2.28z" fill="#217f54" fill-rule="evenodd"/><path class="s" d="M911.75 379.23c-.47 1.39-.22 2.59.57 2.85 1.43.48.93 1.84 1.85 2.11s1.29 1 3.55.76c1.67-.15 1.51-.23 1.79-.58a9 9 0 0 1-1.29.17c-2.26.2-2.64-.48-3.55-.76s-.42-1.62-1.85-2.11c-.79-.26-1-1.46-.58-2.85.33-1-.19-1.2 0-1.82a4.33 4.33 0 0 1 1.25-1.75 5 5 0 0 0-1.75 2.16c-.19.59.33.84.01 1.82z"/><path class="ap" d="M954.92 287.22c.24-.55 1.2-.67 2.29-.25.77.29 1-.08 1.45.11a4.34 4.34 0 0 1 2.19 2.39 5.12 5.12 0 0 1-.28 2.73c-.3.91-.25 1.77-1 2.34s-.65 1.09-1.59.76-1.1.3-1.86-.07-.8-.63-1.54-.7-.64-.83-1.2-1.73-.68-.1-.75-1.75a3.78 3.78 0 0 1 .73-2.53c.23-.65 1.12-.28 1.56-1.3z"/><path class="s" d="M960.85 289.47a5.12 5.12 0 0 1-.28 2.73c-.3.91-.25 1.77-1 2.34s-.65 1.09-1.59.76c-.78-.28-1 .11-1.51 0l.23.12c.76.37.91-.27 1.86.07s.8-.18 1.58-.76.74-1.43 1-2.34a5.22 5.22 0 0 0 .28-2.73 4.34 4.34 0 0 0-2.19-2.39.63.63 0 0 0-.21-.05 4.46 4.46 0 0 1 1.83 2.25z"/><path class="ap" d="M959.12 257.84c-1.65-3.14 2-5.5 2.87-5 .8-.5 2-3.8 3.69-2.25.52-.43 7.44 3.61 6 5.49-2.32 2.93 2.36 6.9-7 8 0 0-3.12-.82-4.29-2.44-.82-1.21-.61-2.55-1.27-3.8z"/><path class="s" d="M971.63 256c-2.32 2.93 2.36 6.9-7 8l-.4-.11a11.51 11.51 0 0 0 1.47.5c9.31-1.08 4.63-5 7-8 1.39-1.75-4.54-5.39-5.77-5.52 2.07 1.04 5.84 3.73 4.7 5.13z"/><path class="ap" d="M972.07 249.32c.83 1.07.09 2.91-1.79 4.39-1.33 1-.81 1.8-1.66 2.46-1.9 1.46-5.25 1.59-6.79 1.16a5.8 5.8 0 0 1-3.54-2.24c-1.44-1.57-3.62-1.68-3.95-3.73-.39-2.43-.19-5.47 2.1-6.94 1.45-.93 2-.7 2.9-1.95s1.56-2.59 3.85-2.58.87-1.09 4.12.68 3.14 3 4.14 4.22-.89 2.59.62 4.53z"/><path class="s" d="M971.32 253.6c1.88-1.47 2.62-3.31 1.79-4.39-1.51-1.94.38-3.33-.62-4.53s-.9-2.46-4.14-4.22c-2.4-1.31-2.25-1-2.94-.82a13.85 13.85 0 0 1 1.9.93c3.24 1.76 3.14 3 4.14 4.22s-.89 2.59.62 4.53c.83 1.07.09 2.91-1.79 4.39-1.33 1-.81 1.8-1.66 2.46a7.26 7.26 0 0 1-3.28 1.25 8.06 8.06 0 0 0 4.32-1.36c.85-.66.34-1.42 1.66-2.46z"/><path class="aq" d="M767 465.6c-4.26-2.44-1.93-8.38-.58-8.58.51-1.28-.6-6.34 2.47-5.85.25-1 11.19-1.85 10.93 1.7-.41 5.53 7.92 6.44-1.83 15.58 0 0-4.17 1.63-6.72.63-1.76-.7-2.54-2.51-4.27-3.48z"/><path class="s" d="M779.85 452.87c-.41 5.53 7.92 6.44-1.83 15.58a4.9 4.9 0 0 1-.55.2 14.06 14.06 0 0 0 2-.62c9.75-9.14 1.42-10 1.83-15.58.24-3.31-9.25-2.76-10.74-1.89 3.17-.56 9.49-.4 9.29 2.31z"/><path class="z" d="M438.43 276.8c-1-1.59.44-4.16 3.38-6.11 2.07-1.37 1.5-2.5 2.82-3.36 3-1.94 7.72-1.86 9.81-1.12s2.84 1.12 4.55 3.48 4.76 2.69 4.82 5.64c.07 3.49-.81 7.81-4.32 9.71-2.23 1.21-3 .85-4.47 2.55s-2.71 3.57-5.94 3.36-1.45 1.49-5.67-1.29-3.84-4.56-5-6.35 1.76-3.62.02-6.51z"/><path class="s" d="M440.32 270.76c-2.94 1.95-4.35 4.52-3.39 6.11 1.75 2.89-1.2 4.73 0 6.51s.78 3.58 5 6.35c3.13 2.06 3 1.66 4 1.4a18 18 0 0 1-2.49-1.47c-4.23-2.77-3.84-4.56-5-6.35s1.77-3.62 0-6.51c-1-1.59.44-4.16 3.38-6.11 2.07-1.37 1.5-2.5 2.82-3.36a10.86 10.86 0 0 1 4.87-1.53 12 12 0 0 0-6.36 1.6c-1.33.86-.76 1.99-2.83 3.36zm68.16-18.38c0-1.86 2.78-3.34 6.65-3.51 2.73-.12 2.83-1.39 4.57-1.45a14.92 14.92 0 0 1 9.84 4.05c1.55 1.7 2 2.41 2.3 5.31s2.95 4.74 1.33 7.31-.52 3.84-3.84 4.05-3 2.18-5.74 2.08-3.27-.8-5.65-.1-4.57 1.68-7.48-.15-2.21.53-4.6-4-1-5.87-1.1-8 3.72-2.21 3.72-5.59z"/><path class="af" d="M507.27 251.62c0-1.86 2.78-3.35 6.65-3.52 2.72-.12 2.83-1.38 4.56-1.44a14.83 14.83 0 0 1 9.85 4.05c1.55 1.7 2 2.4 2.3 5.31s3 4.74 1.32 7.3-.52 3.85-3.83 4.06-3 2.18-5.74 2.07-3.28-.79-5.65-.1-4.57 1.68-7.48-.14-2.21.53-4.6-4-1-5.88-1.1-8 3.72-2.21 3.72-5.59zM553.33 274c-.47 1.81-3.3 2.58-6.74 1.82-2.43-.53-2.84.66-4.39.31-3.45-.79-6.69-4.25-7.62-6.27s-1.17-2.81-.66-5.69-1.38-5.29.7-7.39c2.46-2.48 6.18-4.85 10-3.65 2.42.77 2.68 1.56 4.94 1.45s4.45-.53 6.54 1.93 2.08 0 3 5-.62 5.94-1.08 8-3.82 1.24-4.69 4.49z"/><path class="s" d="M547.67 276.85c3.45.76 6.27 0 6.75-1.81.86-3.27 4.23-2.42 4.69-4.51s2-3 1.09-8c-.7-3.68-.87-3.29-1.77-3.84a16.3 16.3 0 0 1 .68 2.81c.95 5-.62 5.94-1.08 8s-3.83 1.24-4.7 4.5c-.47 1.81-3.3 2.58-6.74 1.82-2.43-.53-2.84.66-4.39.31a11 11 0 0 1-4.48-2.43 12 12 0 0 0 5.57 3.45c1.54.37 1.96-.83 4.38-.3z"/><path class="z" d="M753.4 422.05c-4.26-2.44-1.93-8.37-.58-8.57.51-1.29-.6-6.34 2.47-5.85.25-1 11.19-1.85 10.93 1.69-.41 5.54 7.91 6.44-1.83 15.59 0 0-4.17 1.63-6.73.62-1.78-.7-2.56-2.53-4.26-3.48z"/><path class="s" d="M766.22 409.32c-.41 5.54 7.91 6.44-1.83 15.59l-.55.2a12.12 12.12 0 0 0 2-.63c9.75-9.14 1.42-10.05 1.83-15.58.24-3.31-9.25-2.76-10.74-1.89 3.17-.52 9.49-.39 9.29 2.31z"/><path class="aq" d="M779.63 436.45c1.77.6 2.33 3.48 1.32 6.86-.71 2.38.45 2.88 0 4.39-1 3.39-4.73 6.36-6.81 7.14s-2.89 1-5.72.24-5.38 1-7.32-1.24c-2.29-2.64-4.38-6.52-2.9-10.23.94-2.35 1.74-2.56 1.8-4.82s-.2-4.48 2.4-6.38.17-2.07 5.19-2.65 5.87 1.05 7.91 1.67.94 3.92 4.13 5.02z"/><path class="s" d="M782.05 442.3c1-3.38.45-6.25-1.32-6.86-3.19-1.1-2.1-4.4-4.14-5s-2.9-2.24-7.92-1.67c-3.72.43-3.34.63-4 1.48a17.94 17.94 0 0 1 2.86-.47c5-.57 5.87 1.05 7.91 1.67s1 3.92 4.15 5c1.77.6 2.33 3.48 1.32 6.86-.71 2.38.45 2.88 0 4.39a10.88 10.88 0 0 1-2.76 4.29 12 12 0 0 0 3.86-5.3c.49-1.51-.67-2.01.04-4.39zm-341.75-168c2.18-.22 4.24 2.86 4.89 7.38.46 3.17 1.95 3.15 2.23 5.17.62 4.54-1.79 10-3.6 12s-2.58 2.66-5.95 3.31-5.2 4-8.4 2.4-4.56-.16-5.19-4-2.9-3.2-3.1-6.47.55-3.93-.54-6.63-2.5-5.16-.7-8.78-.88-2.52 4.15-5.85 6.77-1.86 9.25-2.22 3.01 4.08 6.96 3.69z"/><path d="M441.66 272.33c2.18-.22 4.24 2.86 4.89 7.37.46 3.18 1.95 3.15 2.23 5.18.62 4.54-1.79 10-3.6 12s-2.58 2.65-5.95 3.31-5.21 4-8.4 2.4-4.57-.16-5.19-4-2.9-3.21-3.1-6.48.55-3.93-.54-6.62-2.5-5.16-.7-8.78-.88-2.52 4.15-5.85 6.77-1.87 9.25-2.22 3.01 4.08 6.96 3.69z" fill="#4fb967" fill-rule="evenodd"/><path class="s" d="M353 328.05c0-1.86 2.77-3.34 6.65-3.51 2.72-.12 2.82-1.38 4.56-1.45a14.93 14.93 0 0 1 9.85 4.05c1.55 1.7 2 2.41 2.29 5.31s2.95 4.74 1.33 7.31-.52 3.84-3.84 4.05-2.95 2.18-5.73 2.08-3.28-.8-5.65-.1-4.57 1.68-7.48-.15-2.21.53-4.61-4-1-5.88-1.09-8 3.72-2.21 3.72-5.59z"/><path class="af" d="M351.75 327.29c0-1.86 2.78-3.34 6.65-3.52 2.73-.12 2.83-1.38 4.57-1.44a14.92 14.92 0 0 1 9.84 4.05c1.55 1.7 2 2.4 2.3 5.31s2.95 4.74 1.33 7.31-.52 3.84-3.84 4.05-3 2.18-5.74 2.07-3.27-.79-5.65-.09-4.57 1.68-7.48-.15-2.21.53-4.6-4-1-5.88-1.1-8 3.72-2.22 3.72-5.59z"/><path class="af" d="M383.23 359.56c-.48 1.8-3.3 2.57-6.75 1.81-2.42-.53-2.84.67-4.38.31-3.45-.79-6.69-4.25-7.62-6.27s-1.17-2.81-.66-5.69-1.38-5.29.7-7.39c2.46-2.47 6.18-4.85 10-3.64 2.41.76 2.68 1.55 4.94 1.44s4.45-.53 6.54 1.93 2.08 0 3 5-.62 5.93-1.08 8-3.83 1.23-4.69 4.5z"/><path class="s" d="M377.57 362.4c3.45.76 6.27 0 6.75-1.82.86-3.26 4.23-2.42 4.69-4.51s2-3.05 1.09-8c-.7-3.68-.88-3.29-1.77-3.84A17.27 17.27 0 0 1 389 347c.94 5-.62 5.93-1.08 8s-3.84 1.24-4.7 4.51c-.48 1.8-3.3 2.57-6.75 1.81-2.42-.53-2.84.67-4.38.31a11 11 0 0 1-4.48-2.43 12 12 0 0 0 5.57 3.46c1.55.4 1.96-.8 4.39-.26zM350.58 7.35c0-1.86 2.77-3.35 6.65-3.52 2.72-.12 2.82-1.38 4.56-1.44a14.83 14.83 0 0 1 9.85 4.05c1.55 1.7 2 2.4 2.3 5.31s2.94 4.74 1.32 7.3-.52 3.85-3.84 4.06-2.95 2.17-5.73 2.07-3.28-.79-5.65-.1-4.57 1.68-7.48-.14-2.21.53-4.61-4-1-5.88-1.09-8 3.72-2.22 3.72-5.59z"/><path class="af" d="M349.36 6.59c0-1.87 2.78-3.35 6.65-3.52 2.73-.12 2.83-1.38 4.57-1.45a14.9 14.9 0 0 1 9.84 4.05c1.55 1.71 2 2.41 2.3 5.31s2.95 4.74 1.33 7.31-.52 3.85-3.84 4.05-2.95 2.18-5.74 2.08-3.27-.8-5.64-.1-4.58 1.68-7.49-.14-2.21.53-4.6-4-1-5.88-1.1-8 3.72-2.18 3.72-5.59zM392 33.17c-.35 1.31-2.4 1.86-4.9 1.31-1.76-.38-2.06.48-3.18.23a9.55 9.55 0 0 1-5.53-4.55 5.43 5.43 0 0 1-.48-4.13c.37-2.09-1-3.84.51-5.36 1.79-1.8 4.48-3.52 7.25-2.65 1.75.56 1.94 1.13 3.58 1.05s3.23-.39 4.75 1.4 1.51 0 2.19 3.61-.45 4.31-.79 5.82-2.76.9-3.4 3.27z"/><path class="s" d="M387.91 35.23c2.5.55 4.55 0 4.9-1.32.62-2.37 3.06-1.76 3.4-3.27s1.47-2.21.79-5.82c-.51-2.66-.63-2.38-1.28-2.78a13.06 13.06 0 0 1 .49 2c.69 3.6-.45 4.31-.79 5.82s-2.78.9-3.4 3.27c-.35 1.31-2.4 1.87-4.9 1.31-1.76-.38-2.06.48-3.18.23a8 8 0 0 1-3.25-1.77 8.66 8.66 0 0 0 4 2.51c1.16.3 1.46-.57 3.22-.18z"/><path class="ac" d="M533.32 208.44c-1 2.57-4.27 1.6-4.46.85-.7-.22-3.28.72-3.2-1-.52-.09-1.63-6.25.24-6.31 2.92-.11 2.9-4.9 8.26.09 0 0 1.1 2.27.73 3.78-.26 1.01-1.16 1.56-1.57 2.59z"/><path class="s" d="M525.9 201.93c2.92-.11 2.9-4.9 8.26.09a1.71 1.71 0 0 1 .14.3 8 8 0 0 0-.45-1.13c-5.36-5-5.34-.2-8.26-.09-1.74.06-.89 5.42-.35 6.22-.46-1.75-.77-5.32.66-5.39z"/><path class="as" d="M245.44 220.39c3.63 1.51 2.18 6.09 1.11 6.33-.32 1 .95 4.67-1.56 4.52-.14.74-8.9 2.17-9-.48-.08-4.15-6.87-4.23.32-11.72 0 0 3.25-1.51 5.39-.94 1.53.39 2.3 1.68 3.74 2.29z"/><path class="s" d="M236 230.76c-.08-4.15-6.87-4.23.32-11.72l.43-.19a12.73 12.73 0 0 0-1.61.61c-7.19 7.49-.4 7.57-.32 11.72.05 2.47 7.68 1.39 8.82.64-2.46.61-7.57.96-7.64-1.06z"/><path class="as" d="M230 211.74c2.79 1.17 1.68 4.68.85 4.87-.24.76.74 3.59-1.19 3.47-.11.57-6.84 1.67-6.88-.37-.06-3.18-5.28-3.25.25-9 0 0 2.49-1.16 4.13-.72 1.11.3 1.69 1.29 2.84 1.75z"/><path class="s" d="M222.74 219.71c-.06-3.18-5.28-3.25.25-9l.32-.14a9.81 9.81 0 0 0-1.23.46c-5.53 5.75-.31 5.82-.25 9 0 1.9 5.9 1.07 6.77.5-1.91.47-5.83.74-5.86-.82z"/><path class="as" d="M249.59 206.8c5 2.09 3 8.42 1.53 8.76-.44 1.37 1.32 6.45-2.15 6.24-.19 1-12.3 3-12.37-.67-.11-5.72-9.49-5.84.44-16.18 0 0 4.49-2.09 7.44-1.3 2.06.54 3.12 2.35 5.11 3.15z"/><path class="s" d="M236.6 221.13c-.11-5.72-9.49-5.84.44-16.18l.59-.26a15.62 15.62 0 0 0-2.22.84c-9.94 10.34-.55 10.46-.44 16.18.07 3.42 10.6 1.93 12.17.89-3.43.84-10.48 1.33-10.54-1.47z"/></g><g class="d"><path d="M280.3 519.22l-.23-3.17-.18-3c-.11-2-.19-4-.27-6q-.21-6-.26-12-.09-11.94.41-23.86a452.29 452.29 0 0 1 4.44-47.55 357.62 357.62 0 0 1 10.1-47 258.67 258.67 0 0 1 17.59-45.35A204.27 204.27 0 0 1 324.33 310a173.8 173.8 0 0 1 15.34-19.64l2.11-2.32 2.19-2.25c1.43-1.52 3-2.95 4.48-4.4s3.12-2.81 4.68-4.22 3.11-2.58 4.66-3.88 3-2.56 4.67-3.85 3.3-2.59 5-3.8c3.36-2.5 6.85-4.77 10.35-7a231.55 231.55 0 0 1 44.27-20.83 400.45 400.45 0 0 1 46.1-13.11c30.95-7 62.06-11.25 92.8-15.5 15.36-2.13 30.66-4.24 45.63-6.88 7.47-1.34 14.87-2.8 22-4.58a132.26 132.26 0 0 0 20.39-6.56l21.24-9.39 21.38-9.33 42.8-18.46 85.64-36.76 9.33-4 5.12 8.89q26 45.09 50.38 90.85c8.15 15.29 16.27 30.61 24.07 46.12s15.5 31.11 22.77 47.06c3.64 8 7.17 16.05 10.48 24.38 1.64 4.17 3.23 8.41 4.7 12.87.37 1.12.71 2.27 1.06 3.41s.68 2.32 1 3.57l.46 1.86.38 1.84.37 1.84.3 1.75c.82 4.69 1.36 9.13 1.86 13.58s.9 8.82 1.28 13.2c.75 8.76 1.34 17.46 1.86 26.15 1.92 34.76 2.86 69.3 3.11 104l-22.85.49-1.1-25.76-1.2-25.77c-.79-17.17-1.79-34.33-2.89-51.41-.56-8.53-1.19-17.05-1.95-25.49-.39-4.22-.8-8.42-1.29-12.56s-1-8.25-1.7-12.06l-.25-1.43-.29-1.34-.27-1.33-.33-1.28c-.2-.84-.5-1.77-.74-2.66l-.87-2.77c-1.22-3.75-2.64-7.6-4.14-11.45-3-7.73-6.4-15.49-9.89-23.23-7-15.49-14.51-30.89-22.18-46.23s-15.48-30.65-23.43-45.9q-23.87-45.72-48.61-91.07l14.45 4.9L743.47 175l-42.72 18.47-21.31 9.3-21.36 9.44a154.18 154.18 0 0 1-23.92 7.74c-7.9 2-15.74 3.5-23.55 4.9-15.61 2.75-31.09 4.87-46.48 7-30.76 4.25-61.24 8.45-90.9 15.15a377.94 377.94 0 0 0-43.46 12.34A209.09 209.09 0 0 0 389.89 278c-3.05 1.94-6.07 3.91-8.94 6-1.47 1-2.85 2.15-4.26 3.24s-2.88 2.39-4.32 3.56-2.95 2.38-4.29 3.56-2.7 2.33-4 3.59-2.59 2.44-3.82 3.75l-1.87 1.92-1.81 2a149.4 149.4 0 0 0-13.3 17 180.67 180.67 0 0 0-11 18.9 236.27 236.27 0 0 0-16 41.37 333.34 333.34 0 0 0-9.44 44 427.75 427.75 0 0 0-4.22 45.15q-.5 11.34-.39 22.71c0 3.78.11 7.56.25 11.32l.25 5.62.16 2.78.19 2.64z" fill="#e2e2e2"/><path class="av" d="M292.06 477.14l3.92.13-.06 1.7-10-.33.12-3.72a3.06 3.06 0 1 1 6.11.2zm-1.44-1.81a1.56 1.56 0 1 0-3.11-.1l-.06 1.76 3.11.1zm3.38-10.06l-.22 4.24 2.47 1.06-.09 1.8-9.85-4.37.1-2 10.21-3.39-.09 1.85zm-1.76 3.57l.16-3-4.18 1.31zm.76-10.77l-.09 1.24 3.95.28-.12 1.71-10-.71.28-3.84a3 3 0 0 1 3.26-2.92 2.83 2.83 0 0 1 2.69 2.46l4.28-2-.14 1.92zm-1.46-.69a1.54 1.54 0 1 0-3.06-.21l-.13 1.82 3.06.22zm1.77-8.2l1.33 1.46 2.87.26-.15 1.7-10-.92.16-1.69 4.79.44-4.4-4.75.21-2.22 4 4.45 6-3.58-.2 2.13zM289 433.81a5.23 5.23 0 1 1 4.56 5.69 5 5 0 0 1-4.56-5.69zm8.78 1.08a3.63 3.63 0 1 0-4 2.88 3.34 3.34 0 0 0 4.02-2.88zm2.3-6.62l-9.93-1.47.91-6.18 1.59.23-.67 4.5 2.79.41.59-4 1.56.23-.6 4 4 .6zm1.17-7.76l-9.9-1.66 1-6.16 1.65.31-.75 4.48 2.78.47.67-4 1.55.26-.67 4 4 .67zm1.33-7.71l-9.87-1.8.32-1.7 9.86 1.82zm-4.29-4.44a5 5 0 0 1-4.11-6 4.37 4.37 0 0 1 4.09-3.76l.21 1.67a2.8 2.8 0 0 0-2.74 2.41 3.63 3.63 0 0 0 7.09 1.45 3 3 0 0 0-1.56-3.37l.81-1.42a4.5 4.5 0 0 1 2.34 5.12 5 5 0 0 1-6.13 3.9zm7.22-10.02l-9.77-2.3 1.42-6 1.54.36-1 4.38 2.59.61.94-4 1.5.35-.93 4 2.59.61 1-4.38 1.55.36zm-3.79-14.68a1.84 1.84 0 0 0-2 1.51 1.58 1.58 0 0 0 1 2 1.29 1.29 0 0 0 1.54-.81l.66-1.32a3 3 0 0 1 3.48-1.89c1.5.39 2.62 2 2 4.2a3.56 3.56 0 0 1-4 3v-1.65a2.15 2.15 0 0 0 2.52-1.7c.31-1.17-.12-1.92-.88-2.12a1.45 1.45 0 0 0-1.65.95l-.65 1.3a2.85 2.85 0 0 1-3.37 1.75 3.27 3.27 0 0 1-2.1-4.08 3.23 3.23 0 0 1 3.36-2.74zm8.79-4.74l-9.6-2.95 1-3.39a5 5 0 0 1 9.59 2.95zm-.47-3.79a3.09 3.09 0 0 0-2.36-4.05c-2.24-.69-3.74.34-4.26 2l-.52 1.71 6.62 2zm.71-9.97l-.41 1.18 3.75 1.29-.56 1.61L304 366l1.26-3.64a3 3 0 0 1 3.9-2 2.81 2.81 0 0 1 2 3.07l4.65-.8-.63 1.82zm-1.23-1a1.55 1.55 0 1 0-2.91-1l-.59 1.73 2.9 1zm6.92-3.16l-9.4-3.51.6-1.62 9.4 3.51zm-5.5-13.51l.68-1.67 7.88 7.27-.64 1.6-10.71-.29.69-1.7 8.29.32zm10.49.97l-9.15-4.1 2.53-5.66 1.45.65-1.84 4.1 2.43 1.09 1.66-3.72 1.41.63-1.67 3.72 2.43 1.09 1.84-4.11 1.44.65z" opacity=".85"/><path stroke-miterlimit="10" stroke="#fff" stroke-width="35" fill="none" d="M-188.3 514.83h1215.79"/><path class="av" d="M860 189.72l-3.56 1.65-.78-1.69 9.11-4.22 1.71 3.69c.89 1.91.29 3.72-1.3 4.46s-3.36 0-4.25-1.88zm2.18 1.12c.49 1.07 1.33 1.46 2.19 1.07a1.62 1.62 0 0 0 .63-2.38l-.81-1.76-2.83 1.32zm2.04 11.29l-2-4.21-2.71.14-.83-1.79 10.9-.35.91 2-7.3 8.11-.86-1.84zm-.26-4.28l1.41 3 3-3.24zm4.85 10.73l-.58-1.24-3.59 1.66-.79-1.7 9.1-4.23 1.78 3.82c.89 1.93.23 3.69-1.32 4.4a2.88 2.88 0 0 1-3.63-1l-2.71 4-.89-1.91zm1.62-.06c.49 1 1.35 1.46 2.19 1.07a1.64 1.64 0 0 0 .6-2.37l-.84-1.81-2.79 1.3zm2.81 8.7l-1.93-.71-2.62 1.22-.79-1.68 9.11-4.23.78 1.68-4.36 2 6.35 2.26 1 2.22-5.89-2.17-3.19 6.44-1-2.12zm12.12 12.06c1.21 2.62.59 5.89-2.39 7.28s-5.89-.26-7.1-2.87a5.24 5.24 0 1 1 9.49-4.41zm-8 3.73a3.63 3.63 0 1 0 1.74-4.85 3.5 3.5 0 0 0-1.77 4.84zm1.88 7.45l9.11-4.23 2.87 6.19-1.45.68-2.09-4.51-2.56 1.18 1.88 4-1.42.66-1.88-4-3.67 1.7zm3.64 7.82l9.1-4.23 2.88 6.2-1.45.67-2.1-4.51-2.55 1.19 1.88 4-1.43.67-1.88-4.05-3.67 1.78zm3.63 7.82l9.11-4.23.79 1.72-9.1 4.23zm6.17 1.39a5.27 5.27 0 0 1 7.08 2.81c1.18 2.52.51 4.66-.87 5.85l-1.23-1.36a3 3 0 0 0 .65-3.82 3.62 3.62 0 1 0-6.56 3.06 3.27 3.27 0 0 0 3.38 2l.26 1.76a4.89 4.89 0 0 1-5.11-3.11c-1.28-2.68-.57-5.81 2.4-7.19zm.68 13.36l9.1-4.23 2.86 6.15-1.44.67-2.07-4.44-2.42 1.12 1.88 4.05-1.4.65-1.88-4-2.41 1.12 2.07 4.46-1.43.67zM906 281a2 2 0 0 0 .49-2.61 1.68 1.68 0 0 0-2.1-1.1 1.34 1.34 0 0 0-.63 1.71l.39 1.55c.5 1.91-.08 3.32-1.36 3.92s-3.35 0-4.4-2.24c-1.18-2.53-.23-4.39 1-5.15l1.14 1.38a2.3 2.3 0 0 0-.77 3.12c.56 1.2 1.4 1.56 2.11 1.23s.84-1 .61-1.91l-.38-1.53c-.43-1.65 0-3.08 1.38-3.71 1.52-.71 3.5.23 4.36 2.09 1.08 2.34.2 3.86-.71 4.56zm-3.32 9.92l9.11-4.23 1.64 3.53c1.25 2.71.6 5.61-2.33 7s-5.53-.06-6.79-2.76zm3 2.8a3.46 3.46 0 1 0 6.29-2.9l-.83-1.79-6.26 2.97zm6.67 8.61l-.57-1.24-3.6 1.67-.79-1.7 9.11-4.23 1.77 3.82c.9 1.93.23 3.69-1.31 4.4a2.89 2.89 0 0 1-3.64-1l-2.7 4-.89-1.91zm1.63-.06c.48 1 1.35 1.46 2.18 1.07a1.64 1.64 0 0 0 .61-2.37l-.84-1.81-2.79 1.3zm-2.53 7.53l9.1-4.23.8 1.71-9.1 4.23zm13.96 6.2l.83 1.78-10.86.46-.79-1.71 7.38-7.94.85 1.83-5.8 6.07zm-7.66 7.36l9.11-4.23 2.85 6.16-1.43.66-2.08-4.46-2.41 1.12 1.88 4-1.4.65-1.88-4-2.39 1.12 2.08 4.47-1.44.66z"/></g><path d="M300.61 209.81v-.7a1.73 1.73 0 0 0-.73-1.43v-.06a3.05 3.05 0 0 0-1.73-2.67v-.41a6.44 6.44 0 0 0-1.62-4.31 6.8 6.8 0 0 1-1.74-4.48v-4.6h.82a2.78 2.78 0 0 0 2.82-2.8v-4.23a1.16 1.16 0 0 0-1.2-1.11h-2.85a1.16 1.16 0 0 0-1.2 1.11v1.29h-.46v-1.29a1.16 1.16 0 0 0-1.2-1.11h-3.41a1.16 1.16 0 0 0-1.2 1.11v1.29h-.46v-1.29a1.16 1.16 0 0 0-1.19-1.11h-2.91a1.16 1.16 0 0 0-1.2 1.11v4.23a2.81 2.81 0 0 0 2.82 2.8h.59v4.74a6.55 6.55 0 0 1-1.68 4.34 6.51 6.51 0 0 0-1.67 4.36v.49a3 3 0 0 0-1.46 2.49v.09a1.78 1.78 0 0 0-.73 1.4v1.11a1.92 1.92 0 0 0 2 1.83h17.63a1.91 1.91 0 0 0 2-1.83.61.61 0 0 0-.04-.36zM284 189.88a1.56 1.56 0 0 1-1.55-1.53v-4.07h2.76V186a.63.63 0 0 0 .64.64h1.73a.64.64 0 0 0 .64-.64v-1.76h3.26V186a.63.63 0 0 0 .63.64h1.74a.63.63 0 0 0 .63-.64v-1.76h2.71v4.07a1.52 1.52 0 0 1-1.55 1.53H284zm-.15 11.2a7.82 7.82 0 0 0 2-5.19v-4.74h7.68v4.6a8.08 8.08 0 0 0 2.06 5.33 5.1 5.1 0 0 1 1.3 3.46v.28h-14.4v-.23a5.26 5.26 0 0 1 1.33-3.51zm-1.83 5h15.6a1.88 1.88 0 0 1 1 1.28H281a1.82 1.82 0 0 1 1-1.27zm16.7 4.64h-17.66c-.43 0-.77-.25-.77-.56v-1.11a.54.54 0 0 1 .28-.42H299a.5.5 0 0 1 .34.47v1.06a.85.85 0 0 0 0 .23.78.78 0 0 1-.65.34z" stroke-width=".25" stroke="#06538f" fill="#06538f" stroke-miterlimit="10"/><path class="ay" d="M274.06 226.6l-.11-1a3.21 3.21 0 0 1-2.73 1.25 4.56 4.56 0 0 1-4.63-4.82 4.66 4.66 0 0 1 4.74-4.83 4.19 4.19 0 0 1 4.24 2.84l-1.73.62a2.46 2.46 0 0 0-2.51-1.78 3.17 3.17 0 0 0 0 6.32 2.32 2.32 0 0 0 2.48-1.8h-2.91v-1.57h4.63v4.82zm8.8-2.11h-3.77l-.77 2.11h-1.9l3.55-9.26h2.09l3.53 9.26h-2zm-3.16-1.65h2.56l-1.28-3.5zm15.63 3.76v-6.49l-2.66 6.49h-1.5l-2.67-6.44v6.44h-1.72v-9.26h2.37l2.79 6.69 2.71-6.69h2.46v9.26zm3.9 0v-9.26H305V219h-4v2.12h3.62v1.6H301v2.14h4v1.7zm12.21-6.55a1.58 1.58 0 0 0-1.69-1.31 1.3 1.3 0 0 0-1.44 1.18c0 .51.32.91 1 1l1.29.25a2.82 2.82 0 0 1 2.59 2.73 3 3 0 0 1-3.34 2.86 3.39 3.39 0 0 1-3.69-2.9l1.67-.44a1.86 1.86 0 0 0 2 1.73c1 0 1.5-.48 1.5-1.13s-.4-1-1.12-1.1l-1.21-.22a2.7 2.7 0 0 1-2.43-2.65 3.35 3.35 0 0 1 6.54-.5z"/><path class="az" d="M386.66 287.16s7.7 7.47 14.36 7.47c7 0 14.36-6.41 14.36-6.41s-3.27 10.75-14 10.75c-10.61.03-12.93-6.97-14.72-11.81zm0 0l-1.41 15.6m30.13-14.4l1.79 15.05"/><path class="ay" d="M368.2 318.55v-3.84h-4v3.84h-1.8v-9.26h1.8V313h4v-3.72h1.8v9.26zm9.44-2.12h-3.76l-.77 2.12h-1.91l3.56-9.26h2.09l3.52 9.26h-2zm-3.16-1.64H377l-1.28-3.51zm15.64 3.76v-6.49l-2.67 6.49H386l-2.66-6.44v6.44h-1.73v-9.26h2.38l2.78 6.68 2.72-6.68h2.45v9.26zm12.45 0v-6.49l-2.67 6.49h-1.5l-2.66-6.44v6.44H394v-9.26h2.38l2.78 6.68 2.72-6.68h2.45v9.26zm8.1-9.46a4.83 4.83 0 1 1-4.76 4.83 4.67 4.67 0 0 1 4.76-4.83zm0 7.9a3.09 3.09 0 1 0-2.89-3.08 2.86 2.86 0 0 0 2.89 3.09zm5.79-3.07a4.67 4.67 0 0 1 4.71-4.83 4.09 4.09 0 0 1 4.25 3.07l-1.7.54a2.42 2.42 0 0 0-2.55-1.87 3.08 3.08 0 0 0 0 6.15 2.58 2.58 0 0 0 2.6-1.89l1.68.5a4.2 4.2 0 0 1-4.28 3.15 4.62 4.62 0 0 1-4.71-4.82zm13.48.79l-1.15 1.29v2.58H427v-9.26h1.8v4.19l3.71-4.19h2.36l-3.67 4 3.7 5.23h-2.26zm10.61-2.71a1.59 1.59 0 0 0-1.69-1.31 1.32 1.32 0 0 0-1.45 1.18c0 .51.33.91 1 1l1.29.25a2.84 2.84 0 0 1 2.59 2.73 3 3 0 0 1-3.35 2.86 3.37 3.37 0 0 1-3.68-2.9l1.67-.44a1.86 1.86 0 0 0 2 1.74c1 0 1.51-.49 1.51-1.14s-.41-.95-1.13-1.1l-1.29-.26a2.7 2.7 0 0 1-2.43-2.65 3.36 3.36 0 0 1 6.55-.5z"/><path class="az" d="M390.75 160.22h20.17m-26.48 11.81h32.79m-20.98-8.54l-4 16.71m13.17-16.71l4 16.71"/><path class="ay" d="M361.89 191.89v3.48h-1.8v-9.26h3.46a2.89 2.89 0 1 1 0 5.78zm1.44-1.56a1.33 1.33 0 1 0 0-2.65h-1.43v2.65zm4.67 5.04v-9.26h1.82v9.26zm3.36-4.62a4.68 4.68 0 0 1 4.72-4.83 4.07 4.07 0 0 1 4.24 3.07l-1.7.53a2.41 2.41 0 0 0-2.54-1.86 3.08 3.08 0 0 0 0 6.15 2.57 2.57 0 0 0 2.6-1.9l1.69.51a4.21 4.21 0 0 1-4.29 3.15 4.63 4.63 0 0 1-4.72-4.82zm16.54 4.62l-4.21-6.57v6.57h-1.8v-9.26h2.25l3.85 6.13v-6.13h1.8v9.26zm4.01 0v-9.26h1.83v9.26zm3.4-4.62a4.67 4.67 0 0 1 4.71-4.83 4.09 4.09 0 0 1 4.25 3.07l-1.7.53a2.41 2.41 0 0 0-2.55-1.86 3.08 3.08 0 0 0 0 6.15 2.58 2.58 0 0 0 2.6-1.9l1.68.51a4.2 4.2 0 0 1-4.28 3.15 4.62 4.62 0 0 1-4.71-4.82zm19.27 2.51h-3.77l-.77 2.11h-1.9l3.55-9.26h2.09l3.53 9.26h-2zm-3.16-1.65H414l-1.27-3.5zm9.83.2h-.94v3.56h-1.81v-9.26h3.61a2.78 2.78 0 0 1 3 2.85 2.63 2.63 0 0 1-2 2.63l2 3.78h-2zm.52-1.55a1.3 1.3 0 1 0 0-2.58h-1.46v2.58zm4.89 5.11v-9.26h5.8v1.7h-4v2.12h3.62v1.6h-3.62v2.15h4v1.69zm13.12-2.11H436l-.77 2.11h-1.9l3.55-9.26H439l3.52 9.26h-1.95zm-3.17-1.65h2.56l-1.28-3.5zM271.85 306c1.8 0 2.82 1.06 2.82 2.49a2.06 2.06 0 0 1-1.35 2 2.2 2.2 0 0 1 1.64 2.19 2.6 2.6 0 0 1-2.86 2.59h-3.58V306zm-.28 3.83a1.16 1.16 0 0 0 1.32-1.17c0-.7-.45-1.14-1.33-1.14h-1.27v2.31zm.19 3.93c.87 0 1.39-.46 1.39-1.2a1.2 1.2 0 0 0-1.37-1.24h-1.49v2.44zm4.72 1.47V306h5.81v1.7h-4v2.11h3.62v1.61h-3.62v2.14h4v1.7zm13.62 0l-4.21-6.57v6.57h-1.8V306h2.24l3.86 6.12V306H292v9.26zm3.46-4.62a4.67 4.67 0 0 1 4.71-4.84 4.09 4.09 0 0 1 4.25 3.07l-1.7.54a2.42 2.42 0 0 0-2.55-1.87 3.08 3.08 0 0 0 0 6.15 2.58 2.58 0 0 0 2.6-1.89l1.68.51a4.21 4.21 0 0 1-4.28 3.15 4.62 4.62 0 0 1-4.71-4.82zm16.37 4.62v-3.84h-4v3.84h-1.8V306h1.8v3.72h4V306h1.81v9.26zm3.93 0V306h5.8v1.7h-4v2.11h3.62v1.61h-3.62v2.14h4v1.7zm12.21-6.56a1.57 1.57 0 0 0-1.68-1.3 1.31 1.31 0 0 0-1.45 1.17 1.06 1.06 0 0 0 1 1l1.3.25a2.82 2.82 0 0 1 2.58 2.73 3 3 0 0 1-3.34 2.86 3.39 3.39 0 0 1-3.69-2.9l1.68-.45a1.85 1.85 0 0 0 2 1.74c1 0 1.5-.48 1.5-1.14s-.4-.95-1.12-1.09l-1.29-.26a2.71 2.71 0 0 1-2.43-2.66 3.35 3.35 0 0 1 6.54-.49z"/><path class="az" d="M310.41 287.07v5.75m-22.15-5.75v5.75m-3.45 7.11v-7.11h29.05v7.11m-28.27-17.82h27.49v4.8h-27.49z"/><path class="ay" d="M465.06 335.07h1.84l-2.56 9.26h-1.85l-2.12-6.59-2.12 6.59h-1.88l-2.57-9.26h1.91l1.7 6.38 2-6.38h1.86l2.07 6.4zm6.94-.19a4.83 4.83 0 1 1-4.75 4.83 4.67 4.67 0 0 1 4.75-4.83zm0 7.9a3.09 3.09 0 1 0-2.88-3.08 2.86 2.86 0 0 0 2.88 3.08zm9.12-2.01h-.95v3.56h-1.81v-9.26H482a2.78 2.78 0 0 1 2.95 2.85 2.64 2.64 0 0 1-2 2.63l2 3.78h-2zm.52-1.56a1.29 1.29 0 1 0 0-2.57h-1.47v2.57zm4.88 5.12v-9.26h3.32a4.63 4.63 0 0 1 0 9.26zm3.24-1.67a3 3 0 0 0 0-5.91h-1.45v5.91zm19.81-7.59h1.84l-2.56 9.26H507l-2.12-6.59-2.12 6.59h-1.88l-2.57-9.26h1.91l1.69 6.38 2-6.38h1.87l2.07 6.4zm8.02 7.15h-3.76l-.77 2.11h-1.91l3.55-9.26h2.09l3.53 9.26h-2zm-3.16-1.65H517l-1.28-3.5zm7.08 3.76v-9.26h1.8v7.54h4.13v1.72zm7.32 0v-9.26h1.8v7.54h4.13v1.72z"/><path class="ba" d="M493.04 324.65l-7.74-4.06-.09 8.56 7.83-4.5z"/><path class="ay" d="M489.32 326.82l-3.96-2.08-.05 4.38 4.01-2.3z"/><path class="ba" d="M496.87 298.61l6.81 3.58-10.64 22.46-7.74-4.06 11.57-21.98z"/><path class="ay" d="M76.53 145.82l83.26-40.66 1.43 2.97 15.99-8 1.84 2.99 16.36-8.41 3.89 6.47L218.65 92l20.91 41.04 57.32-28.27 23.62 44.54-16.65 8.13.77 2.71-15.1 7.75.77 3.09-49.57 25-1.55-3.31-16.65 8.52-1.55-2.71-16.26 8.52-25.95-49.18-43.33 22.24-2.36-4.04-16.6 8.68-1.6-2.87-17.04 8.52-21.3-44.54zm250.19-59.18l83.26-40.66 1.43 2.96 15.99-8 1.84 3 16.37-8.42 3.88 6.47 17.67 37.48 2.28-.86 17.47 34.75 42.79-21.69 1.79 2.63 16.33-8.26 2.14 3.2L566.15 81l21.25 43.59-81.9 41.63-1.75-3.1-16.07 8.13-1.35-2.71-16.34 7.88-41.04-77.78-43.33 22.25-2.36-4.05-16.6 8.68-1.6-2.87-16.49 8.25-21.85-44.26z"/><path class="bb" d="M305.75 126.84l5.34 9.74 34.94-17.14-4.91-10.26-35.37 17.66z"/><path class="bc" d="M211.85 145.39a1.66 1.66 0 0 1 1.88 1.66 1.39 1.39 0 0 1-.9 1.33 1.45 1.45 0 0 1 1.09 1.46 1.73 1.73 0 0 1-1.91 1.72h-2.39v-6.17zm-.19 2.55c.55 0 .88-.3.88-.77s-.3-.77-.89-.77h-.84v1.54zm.13 2.62c.58 0 .93-.3.93-.8a.81.81 0 0 0-.92-.83h-1v1.63zm3.09-1.18v-4h1.2v3.9a1.17 1.17 0 1 0 2.34 0v-3.9h1.2v4a2.37 2.37 0 0 1-4.74 0zm6.12 2.18v-6.17h1.22v6.17zm2.6 0v-6.17h1.2v5h2.76v1.14zm4.88 0v-6.17h2.21a3.09 3.09 0 0 1 0 6.17zm2.16-1.11a2 2 0 0 0 0-3.95h-1v3.95zm4.14 1.11v-6.17H236v6.17zm6.64 0l-2.8-4.38v4.38h-1.21v-6.17h1.5l2.57 4.08v-4.08h1.21v6.17zm7.29 0l-.08-.7a2.1 2.1 0 0 1-1.82.84 3 3 0 0 1-3.08-3.22 3.11 3.11 0 0 1 3.16-3.22 2.78 2.78 0 0 1 2.82 1.9l-1.15.41a1.64 1.64 0 0 0-1.67-1.19 2.12 2.12 0 0 0 0 4.22 1.54 1.54 0 0 0 1.65-1.2h-2v-1.05h3.09v3.21zm-28.54 6.31a17.75 17.75 0 0 0-5.95 12.2H211a18.24 18.24 0 0 1 5.53-12.07h-7.63v-2.72h11.27zm2.95-.48a5.59 5.59 0 0 1 4.89-2.5 5.53 5.53 0 0 1 4.87 2.5 11.22 11.22 0 0 1 0 10.56 5.54 5.54 0 0 1-4.87 2.49 5.6 5.6 0 0 1-4.89-2.49 11.3 11.3 0 0 1 0-10.56zm2.65 9.05a2.49 2.49 0 0 0 2.24 1.21 2.42 2.42 0 0 0 2.22-1.21 9.1 9.1 0 0 0 0-7.55 2.42 2.42 0 0 0-2.22-1.21 2.49 2.49 0 0 0-2.24 1.21 9.31 9.31 0 0 0 0 7.55zm12.53-9.05a5.59 5.59 0 0 1 4.89-2.5 5.53 5.53 0 0 1 4.87 2.5 11.22 11.22 0 0 1 0 10.56 5.54 5.54 0 0 1-4.87 2.49 5.6 5.6 0 0 1-4.89-2.44 11.37 11.37 0 0 1 0-10.56zm2.65 9.05a2.49 2.49 0 0 0 2.24 1.21 2.42 2.42 0 0 0 2.22-1.21 9.1 9.1 0 0 0 0-7.55 2.42 2.42 0 0 0-2.22-1.21 2.49 2.49 0 0 0-2.24 1.21 9.31 9.31 0 0 0 0 7.55zm234.52-44.12a1.66 1.66 0 0 1 1.88 1.66 1.38 1.38 0 0 1-.9 1.33 1.46 1.46 0 0 1 1.09 1.46 1.74 1.74 0 0 1-1.91 1.73h-2.38v-6.18zm-.19 2.55c.55 0 .89-.3.89-.77s-.31-.77-.89-.77h-.85v1.54zm.13 2.62c.58 0 .93-.3.93-.8a.8.8 0 0 0-.92-.83h-1v1.63zm3.09-1.18v-4h1.2v3.9a1.17 1.17 0 1 0 2.34 0v-3.9h1.21v4a2.38 2.38 0 0 1-4.75 0zm6.09 2.19v-6.18h1.22v6.18zm2.63 0v-6.18h1.21v5h2.75v1.15zm4.88 0v-6.18h2.21a3.09 3.09 0 0 1 0 6.18zm2.16-1.12a2 2 0 0 0 0-3.95h-1v3.95zm4.15 1.12v-6.18h1.22v6.18zm6.59 0l-2.8-4.39v4.39H501v-6.18h1.5l2.57 4.08v-4.08h1.2v6.18zm7.33 0l-.07-.71a2.13 2.13 0 0 1-1.83.84 3 3 0 0 1-3.08-3.22 3.11 3.11 0 0 1 3.16-3.22 2.8 2.8 0 0 1 2.83 1.9l-1.15.41a1.66 1.66 0 0 0-1.68-1.19 2.12 2.12 0 0 0 0 4.22 1.56 1.56 0 0 0 1.66-1.2h-1.95v-1h3.08v3.22zm-29.58 6.57a6.44 6.44 0 0 0-2.45-.52 4.64 4.64 0 0 0-4.91 4.25 4.17 4.17 0 0 1 3.52-1.65 4.75 4.75 0 0 1 5.12 5c0 3-2.47 5.21-5.74 5.21s-6-2.34-6-6.82c0-5.32 3.34-8.7 8.23-8.7a6.54 6.54 0 0 1 3.11.68zm-4.48 9.62a2.48 2.48 0 1 0-2.61-2.49 2.51 2.51 0 0 0 2.61 2.49zm9.56-10.37a5.58 5.58 0 0 1 4.89-2.49 5.52 5.52 0 0 1 4.87 2.49 11.22 11.22 0 0 1 0 10.56 5.54 5.54 0 0 1-4.87 2.49 5.6 5.6 0 0 1-4.89-2.49 11.3 11.3 0 0 1 0-10.56zm2.65 9.05a2.47 2.47 0 0 0 2.24 1.21 2.42 2.42 0 0 0 2.22-1.21 9.08 9.08 0 0 0 0-7.54 2.41 2.41 0 0 0-2.22-1.22 2.46 2.46 0 0 0-2.24 1.22 9.28 9.28 0 0 0 0 7.54zm12.52-9.05a5.58 5.58 0 0 1 4.89-2.49 5.52 5.52 0 0 1 4.87 2.49 11.22 11.22 0 0 1 0 10.56 5.54 5.54 0 0 1-4.87 2.49 5.6 5.6 0 0 1-4.89-2.49 11.3 11.3 0 0 1 0-10.56zm2.65 9.05a2.47 2.47 0 0 0 2.24 1.21 2.42 2.42 0 0 0 2.22-1.21 9.08 9.08 0 0 0 0-7.54 2.41 2.41 0 0 0-2.22-1.22 2.46 2.46 0 0 0-2.24 1.22 9.28 9.28 0 0 0 0 7.54z"/><g class="ab"><path class="s" d="M254.31 376.07c1.42-1.71 4.89-1.12 8.28 1.44 2.39 1.8 3.44.72 5 1.88 3.39 2.59 5.21 8 5.22 10.61s-.12 3.62-2.1 6.47-1.12 6.41-4.44 7.62-3.37 3.16-6.32 1-4.15-.07-6.42-2.12-2.16-3-4.69-4.05-5.14-1.66-6.2-5.37-2.27-1.07-.83-6.9 3.62-6.09 5.17-8.1 4.76.61 7.33-2.48z"/><path class="s" d="M259.9 405.11c3 2.14 3 .2 6.32-1s2.46-4.77 4.44-7.62 2.11-3.83 2.1-6.47a9.85 9.85 0 0 0-.31-2.27c0 2.62-.12 3.61-2.1 6.44s-1.12 6.41-4.44 7.63-3.37 3.16-6.32 1-4.15-.08-6.42-2.12-2.16-3-4.69-4.05-5.13-1.67-6.2-5.38a5.91 5.91 0 0 0-1.05-2.2c-.48 2.69.49 1.45 1.36 4.5 1.06 3.71 3.67 4.35 6.2 5.37s2.42 2 4.69 4.05 3.46.01 6.42 2.12z"/><path class="bd" d="M221.82 380.46c4.39-2.18 7.53 2.91 6.89 4.13.67 1.11 5.18 2.91 3 5.16.58.73-5.22 10.18-7.77 8.06-4-3.31-9.6 3-10.79-9.87 0 0 1.22-4.29 3.5-5.85 1.58-1.09 3.42-.75 5.17-1.63z"/><path class="s" d="M223.93 397.81c-4-3.31-9.6 3-10.79-9.87a4.4 4.4 0 0 1 .17-.55 14.64 14.64 0 0 0-.74 2c1.19 12.9 6.82 6.56 10.8 9.86 2.37 2 7.58-6.1 7.8-7.79-1.46 2.85-5.29 7.96-7.24 6.35z"/><path class="be" d="M239.53 399.43c-1.51 1.12-4 0-6-2.61-1.39-1.86-2.46-1.17-3.34-2.36-2-2.68-2.05-7.3-1.4-9.43s1-2.88 3.2-4.82 2.44-4.94 5.29-5.33c3.36-.47 7.56-.1 9.51 3.11 1.24 2 .92 2.8 2.61 4.07s3.53 2.23 3.44 5.39 1.48 1.25-1.06 5.68-4.28 4.25-6 5.59-3.52-1.32-6.25.71z"/><path class="s" d="M233.64 398.27c2 2.64 4.5 3.72 6 2.6 2.73-2 4.6.64 6.28-.71s3.42-1.16 6-5.59c1.88-3.28 1.5-3.08 1.22-4a19.07 19.07 0 0 1-1.34 2.6c-2.53 4.43-4.28 4.25-6 5.59s-3.55-1.32-6.28.71c-1.51 1.12-4 0-6-2.61-1.39-1.86-2.46-1.17-3.34-2.36a10.08 10.08 0 0 1-1.64-4.57 11.13 11.13 0 0 0 1.76 6c.87 1.16 1.95.48 3.34 2.34zm12.17-38.84c1.42-1.71 4.9-1.12 8.29 1.44 2.39 1.8 3.44.72 5 1.87 3.39 2.6 5.21 8 5.22 10.61s-.12 3.63-2.1 6.48-1.12 6.4-4.45 7.62-3.36 3.16-6.32 1-4.15-.07-6.41-2.12-2.16-3-4.69-4.05-5.14-1.66-6.2-5.38-2.27-1.06-.83-6.89 3.62-6.09 5.17-8.1 4.76.61 7.32-2.48z"/><path class="bf" d="M245.51 357.14c1.41-1.71 4.89-1.12 8.28 1.44 2.39 1.79 3.44.71 5 1.87 3.39 2.59 5.21 8 5.22 10.61s-.12 3.63-2.1 6.47-1.12 6.41-4.45 7.63-3.36 3.15-6.32 1-4.15-.08-6.41-2.12-2.16-3-4.69-4.05-5.14-1.67-6.2-5.38-2.27-1.06-.83-6.9 3.62-6.09 5.17-8.1 4.76.61 7.33-2.47z"/><path class="s" d="M251.4 388.47c3 2.14 3 .2 6.32-1s2.46-4.78 4.45-7.62 2.11-3.83 2.1-6.48a10.43 10.43 0 0 0-.31-2.26c0 2.62-.13 3.6-2.1 6.44s-1.12 6.41-4.45 7.63-3.36 3.15-6.32 1-4.15-.08-6.41-2.12-2.16-3-4.69-4.05-5.14-1.67-6.2-5.38a5.78 5.78 0 0 0-1.06-2.2c-.47 2.69.49 1.45 1.37 4.5 1.06 3.7 3.67 4.35 6.2 5.37s2.42 2 4.69 4.05 3.46-.02 6.41 2.12z"/><path d="M254 373.78c1.42-1.71 4.89-1.12 8.28 1.44 2.39 1.8 3.44.71 5 1.87 3.39 2.6 5.21 8 5.22 10.61s-.12 3.63-2.1 6.47-1.12 6.41-4.44 7.63-3.37 3.15-6.32 1-4.15-.08-6.42-2.12-2.16-3-4.69-4.05-5.13-1.67-6.2-5.38-2.27-1.06-.83-6.89 3.62-6.09 5.17-8.11 4.76.61 7.33-2.47z" fill="#5fb280" opacity=".65" fill-rule="evenodd"/><path class="bf" d="M222.47 421.93c.76.35.89 1.68.29 3.18-.43 1.05.07 1.33-.21 2a5.93 5.93 0 0 1-3.37 2.95 7.21 7.21 0 0 1-3.76-.47c-1.24-.45-2.43-.41-3.2-1.5s-1.49-.93-1-2.22-.38-1.53.15-2.56.89-1.09 1-2.12 1.16-.85 2.42-1.6.17-.94 2.44-1 2.59.73 3.48 1.09.38 1.61 1.76 2.25z"/><path class="s" d="M219.18 430.06a7.21 7.21 0 0 1-3.76-.47c-1.24-.45-2.43-.41-3.2-1.5s-1.49-.93-1-2.22c.41-1.07-.12-1.42 0-2.09-.06.1-.12.2-.18.32-.52 1 .35 1.27-.15 2.56s.23 1.12 1 2.22 2 1.06 3.2 1.5a7.13 7.13 0 0 0 3.76.47 6 6 0 0 0 3.38-3 1.82 1.82 0 0 0 .08-.29 6.16 6.16 0 0 1-3.13 2.5z"/><path class="bf" d="M207.73 388.87c4.39-2.19 7.53 2.91 6.89 4.12.67 1.12 5.18 2.92 3 5.17.58.72-5.22 10.17-7.77 8-4-3.3-9.6 3-10.79-9.86 0-.05 1.22-4.3 3.5-5.85 1.58-1.04 3.44-.71 5.17-1.58z"/><path class="s" d="M209.84 406.21c-4-3.3-9.6 3-10.79-9.86a4.81 4.81 0 0 1 .17-.56 14.48 14.48 0 0 0-.74 2c1.19 12.9 6.82 6.55 10.8 9.86 2.37 2 7.58-6.11 7.8-7.79-1.46 2.86-5.29 7.97-7.24 6.35z"/><path class="be" d="M223.43 415.66c-1.51 1.12-4 0-6-2.6-1.4-1.86-2.47-1.18-3.35-2.37-2-2.67-2-7.3-1.4-9.42s1-2.89 3.2-4.83 2.44-4.94 5.29-5.33c3.36-.46 7.56-.09 9.51 3.11 1.24 2 .92 2.8 2.61 4.07s3.54 2.24 3.44 5.4 1.48 1.24-1.05 5.67-4.28 4.25-6 5.59-3.52-1.31-6.25.71z"/><path class="s" d="M217.53 414.5c2 2.65 4.5 3.73 6 2.61 2.73-2 4.6.63 6.28-.71s3.43-1.17 6-5.6c1.88-3.27 1.51-3.08 1.22-4a17.49 17.49 0 0 1-1.33 2.6c-2.54 4.43-4.28 4.25-6 5.59s-3.55-1.31-6.28.71c-1.51 1.12-4 0-6-2.6-1.4-1.86-2.47-1.18-3.35-2.37a10 10 0 0 1-1.63-4.57 11 11 0 0 0 1.75 6c.88 1.16 1.95.48 3.34 2.34z"/><path class="bf" d="M224.24 420.24c4.38-2.18 7.53 2.92 6.88 4.13.68 1.11 5.19 2.91 3 5.16.58.73-5.22 10.18-7.77 8.06-4-3.31-9.6 3-10.8-9.87 0 0 1.23-4.29 3.51-5.85 1.59-1.08 3.43-.75 5.18-1.63z"/><path class="s" d="M226.35 437.59c-4-3.31-9.6 3-10.8-9.87 0 0 .06-.22.17-.55a14.64 14.64 0 0 0-.74 2c1.2 12.9 6.82 6.56 10.8 9.86 2.38 2 7.58-6.1 7.8-7.79-1.45 2.85-5.29 7.96-7.23 6.35zm20.28-20.65c1-1.26 3.59-.82 6.08 1.05 1.75 1.32 2.52.53 3.63 1.38a11.55 11.55 0 0 1 3.83 7.78 6.37 6.37 0 0 1-1.55 4.75c-1.45 2.09-.82 4.7-3.26 5.59s-2.47 2.32-4.63.75-3-.05-4.71-1.55-1.59-2.22-3.44-3-3.77-1.23-4.55-4-1.66-.78-.61-5.06 2.66-4.46 3.79-5.94 3.53.51 5.42-1.75z"/><path class="bd" d="M246.4 415.25c1-1.25 3.59-.82 6.08 1.06 1.75 1.32 2.52.53 3.63 1.38a11.51 11.51 0 0 1 3.83 7.78 6.4 6.4 0 0 1-1.54 4.75c-1.46 2.09-.82 4.7-3.26 5.59s-2.47 2.32-4.64.75-3-.06-4.71-1.55-1.58-2.22-3.44-3-3.77-1.22-4.55-3.94-1.66-.78-.61-5.06 2.66-4.47 3.8-5.95 3.53.46 5.41-1.81z"/></g><path d="M98 378.3l-6.18-3.61H82l-4.83-1.32s-.77-.21-.77.45a1.55 1.55 0 0 0 .68 1.31l4.12 2.71v4.5l-2 7.49s0 .47.41.47h1.07c.62 0 1.09-.72 1.09-.72l4-6.59 8.5 1.19c1.38 2.35 3.69 6.12 4.28 6.12h1.87c.31 0 .29-.41.29-.41L98 382.34zm7.75-12.17c-1.74 0-7.48.83-10.77 1.34-.47-.44-1-1-1.56-1.43-1-.88-1.11.21-1.11.21l.52 2.72.73 3.82 5.78 3.38v-1.56c1.77.19 4.33.43 4.91.39.89-.08.81-1.58.47-1.34a12.12 12.12 0 0 1-3.15-.47c-.21 0-.2-1.09-.2-1.09.5-.54 3.75-.61 4.35-1.58.88-2.38 1.28-4.38.03-4.39z" stroke-width="1.6" stroke="#06538f" stroke-linecap="round" stroke-linejoin="round" fill="none"/><path class="ay" d="M58.89 406.7v-9.26h3.32a4.63 4.63 0 0 1 0 9.26zm3.24-1.7a3 3 0 0 0 0-5.91h-1.44V405zm10.43-7.76a4.83 4.83 0 1 1-4.76 4.83 4.66 4.66 0 0 1 4.76-4.83zm0 7.9a3.09 3.09 0 1 0-2.89-3.08 2.86 2.86 0 0 0 2.89 3.08zm13.25 1.56l-.11-1.06a3.18 3.18 0 0 1-2.7 1.25 4.56 4.56 0 0 1-4.63-4.82 4.66 4.66 0 0 1 4.74-4.83 4.19 4.19 0 0 1 4.24 2.85l-1.73.61a2.46 2.46 0 0 0-2.51-1.77 3.17 3.17 0 0 0 0 6.32 2.32 2.32 0 0 0 2.48-1.81h-2.94v-1.56h4.63v4.82zm8.31-3.49v3.49h-1.8v-9.26h3.46a2.89 2.89 0 1 1 0 5.77zm1.44-1.56a1.33 1.33 0 1 0 0-2.65h-1.42v2.65zm9.44 2.93h-3.77l-.77 2.12h-1.9l3.55-9.26h2.09l3.53 9.26h-2zm-3.17-1.65h2.57l-1.29-3.5zm9.85.2h-.94v3.57h-1.81v-9.26h3.61a2.78 2.78 0 0 1 3 2.84 2.63 2.63 0 0 1-2 2.63l2 3.79h-2zm.52-1.55a1.3 1.3 0 1 0 0-2.58h-1.46v2.58zm7.8 1.28l-1.15 1.26v2.58h-1.8v-9.26h1.8v4.19l3.71-4.19H125l-3.67 4 3.67 5.26h-2.26zm795.31-12.58V459h-73.74v-17.46h-14.86v-15.97H811.3v-35.29h45.13v9.66h6.87v8.54h23.59v-18.2h28.42zM643.25 231.64l-9.49 4.45-10.26 6.97-82.49 41.25v22.28l-4.64 1.72 28.27 55 12.78-5.81 1.55 3.48 16.41-8.13 1.79 2.71 15.75-6.81 2.69 2.25 57.07-24.8v-22.4l6.1-2.66-35.53-69.5z"/><path class="bb" d="M569.05 119.12l12.17-5.37 64.46 123.55-10.95 7.26-11.38-24.41-5.4-1.8-9.65-20.63 1.02-5.02-40.27-73.58z"/><path class="bc" d="M591.25 294.58a1.66 1.66 0 0 1 1.88 1.66 1.38 1.38 0 0 1-.89 1.33 1.45 1.45 0 0 1 1.08 1.46 1.73 1.73 0 0 1-1.9 1.73H589v-6.18zm-.18 2.55c.55 0 .88-.3.88-.77s-.31-.77-.89-.77h-.85v1.54zm.12 2.62c.58 0 .93-.3.93-.8a.8.8 0 0 0-.91-.82h-1v1.62zm3.09-1.18v-4h1.2v3.9a1.18 1.18 0 1 0 2.35 0v-3.9H599v4a2.38 2.38 0 0 1-4.75 0zm6.1 2.19v-6.18h1.22v6.18zm2.62 0v-6.18h1.2v5h2.8v1.15zm4.88 0v-6.18h2.22a3.09 3.09 0 0 1 0 6.18zm2.16-1.12a2 2 0 0 0 0-3.95h-1v3.95zm4.15 1.12v-6.18h1.22v6.18zm6.64 0l-2.83-4.39v4.39h-1.2v-6.18h1.5l2.57 4.09v-4.09h1.2v6.18zm7.29 0l-.08-.71a2.13 2.13 0 0 1-1.82.84 3 3 0 0 1-3.09-3.22 3.11 3.11 0 0 1 3.17-3.22 2.79 2.79 0 0 1 2.82 1.9l-1.15.41a1.65 1.65 0 0 0-1.67-1.19 2.12 2.12 0 0 0 0 4.22 1.55 1.55 0 0 0 1.65-1.2h-2v-1h3.08v3.22zm-39.91 14.5a3.91 3.91 0 0 1 2.63-3.61 3.61 3.61 0 0 1-2.33-3.31c0-2.49 2.22-4.25 5.3-4.25s5.31 1.76 5.31 4.25a3.61 3.61 0 0 1-2.31 3.31 3.9 3.9 0 0 1 2.6 3.61c0 2.56-2.21 4.35-5.6 4.35s-5.6-1.79-5.6-4.35zm8.12-.32a2.23 2.23 0 0 0-2.52-2.1 2.11 2.11 0 1 0 0 4.16c1.65 0 2.52-1 2.52-2.06zm-.32-6.37a2.2 2.2 0 1 0-2.2 1.94 2 2 0 0 0 2.19-1.94zm7.38-1.99a5.61 5.61 0 0 1 4.89-2.49 5.52 5.52 0 0 1 4.87 2.49 11.15 11.15 0 0 1 0 10.56 5.54 5.54 0 0 1-4.87 2.49 5.63 5.63 0 0 1-4.89-2.49 11.37 11.37 0 0 1 0-10.56zm2.65 9.05a2.49 2.49 0 0 0 2.24 1.21 2.42 2.42 0 0 0 2.22-1.21 9.08 9.08 0 0 0 0-7.54 2.41 2.41 0 0 0-2.22-1.22 2.47 2.47 0 0 0-2.24 1.22 9.28 9.28 0 0 0 0 7.54zm12.53-9.05a5.61 5.61 0 0 1 4.89-2.49 5.52 5.52 0 0 1 4.87 2.49 11.15 11.15 0 0 1 0 10.56 5.54 5.54 0 0 1-4.87 2.49 5.63 5.63 0 0 1-4.89-2.49 11.37 11.37 0 0 1 0-10.56zm2.65 9.05a2.49 2.49 0 0 0 2.24 1.21 2.42 2.42 0 0 0 2.22-1.21 9.08 9.08 0 0 0 0-7.54 2.41 2.41 0 0 0-2.22-1.22 2.47 2.47 0 0 0-2.24 1.22 9.28 9.28 0 0 0 0 7.54zm239.46 106.2a1.67 1.67 0 0 1 1.88 1.66 1.38 1.38 0 0 1-.89 1.33 1.45 1.45 0 0 1 1.08 1.46 1.74 1.74 0 0 1-1.9 1.73h-2.39v-6.18zm-.18 2.55c.55 0 .88-.3.88-.77s-.31-.77-.89-.77h-.85v1.54zm.12 2.63c.58 0 .93-.31.93-.81a.8.8 0 0 0-.91-.82h-1V427zm3.09-1.19v-4h1.2v3.9a1.18 1.18 0 1 0 2.35 0v-3.9h1.2v4a2.38 2.38 0 0 1-4.75 0zm6.1 2.18v-6.18H871V428zm2.63 0v-6.18h1.2v5h2.75V428zm4.87 0v-6.18h2.22a3.09 3.09 0 0 1 0 6.18zm2.16-1.12a2 2 0 0 0 0-3.95h-1v3.95zm4.15 1.12v-6.18h1.22V428zm6.64 0l-2.81-4.39V428h-1.2v-6.18h1.5l2.57 4.09v-4.09h1.2V428zm7.29 0l-.08-.71a2.13 2.13 0 0 1-1.82.84 3 3 0 0 1-3.09-3.22 3.11 3.11 0 0 1 3.17-3.22 2.79 2.79 0 0 1 2.82 1.9l-1.15.41a1.65 1.65 0 0 0-1.67-1.19 2.12 2.12 0 0 0 0 4.22 1.55 1.55 0 0 0 1.65-1.2h-1.95v-1h3.08V428zm-40.46 12.05l6.24-8.37h3.89v9h2.45v2.7h-2.45v3.17h-3.11v-3.17h-7zm7-5.08l-4.23 5.67h4.23zm9.12-1.14a5.6 5.6 0 0 1 4.89-2.49 5.54 5.54 0 0 1 4.87 2.49 11.15 11.15 0 0 1 0 10.56 5.54 5.54 0 0 1-4.87 2.49 5.6 5.6 0 0 1-4.89-2.49 11.37 11.37 0 0 1 0-10.56zm2.65 9.05a2.49 2.49 0 0 0 2.24 1.21 2.42 2.42 0 0 0 2.22-1.21 9.08 9.08 0 0 0 0-7.54 2.4 2.4 0 0 0-2.22-1.21 2.47 2.47 0 0 0-2.24 1.21 9.28 9.28 0 0 0 0 7.54zm12.53-9.05a5.6 5.6 0 0 1 4.89-2.49 5.54 5.54 0 0 1 4.87 2.49 11.15 11.15 0 0 1 0 10.56 5.54 5.54 0 0 1-4.87 2.49 5.6 5.6 0 0 1-4.89-2.49 11.37 11.37 0 0 1 0-10.56zm2.65 9.05a2.49 2.49 0 0 0 2.24 1.21 2.42 2.42 0 0 0 2.22-1.21 9.08 9.08 0 0 0 0-7.54 2.4 2.4 0 0 0-2.22-1.21 2.47 2.47 0 0 0-2.24 1.21 9.28 9.28 0 0 0 0 7.54z"/></g></svg>