<svg xmlns="http://www.w3.org/2000/svg" viewBox="0 0 976.83 648"><defs><style>.a,.bs,.by{fill:none}.d{clip-path:url(#b)}.k{fill:#1b7749}.ac,.ae,.af,.ah,.ai,.aj,.ak,.al,.ao,.ap,.aq,.ar,.au,.av,.ax,.ay,.az,.ba,.k,.m,.w,.x{fill-rule:evenodd}.k{opacity:.58}.m{fill:#145b4a;opacity:.5}.ac{fill:#0f473d}.ag{opacity:.3}.w{fill:#5ba576}.x{fill:#368372}.ae{fill:#319881}.af{fill:#51a08d}.ah{fill:#42aa4a}.ai{fill:#3c8761}.aj{fill:#2fa069}.ak{fill:#4ebc8b}.al{fill:#147b3e}.ao{fill:#4caa48}.ap{fill:#4d934d}.aq{fill:#297c54}.ar{fill:#199366}.au{fill:#318049}.av{fill:#2fa063}.ax{fill:#6dbc95}.ay{fill:#1c8246;opacity:.65}.az{fill:#5fb280}.ba{fill:#459168}.bd{fill:#e2e2e2}.be{opacity:.85;font-size:14.15px}.be,.bg{fill:#768d97}.be{font-family:CircularStd-Medium,Circular Std}.bg{font-size:18px}.bg,.bq,.cb{font-family:CircularStd-Bold,Circular Std;font-weight:700}.cb{fill:#fff}.bj{letter-spacing:0}.bs,.by{stroke:#06538f;stroke-linecap:round;stroke-linejoin:round}.bq,.bz{fill:#06538f}.bq{font-size:13.06px}.bs{stroke-width:1.75px}.by{stroke-width:1.59px}.cb{font-size:8.71px}.ci{font-size:22.86px}.ci,.cj{letter-spacing:.04em}</style><clipPath id="a"><path class="a" d="M0-3.53h976.83V648H0z"/></clipPath><clipPath id="b"><path class="a" d="M0 0h976.83v648H0z"/></clipPath><clipPath id="c"><path class="a" d="M-175.17 0h1152v648h-1152z"/></clipPath></defs><g clip-path="url(#a)"><path fill="#376e35" opacity=".4" d="M0 0h976.83v648H0z"/><g class="d"><g opacity=".6"><g opacity=".64" fill-rule="evenodd"><path d="M80.34 871.72c-24.46 5.31-51.19-24-63.59-70.33C8 768.82-8.8 771.17-14.19 750.37c-12.07-46.54 9.05-106.92 27.31-130.48S39.36 588.54 76.74 577s54.44-49.12 92.39-36.85S221 535.51 232.36 575s36.33 29.5 42.28 63.38-1.82 41.86 13.53 68.52 34 50.46 17.71 90.79 12.77 25.18-40.5 67-74.47 28.92-102.19 36.06-38.62-38.64-82.85-29.03z" opacity=".84" fill="#1b7749"/><path d="M180.12 591.45c-8.64 1.88-18.08-8.49-22.46-24.84-3.08-11.5-9-10.67-10.93-18-4.26-16.44 3.19-37.77 9.64-46.09s9.27-11.07 22.47-15.14 19.23-17.35 32.63-13 18.31-1.65 22.33 12.29 12.84 10.42 14.94 22.39-.64 14.78 4.78 24.2 12 17.82 6.25 32.06 4.51 8.9-14.3 23.68-26.3 10.21-36.09 12.73-13.64-13.67-29.26-10.28zM40.67 619.88c-9.43 2-19.74-9.26-24.52-27.11-3.36-12.56-9.85-11.65-11.93-19.67-4.65-18 3.49-41.22 10.53-50.31s10.11-12.09 24.53-16.53 21-18.94 35.62-14.21 20-1.8 24.38 13.43 14 11.37 16.3 24.44-.7 16.13 5.22 26.41 13.11 19.46 6.83 35 4.92 9.71-15.62 25.84-28.71 11.15-39.4 13.9-14.89-14.89-31.94-11.19z" opacity=".58" fill="#44a057"/><path d="M-230.93 734.89c-24.46 5.31-51.19-24-63.59-70.33-8.71-32.56-25.55-30.22-30.94-51-12.07-46.54 9-106.91 27.31-130.47s26.23-31.35 63.61-42.88 54.45-49.11 92.4-36.85 51.82-4.66 63.23 34.82 36.33 29.5 42.28 63.38-1.82 41.86 13.53 68.52 34 50.46 17.71 90.79 12.77 25.19-40.5 67-74.47 28.92-102.19 36.07-38.62-38.66-82.85-29.05z" opacity=".75" fill="#1b7749"/></g><g opacity=".75"><path class="k" d="M218.3 56.92c-1.11 11.28 13.48 21.77 34.95 24.92 15.1 2.22 14.92 9.92 24.56 11.26 21.56 3 47.61-9.66 57.25-19.1s12.73-13.44 16-30.85 19.25-27 11.75-43.48-.61-23.55-19-26.61-15.17-14.8-30.72-15.71-18.73 3-31.52-2.51-24.47-12.66-41.75-3.22-12-4.43-28 21.71-9.12 35-10.88 47.85 19.37 15.35 17.36 35.74z"/><path d="M436.05 7.11c.8 9.5-11.6 18.15-29.69 20.55-12.72 1.69-12.67 8.16-20.79 9.18-18.16 2.26-39.92-8.68-47.92-16.74S327.1 8.65 324.59-6s-15.87-23-9.37-36.7.79-19.8 16.26-22.17 12.93-12.26 26-12.84S373.21-75 384-79.48s20.73-10.36 35.16-2.22 10.14-3.58 23.32 18.59 7.25 29.55 8.59 40.36-16.47 12.69-15.02 29.86z" fill="#2e7f56" opacity=".58" fill-rule="evenodd"/><path class="k" d="M504 57.19c.91 10.78-13.16 20.59-33.69 23.32-14.43 1.92-14.37 9.26-23.58 10.41-20.62 2.57-45.31-9.85-54.38-19s-12-13-14.82-29.65-18-26.07-10.63-41.64.9-22.47 18.45-25.15S400-38.43 414.83-39.08s17.83 3.11 30.11-2 23.52-11.75 39.89-2.51 11.5-4.07 26.45 21.09S519.52 11 521 23.32s-18.69 14.38-17 33.87zM254.25 24c1 11.29-13.78 21.58-35.29 24.43-15.13 2-15.06 9.71-24.72 10.91-21.6 2.7-47.47-10.31-57-19.89s-12.52-13.58-15.5-31.03-18.87-27.32-11.14-43.64.94-23.54 19.33-26.35 15.37-14.59 30.93-15.27 18.69 3.26 31.55-2.07 24.65-12.32 41.8-2.64 12-4.26 27.72 22.1 8.63 35.13 10.21 48S252.53 3.62 254.25 24z"/></g><path class="m" d="M-240.92-56.48c0-25 34.35-44.92 82.22-47.21 33.67-1.61 34.95-18.56 56.42-19.42C-54.24-125 .28-91.59 19.43-68.74S44.5-36.45 47.83 2.53s36.45 63.62 16.41 98.11S57.8 152.27 16.8 155s-36.54 29.24-70.91 27.87-40.52-10.66-69.83-1.32-56.53 22.54-92.48-2-27.32 7.13-56.91-53.8-12.45-78.92-13.56-107.51 45.97-29.45 45.97-74.72z"/><path d="M6.21 39.66c-10-8.24-6.59-28.49 8.26-48.33 10.45-14 4.12-20 10.85-28.89 15.06-19.79 46.35-30.51 61.77-30.62s21.13.64 37.77 12.15 37.37 6.43 44.52 25.78 18.47 19.58 6.06 36.84-.37 24.2-12.24 37.41-17.6 12.65-23.53 27.41-9.64 30-31.25 36.23-6.15 13.24-40.19 5-35.57-21-47.34-30 3.37-28.06-14.68-42.98z" fill="#4f9e80" opacity=".58" fill-rule="evenodd"/><path d="M61.49-196c0-25 34.35-44.93 82.22-47.22 33.67-1.61 34.95-18.56 56.42-19.42 48-1.91 102.56 31.53 121.71 54.38S346.91-176 350.24-137s36.45 63.63 16.41 98.11-6.44 51.63-47.44 54.4-36.54 29.22-70.91 27.85S207.78 32.7 178.47 42s-56.53 22.54-92.48-2-27.32 7.22-56.91-53.71-12.45-78.92-13.56-107.52S61.49-150.77 61.49-196z" opacity=".35" fill="#0c4f43" fill-rule="evenodd"/><path d="M1024.82-325.51c23.74-7.94 53.51 18.31 70.88 63 12.22 31.41 28.7 27.25 36.33 47.33 17.07 44.95 2.66 107.27-12.92 132.68s-22.66 34-58.56 49.56-48.77 54.76-87.83 46.71S921.71 24 906.07-14s-39.33-25.36-48.94-58.4-2.76-41.8-20.92-66.63-39.32-46.45-27.51-88.32-15.44-23.64 32.95-71 70.88-36.86 97.65-47 42.6 34.21 85.52 19.84z" fill="#0f473d" opacity=".75" fill-rule="evenodd"/><path class="k" d="M884.26-83c9.85-3.3 22.21 7.59 29.41 26.13 5.07 13 11.91 11.31 15.08 19.64 7.08 18.66 1.11 44.52-5.36 55.07S914 31.92 899.08 38.36s-20.23 22.73-36.44 19.39S841.47 62 835 46.24 818.66 35.72 814.67 22 813.52 4.66 806-5.64s-16.33-19.28-11.43-36.66-6.41-9.81 13.67-29.48 29.42-15.3 40.53-19.5 17.68 14.2 35.49 8.28zm139.8 640.88c23.73-8 53.5 18.31 70.88 63 12.21 31.41 28.69 27.25 36.32 47.33 17.07 44.95 2.67 107.27-12.92 132.68s-22.66 34-58.56 49.56S1011 905.19 972 897.13s-51 10.29-66.64-27.71-39.36-25.36-49-58.42-2.75-41.8-20.92-66.63-39.32-46.45-27.5-88.32-15.45-23.64 32.94-71 70.88-36.87 97.65-47 42.6 34.2 85.53 19.83z"/><path d="M801.23 12.14c7.4 12.23-3.51 32.11-26.23 47.37-16 10.74-11.59 19.4-21.83 26.16-22.91 15.14-59.44 14.9-75.55 9.4s-21.79-8.38-34.94-26.44-36.61-20.32-37-43.1-12.11-27.13 7.11-40.6S622-40.16 639.2-49.65s22.95-6.76 34.51-20 21-27.73 45.78-26.38 11.24-11.56 43.7 9.48 29.41 34.9 38.4 48.55-13.73 28-.36 50.14z" opacity=".45" fill="#0f473d" fill-rule="evenodd"/><path d="M953.39 854.89c-4.78 24.57-42.29 37.55-89.72 30.67-33.36-4.84-37.85 11.55-59.09 8.3-47.52-7.28-94.66-50.51-109.1-76.59S677 780.79 681.19 741.9s-23.64-69.41 2.61-99.44 16.17-49.46 57-44.35 41.44-21.74 74.92-13.84 37.74 18.19 68.29 14.61 59.8-11.34 90.42 19.57 28.18-1.8 45.59 63.66-2.82 79.84-7.19 108.12-50.83 20.23-59.44 64.66z" fill="#0c4f43" opacity=".5" fill-rule="evenodd"/><path d="M1230.06 433.18c-4.78 24.57-42.29 37.55-89.72 30.67-33.36-4.85-37.85 11.55-59.09 8.3-47.53-7.29-94.66-50.52-109.1-76.6s-18.45-36.47-14.29-75.37-23.64-69.41 2.61-99.44 16.17-49.45 56.95-44.35 41.44-21.74 74.92-13.83 37.74 18.19 68.29 14.61 59.8-11.34 90.42 19.56 28.18-1.8 45.59 63.66-2.82 79.84-7.19 108.13-50.76 20.23-59.39 64.66z" opacity=".3" fill="#0c4f43" fill-rule="evenodd"/><path d="M689.79 714.71c-2 10.19-21.22 14.87-46 11-17.44-2.71-19.44 4.07-30.55 2.28-24.86-4-50.26-23.1-58.3-34.32s-10.34-15.66-9-31.87-13.7-29.56-.67-41.61 7.4-20.39 28.71-17.42 21.11-8.26 38.68-4.26 20 8.39 35.81 7.51 30.86-3.53 47.41 10 14.62-.18 25 27.6.16 33.4-1.54 45.16-25.97 7.49-29.55 25.93z" fill="#289364" opacity=".58" fill-rule="evenodd"/><path d="M810.1 591.21c7.87 6.78 4.81 23-7.45 38.64-8.62 11-3.64 16-9.19 23-12.42 15.62-37.7 23.69-50.07 23.51s-16.95-.87-30.1-10.39-29.87-5.79-35.28-21.43-14.48-16-4.23-29.66.71-19.41 10.46-29.84 14.33-9.84 19.34-21.58 8.24-23.88 25.68-28.54 5.16-10.52 32.33-3.3 28.18 17.48 37.46 24.88-3.17 22.44 11.05 34.71z" opacity=".25" fill="#4d995b" fill-rule="evenodd"/></g><g opacity=".25"><path class="w" d="M163.59 82.22c4.78-1 6.59 4.66 5.66 5.68.39 1.25 4.32 4.09 1.65 5.74.38.85-7.55 8.59-9.5 5.91-3.05-4.17-10.05.6-8.06-12.2 0 0 2.23-3.86 4.83-4.82 1.83-.66 3.51.11 5.42-.31z"/><path class="x" d="M161.4 99.55c-3.05-4.17-10.05.6-8.06-12.2 0 0 .11-.2.3-.5a13.91 13.91 0 0 0-1.21 1.78c-2 12.8 5 8 8.06 12.2 1.82 2.5 8.84-4.07 9.47-5.65-2.1 2.39-7.07 6.42-8.56 4.37z"/><path class="w" d="M176.13 104.94c-1.74.72-3.92-1-5.2-4-.89-2.14-2.1-1.74-2.66-3.11-1.25-3.07-.2-7.58.94-9.48s1.66-2.56 4.29-3.89 3.57-4.2 6.43-3.88c3.37.37 7.35 1.75 8.46 5.34.71 2.27.21 2.94 1.54 4.58s2.88 3 2 6.07 1.13 1.58-2.41 5.25-5.19 3.07-7.15 4-3.1-2.18-6.24-.88z"/><path class="x" d="M170.69 102.37c1.28 3 3.46 4.71 5.2 4 3.14-1.3 4.3 1.73 6.26.84s3.61-.29 7.15-4c2.62-2.72 2.21-2.62 2.16-3.62a18.89 18.89 0 0 1-1.92 2.19c-3.54 3.67-5.19 3.07-7.15 4s-3.12-2.14-6.26-.84c-1.74.72-3.92-1-5.2-4-.89-2.14-2.1-1.74-2.66-3.11a10.11 10.11 0 0 1-.47-4.83 11.17 11.17 0 0 0 .23 6.26c.56 1.37 1.77.97 2.66 3.11zM192 67.68c1.79-1.31 5 .11 7.68 3.42 1.88 2.33 3.16 1.54 4.35 3 2.65 3.34 3.1 9 2.47 11.56s-1 3.49-3.63 5.77-2.65 5.94-6.17 6.3-4 2.24-6.38-.55-4-1.09-5.7-3.62-1.36-3.46-3.56-5.07-4.57-2.88-4.7-6.73-1.94-1.59.88-6.89 5-5 7-6.6 4.51 1.78 7.76-.59z"/><path d="M192.25 65.38c1.79-1.31 5 .11 7.68 3.42 1.88 2.33 3.16 1.54 4.35 3 2.65 3.34 3.1 9 2.47 11.56s-1 3.49-3.63 5.77-2.65 5.94-6.17 6.3-4 2.24-6.38-.55-4-1.09-5.7-3.62-1.36-3.46-3.56-5.07-4.57-2.88-4.7-6.73-1.94-1.59.88-6.89 5-5 7-6.6 4.51 1.78 7.76-.59z" fill="#367b59" fill-rule="evenodd"/><path class="x" d="M190.31 97.21c2.35 2.79 2.86.92 6.38.55s3.56-4 6.17-6.3 3-3.2 3.62-5.76a9.74 9.74 0 0 0 .26-2.28c-.63 2.55-1 3.47-3.62 5.74s-2.65 5.94-6.17 6.3-4 2.24-6.37-.55-4-1.09-5.71-3.62-1.36-3.46-3.56-5.07-4.57-2.88-4.7-6.73a5.73 5.73 0 0 0-.48-2.4c-1.12 2.5.12 1.53.22 4.7.13 3.85 2.5 5.11 4.7 6.73s1.86 2.53 3.56 5.07 3.39.83 5.7 3.62z"/><path class="x" d="M196.16 85.9c1.79-1.31 5 .11 7.68 3.42 1.88 2.32 3.16 1.53 4.35 3 2.65 3.35 3.1 9 2.47 11.57s-1 3.48-3.62 5.76-2.66 5.94-6.18 6.31-4 2.24-6.37-.56-4-1.08-5.71-3.62-1.36-3.46-3.56-5.07-4.57-2.87-4.69-6.73-1.95-1.58.87-6.89 5-5 7-6.6 4.52 1.77 7.76-.59z"/><path class="w" d="M196.42 83.6c1.79-1.31 5 .11 7.68 3.42 1.88 2.32 3.16 1.53 4.35 3 2.65 3.34 3.1 9 2.47 11.57s-1 3.48-3.62 5.76-2.66 5.94-6.18 6.31-4 2.24-6.37-.56-4-1.08-5.71-3.62-1.36-3.46-3.56-5.07-4.57-2.87-4.69-6.73-1.95-1.58.87-6.89 5-5 7-6.6 4.52 1.81 7.76-.59z"/><path class="x" d="M194.49 115.42c2.34 2.8 2.86.92 6.37.56s3.56-4 6.18-6.31 3-3.2 3.62-5.76a10.29 10.29 0 0 0 .25-2.28c-.63 2.55-1 3.47-3.61 5.74s-2.66 5.94-6.18 6.31-4 2.24-6.37-.56-4-1.08-5.71-3.62-1.36-3.46-3.56-5.07-4.57-2.87-4.69-6.73a5.74 5.74 0 0 0-.49-2.39c-1.12 2.49.12 1.52.23 4.69.12 3.86 2.49 5.12 4.69 6.73s1.86 2.53 3.56 5.07 3.36.83 5.71 3.62z"/><path d="M139.16 103.79c.65.53.45 1.85-.5 3.15-.67.91-.25 1.31-.69 1.89a6 6 0 0 1-4 2 7.25 7.25 0 0 1-3.54-1.38c-1.09-.73-2.25-1-2.73-2.24s-1.22-1.26-.42-2.39 0-1.58.76-2.45 1.14-.83 1.51-1.8 1.34-.54 2.74-1 .39-.86 2.61-.35 2.33 1.34 3.1 1.91 0 1.7 1.16 2.66z" opacity=".45" fill="#145b4a" fill-rule="evenodd"/><path class="x" d="M134 110.87a7.25 7.25 0 0 1-3.54-1.38c-1.09-.73-2.25-1-2.73-2.24s-1.22-1.26-.42-2.39c.65-.94.23-1.4.49-2l-.25.27c-.76.87 0 1.31-.76 2.45s-.06 1.13.42 2.39 1.64 1.5 2.73 2.24a7.33 7.33 0 0 0 3.54 1.37 6 6 0 0 0 4-2 .87.87 0 0 0 .15-.26 6.19 6.19 0 0 1-3.63 1.55z"/><path class="w" d="M150 96.37c4.79-1.05 6.59 4.66 5.67 5.68.38 1.24 4.32 4.09 1.64 5.74.39.85-7.54 8.59-9.5 5.91-3-4.17-10 .6-8.06-12.2 0 0 2.24-3.87 4.83-4.82 1.75-.68 3.42.11 5.42-.31z"/><path class="x" d="M147.76 113.7c-3-4.17-10 .6-8.06-12.2 0 0 .11-.2.3-.5a17.59 17.59 0 0 0-1.21 1.77c-2 12.81 5 8 8.06 12.21 1.83 2.49 8.85-4.07 9.47-5.65-2.1 2.39-7.07 6.41-8.56 4.37z"/><path class="m" d="M156.54 116.74c-1.73.72-3.91-.94-5.19-4-.89-2.14-2.1-1.74-2.66-3.11-1.25-3.08-.2-7.58.94-9.48s1.66-2.56 4.29-3.9 3.56-4.19 6.42-3.88c3.38.37 7.36 1.76 8.47 5.34.7 2.28.2 3 1.53 4.58s2.89 3 2 6.08 1.13 1.57-2.41 5.24-5.18 3.08-7.14 4-3.1-2.16-6.25-.87z"/><path class="x" d="M151.11 114.18c1.28 3 3.46 4.71 5.19 4 3.15-1.3 4.31 1.74 6.27.85s3.6-.29 7.14-4c2.63-2.72 2.21-2.62 2.17-3.62a17.69 17.69 0 0 1-1.93 2.19c-3.54 3.68-5.18 3.08-7.14 4s-3.12-2.14-6.27-.85c-1.73.72-3.91-.94-5.19-4-.89-2.14-2.1-1.74-2.66-3.11a10 10 0 0 1-.47-4.83 11 11 0 0 0 .23 6.25c.55 1.38 1.77.94 2.66 3.12z"/><path class="w" d="M141.28 102.58c4.79-1 6.59 4.67 5.67 5.68.38 1.25 4.32 4.1 1.64 5.74.39.85-7.54 8.59-9.5 5.92-3.05-4.18-10.05.6-8.06-12.21 0 0 2.24-3.86 4.83-4.81 1.81-.67 3.51.1 5.42-.32z"/><path class="x" d="M139.09 119.92c-3.05-4.18-10.05.6-8.06-12.21 0 0 .11-.19.3-.49a13.94 13.94 0 0 0-1.2 1.77c-2 12.8 5 8 8.06 12.2 1.82 2.5 8.84-4.07 9.47-5.65-2.11 2.4-7.08 6.46-8.57 4.38z"/><path class="w" d="M111.3 97.83c4.78-1 6.59 4.66 5.67 5.68.38 1.24 4.32 4.09 1.64 5.74.38.84-7.55 8.59-9.5 5.91-3-4.18-10 .6-8.06-12.2 0 0 2.24-3.87 4.83-4.82 1.8-.67 3.51.1 5.42-.31z"/><path class="x" d="M109.11 115.16c-3-4.18-10 .6-8.06-12.2 0 0 .11-.2.3-.5a14.77 14.77 0 0 0-1.21 1.77c-2 12.8 5 8 8.06 12.2 1.82 2.5 8.85-4.06 9.47-5.65-2.1 2.4-7.07 6.42-8.56 4.38z"/></g><g opacity=".35"><g opacity=".58"><path class="ac" d="M794.63 83.78c2-4.48 7.66-2.57 7.93-1.22 1.23.42 5.86-1.08 5.61 2 .91.19 2.49 11.16-.83 11.16-5.17 0-5.44 8.47-14.6-.68 0 0-1.81-4.09-1-6.74.48-1.8 2.11-2.73 2.89-4.52z"/><path class="ac" d="M807.34 95.77c-5.17 0-5.44 8.47-14.6-.68 0 0-.1-.21-.23-.54a15 15 0 0 0 .72 2c9.16 9.16 9.44.69 14.61.69 3.09 0 1.93-9.55 1-11 .71 3.15 1.03 9.53-1.5 9.53z"/></g><path class="x" d="M835.57 62.17c-.44 1.83-3.07 2.61-6.29 1.84-2.26-.54-2.65.67-4.08.31-3.2-.8-6.2-4.32-7.1-6.32s-1.09-2.84-.62-5.75-1.29-5.36.65-7.48c2.29-2.51 5.76-4.91 9.31-3.69 2.25.77 2.5 1.57 4.6 1.46s4.15-.54 6.1 2 1.94 0 2.82 5-.58 6-1 8.11-3.59 1.22-4.39 4.52z"/><path class="x" d="M830.29 65c3.22.77 5.85 0 6.29-1.84.81-3.3 3.94-2.45 4.38-4.56s1.89-3.08 1-8.11c-.65-3.72-.82-3.32-1.65-3.88a18.9 18.9 0 0 1 .69 2.89c.87 5-.58 6-1 8.11s-3.58 1.26-4.38 4.56c-.44 1.83-3.07 2.61-6.29 1.84-2.26-.54-2.65.67-4.08.31a10 10 0 0 1-4.25-2.46 11.15 11.15 0 0 0 5.19 3.5c1.46.35 1.81-.86 4.1-.36z"/><path d="M819.1 76.24c-.44 1.82-3.07 2.6-6.28 1.83-2.26-.54-2.65.67-4.09.32-3.22-.8-6.24-4.31-7.1-6.35s-1.09-2.85-.62-5.76-1.28-5.35.66-7.48c2.29-2.5 5.75-4.9 9.3-3.69 2.26.78 2.5 1.57 4.61 1.47s4.15-.54 6.09 2 1.94 0 2.82 5-.58 6-1 8.12-3.58 1.23-4.39 4.54z" fill="#0f473d" opacity=".58" fill-rule="evenodd"/><path class="x" d="M813.83 79.11c3.21.77 5.84 0 6.29-1.84.8-3.3 3.94-2.45 4.37-4.56s1.89-3.08 1-8.11c-.65-3.72-.81-3.33-1.64-3.89a20 20 0 0 1 .63 2.85c.88 5-.58 6-1 8.12s-3.57 1.25-4.38 4.56c-.44 1.82-3.07 2.6-6.28 1.83-2.26-.54-2.65.67-4.09.32a10.11 10.11 0 0 1-4.18-2.47 11.13 11.13 0 0 0 5.19 3.5c1.44.36 1.83-.85 4.09-.31z"/><path class="ae" d="M819.76 86.46c2-4.48 7.65-2.57 7.93-1.23 1.23.43 5.85-1.07 5.6 2.06.91.19 2.49 11.16-.82 11.16-5.17 0-5.45 8.47-14.61-.69 0 0-1.8-4.08-1.05-6.74.53-1.85 2.19-2.77 2.95-4.56z"/><path class="x" d="M832.47 98.45c-5.17 0-5.45 8.47-14.61-.69a4.15 4.15 0 0 1-.23-.53 17.68 17.68 0 0 0 .72 2c9.17 9.16 9.44.68 14.61.68 3.09 0 1.93-9.54 1-11 .72 3.15 1.04 9.54-1.49 9.54z"/><path class="af" d="M822.59 94.33c-.44 1.83-3.07 2.61-6.29 1.84-2.26-.54-2.64.67-4.08.31-3.22-.8-6.24-4.3-7.1-6.35s-1.09-2.84-.62-5.75-1.29-5.36.66-7.48c2.29-2.51 5.75-4.91 9.3-3.69 2.26.77 2.5 1.57 4.61 1.46s4.14-.54 6.09 2 1.94 0 2.82 5-.58 6-1 8.11-3.58 1.22-4.39 4.55z"/><path class="af" d="M817.32 97.2c3.21.77 5.84 0 6.28-1.83.81-3.31 3.95-2.46 4.38-4.56s1.89-3.09 1-8.12c-.65-3.72-.81-3.32-1.65-3.88a17.68 17.68 0 0 1 .64 2.85c.88 5-.58 6-1 8.11s-3.57 1.26-4.38 4.56c-.44 1.83-3.07 2.61-6.29 1.84-2.26-.54-2.64.67-4.08.31A10 10 0 0 1 808 94a11.15 11.15 0 0 0 5.19 3.5c1.48.37 1.87-.84 4.13-.3z"/><path class="x" d="M824.35 66.23c0-2 2.79-3.65 6.68-3.83 2.74-.14 2.84-1.51 4.58-1.58 3.91-.16 8.33 2.56 9.89 4.41s2 2.63 2.31 5.79 3 5.17 1.33 8-.52 4.2-3.85 4.42-3 2.38-5.76 2.26-3.29-.86-5.68-.1-4.59 1.83-7.51-.16-2.22.58-4.62-4.37-1-6.41-1.1-8.73 3.73-2.43 3.73-6.11z"/><path class="x" d="M822.79 64.8c0-2 2.79-3.65 6.68-3.84 2.74-.13 2.84-1.51 4.58-1.58 3.91-.15 8.33 2.56 9.89 4.42s2 2.62 2.31 5.79 3 5.17 1.33 8-.52 4.19-3.86 4.42-3 2.37-5.75 2.26-3.3-.87-5.68-.11-4.59 1.84-7.51-.16-2.22.58-4.62-4.37-1-6.41-1.1-8.73 3.73-2.43 3.73-6.1z"/><path class="x" d="M845.29 83.41c3.33-.22 2.22-1.62 3.85-4.42s-1.06-4.8-1.33-8-.76-3.93-2.31-5.79a9.62 9.62 0 0 0-1.5-1.38c1.55 1.84 2 2.61 2.3 5.77s3 5.17 1.33 8-.52 4.19-3.86 4.42-3 2.37-5.75 2.26-3.3-.87-5.68-.11-4.64 1.84-7.56-.16a5.35 5.35 0 0 0-2-.93c1.24 2.17 1.19.73 3.59 2.37 2.92 2 5.13.92 7.51.16s2.88 0 5.68.1 2.44-2.07 5.73-2.29z"/><path class="k" d="M825.47 21.56c.81-.22 1.76.72 2.25 2.26.35 1.08.91 1 1.12 1.66a6 6 0 0 1-.7 4.43 7.3 7.3 0 0 1-3.2 2.05c-1.24.44-2.13 1.23-3.42.88s-1.74.24-2.18-1.07-1.27-.93-1.53-2.06 0-1.41-.56-2.28.35-1.4.83-2.78-.47-.83 1.25-2.32 2.46-1.09 3.38-1.37 1.29 1.04 2.76.6z"/><path class="x" d="M828.14 29.91a7.3 7.3 0 0 1-3.2 2.05c-1.24.44-2.13 1.23-3.42.88s-1.74.24-2.18-1.07c-.37-1.08-1-1-1.35-1.59 0 .11 0 .23.07.36.26 1.13 1.08.75 1.52 2.06s.89.72 2.19 1.07 2.18-.44 3.42-.89a7.2 7.2 0 0 0 3.19-2 6 6 0 0 0 .71-4.43.85.85 0 0 0-.09-.35 6.2 6.2 0 0 1-.86 3.91zm-72.33 44.31c2-4.49 7.66-2.58 7.93-1.23 1.23.43 5.86-1.08 5.61 2.06.91.18 2.49 11.16-.83 11.16-5.17 0-5.44 8.47-14.61-.69 0 0-1.8-4.08-1-6.74.49-1.85 2.09-2.78 2.9-4.56z"/><path class="x" d="M768.52 86.21c-5.17 0-5.44 8.47-14.61-.69 0 0-.09-.2-.22-.53a14 14 0 0 0 .72 2c9.16 9.15 9.44.68 14.61.68 3.09 0 1.93-9.54 1-11 .71 3.15 1.03 9.54-1.5 9.54zm-9.69 20.46c.81-.22 1.76.72 2.25 2.26.35 1.08.91 1 1.12 1.66a6 6 0 0 1-.7 4.43 7.3 7.3 0 0 1-3.2 2c-1.24.44-2.13 1.24-3.42.88s-1.74.24-2.18-1.06-1.27-.94-1.53-2.07 0-1.41-.56-2.28.35-1.4.83-2.78-.47-.82 1.25-2.32 2.46-1.09 3.38-1.37 1.29 1.04 2.76.65z"/><path class="x" d="M761.5 115a7.3 7.3 0 0 1-3.2 2c-1.24.44-2.13 1.24-3.42.88s-1.74.24-2.18-1.06c-.37-1.09-1-1-1.35-1.6 0 .11 0 .23.07.36.25 1.13 1.08.75 1.52 2.06s.89.72 2.19 1.07 2.18-.44 3.42-.89a7.25 7.25 0 0 0 3.19-2 6 6 0 0 0 .71-4.43 1.14 1.14 0 0 0-.12-.27 6.25 6.25 0 0 1-.83 3.88z"/><path class="af" d="M759.2 93.58c2-4.49 7.65-2.58 7.93-1.23 1.23.42 5.85-1.08 5.61 2.05.91.19 2.49 11.16-.83 11.16-5.17 0-5.44 8.47-14.61-.68 0 0-1.8-4.09-1-6.74.49-1.85 2.11-2.78 2.9-4.56z"/><path class="x" d="M771.91 105.56c-5.17 0-5.44 8.47-14.61-.68 0 0-.09-.21-.22-.54a13 13 0 0 0 .72 2c9.16 9.16 9.43.69 14.61.69 3.09 0 1.92-9.54 1-11 .71 3.15 1.03 9.53-1.5 9.53z"/><path class="af" d="M759.11 104.24c2-4.48 7.65-2.57 7.93-1.23 1.23.43 5.85-1.07 5.6 2.06.92.19 2.49 11.16-.82 11.16-5.17 0-5.44 8.47-14.61-.69 0 0-1.8-4.08-1-6.74.48-1.8 2.11-2.8 2.9-4.56z"/><path class="x" d="M771.82 116.23c-5.17 0-5.44 8.47-14.61-.69a3.51 3.51 0 0 1-.21-.54 14 14 0 0 0 .72 2c2.37 2.37 4.14 3.55 5.56 4H766c2.15-.79 3.52-3.33 6.34-3.33 3.1 0 1.93-9.54 1-11 .66 3.17 1.01 9.56-1.52 9.56z"/></g></g><g class="ag"><path class="ah" d="M549.62 281.38c-1.36 3.41-5.67 2.13-5.92 1.13-.93-.28-4.36 1-4.25-1.39-.69-.12-2.17-8.3.32-8.39 3.87-.14 3.85-6.5 11 .13 0 0 1.46 3 1 5-.42 1.42-1.61 2.14-2.15 3.52z"/><path class="x" d="M539.77 272.73c3.87-.14 3.85-6.5 11 .13 0 0 .08.15.18.39a11.45 11.45 0 0 0-.59-1.49c-7.12-6.63-7.1-.27-11-.13-2.32.08-1.19 7.21-.47 8.26-.61-2.31-1.02-7.09.88-7.16z"/><path class="ai" d="M666 112.34c2-4.48 7.65-2.57 7.93-1.23 1.23.43 5.85-1.07 5.6 2.06.91.19 2.49 11.16-.82 11.16-5.17 0-5.45 8.47-14.61-.69 0 0-1.8-4.08-1.05-6.73.5-1.85 2.13-2.78 2.95-4.57z"/><path class="x" d="M678.68 124.33c-5.17 0-5.45 8.47-14.61-.69a3.51 3.51 0 0 1-.22-.53 15.91 15.91 0 0 0 .71 2c9.17 9.16 9.44.68 14.61.68 3.09 0 1.93-9.54 1-11 .72 3.21 1.04 9.54-1.49 9.54z"/><path class="aj" d="M802.75 196.07c-.32 1.1-2.18 1.58-4.45 1.11-1.6-.32-1.87.41-2.89.19a8.48 8.48 0 0 1-5-3.83 4.28 4.28 0 0 1-.44-3.48c.33-1.76-.91-3.24.46-4.52 1.62-1.52 4.07-3 6.59-2.23 1.59.46 1.76.94 3.26.88s2.93-.33 4.31 1.18 1.37 0 2 3-.41 3.63-.72 4.91-2.55.79-3.12 2.79z"/><path class="x" d="M642.87 117.65c0-2.22 3-4 7.3-4.19 3-.14 3.1-1.65 5-1.72 4.26-.17 9.1 2.79 10.8 4.82s2.22 2.87 2.52 6.32 3.23 5.65 1.45 8.71-.57 4.58-4.2 4.82-3.24 2.6-6.29 2.47-3.6-.94-6.2-.11-5 2-8.2-.18-2.43.64-5-4.77-1.1-7-1.2-9.54 4.02-2.62 4.02-6.63z"/><path class="aj" d="M642.88 96.53c0-2.22 3-4 7.29-4.19 3-.14 3.1-1.64 5-1.72 4.27-.17 9.1 2.8 10.8 4.82s2.22 2.87 2.52 6.33 3.23 5.64 1.45 8.7-.57 4.58-4.2 4.82-3.24 2.6-6.29 2.48-3.6-1-6.2-.12-5 2-8.2-.17-2.43.63-5-4.78-1.11-7-1.2-9.53 4.03-2.62 4.03-6.64z"/><path class="ai" d="M668.9 146.68c0-2.22 3.05-4 7.29-4.19 3-.14 3.1-1.64 5-1.72 4.26-.17 9.1 2.8 10.79 4.82s2.23 2.87 2.52 6.33 3.24 5.64 1.46 8.7-.57 4.58-4.21 4.82-3.24 2.6-6.29 2.48-3.59-.95-6.19-.12-5 2-8.21-.17-2.42.63-5.05-4.78-1.1-7-1.2-9.53 4.09-2.62 4.09-6.64z"/><path class="aj" d="M691.85 231.07c.81-.22 1.76.73 2.25 2.26.35 1.08.91 1 1.12 1.67a6 6 0 0 1-.7 4.43 7.29 7.29 0 0 1-3.2 2c-1.24.45-2.13 1.24-3.42.89s-1.74.24-2.18-1.07-1.27-.93-1.53-2.06 0-1.41-.56-2.28.35-1.4.83-2.78-.47-.83 1.25-2.32 2.46-1.09 3.38-1.38 1.29 1.04 2.76.64z"/><path class="x" d="M694.52 239.43a7.29 7.29 0 0 1-3.2 2c-1.24.45-2.13 1.24-3.42.89s-1.74.24-2.18-1.07c-.37-1.08-1-1-1.35-1.59 0 .11 0 .22.07.35.26 1.13 1.08.76 1.52 2.07s.89.71 2.19 1.06 2.18-.44 3.42-.88a7.21 7.21 0 0 0 3.19-2.05 6 6 0 0 0 .71-4.43 1.11 1.11 0 0 0-.12-.27 6.3 6.3 0 0 1-.83 3.92z"/><path class="aj" d="M780.84 195.58c1-2.19 3.73-1.26 3.87-.6.6.21 2.85-.52 2.73 1 .44.09 1.21 5.44-.41 5.44-2.51 0-2.65 4.12-7.11-.34a6 6 0 0 1-.51-3.28c.26-.9 1.05-1.35 1.43-2.22z"/><path class="x" d="M787 201.42c-2.51 0-2.65 4.12-7.11-.34 0 0 0-.1-.11-.26a6.75 6.75 0 0 0 .35 1c4.46 4.46 4.6.33 7.11.33 1.51 0 .94-4.65.5-5.35.37 1.51.52 4.62-.74 4.62z"/><path class="aj" d="M689.7 138.39c-.44 1.82-3.07 2.6-6.29 1.83-2.26-.54-2.64.68-4.08.32-3.22-.8-6.24-4.31-7.1-6.35s-1.09-2.85-.62-5.76-1.29-5.35.65-7.48c2.29-2.5 5.76-4.9 9.31-3.69 2.25.78 2.5 1.57 4.61 1.47s4.14-.54 6.09 2 1.94 0 2.82 5-.58 6-1 8.11-3.59 1.24-4.39 4.55z"/><path class="x" d="M684.42 141.26c3.22.77 5.85 0 6.29-1.84.81-3.3 3.94-2.45 4.38-4.56s1.89-3.08 1-8.11c-.65-3.72-.81-3.33-1.65-3.88a17.75 17.75 0 0 1 .64 2.84c.88 5-.58 6-1 8.12s-3.58 1.25-4.38 4.56c-.44 1.82-3.07 2.6-6.29 1.83-2.26-.54-2.64.68-4.08.32a10 10 0 0 1-4.18-2.47 11 11 0 0 0 5.19 3.5c1.44.36 1.82-.85 4.08-.31z"/><path class="aj" d="M552.43 146c1.33-3 5.16-1.73 5.35-.82.82.28 3.94-.73 3.77 1.38.62.13 1.68 7.52-.55 7.52-3.49 0-3.67 5.71-9.85-.46 0 0-1.21-2.75-.7-4.54.35-1.28 1.45-1.9 1.98-3.08z"/><path class="x" d="M561 154.05c-3.49 0-3.67 5.71-9.85-.46l-.15-.36a9.88 9.88 0 0 0 .48 1.36c6.18 6.17 6.37.46 9.85.46 2.08 0 1.3-6.43.69-7.4.47 2.1.68 6.4-1.02 6.4zm135-52.67c0-1.63 2.24-2.92 5.35-3.07 2.19-.11 2.28-1.21 3.67-1.27a11.57 11.57 0 0 1 7.92 3.54 6.35 6.35 0 0 1 1.85 4.64c.22 2.54 2.38 4.14 1.07 6.39s-.42 3.36-3.09 3.54-2.37 1.9-4.61 1.81-2.64-.69-4.55-.09-3.67 1.47-6-.12-1.78.46-3.71-3.5-.81-5.14-.88-7 2.98-1.92 2.98-4.87z"/><path class="aj" d="M694.77 100.23c0-1.63 2.24-2.92 5.35-3.07 2.19-.11 2.28-1.21 3.67-1.27a11.57 11.57 0 0 1 7.92 3.54 6.35 6.35 0 0 1 1.85 4.64c.22 2.54 2.38 4.14 1.07 6.39s-.42 3.36-3.09 3.54-2.37 1.9-4.61 1.81-2.64-.69-4.55-.09-3.68 1.47-6-.12-1.77.46-3.7-3.5-.81-5.14-.88-7 2.97-1.92 2.97-4.87zm-64.88 154.85c.81-.22 1.76.73 2.25 2.26.34 1.08.91 1 1.12 1.67a6 6 0 0 1-.71 4.43 7.2 7.2 0 0 1-3.19 2c-1.24.45-2.13 1.24-3.42.89s-1.74.24-2.18-1.07-1.27-.93-1.53-2.06 0-1.41-.56-2.28.34-1.4.83-2.78-.47-.83 1.25-2.32 2.46-1.09 3.38-1.38 1.29 1.04 2.76.64z"/><path class="x" d="M632.59 263.44a7.18 7.18 0 0 1-3.19 2.05c-1.24.45-2.13 1.24-3.42.89s-1.74.24-2.19-1.07c-.37-1.08-1-1-1.34-1.6 0 .11 0 .23.07.36.25 1.13 1.07.75 1.52 2.06s.89.72 2.18 1.07 2.19-.44 3.42-.89a7.2 7.2 0 0 0 3.2-2 6 6 0 0 0 .71-4.43 1.36 1.36 0 0 0-.13-.27 6.12 6.12 0 0 1-.83 3.83z"/><path class="aj" d="M719.86 271.56c.91-2.07 3.53-1.19 3.66-.57.56.2 2.7-.5 2.58.95.42.09 1.15 5.15-.38 5.15-2.38 0-2.51 3.9-6.74-.32a5.75 5.75 0 0 1-.48-3.11c.25-.85 1-1.28 1.36-2.1z"/><path class="x" d="M725.72 277.09c-2.38 0-2.51 3.9-6.74-.32l-.1-.25a8.07 8.07 0 0 0 .33.94c4.23 4.22 4.36.31 6.74.31 1.43 0 .89-4.4.47-5.06.32 1.43.47 4.38-.7 4.38z"/><path class="aj" d="M718.9 283.51c1.1-2.51 4.27-1.44 4.43-.69.69.24 3.27-.6 3.13 1.15.51.11 1.39 6.24-.46 6.24-2.89 0-3 4.73-8.16-.38 0 0-1-2.29-.59-3.77.3-1.06 1.21-1.55 1.65-2.55z"/><path class="x" d="M726 290.21c-2.89 0-3 4.73-8.16-.38a2.36 2.36 0 0 1-.13-.3 9 9 0 0 0 .4 1.13c5.12 5.11 5.28.38 8.17.38 1.72 0 1.07-5.33.56-6.14.39 1.74.57 5.31-.84 5.31z"/><path class="aj" d="M725.63 278.21c1.41-3.2 5.46-1.84 5.66-.88.87.31 4.17-.76 4 1.47.65.14 1.77 8-.59 8-3.69 0-3.89 6-10.43-.49 0 0-1.29-2.92-.75-4.81.38-1.35 1.54-2.01 2.11-3.29z"/><path class="x" d="M734.7 286.77c-3.69 0-3.89 6-10.43-.49 0 0-.07-.15-.16-.39a11.13 11.13 0 0 0 .51 1.45c6.55 6.53 6.74.49 10.43.49 2.21 0 1.38-6.81.73-7.84.5 2.22.72 6.78-1.08 6.78z"/><path class="ak" d="M456.39 378.75c1.7-4.6 7.48-3 7.84-1.71 1.25.35 5.78-1.43 5.72 1.71.92.13 3.16 11-.15 11.19-5.16.31-4.92 8.79-14.62.2 0 0-2.05-4-1.45-6.66.41-1.88 1.98-2.9 2.66-4.73z"/><path class="x" d="M469.8 389.94c-5.16.31-4.92 8.79-14.62.2a5 5 0 0 1-.26-.52 16.77 16.77 0 0 0 .84 2c9.71 8.59 9.47.11 14.63-.2 3.08-.19 1.34-9.64.35-11 .88 3.01 1.59 9.36-.94 9.52z"/><path class="ak" d="M433.28 390.68c1.7-4.6 7.48-3 7.84-1.71 1.26.35 5.78-1.43 5.72 1.71.92.13 3.16 11-.15 11.19-5.16.31-4.91 8.79-14.62.2 0 0-2-4-1.45-6.66.38-1.88 1.98-2.9 2.66-4.73z"/><path class="x" d="M446.7 401.87c-5.17.31-4.92 8.79-14.63.2 0 0-.11-.2-.25-.52a14.65 14.65 0 0 0 .84 2c9.7 8.58 9.46.11 14.62-.21 3.09-.19 1.35-9.64.35-11 .88 3.02 1.59 9.38-.93 9.53z"/><path class="ak" d="M409.42 404c1.7-4.6 7.48-3 7.84-1.71 1.25.35 5.78-1.43 5.72 1.71.92.13 3.16 11-.15 11.19-5.16.31-4.92 8.79-14.62.2 0 0-2-4-1.45-6.66.41-1.92 1.98-2.94 2.66-4.73z"/><path class="x" d="M422.83 415.15c-5.16.31-4.92 8.79-14.62.2a4 4 0 0 1-.26-.52 18.49 18.49 0 0 0 .84 2c9.71 8.58 9.47.11 14.63-.21 3.08-.18 1.34-9.64.35-11 .88 3.02 1.59 9.38-.94 9.53z"/><path class="al" d="M903.49 262.82c-.45 1.83-3.08 2.61-6.29 1.84-2.26-.54-2.65.67-4.09.32-3.21-.8-6.23-4.31-7.1-6.35s-1.09-2.85-.61-5.76-1.29-5.35.65-7.48c2.29-2.51 5.76-4.91 9.31-3.69 2.25.77 2.49 1.57 4.6 1.46s4.15-.54 6.1 2 1.94 0 2.81 5-.57 6-1 8.11-3.58 1.25-4.38 4.55z"/><path class="x" d="M898.21 265.7c3.22.77 5.85 0 6.29-1.84.8-3.3 3.94-2.45 4.38-4.56s1.89-3.09 1-8.11c-.65-3.72-.82-3.33-1.65-3.89a18.67 18.67 0 0 1 .63 2.85c.88 5-.57 6-1 8.11s-3.57 1.26-4.37 4.56c-.45 1.83-3.08 2.61-6.29 1.84-2.26-.54-2.65.67-4.09.32a10 10 0 0 1-4.17-2.47 11 11 0 0 0 5.19 3.5c1.44.36 1.87-.85 4.08-.31z"/><path class="al" d="M916 193.62c2-4.49 7.66-2.58 7.94-1.23 1.22.42 5.85-1.08 5.6 2.05.91.19 2.49 11.16-.83 11.16-5.17 0-5.44 8.48-14.6-.68 0 0-1.81-4.09-1.05-6.74.51-1.85 2.14-2.77 2.94-4.56z"/><path class="x" d="M928.69 205.6c-5.17 0-5.44 8.47-14.6-.68 0 0-.1-.21-.23-.54a14.37 14.37 0 0 0 .72 2c9.17 9.16 9.44.69 14.61.69 3.09 0 1.93-9.54 1-11 .71 3.15 1.03 9.53-1.5 9.53z"/><path class="al" d="M895.72 198.24c0-2.22 3-4 7.29-4.19 3-.14 3.1-1.64 5-1.72 4.27-.17 9.1 2.8 10.8 4.82s2.22 2.87 2.52 6.33 3.23 5.64 1.45 8.7-.57 4.58-4.2 4.82-3.24 2.6-6.29 2.48-3.6-.95-6.2-.12-5 2-8.2-.17-2.43.63-5-4.77-1.1-7-1.2-9.54 4.03-2.62 4.03-6.64z"/><path d="M894.46 199.38c0-2.22 3-4 7.29-4.18 3-.15 3.1-1.65 5-1.73 4.26-.17 9.1 2.8 10.79 4.83s2.23 2.86 2.52 6.32 3.24 5.64 1.46 8.7-.57 4.58-4.21 4.83-3.24 2.59-6.29 2.47-3.59-1-6.19-.12-5 2-8.21-.17-2.42.63-5-4.77-1.1-7-1.2-9.54 4.04-2.62 4.04-6.64z" fill="#2a9b69" fill-rule="evenodd"/><path class="x" d="M919 219.71c3.64-.24 2.43-1.76 4.21-4.82s-1.16-5.25-1.45-8.71-.82-4.29-2.52-6.32a10.1 10.1 0 0 0-1.69-1.54c1.69 2 2.21 2.85 2.5 6.3s3.24 5.64 1.46 8.7-.57 4.58-4.21 4.83-3.24 2.59-6.29 2.47-3.59-1-6.19-.12-5 2-8.21-.17a5.7 5.7 0 0 0-2.22-1c1.36 2.38 1.31.8 3.93 2.59 3.19 2.17 5.6 1 8.2.17s3.15 0 6.2.12 2.67-2.21 6.28-2.5z"/><path class="ae" d="M908.14 275.51c-.45 1.82-3.08 2.6-6.29 1.84-2.26-.54-2.65.67-4.09.31-3.21-.8-6.23-4.31-7.1-6.35s-1.09-2.84-.61-5.75-1.29-5.36.65-7.48c2.29-2.51 5.76-4.91 9.31-3.69 2.25.77 2.49 1.57 4.6 1.46s4.15-.54 6.1 2 1.93 0 2.81 5-.57 6-1 8.11-3.58 1.25-4.38 4.55z"/><path class="ak" d="M902.86 278.38c3.22.77 5.84 0 6.29-1.84.8-3.3 3.94-2.45 4.38-4.56s1.88-3.08 1-8.11c-.66-3.72-.82-3.33-1.65-3.88a18.07 18.07 0 0 1 .63 2.85c.88 5-.57 6-1 8.11s-3.57 1.25-4.37 4.56c-.45 1.82-3.08 2.6-6.29 1.84-2.26-.54-2.65.67-4.09.31a9.91 9.91 0 0 1-4.17-2.47 11.05 11.05 0 0 0 5.19 3.51c1.43.35 1.82-.86 4.08-.32z"/><path class="ae" d="M958.29 203.39c.82-.21 1.76.73 2.25 2.27.35 1.08.91 1 1.13 1.66a6 6 0 0 1-.71 4.43 7.2 7.2 0 0 1-3.2 2c-1.23.45-2.12 1.24-3.42.89s-1.73.24-2.18-1.07-1.27-.93-1.52-2.06 0-1.41-.57-2.28.35-1.4.83-2.78-.47-.83 1.26-2.32 2.45-1.09 3.37-1.38 1.29 1.04 2.76.64z"/><path class="x" d="M961 211.75a7.2 7.2 0 0 1-3.2 2c-1.23.45-2.12 1.24-3.42.89s-1.73.24-2.18-1.07c-.37-1.08-1-1-1.34-1.59a2.83 2.83 0 0 0 .07.36c.25 1.13 1.07.75 1.52 2.06s.88.72 2.18 1.07 2.18-.44 3.42-.89a7.22 7.22 0 0 0 3.2-2.05 5.93 5.93 0 0 0 .7-4.42 1 1 0 0 0-.12-.28 6.15 6.15 0 0 1-.83 3.92z"/><path class="al" d="M933.34 198.76c2-4.48 7.66-2.57 7.93-1.23 1.23.43 5.86-1.07 5.61 2.06.91.19 2.49 11.16-.83 11.16-5.17 0-5.44 8.47-14.6-.69 0 0-1.81-4.08-1.05-6.74.53-1.85 2.16-2.77 2.94-4.56z"/><path class="ak" d="M946.05 210.75c-5.17 0-5.44 8.47-14.6-.69a4.15 4.15 0 0 1-.23-.53 15.65 15.65 0 0 0 .72 2c9.16 9.16 9.44.68 14.61.68 3.09 0 1.93-9.54 1-11 .71 3.15 1.03 9.54-1.5 9.54z"/><path class="ae" d="M922.08 300.61c-.44 1.83-3.07 2.61-6.29 1.84-2.26-.54-2.64.67-4.08.32-3.22-.8-6.24-4.31-7.1-6.35s-1.09-2.85-.62-5.76-1.28-5.35.66-7.48c2.29-2.5 5.75-4.9 9.3-3.69 2.25.78 2.5 1.57 4.61 1.46s4.14-.54 6.09 2 1.94 0 2.82 5-.58 6-1 8.11-3.58 1.25-4.39 4.55z"/><path d="M921.16 313.56c2-4.48 7.66-2.57 7.94-1.23 1.23.43 5.85-1.07 5.6 2.06.91.19 2.49 11.16-.83 11.16-5.17 0-5.44 8.47-14.6-.69 0 0-1.81-4.08-1-6.74.48-1.85 2.11-2.77 2.89-4.56z" fill="#2a783b" fill-rule="evenodd"/><path class="x" d="M933.87 325.55c-5.17 0-5.44 8.47-14.6-.69a4.15 4.15 0 0 1-.23-.53 15.65 15.65 0 0 0 .72 2c9.17 9.16 9.44.68 14.61.68 3.09 0 1.93-9.54 1-11 .71 3.15 1.03 9.54-1.5 9.54zm-22.12-109.76c0-2.22 3-4 7.29-4.19 3-.14 3.1-1.65 5-1.72 4.26-.18 9.09 2.79 10.79 4.82s2.23 2.86 2.52 6.32 3.23 5.64 1.46 8.7-.57 4.58-4.21 4.83-3.24 2.59-6.29 2.47-3.6-.94-6.2-.12-5 2-8.2-.17-2.42.63-5-4.77-1.1-7-1.2-9.54 4.04-2.62 4.04-6.63z"/><path class="al" d="M910 214.22c0-2.22 3.05-4 7.3-4.19 3-.14 3.1-1.64 5-1.72 4.26-.17 9.1 2.8 10.8 4.82s2.22 2.87 2.52 6.32 3.23 5.65 1.45 8.71-.57 4.58-4.21 4.82-3.24 2.6-6.29 2.48-3.59-1-6.19-.12-5 2-8.2-.17-2.43.63-5.05-4.78-1.11-7-1.2-9.53 4.07-2.62 4.07-6.64z"/><path class="x" d="M934.61 234.55c3.64-.25 2.43-1.77 4.21-4.83s-1.16-5.24-1.46-8.7-.82-4.29-2.52-6.32a10.41 10.41 0 0 0-1.68-1.55c1.68 2 2.2 2.86 2.5 6.3s3.23 5.65 1.45 8.71-.57 4.58-4.21 4.82-3.24 2.6-6.29 2.48-3.59-1-6.19-.12-5 2-8.2-.17a5.67 5.67 0 0 0-2.22-1c1.35 2.37 1.3.8 3.92 2.58 3.19 2.17 5.6 1 8.2.17s3.15 0 6.2.12 2.68-2.25 6.29-2.49z"/><path class="ak" d="M557.57 279c4.62 1.63 7.11-3.82 6.32-4.94.54-1.19 4.79-3.53 2.34-5.49.49-.8-6.42-9.46-8.69-7-3.54 3.76-9.9-1.84-9.51 11.11 0 0 1.74 4.11 4.2 5.38 1.7.84 3.49.28 5.34.94z"/><path class="x" d="M557.54 261.53c-3.54 3.76-9.9-1.84-9.51 11.11a5 5 0 0 0 .24.53 14.8 14.8 0 0 1-1-1.91c-.4-12.95 6-7.34 9.5-11.11 2.12-2.26 8.28 5.13 8.7 6.78-1.77-2.64-6.2-7.25-7.93-5.4z"/><path class="ak" d="M592.32 322.33c.84-1.12 0-3-1.91-4.52-1.38-1.06-.86-1.86-1.75-2.52-2-1.49-5.44-1.58-7-1.11a6.07 6.07 0 0 0-3.62 2.38c-1.47 1.66-3.72 1.8-4 3.94-.37 2.52-.12 5.67 2.26 7.15 1.51.94 2.09.7 3 2s1.65 2.66 4 2.61.92 1.12 4.25-.76 3.2-3.19 4.22-4.44-.99-2.69.55-4.73z"/><path class="x" d="M591.49 317.91c2 1.5 2.75 3.39 1.91 4.52-1.54 2 .44 3.45-.58 4.71s-.89 2.56-4.22 4.44c-2.47 1.39-2.32 1.11-3 .89a14.48 14.48 0 0 0 1.95-1c3.33-1.88 3.2-3.19 4.22-4.44s-1-2.67.58-4.71c.84-1.12 0-3-1.91-4.52-1.38-1.06-.86-1.86-1.75-2.52a7.39 7.39 0 0 0-3.4-1.25 8.17 8.17 0 0 1 4.48 1.35c.86.67.34 1.47 1.72 2.53zm-30.35 3.23c-.91.74-.61 2.58.72 4.39.94 1.27.36 1.82 1 2.62a8.25 8.25 0 0 0 5.57 2.8 4.61 4.61 0 0 0 3.43-1.08c1.51-1 3.38-.57 4-2.32s1.68-1.77.57-3.34 0-2.2-1.09-3.4-1.58-1.16-2.11-2.5-.86-2.72-2.81-3.3-.55-1.2-3.63-.47-3.23 1.9-4.3 2.71.29 2.54-1.35 3.89z"/><path class="ak" d="M559.93 321c-.9.74-.61 2.58.72 4.38.94 1.27.36 1.82 1 2.63a8.27 8.27 0 0 0 5.56 2.8 4.57 4.57 0 0 0 3.43-1.09c1.51-1 3.38-.56 4-2.32s1.68-1.76.57-3.33 0-2.2-1.09-3.41-1.58-1.15-2.11-2.49-.85-2.73-2.81-3.3-.54-1.21-3.63-.47-3.23 1.89-4.3 2.7.3 2.52-1.34 3.9z"/><path class="x" d="M576.43 324.21c1.11 1.57.08 1.58-.57 3.34s-2.53 1.28-4 2.32a4.61 4.61 0 0 1-3.43 1.08 5.22 5.22 0 0 1-1.19-.17 4.55 4.55 0 0 0 3.41-1.09c1.51-1 3.38-.56 4-2.32s1.68-1.76.57-3.33 0-2.2-1.09-3.41-1.58-1.15-2.11-2.49-.85-2.73-2.81-3.3a3.23 3.23 0 0 1-1.15-.57c1.42-.24.76.27 2.36.74 2 .58 2.28 2 2.81 3.3s1 1.29 2.11 2.5-.03 1.83 1.09 3.4zm90.21 33.38c.67.73 2.22.4 3.69-.82 1-.85 1.53-.38 2.19-.93a7.11 7.11 0 0 0 2.13-4.87 3.93 3.93 0 0 0-1.07-2.86c-.67-.87-.71-1.92-1.2-2.64-1.7-.38-5.22-1.36-6.65 0-1 1-.9 1.4-2 1.91s-2.27.85-2.68 2.53-1 .53-.23 3.12 1.75 2.66 2.48 3.53 2.13-.31 3.34 1.03z"/><path class="ao" d="M666.55 358.62c.67.74 2.21.41 3.69-.81 1-.85 1.53-.39 2.18-.94a7.1 7.1 0 0 0 2.14-4.86 3.93 3.93 0 0 0-1.08-2.87c-.94-1.24-.63-2.85-2.14-3.33s-1.58-1.35-2.86-.33-1.86.11-2.84 1.07-.91 1.4-2 1.91-2.27.85-2.68 2.54-1 .52-.24 3.11 1.75 2.66 2.49 3.54 2.12-.36 3.34.97z"/><path class="x" d="M672.38 345.47c.49.72.53 1.77 1.2 2.64a3.92 3.92 0 0 1 1.07 2.86 4.42 4.42 0 0 1-.1 1 3.86 3.86 0 0 0-1.07-2.85c-.94-1.24-.63-2.85-2.14-3.33s-1.58-1.35-2.86-.33-1.86.11-2.84 1.07-.91 1.4-2 1.91-2.27.85-2.68 2.54a2.66 2.66 0 0 1-.43 1c-.27-1.2.19-.66.52-2.05.41-1.68 1.57-2 2.68-2.53s.73-1.47 2-1.91c1.58-.49 4.84-1.13 6.65-.02z"/><path class="ao" d="M709.5 338.45c.54.65 1.85.42 3.14-.56.9-.69 1.3-.28 1.87-.72a6 6 0 0 0 2-4 7.28 7.28 0 0 0-1.44-3.51c-.76-1.08-1-2.23-2.3-2.69s-1.28-1.19-2.4-.38-1.57 0-2.43.82-.81 1.15-1.77 1.54-.52 1.35-.91 2.76-.86.41-.31 2.62 1.39 2.3 2 3.06 1.57-.1 2.55 1.06z"/><path class="x" d="M716.47 333.14a7.28 7.28 0 0 0-1.44-3.51c-.76-1.08-1-2.23-2.3-2.69s-1.28-1.19-2.4-.38c-.92.68-1.39.26-2 .54a3.18 3.18 0 0 1 .26-.25c.85-.78 1.31 0 2.43-.82s1.14-.08 2.4.38 1.53 1.61 2.29 2.69a7.18 7.18 0 0 1 1.45 3.5 6 6 0 0 1-2 4 1.43 1.43 0 0 1-.26.15 6.2 6.2 0 0 0 1.57-3.61z"/><path class="ap" d="M768.72 454.81c-1 4.81 4.79 6.5 5.79 5.56 1.25.35 4.18 4.24 5.77 1.53.85.37 8.44-7.72 5.72-9.62-4.23-3 .4-10.06-12.36-7.81 0 0-3.82 2.31-4.72 4.92-.63 1.81.18 3.5-.2 5.42z"/><path class="x" d="M786 452.28c-4.23-3 .4-10.06-12.36-7.81 0 0-.19.11-.49.31a15.27 15.27 0 0 1 1.75-1.25c12.76-2.24 8.12 4.85 12.36 7.82 2.53 1.77-3.89 8.92-5.46 9.58 2.35-2.15 6.28-7.2 4.2-8.65z"/><path class="ao" d="M689.65 298.4c-.95 4.8 4.8 6.5 5.8 5.55 1.25.36 4.17 4.24 5.77 1.53.85.37 8.44-7.71 5.72-9.61-4.24-3 .4-10.07-12.36-7.82 0 0-3.82 2.31-4.72 4.92-.63 1.82.14 3.51-.21 5.43z"/><path class="x" d="M706.94 295.87c-4.24-3 .4-10.07-12.36-7.82 0 0-.19.11-.49.31a14.4 14.4 0 0 1 1.75-1.24c12.76-2.25 8.12 4.85 12.36 7.81a1.39 1.39 0 0 1 .32.32v2.18c-1 2.77-4.65 6.61-5.79 7.08 2.36-2.15 6.27-7.19 4.21-8.64z"/><path class="ao" d="M663.42 349.2c3.85 1.71 6.35-2.78 5.75-3.8.54-1 4.34-2.69 2.37-4.54.47-.65-4.86-8.53-7-6.61-3.29 3-8.35-2.24-8.89 8.86 0 0 1.22 3.64 3.23 4.89 1.44.87 3.01.52 4.54 1.2z"/><path class="x" d="M664.58 334.25c-3.29 3-8.35-2.24-8.89 8.86 0 0 .06.19.17.47a13.63 13.63 0 0 1-.71-1.69c.54-11.11 5.6-5.89 8.88-8.87 2-1.79 6.74 5 7 6.39-1.36-2.41-4.85-6.62-6.45-5.16z"/><path class="ap" d="M700.74 319.14c.54.65 1.86.42 3.14-.56.91-.68 1.31-.27 1.88-.72a6 6 0 0 0 2-4 7.25 7.25 0 0 0-1.45-3.51c-.75-1.07-1-2.23-2.29-2.69s-1.28-1.19-2.4-.37-1.57 0-2.43.81-.81 1.15-1.77 1.55-.52 1.34-.92 2.75-.85.41-.3 2.62 1.39 2.3 2 3.06 1.56-.08 2.54 1.06z"/><path class="x" d="M707.72 313.83a7.25 7.25 0 0 0-1.45-3.51c-.75-1.07-1-2.23-2.29-2.69s-1.28-1.19-2.4-.37c-.92.67-1.4.25-2 .53l.27-.25c.85-.78 1.31 0 2.43-.82s1.13-.08 2.4.38 1.53 1.61 2.29 2.69a7.27 7.27 0 0 1 1.45 3.51 6 6 0 0 1-2 4 .83.83 0 0 1-.25.15 6.15 6.15 0 0 0 1.55-3.62z"/><path class="ak" d="M524.52 324.13c-1.67 3.28 2.12 5.67 3 5.19.82.51 2.14 3.91 3.84 2.28.54.44 7.64-3.86 6.07-5.79-2.44-3 2.34-7.18-7.3-8.15 0 0-3.22.89-4.4 2.6-.73 1.18-.55 2.56-1.21 3.87z"/><path class="x" d="M537.47 325.81c-2.44-3 2.34-7.18-7.3-8.15l-.41.12a10.75 10.75 0 0 1 1.51-.54c9.64 1 4.86 5.15 7.3 8.16 1.46 1.79-4.62 5.65-5.88 5.8 2.13-1.07 5.98-3.92 4.78-5.39z"/><path class="aq" d="M875.33 337.37c1.17-.34 2.46.89 3.06 2.95.43 1.44 1.23 1.27 1.5 2.2a8.15 8.15 0 0 1-1.29 6 5.22 5.22 0 0 1-3.05 2.2c-1.79.68-2.6 2.45-4.42 2.05-2.15-.49-4.62-1.66-5.08-4.06-.29-1.52.08-1.91-.66-3.06s-1.64-2.16-.86-4.06-.62-1.1 1.93-3.21 3.56-1.61 4.89-2.05 1.86 1.67 3.98 1.04z"/><path class="x" d="M878.65 339.41c-.6-2.05-1.89-3.28-3.06-3-2.12.62-2.65-1.43-4-1s-2.35-.07-4.9 2c-1.88 1.57-1.61 1.53-1.65 2.18a12.6 12.6 0 0 1 1.4-1.27c2.55-2.12 3.56-1.61 4.89-2.05s1.86 1.61 4 1c1.17-.34 2.46.89 3.06 2.95.43 1.44 1.23 1.27 1.5 2.2a6.43 6.43 0 0 1 0 3.14 7.12 7.12 0 0 0 .3-4.05c-.31-.82-1.12-.65-1.54-2.1zm-19.76-32.9c.89-.2 1.86.86 2.31 2.53.32 1.18.93 1.1 1.13 1.85a6.44 6.44 0 0 1-1 4.73 3.61 3.61 0 0 1-2.3 1.56c-1.35.42-2 1.78-3.34 1.34s-1.88.18-2.29-1.25-1.32-1.07-1.54-2.29.06-1.52-.5-2.48-1.24-1.83-.65-3.29-.47-.91 1.45-2.43 2.7-1 3.7-1.32 1.43 1.4 3.03 1.05z"/><path class="aq" d="M859.37 305.69c.88-.2 1.85.86 2.31 2.54.32 1.18.93 1.09 1.13 1.84a6.44 6.44 0 0 1-1 4.73 3.55 3.55 0 0 1-2.3 1.56c-1.35.42-2 1.78-3.34 1.34s-1.87.18-2.29-1.25-1.32-1.06-1.54-2.29.06-1.52-.5-2.48-1.23-1.82-.65-3.28-.46-.91 1.46-2.44 2.69-1 3.7-1.31 1.42 1.35 3.02 1.04z"/><path class="x" d="M853.43 317.27c.41 1.43.91.81 2.29 1.25s2-.92 3.34-1.34a3.61 3.61 0 0 0 2.3-1.56 4.83 4.83 0 0 0 .47-.81 3.57 3.57 0 0 1-2.3 1.55c-1.35.42-2 1.78-3.34 1.34s-1.87.18-2.29-1.25-1.32-1.06-1.54-2.29.06-1.52-.5-2.48-1.23-1.82-.65-3.28a2.28 2.28 0 0 0 .21-1c-.83.75-.2.59-.68 1.79-.59 1.46.09 2.32.65 3.29s.28 1.25.5 2.48 1.11.88 1.54 2.31zm-45.74-70.35c-1.36.2-2.73-1.52-3.24-4.12-.36-1.83-1.29-1.76-1.51-2.93a9.78 9.78 0 0 1 2-7.09 5.38 5.38 0 0 1 3.66-2.12c2.11-.5 3.19-2.5 5.23-1.69s2.87-.06 3.36 2.16 1.89 1.76 2.09 3.65-.26 2.3.49 3.83 1.69 2.91.64 5.07.61 1.44-2.48 3.54-4.21 1.32-5.77 1.61-1.99-2.28-4.47-1.91z"/><path class="x" d="M806.88 248.11c-1.36.2-2.73-1.52-3.24-4.12-.36-1.82-1.29-1.76-1.51-2.92a9.78 9.78 0 0 1 2-7.09 5.42 5.42 0 0 1 3.66-2.13c2.11-.49 3.19-2.5 5.23-1.68s2.87-.07 3.36 2.15 1.89 1.76 2.09 3.65-.26 2.31.49 3.83 1.69 2.91.64 5.07.61 1.44-2.48 3.55-4.21 1.31-5.77 1.6-1.99-2.27-4.47-1.91z"/><path class="x" d="M817.18 231.13c-.49-2.22-1.31-1.34-3.36-2.16s-3.12 1.19-5.23 1.69a5.38 5.38 0 0 0-3.66 2.12 6.68 6.68 0 0 0-.8 1.18 5.44 5.44 0 0 1 3.65-2.11c2.11-.49 3.19-2.5 5.23-1.68s2.87-.07 3.36 2.15 1.89 1.76 2.09 3.65-.26 2.31.49 3.83 1.69 2.91.64 5.07a3.79 3.79 0 0 0-.43 1.46c1.34-1.05.38-.87 1.24-2.65 1.05-2.16.11-3.54-.64-5.07s-.29-1.94-.49-3.83-1.61-1.43-2.09-3.65z"/><path class="ar" d="M984.73 373.82c3.11 1.7 1.38 5.67.39 5.79-.38.86.41 4.29-1.83 3.91-.19.65-8.2 1.1-8-1.29.32-3.72-5.77-4.45 1.4-10.48 0 0 3.06-1.05 4.92-.34 1.31.5 1.88 1.73 3.12 2.41z"/><path class="x" d="M975.3 382.23c.32-3.72-5.77-4.45 1.4-10.48a2.31 2.31 0 0 1 .4-.13 9.65 9.65 0 0 0-1.5.39c-7.17 6-1.08 6.76-1.4 10.49-.2 2.23 6.76 2 7.85 1.42-2.29.31-6.91.14-6.75-1.69z"/><path class="ar" d="M961.26 418.84c-1.29-.43-1.69-2.38-.93-4.65.53-1.59-.32-1.95 0-3 .78-2.27 3.5-4.23 5-4.73a5.83 5.83 0 0 1 4.19-.08c2.07.52 3.94-.6 5.35.93 1.67 1.81 3.18 4.46 2.08 6.94-.69 1.58-1.28 1.7-1.34 3.23s.14 3-1.78 4.27-.13 1.4-3.81 1.72-4.29-.79-5.78-1.23-.65-2.62-2.98-3.4zm18.53-56.47c.1.6-.64 1.22-1.77 1.48-.8.18-.76.59-1.27.71a4.29 4.29 0 0 1-3.15-.79 5.26 5.26 0 0 1-1.28-2.43c-.24-.92-.76-1.61-.43-2.52s-.06-1.27.91-1.51.75-.86 1.58-1 1 .08 1.68-.27 1 .34 2 .78.63-.29 1.6 1a3.83 3.83 0 0 1 .78 2.52c.1.75-.85.94-.65 2.03z"/><path class="x" d="M973.6 363.77a5.26 5.26 0 0 1-1.28-2.43c-.24-.92-.76-1.61-.43-2.52s-.06-1.27.91-1.51c.8-.2.79-.65 1.23-.87h-.26c-.83.11-.61.73-1.58 1s-.57.59-.91 1.5.19 1.61.43 2.53a5.26 5.26 0 0 0 1.29 2.43 4.33 4.33 0 0 0 3.15.78l.2-.07a4.44 4.44 0 0 1-2.75-.84z"/><path class="ar" d="M977.07 391.3c3.14-1.64 5.48 2 5 2.9.5.8 3.79 2 2.23 3.7.43.52-3.65 7.42-5.52 5.92-2.92-2.34-6.91 2.31-7.93-7 0 0 .83-3.12 2.46-4.27 1.17-.82 2.5-.55 3.76-1.25z"/><path class="x" d="M978.81 403.82c-2.92-2.34-6.91 2.31-7.93-7a3.37 3.37 0 0 1 .11-.4 10.76 10.76 0 0 0-.51 1.47c1 9.31 5 4.66 7.93 7 1.75 1.4 5.41-4.51 5.55-5.73-.96 2.06-3.73 5.84-5.15 4.66z"/><path d="M916.55 449.56c1.91 1.05.85 3.49.24 3.56-.23.53.26 2.63-1.12 2.4-.12.4-5 .68-4.91-.79.2-2.29-3.54-2.73.86-6.44a5.55 5.55 0 0 1 3-.2c.82.3 1.17 1.06 1.93 1.47z" fill="#3d8e64" fill-rule="evenodd"/><path class="x" d="M910.76 454.73c.2-2.29-3.54-2.73.86-6.44l.25-.08a9 9 0 0 0-.92.24c-4.41 3.71-.67 4.16-.86 6.44-.12 1.37 4.15 1.22 4.82.87-1.41.24-4.24.09-4.15-1.03z"/><path d="M912 458c-.86-.29-1.13-1.59-.63-3.11.36-1.07-.21-1.3 0-2a6.06 6.06 0 0 1 3.36-3.16 3.9 3.9 0 0 1 2.8-.06c1.39.35 2.64-.4 3.59.63 1.11 1.2 2.12 3 1.39 4.64-.47 1.05-.86 1.14-.9 2.16s.09 2-1.19 2.86-.09.93-2.55 1.15-2.87-.53-3.87-.83-.4-1.77-2-2.28z" fill="#217f54" fill-rule="evenodd"/><path class="x" d="M911.75 455.87c-.47 1.39-.22 2.59.57 2.85 1.43.48.93 1.84 1.85 2.11s1.29 1 3.55.76c1.67-.15 1.51-.23 1.79-.58a9 9 0 0 1-1.29.17c-2.26.2-2.64-.48-3.55-.76s-.42-1.63-1.85-2.11c-.79-.26-1-1.46-.58-2.85.33-1-.19-1.2 0-1.82a4.43 4.43 0 0 1 1.25-1.76 5 5 0 0 0-1.75 2.17c-.19.62.33.84.01 1.82z"/><path class="au" d="M954.92 363.86c.24-.56 1.2-.67 2.29-.26.77.3 1-.07 1.45.12a4.34 4.34 0 0 1 2.19 2.39 5.12 5.12 0 0 1-.28 2.73c-.3.91-.25 1.76-1 2.34s-.65 1.09-1.59.76-1.1.3-1.86-.07-.8-.63-1.54-.7-.64-.83-1.2-1.73-.68-.1-.75-1.75a3.78 3.78 0 0 1 .73-2.53c.23-.65 1.12-.29 1.56-1.3z"/><path class="x" d="M960.85 366.11a5.12 5.12 0 0 1-.28 2.73c-.3.91-.25 1.76-1 2.34s-.65 1.09-1.59.76c-.78-.28-1 .11-1.51 0l.23.12c.76.37.91-.27 1.86.07s.8-.18 1.58-.76.74-1.43 1-2.34a5.22 5.22 0 0 0 .28-2.73 4.34 4.34 0 0 0-2.19-2.39.63.63 0 0 0-.21-.05 4.46 4.46 0 0 1 1.83 2.25z"/><path class="au" d="M959.12 334.48c-1.65-3.14 2-5.5 2.87-5.05.8-.5 2-3.8 3.69-2.25.52-.43 7.44 3.61 6 5.49-2.32 2.93 2.36 6.9-7 8 0 0-3.12-.82-4.29-2.44-.82-1.16-.61-2.5-1.27-3.75z"/><path class="x" d="M971.63 332.67c-2.32 2.93 2.36 6.9-7 8l-.4-.11a11.51 11.51 0 0 0 1.47.5c9.31-1.08 4.63-5 7-8 1.39-1.76-4.54-5.39-5.77-5.52 2.07 1 5.84 3.7 4.7 5.13z"/><path class="au" d="M972.07 326c.83 1.07.09 2.91-1.79 4.39-1.33 1-.81 1.8-1.66 2.45-1.9 1.47-5.25 1.6-6.79 1.17a5.8 5.8 0 0 1-3.54-2.24c-1.44-1.57-3.62-1.68-3.95-3.73-.39-2.43-.19-5.47 2.1-6.94 1.45-.93 2-.71 2.9-1.95s1.56-2.59 3.85-2.58.87-1.09 4.12.67 3.14 3 4.14 4.23-.89 2.53.62 4.53z"/><path class="x" d="M971.32 330.24c1.88-1.47 2.62-3.32 1.79-4.39-1.51-1.94.38-3.34-.62-4.53s-.9-2.46-4.14-4.22c-2.4-1.31-2.25-1-2.94-.82a14.64 14.64 0 0 1 1.9.92c3.24 1.77 3.14 3 4.14 4.23s-.89 2.59.62 4.53c.83 1.07.09 2.91-1.79 4.39-1.33 1-.81 1.8-1.66 2.45a7.16 7.16 0 0 1-3.28 1.26 8.06 8.06 0 0 0 4.32-1.36c.85-.7.34-1.42 1.66-2.46z"/><path class="av" d="M767 542.24c-4.26-2.44-1.93-8.38-.58-8.58.51-1.28-.6-6.34 2.47-5.85.25-1 11.19-1.85 10.93 1.7-.41 5.53 7.92 6.44-1.83 15.58 0 0-4.17 1.63-6.72.63-1.76-.72-2.54-2.51-4.27-3.48z"/><path class="x" d="M779.85 529.51c-.41 5.53 7.92 6.44-1.83 15.58a4.9 4.9 0 0 1-.55.2 14.06 14.06 0 0 0 2-.62c9.75-9.14 1.42-10 1.83-15.58.24-3.31-9.25-2.76-10.74-1.89 3.17-.52 9.49-.4 9.29 2.31z"/><path class="ae" d="M438.43 353.44c-1-1.59.44-4.16 3.38-6.11 2.07-1.37 1.5-2.5 2.82-3.36 3-1.94 7.72-1.86 9.81-1.12s2.84 1.12 4.55 3.48 4.76 2.69 4.82 5.64c.07 3.49-.81 7.81-4.32 9.71-2.23 1.21-3 .85-4.47 2.55s-2.71 3.57-5.94 3.36-1.45 1.49-5.67-1.29-3.84-4.57-5-6.35 1.76-3.62.02-6.51z"/><path class="x" d="M440.32 347.4c-2.94 2-4.35 4.52-3.39 6.11 1.75 2.89-1.2 4.73 0 6.51s.78 3.58 5 6.35c3.13 2.06 3 1.66 4 1.4a18 18 0 0 1-2.49-1.47c-4.23-2.77-3.84-4.57-5-6.35s1.77-3.62 0-6.51c-1-1.59.44-4.16 3.38-6.11 2.07-1.37 1.5-2.5 2.82-3.36a10.86 10.86 0 0 1 4.87-1.53 12.06 12.06 0 0 0-6.36 1.59c-1.33.87-.76 1.97-2.83 3.37zm68.16-18.4c0-1.86 2.78-3.34 6.65-3.51 2.73-.12 2.83-1.39 4.57-1.45a14.92 14.92 0 0 1 9.84 4.05c1.55 1.7 2 2.4 2.3 5.31s2.95 4.74 1.33 7.31-.52 3.84-3.84 4-3 2.18-5.74 2.07-3.27-.79-5.65-.09-4.57 1.68-7.48-.15-2.21.53-4.6-4-1-5.87-1.1-8 3.72-2.15 3.72-5.54z"/><path class="ak" d="M507.27 328.26c0-1.86 2.78-3.35 6.65-3.52 2.72-.12 2.83-1.38 4.56-1.44a14.83 14.83 0 0 1 9.85 4.05c1.55 1.7 2 2.4 2.3 5.3s3 4.74 1.32 7.31-.52 3.85-3.83 4.06-3 2.17-5.74 2.07-3.28-.79-5.65-.1-4.57 1.68-7.48-.14-2.21.53-4.6-4-1-5.88-1.1-8 3.72-2.22 3.72-5.59zm46.06 22.39c-.47 1.81-3.3 2.58-6.74 1.82-2.43-.53-2.84.66-4.39.31-3.45-.79-6.69-4.25-7.62-6.27s-1.17-2.81-.66-5.69-1.38-5.29.7-7.39c2.46-2.48 6.18-4.85 10-3.65 2.42.77 2.68 1.55 4.94 1.45s4.45-.53 6.54 1.93 2.08 0 3 5-.62 5.93-1.08 8-3.82 1.23-4.69 4.49z"/><path class="x" d="M547.67 353.49c3.45.76 6.27 0 6.75-1.81.86-3.27 4.23-2.42 4.69-4.51s2-3.05 1.09-8c-.7-3.68-.87-3.29-1.77-3.84a16 16 0 0 1 .68 2.81c.95 5-.62 5.93-1.08 8s-3.83 1.24-4.7 4.5c-.47 1.81-3.3 2.58-6.74 1.82-2.43-.53-2.84.66-4.39.31a10.9 10.9 0 0 1-4.48-2.44 11.91 11.91 0 0 0 5.57 3.46c1.54.37 1.96-.79 4.38-.3z"/><path class="ae" d="M753.4 498.69c-4.26-2.44-1.93-8.37-.58-8.58.51-1.28-.6-6.33 2.47-5.84.25-1 11.19-1.85 10.93 1.69-.41 5.54 7.91 6.44-1.83 15.58 0 0-4.17 1.64-6.73.63-1.78-.7-2.56-2.51-4.26-3.48z"/><path class="x" d="M766.22 486c-.41 5.54 7.91 6.44-1.83 15.58l-.55.21a12.12 12.12 0 0 0 2-.63c9.75-9.14 1.42-10.05 1.83-15.58.24-3.31-9.25-2.76-10.74-1.89 3.17-.56 9.49-.43 9.29 2.31z"/><path class="av" d="M779.63 513.09c1.77.6 2.33 3.47 1.32 6.86-.71 2.38.45 2.88 0 4.39-1 3.39-4.73 6.36-6.81 7.14s-2.89 1-5.72.24-5.38 1-7.32-1.24c-2.29-2.64-4.38-6.52-2.9-10.23.94-2.36 1.74-2.56 1.8-4.82s-.2-4.48 2.4-6.38.17-2.07 5.19-2.65 5.87 1.05 7.91 1.67.94 3.93 4.13 5.02z"/><path class="x" d="M782.05 518.94c1-3.38.45-6.25-1.32-6.86-3.19-1.1-2.1-4.4-4.14-5s-2.9-2.24-7.92-1.67c-3.72.43-3.34.63-4 1.48a16.81 16.81 0 0 1 2.86-.47c5-.57 5.87 1.05 7.91 1.67s1 3.91 4.15 5c1.77.6 2.33 3.47 1.32 6.86-.71 2.38.45 2.88 0 4.39a10.88 10.88 0 0 1-2.76 4.29 12 12 0 0 0 3.86-5.3c.49-1.51-.67-2.01.04-4.39zm-341.75-168c2.18-.22 4.24 2.86 4.89 7.38.46 3.17 1.95 3.15 2.23 5.17.62 4.54-1.79 10-3.6 12s-2.58 2.66-5.95 3.31-5.2 4-8.4 2.4-4.56-.16-5.19-4-2.9-3.21-3.1-6.47.55-3.93-.54-6.63-2.5-5.16-.7-8.78-.88-2.52 4.15-5.85 6.77-1.87 9.25-2.22 3.01 4.08 6.96 3.69z"/><path d="M441.66 349c2.18-.21 4.24 2.87 4.89 7.38.46 3.18 1.95 3.15 2.23 5.18.62 4.53-1.79 10-3.6 12s-2.58 2.65-5.95 3.31-5.21 4-8.4 2.4-4.57-.16-5.19-4-2.9-3.21-3.1-6.48.55-3.93-.54-6.62-2.5-5.16-.7-8.78-.88-2.53 4.15-5.85 6.77-1.87 9.25-2.22 3.01 4.04 6.96 3.68z" fill="#4fb967" fill-rule="evenodd"/><path class="x" d="M353 404.69c0-1.86 2.77-3.34 6.65-3.51 2.72-.12 2.82-1.39 4.56-1.45a14.93 14.93 0 0 1 9.85 4c1.55 1.7 2 2.41 2.29 5.31s2.95 4.74 1.33 7.31-.52 3.84-3.84 4.05-2.95 2.18-5.73 2.08-3.28-.8-5.65-.1-4.57 1.68-7.48-.15-2.21.53-4.61-4-1-5.87-1.09-8 3.72-2.16 3.72-5.54z"/><path class="ak" d="M351.75 403.93c0-1.86 2.78-3.35 6.65-3.52 2.73-.12 2.83-1.38 4.57-1.44a14.88 14.88 0 0 1 9.84 4c1.55 1.7 2 2.4 2.3 5.31s2.95 4.74 1.33 7.3-.52 3.85-3.84 4.06-3 2.18-5.74 2.07-3.27-.79-5.65-.1-4.57 1.68-7.48-.14-2.21.53-4.6-4-1-5.88-1.1-8 3.72-2.17 3.72-5.54z"/><path class="ak" d="M383.23 436.2c-.48 1.8-3.3 2.57-6.75 1.81-2.42-.53-2.84.66-4.38.31-3.45-.79-6.69-4.25-7.62-6.27s-1.17-2.81-.66-5.69-1.38-5.29.7-7.39c2.46-2.48 6.18-4.85 10-3.64 2.41.76 2.68 1.55 4.94 1.44s4.45-.53 6.54 1.93 2.08 0 3 5-.62 5.93-1.08 8-3.83 1.23-4.69 4.5z"/><path class="x" d="M377.57 439c3.45.76 6.27 0 6.75-1.81.86-3.27 4.23-2.42 4.69-4.51s2-3 1.09-8c-.7-3.68-.88-3.29-1.77-3.84a17.27 17.27 0 0 1 .68 2.82c.94 5-.62 5.93-1.08 8s-3.84 1.24-4.7 4.51c-.48 1.8-3.3 2.57-6.75 1.81-2.42-.53-2.84.66-4.38.31a11 11 0 0 1-4.48-2.43 11.92 11.92 0 0 0 5.57 3.45c1.54.39 1.95-.81 4.38-.31zM350.58 84c0-1.87 2.77-3.35 6.65-3.52 2.72-.12 2.82-1.38 4.56-1.45a14.88 14.88 0 0 1 9.85 4.06c1.55 1.7 2 2.4 2.3 5.3s2.94 4.74 1.32 7.31-.52 3.85-3.84 4-2.95 2.18-5.73 2.08-3.28-.79-5.65-.1-4.57 1.68-7.48-.14-2.21.53-4.61-4-1-5.88-1.09-8 3.72-2.18 3.72-5.54z"/><path class="ak" d="M349.36 83.23c0-1.87 2.78-3.35 6.65-3.52 2.73-.12 2.83-1.38 4.57-1.45a14.9 14.9 0 0 1 9.84 4c1.55 1.7 2 2.41 2.3 5.31s2.95 4.74 1.33 7.31-.52 3.85-3.84 4-2.95 2.18-5.74 2.08-3.27-.8-5.64-.1-4.58 1.68-7.49-.15-2.21.54-4.6-4-1-5.88-1.1-8 3.72-2.11 3.72-5.48zM392 109.8c-.35 1.31-2.4 1.87-4.9 1.32-1.76-.39-2.06.48-3.18.23a9.59 9.59 0 0 1-5.53-4.55 5.43 5.43 0 0 1-.48-4.13c.37-2.09-1-3.84.51-5.36 1.79-1.8 4.48-3.52 7.25-2.65 1.75.56 1.94 1.13 3.58 1s3.23-.39 4.75 1.4 1.51 0 2.19 3.61-.45 4.3-.79 5.82-2.76.95-3.4 3.31z"/><path class="x" d="M387.91 111.87c2.5.55 4.55 0 4.9-1.32.62-2.37 3.06-1.76 3.4-3.27s1.47-2.21.79-5.82c-.51-2.66-.63-2.38-1.28-2.78a13.06 13.06 0 0 1 .49 2c.69 3.6-.45 4.3-.79 5.82s-2.78.9-3.4 3.26c-.35 1.31-2.4 1.87-4.9 1.32-1.76-.39-2.06.48-3.18.23a8 8 0 0 1-3.25-1.77 8.66 8.66 0 0 0 4 2.51c1.16.3 1.46-.57 3.22-.18z"/><path class="ah" d="M533.32 285.08c-1 2.57-4.27 1.6-4.46.85-.7-.22-3.28.72-3.2-1.05-.52-.09-1.63-6.25.24-6.32 2.92-.1 2.9-4.89 8.26.1 0 0 1.1 2.27.73 3.78-.26 1.06-1.16 1.61-1.57 2.64z"/><path class="x" d="M525.9 278.56c2.92-.1 2.9-4.89 8.26.1a1.71 1.71 0 0 1 .14.3 8 8 0 0 0-.45-1.13c-5.36-5-5.34-.2-8.26-.09-1.74.06-.89 5.42-.35 6.22-.46-1.75-.77-5.34.66-5.4z"/><path class="ax" d="M245.44 297c3.63 1.52 2.18 6.1 1.11 6.34-.32 1 .95 4.67-1.56 4.52-.14.74-8.9 2.17-9-.48-.08-4.15-6.87-4.23.32-11.72 0 0 3.25-1.51 5.39-.94 1.53.41 2.3 1.7 3.74 2.28z"/><path class="x" d="M236 307.4c-.08-4.15-6.87-4.23.32-11.72l.43-.19a12.73 12.73 0 0 0-1.61.61c-7.19 7.49-.4 7.57-.32 11.72.05 2.47 7.68 1.39 8.82.64-2.46.61-7.57.96-7.64-1.06z"/><path class="ax" d="M230 288.38c2.79 1.16 1.68 4.68.85 4.87-.24.76.74 3.59-1.19 3.47-.11.57-6.84 1.67-6.88-.37-.06-3.18-5.28-3.25.25-9 0 0 2.49-1.16 4.13-.72 1.11.3 1.69 1.29 2.84 1.75z"/><path class="x" d="M222.74 296.35c-.06-3.18-5.28-3.25.25-9l.32-.14a8.24 8.24 0 0 0-1.23.46c-5.53 5.75-.31 5.82-.25 9 0 1.9 5.9 1.07 6.77.5-1.91.46-5.83.73-5.86-.82z"/><path class="ax" d="M249.59 283.44c5 2.09 3 8.42 1.53 8.75-.44 1.37 1.32 6.46-2.15 6.25-.19 1-12.3 3-12.37-.67-.11-5.73-9.49-5.84.44-16.18 0 0 4.49-2.09 7.44-1.31 2.06.55 3.12 2.33 5.11 3.16z"/><path class="x" d="M236.6 297.77c-.11-5.73-9.49-5.84.44-16.18l.59-.26a15.62 15.62 0 0 0-2.22.84c-9.94 10.34-.55 10.46-.44 16.18.07 3.42 10.6 1.93 12.17.89-3.43.84-10.48 1.33-10.54-1.47z"/></g><g class="ag"><path class="x" d="M254.31 452.71c1.42-1.71 4.89-1.12 8.28 1.44 2.39 1.8 3.44.72 5 1.88 3.39 2.59 5.21 8 5.22 10.61s-.12 3.62-2.1 6.47-1.12 6.4-4.44 7.62-3.37 3.16-6.32 1-4.15-.07-6.42-2.12-2.16-3-4.69-4.05-5.14-1.66-6.2-5.37-2.27-1.07-.83-6.9 3.62-6.09 5.17-8.1 4.76.61 7.33-2.48z"/><path class="x" d="M259.9 481.75c3 2.14 3 .2 6.32-1s2.46-4.77 4.44-7.62 2.11-3.83 2.1-6.47a9.85 9.85 0 0 0-.31-2.27c0 2.62-.12 3.61-2.1 6.44s-1.12 6.41-4.44 7.63-3.37 3.15-6.32 1-4.15-.08-6.42-2.12-2.16-3-4.69-4-5.13-1.67-6.2-5.38a5.91 5.91 0 0 0-1.05-2.2c-.48 2.69.49 1.45 1.36 4.5 1.06 3.71 3.67 4.35 6.2 5.37s2.42 2 4.69 4.05 3.46-.07 6.42 2.07z"/><path class="ay" d="M221.82 457.1c4.39-2.18 7.53 2.91 6.89 4.13.67 1.11 5.18 2.91 3 5.16.58.73-5.22 10.17-7.77 8.05-4-3.3-9.6 3-10.79-9.86 0 0 1.22-4.29 3.5-5.85 1.58-1.09 3.42-.73 5.17-1.63z"/><path class="x" d="M223.93 474.44c-4-3.3-9.6 3-10.79-9.86a4.4 4.4 0 0 1 .17-.55 14.64 14.64 0 0 0-.74 2c1.19 12.9 6.82 6.56 10.8 9.86 2.37 2 7.58-6.1 7.8-7.79-1.46 2.9-5.29 7.96-7.24 6.34z"/><path class="az" d="M239.53 476.07c-1.51 1.12-4 0-6-2.61-1.39-1.86-2.46-1.17-3.34-2.37-2-2.67-2.05-7.29-1.4-9.42s1-2.88 3.2-4.82 2.44-4.94 5.29-5.33c3.36-.47 7.56-.1 9.51 3.11 1.24 2 .92 2.8 2.61 4.07s3.53 2.23 3.44 5.39 1.48 1.25-1.06 5.68-4.28 4.25-6 5.59-3.52-1.36-6.25.71z"/><path class="x" d="M233.64 474.91c2 2.64 4.5 3.72 6 2.6 2.73-2 4.6.64 6.28-.71s3.42-1.16 6-5.59c1.88-3.28 1.5-3.08 1.22-4a19.07 19.07 0 0 1-1.34 2.6c-2.53 4.42-4.28 4.25-6 5.59s-3.55-1.32-6.28.71c-1.51 1.12-4 0-6-2.61-1.39-1.86-2.46-1.17-3.34-2.37a10 10 0 0 1-1.64-4.56 11.13 11.13 0 0 0 1.76 6c.87 1.16 1.95.48 3.34 2.34zm12.17-38.84c1.42-1.71 4.9-1.12 8.29 1.44 2.39 1.8 3.44.71 5 1.87 3.39 2.6 5.21 8 5.22 10.61s-.12 3.63-2.1 6.48-1.12 6.4-4.45 7.62-3.36 3.16-6.32 1-4.2-.09-6.45-2.09-2.16-3-4.69-4.05-5.14-1.67-6.2-5.38-2.27-1.06-.83-6.89 3.62-6.09 5.17-8.11 4.8.59 7.36-2.5z"/><path class="ba" d="M245.51 433.77c1.41-1.7 4.89-1.11 8.28 1.44 2.39 1.8 3.44.72 5 1.88 3.39 2.59 5.21 8 5.22 10.61s-.12 3.62-2.1 6.47-1.12 6.41-4.45 7.62-3.36 3.16-6.32 1-4.15-.08-6.41-2.12-2.16-3-4.69-4.05-5.14-1.67-6.2-5.38-2.27-1.06-.83-6.9 3.62-6.09 5.17-8.1 4.76.62 7.33-2.47z"/><path class="x" d="M251.4 465.11c3 2.14 3 .19 6.32-1s2.46-4.78 4.45-7.62 2.11-3.83 2.1-6.48a10.43 10.43 0 0 0-.31-2.26c0 2.62-.13 3.6-2.1 6.44s-1.12 6.41-4.45 7.62-3.36 3.16-6.32 1-4.15-.08-6.41-2.12-2.16-3-4.69-4.05-5.14-1.67-6.2-5.38a5.78 5.78 0 0 0-1.06-2.2c-.47 2.69.49 1.45 1.37 4.49 1.06 3.71 3.67 4.36 6.2 5.38s2.42 2 4.69 4.05 3.46.02 6.41 2.13z"/><path d="M254 450.42c1.42-1.71 4.89-1.12 8.28 1.44 2.39 1.8 3.44.71 5 1.87 3.39 2.59 5.21 8 5.22 10.61s-.12 3.63-2.1 6.47-1.12 6.41-4.44 7.63-3.37 3.15-6.32 1-4.15-.08-6.42-2.12-2.16-3-4.69-4-5.13-1.67-6.2-5.38-2.27-1.06-.83-6.89 3.62-6.09 5.17-8.11 4.76.56 7.33-2.52z" fill="#5fb280" opacity=".65" fill-rule="evenodd"/><path class="ba" d="M222.47 498.57c.76.35.89 1.68.29 3.18-.43 1.05.07 1.33-.21 2a5.93 5.93 0 0 1-3.37 2.95 7.21 7.21 0 0 1-3.76-.47c-1.24-.45-2.43-.41-3.2-1.51s-1.49-.92-1-2.21-.38-1.53.15-2.56.89-1.09 1-2.12 1.16-.85 2.42-1.6.17-.94 2.44-1 2.59.73 3.48 1.1.38 1.6 1.76 2.24z"/><path class="x" d="M219.18 506.7a7.21 7.21 0 0 1-3.76-.47c-1.24-.45-2.43-.41-3.2-1.51s-1.49-.92-1-2.21c.41-1.07-.12-1.42 0-2.09-.06.1-.12.2-.18.32-.52 1 .35 1.27-.15 2.56s.23 1.12 1 2.22 2 1.06 3.2 1.5a7.13 7.13 0 0 0 3.76.47 6 6 0 0 0 3.38-2.95 2.16 2.16 0 0 0 .08-.29 6.21 6.21 0 0 1-3.13 2.45z"/><path class="ba" d="M207.73 465.51c4.39-2.19 7.53 2.91 6.89 4.12.67 1.12 5.18 2.92 3 5.17.58.72-5.22 10.17-7.77 8.05-4-3.31-9.6 3-10.79-9.86 0-.05 1.22-4.3 3.5-5.85 1.58-1.09 3.44-.76 5.17-1.63z"/><path class="x" d="M209.84 482.85c-4-3.31-9.6 3-10.79-9.86a4.81 4.81 0 0 1 .17-.56 15.19 15.19 0 0 0-.74 2c1.19 12.91 6.82 6.56 10.8 9.87 2.37 2 7.58-6.11 7.8-7.8-1.46 2.85-5.29 7.97-7.24 6.35z"/><path class="az" d="M223.43 492.3c-1.51 1.12-4 0-6-2.6-1.4-1.86-2.47-1.18-3.35-2.37-2-2.68-2-7.3-1.4-9.42s1-2.89 3.2-4.83 2.44-4.94 5.29-5.33c3.36-.46 7.56-.1 9.51 3.11 1.24 2 .92 2.8 2.61 4.07s3.54 2.23 3.44 5.39 1.48 1.25-1.05 5.68-4.28 4.25-6 5.59-3.52-1.32-6.25.71z"/><path class="x" d="M217.53 491.14c2 2.64 4.5 3.73 6 2.61 2.73-2 4.6.63 6.28-.71s3.43-1.17 6-5.6c1.88-3.27 1.51-3.08 1.22-4a17.49 17.49 0 0 1-1.33 2.6c-2.54 4.43-4.28 4.25-6 5.59s-3.55-1.32-6.28.71c-1.51 1.12-4 0-6-2.6-1.4-1.86-2.47-1.18-3.35-2.37a10 10 0 0 1-1.63-4.57 11 11 0 0 0 1.75 6c.88 1.2 1.95.48 3.34 2.34z"/><path class="ba" d="M224.24 496.88c4.38-2.18 7.53 2.91 6.88 4.13.68 1.11 5.19 2.91 3 5.16.58.73-5.22 10.17-7.77 8.05-4-3.3-9.6 3-10.8-9.86 0 0 1.23-4.29 3.51-5.85 1.59-1.09 3.43-.75 5.18-1.63z"/><path class="x" d="M226.35 514.23c-4-3.31-9.6 3-10.8-9.87 0 0 .06-.22.17-.55a14.64 14.64 0 0 0-.74 2c1.2 12.9 6.82 6.56 10.8 9.86 2.38 2 7.58-6.1 7.8-7.79-1.45 2.85-5.29 7.96-7.23 6.35zm20.28-20.65c1-1.26 3.59-.82 6.08 1.05 1.75 1.32 2.52.53 3.63 1.38a11.55 11.55 0 0 1 3.83 7.78 6.37 6.37 0 0 1-1.55 4.75c-1.45 2.09-.82 4.7-3.26 5.59s-2.47 2.32-4.63.75-3 0-4.71-1.55-1.59-2.22-3.44-3-3.77-1.23-4.55-3.95-1.66-.78-.61-5.06 2.66-4.47 3.79-5.94 3.53.46 5.42-1.8z"/><path class="ay" d="M246.4 491.89c1-1.25 3.59-.82 6.08 1.06 1.75 1.32 2.52.53 3.63 1.38a11.51 11.51 0 0 1 3.83 7.78 6.4 6.4 0 0 1-1.54 4.75c-1.46 2.09-.82 4.7-3.26 5.59s-2.47 2.32-4.64.75-3-.06-4.71-1.56-1.58-2.21-3.44-3-3.77-1.22-4.55-3.94-1.66-.78-.61-5.06 2.66-4.47 3.8-5.95 3.53.47 5.41-1.8z"/></g><g clip-path="url(#c)"><path class="bd" d="M851.64 215.17a7.24 7.24 0 0 1 3.18-10.17l182.62-86-25.57-89-341.71 163.9-54.41-94.26-3.67-7.64c-2.15 1.19-5.28 2.94-7.16-1.21-1.27-2.81 3-4.68 6.42-6.36-6-12.82-13.3-18.49-31.58-11.64-18 6.77-97.38 35.09-97.38 35.09l3.46 6.59a1.93 1.93 0 0 1-.5 2.4l-7.4 4.34 7.35 15.79s8.34-3.93 10.63-.33c18-7.27 58.69-28 63.1-21.07 3.47 5.44-92.18 45.19-92.18 45.19s2.11 19.59 7.46 17.74S556.86 135.07 561 135c3.17.93 10.75 8.21 12.45 10.29a.84.84 0 0 1 0 1l-3.65 6.25 49 97.71s11.2-4.68 16.41 4.47c4 7-3.51 16.93-10.23 19.2-42.43 14.34-103.66 18.86-148.53 30.76l-7.91-18.46a3.78 3.78 0 0 1 2.5-5l5.69-1.61 37.09-17.12 5 10 68.51-33.74-16.46-31.18-87.72 42.8 4.5 10.65a2.77 2.77 0 0 1-2.28 3.68l-26.55 2a1 1 0 0 1-1-.47l-34.54-57.33a11.46 11.46 0 0 0-13.85-4.7l-53.12 21.37a3.11 3.11 0 0 1-3.82-1.5l-57.07-108.9a1.44 1.44 0 0 0-1.65-.74l-183.65 48.93L8.82 214l27.82 227.58L43 437.1a1.28 1.28 0 0 1 1.47 0l9 6.41a.54.54 0 0 0 .6 0l40.58-18.33s9.77-5 10.19-4.25c5.31 10.14 28.65 44.68 33.7 51.94.42.6 115-59.15 115-59.15l6.89-4c17.25 27.44 121.06 81.17 121.06 81.17s.51 61.08.66 70.84 2.16 14.07 9 14c20.75-.16 206.11-1.27 209.3-2.65C634.54 558.39 743.64 503 743.64 503s-4.63-7.07-1.82-11c2.38-3.28 9.27-23.49 4.28-36-2.4-6 6.48-8.77 6.48-8.77l-67.3-146.73-10.44 3.71s-7.49-15.73-4.68-20.44 133.57-63.91 137.39-66.41 15.19-5.62 19.14 1.29 41.06 82.13 42.48 85.18 3.57 13-2.5 15.89-16.42 7.21-21.59-3.53-29-63.78-29-63.78l-12.73 7.43-4.84-9.75-52.79 30.5s2.34 3.77 1.47 6.07c-2.2 5.81-13.82 11.32-12.31 23.81s5 26.13 2.26 28.39-7.69 5.71-7.69 5.71l44.87 85.25 9.51-4.44 17.6 34.42-1.43 64.72 27.4-.51-5.19-47.54h-14.44s-.83-19.59 1.65-19.24 94.39 1 94.39 1-.69-11.25 1.32-12.65 28.69.28 28.72 5.48 2.78 147 2.78 147l21.93.17s-4.85-170-9.52-180.13c-4.14-9.03-77.93-168.83-97.4-202.93zM662.1 236.66l6.61 15a5 5 0 0 1-2.57 6.61l-9.8 4.31a5 5 0 0 1-6.61-2.57l-6.61-15a5 5 0 0 1 2.57-6.61l9.8-4.32a5 5 0 0 1 6.61 2.58zm-26.1-6.41a2.33 2.33 0 0 1-3.15-1l-.22-.41a2.34 2.34 0 0 1 1-3.16l15.61-8.18a2.36 2.36 0 0 1 3.16 1l.21.41a2.34 2.34 0 0 1-1 3.16zm-267.28 5.19a8.46 8.46 0 0 1 8.34 7.12l30.45-14.77a8.44 8.44 0 1 1 5.81 2.33h-.56L423 251.25a8.44 8.44 0 1 1-1.9 7.84L392 273.25a8.44 8.44 0 1 1-7.68-2.74l-9.87-20.36a8.45 8.45 0 1 1-5.67-14.71zm-139.6 88.84a1.48 1.48 0 0 1-.54 2l-6.89 4a1.48 1.48 0 0 1-2-.54l-35.15-60.06a24.22 24.22 0 0 0-29.07-10.27l-48.69 22.74a10 10 0 0 1-12.72-4.53l-32.6-65.26c-1.06-2.17 1-4.74 2.9-3.22l.87.73L132 178.29 275.46 144l.07-.47a2.62 2.62 0 0 1 5.09-.37l4.88 16-61 25.47 8.24 22.14 60.07-30.06c9.23-5 13.12-4.19 20.89 7.41l41 78.87a1.76 1.76 0 0 1-.81 2.4l-5.65 2.73a1.5 1.5 0 0 1-1.84-.44l-4.7-6.12-115.1 58.36zm157.37 118c-9.94.6.16 18.61-12.77 24.91-10.65 5.19-89-44-104.43-62.52l-11.44-26.9 124.53-64c2.37 5 10.65 22.72 9.8 30 2.92-7.13 27.32-16.43 27.32-16.43s-18.05-1.44-28-18.31l5.38-2.76L441.8 283a5.23 5.23 0 0 1 7.22 2.63l8.06 17.12c4.67 14.05 16.17 26.46 16.17 26.46s56.82 110.3 54.11 110.63c-2 .24-16.05 2.2-18.43 2s-2.42-10-2.42-10-101.29-.73-105.37-.49c-.87 5.96 4.13 9.76-14.65 10.89zm121.69-75.82a7.29 7.29 0 1 1 7.29 7.29 7.29 7.29 0 0 1-7.29-7.33zm22.75 92.84a3.38 3.38 0 0 1 6.19-2.73l8.52 19.32a3.38 3.38 0 0 1-1.73 4.46 3.39 3.39 0 0 1-4.46-1.73l-3.44-7.8H401v8.92a3.38 3.38 0 0 1-3.38 3.38 3.38 3.38 0 0 1-3.38-3.38v-21.16a3.38 3.38 0 0 1 3.38-3.38 3.39 3.39 0 0 1 3.38 3.38v5.78h132.18zm16.21 38.92a3.38 3.38 0 0 1 6.58-1.59l5 20.52a3.38 3.38 0 0 1-6.57 1.59l-1.9-7.84H401v7.1a3.33 3.33 0 0 1-3.33 3.33h-.11a3.32 3.32 0 0 1-3.32-3.33v-20.34a3.32 3.32 0 0 1 3.32-3.33h.11a3.33 3.33 0 0 1 3.33 3.33v6.78h147.66zm18.32 61.44a3.37 3.37 0 0 1-4.08-2.5l-1.66-6.85H401V558a3.31 3.31 0 0 1-3.31 3.3h-.15a3.3 3.3 0 0 1-3.3-3.3v-20a3.31 3.31 0 0 1 3.3-3.31h.15A3.31 3.31 0 0 1 401 538v5.86h157.17l-1.76-7.25A3.38 3.38 0 0 1 563 535l5 20.53a3.38 3.38 0 0 1-2.54 4.09zM728.33 457a3.32 3.32 0 0 1 3.79-2.78h.11A3.31 3.31 0 0 1 735 458l-3.07 20.06a3.33 3.33 0 0 1-3.79 2.78h-.11a3.32 3.32 0 0 1-2.79-3.78l.58-3.79-131.2 65.57 4 4a3.34 3.34 0 0 1 0 4.7l-.08.08a3.33 3.33 0 0 1-4.71 0l-14.35-14.35a3.32 3.32 0 0 1 0-4.7l.08-.08a3.32 3.32 0 0 1 4.7 0l5.55 5.55L727 465.52zm-18.06-38.67h.1a3.33 3.33 0 0 1 4.3 1.91l7.28 19a3.33 3.33 0 0 1-1.91 4.3h-.11a3.33 3.33 0 0 1-4.29-1.91l-2.37-6.16L579 502.52l2.51 6.53a3.33 3.33 0 0 1-1.91 4.3h-.11a3.32 3.32 0 0 1-4.29-1.91l-7.28-19a3.31 3.31 0 0 1 1.91-4.29h.1a3.32 3.32 0 0 1 4.3 1.91l2.45 6.39L711 429.41l-2.6-6.77a3.32 3.32 0 0 1 1.87-4.3zM688.33 367c4 10.06-7.77 15.91-11.79 15.93s-16.85 0-16.85 0v17.91s22.2-.27 28.36.27 6.42 10.33 2.51 12.61c-1.64.95-18.56 10.12-21 10.12s-4.28-6.95-4.28-6.95-95.77 46.28-99.45 48.42c4.35 8 .73 9.63-1.14 10.7s-3.21-1.07-4-2.14-39.33-80-39.33-85.87 17.13-11.51 10.71-27.29-23.28-10.7-29.7-9.9-10.43-12.57-13.64-22.2 2.67-13.64 5.35-14.18 75.3-16 95.9-17.89 53.91-7 53.91-7c12.86 4.32 41.86 71.06 44.44 77.46zm117.06-168.29l-109.08 52.86a9.83 9.83 0 0 1-13.13-4.57l-1.74-3.59a9.78 9.78 0 0 1-.92-3.28l-5-8.64a5.8 5.8 0 0 1 2.13-7.93l7.07-4.09a5.81 5.81 0 0 1 7.93 2.12l2.47 4.27 99.5-48.23-3.92-6.78a2 2 0 0 1 .72-2.71l2.9-1.67a2 2 0 0 1 2.71.72l5.68 9.84a9.75 9.75 0 0 1 5.49 4.94l1.74 3.59a9.84 9.84 0 0 1-4.55 13.15zm86.94 130.39l7.4-3.46a1.28 1.28 0 0 1 1.8.88l4 17.9a1 1 0 0 1-1.73.86l-11.92-14a1.39 1.39 0 0 1 .45-2.18zm-15.9-44.82l6.22 4.41 4.43 10.31a1.45 1.45 0 0 1-.67 1.86l-5.92 3a1.45 1.45 0 0 1-2-.65l-4.92-10.05-.18-7.35a2 2 0 0 1 3.04-1.53zM815 433.1a25.79 25.79 0 0 1-1.64-2l-.17-.24c-2.49-3.47-50.44-104.54-50.44-104.54-5.15 3-11.55 5.57-14.28 2.61-7.42-8.06-2.74-25.81 5.32-32.42 2.08-1.7 5.07-2.07 8.12-1.38a2.33 2.33 0 0 1 .89 4.12l-3.24 2.86a1.08 1.08 0 0 0 .24 1.77c1.94.94 5.18 2.53 5.61 2.79 3.58 2.2 6 12.26 4.67 14.2a11.27 11.27 0 0 1-2 1.81l47.78 99 5.81-2.55a3.3 3.3 0 0 1 4.16 1.32c1.16 1.91 2.63 4.41 3.12 5.54 1.68 3.77-9.95 11.4-13.95 7.11zm46.72.6c-13.19 0-14.49-1.6-16.09-4.36-2.5-4.31 1.37-8.47 5.13-11.23L792.2 296.67l-4.29-8.83s-10.23 6.74-11.49 4.68c-2.74-4.45 10-11.32 14.62-11.68s13.56-1.18 16 5.17c1.52 4-3.89 7-8.59 8.77l57.89 120 6.07 11.85s11.93-6.21 13.71-1-1.12 8.07-14.36 8.07zm57.79-3.29l-3.06 2.7a2.3 2.3 0 0 1-1.54.59h-18.8a1.79 1.79 0 0 1-1.32-.58l-.71-.76a5.5 5.5 0 0 1 0-7.47l4.33-4.72-39-79.14c-.66-1.35-.8-4.41.61-4.94l8.37-4.65c6.64-2.92 13.73-.1 14.68 2.12l37.21 93.73a2.8 2.8 0 0 1-.73 3.12zm18.92-19.86l-3.43 1.33a4 4 0 0 1-5.16-2.28l-14.32-36.06a2.48 2.48 0 0 1 1.37-3.21l1.11-.45a2.48 2.48 0 0 1 3.09 1.07l19.35 34.27a3.73 3.73 0 0 1-1.97 5.33zm15.38 145.81a5.71 5.71 0 1 1-11.41 0v-99.57a5.71 5.71 0 1 1 11.41 0z"/></g><g class="d"><path class="bd" d="M280.3 595.86l-.23-3.17-.18-3c-.11-2-.19-4-.27-6q-.21-6-.26-12-.09-11.94.41-23.86a452.29 452.29 0 0 1 4.44-47.55 357.62 357.62 0 0 1 10.1-47 258.67 258.67 0 0 1 17.59-45.35 204.27 204.27 0 0 1 12.43-21.31A173.8 173.8 0 0 1 339.67 367l2.11-2.32 2.22-2.28c1.43-1.52 3-2.95 4.48-4.4s3.12-2.81 4.68-4.22 3.11-2.58 4.66-3.88 3-2.56 4.67-3.85 3.3-2.59 5-3.8c3.36-2.5 6.85-4.77 10.35-7a231 231 0 0 1 44.27-20.83 400.45 400.45 0 0 1 46.1-13.11c30.95-7 62.06-11.25 92.8-15.5 15.36-2.14 30.66-4.24 45.63-6.88 7.47-1.34 14.87-2.8 22-4.58a132.26 132.26 0 0 0 20.36-6.53l21.24-9.39 21.38-9.33 42.78-18.49 85.64-36.76 9.33-4 5.12 8.89q26 45.09 50.38 90.85c8.15 15.29 16.27 30.61 24.07 46.12s15.5 31.11 22.77 47.06c3.64 8 7.17 16.05 10.48 24.37 1.64 4.18 3.23 8.42 4.7 12.88.37 1.12.71 2.27 1.06 3.41s.68 2.32 1 3.57l.46 1.86.38 1.84.37 1.84.3 1.75c.82 4.69 1.36 9.13 1.86 13.58s.9 8.82 1.28 13.2c.75 8.76 1.34 17.46 1.86 26.15 1.92 34.75 2.86 69.3 3.11 104l-22.85.49-1.1-25.71-1.2-25.77c-.79-17.17-1.79-34.33-2.89-51.41-.56-8.53-1.19-17-1.95-25.49-.39-4.22-.8-8.42-1.29-12.56s-1-8.25-1.7-12.06l-.25-1.44-.29-1.33-.27-1.33-.33-1.28c-.2-.84-.5-1.77-.74-2.66l-.87-2.77c-1.22-3.75-2.64-7.6-4.14-11.45-3-7.73-6.4-15.49-9.89-23.23-7-15.49-14.51-30.89-22.18-46.23s-15.48-30.65-23.43-45.9q-23.87-45.76-48.61-91.09l14.45 4.9-85.57 36.7-42.72 18.47-21.31 9.3-21.36 9.44a154.18 154.18 0 0 1-23.92 7.74c-7.9 2-15.74 3.5-23.55 4.9-15.61 2.75-31.09 4.87-46.48 7-30.76 4.24-61.24 8.45-90.9 15.15a375.94 375.94 0 0 0-43.46 12.4 209.09 209.09 0 0 0-39.88 18.71c-3.05 1.94-6.07 3.9-8.94 6-1.47 1-2.85 2.15-4.26 3.24s-2.88 2.38-4.32 3.56-2.95 2.38-4.29 3.56-2.7 2.32-4 3.59-2.59 2.44-3.82 3.75l-1.87 1.92-1.81 2a150.17 150.17 0 0 0-13.3 17 180.81 180.81 0 0 0-11 18.91 236 236 0 0 0-16 41.37 333.34 333.34 0 0 0-9.44 44 427.75 427.75 0 0 0-4.22 45.15q-.5 11.34-.39 22.71 0 5.67.25 11.32l.25 5.62.16 2.78.19 2.64z"/><text class="be" transform="rotate(-88.3 434.759 125.826)">P</text><text class="be" transform="rotate(-87.1 436.512 118.566)">A</text><text class="be" transform="rotate(-85.93 437.753 110.321)">R</text><text class="be" transform="rotate(-84.77 439.225 102.364)">K</text><text class="be" transform="rotate(-82.92 442.036 89.747)">O</text><text class="be" transform="rotate(-81.59 443.163 79.3)">F</text><text class="be" transform="matrix(.17 -.99 .99 .17 301.05 498.34)">F</text><text class="be" transform="rotate(-79.54 445.924 63.665)">I</text><text class="be" transform="rotate(-78.37 450.01 57.4)">C</text><text class="be" transform="rotate(-76.7 455.16 45.175)">E</text><text class="be" transform="rotate(-75.34 456.755 35.204)">S</text><text class="be" transform="rotate(-72.92 464.123 18.472)">D</text><text class="be" transform="rotate(-70.8 468.16 3.356)">R</text><text class="be" transform="matrix(.35 -.94 .94 .35 316.02 438.75)">I</text><text class="be" transform="rotate(-68.01 481.05 -17.78)">V</text><text class="be" transform="rotate(-65.8 490.722 -34.52)">E</text><path d="M-188.3 591.47h1215.79M-188.3 57.7h1215.79" stroke="#fff" stroke-width="35" stroke-miterlimit="10" fill="none"/><text class="bg" transform="matrix(1.09 0 0 1 458.95 64.33)">I<tspan x="5.44" y="0" letter-spacing="0">-</tspan><tspan x="12.24" y="0">40</tspan></text><text transform="matrix(1.09 0 0 1 919.89 630.28)" fill="#fff" font-size="7" font-family="CircularStd-Book,Circular Std" opacity=".5"><tspan class="bj">M</tspan><tspan x="6.59" y="0" letter-spacing="-.01em">a</tspan><tspan x="10.18" y="0">y 2</tspan><tspan class="bj" x="19.29" y="0">0</tspan><tspan x="23.56" y="0">18</tspan></text><text transform="matrix(.46 .99 -.91 .42 855.1 265.13)" font-size="14.15" font-family="CircularStd-Medium,Circular Std" fill="#768d97"><tspan letter-spacing="-.06em">P</tspan><tspan x="7.7" y="0">ARK OFFICES DRIVE</tspan></text><text class="bg" transform="matrix(1.09 0 0 1 422.34 600.02)">NC H<tspan x="45.47" y="0" letter-spacing=".01em">W</tspan><tspan x="64.13" y="0">Y 54</tspan></text></g><path d="M98 454.94l-6.18-3.62H82L77.21 450s-.77-.21-.77.45a1.55 1.55 0 0 0 .68 1.31l4.12 2.71V459l-2 7.49s0 .47.41.47h1.07c.62 0 1.09-.72 1.09-.72l4-6.6 8.5 1.2c1.38 2.35 3.69 6.12 4.28 6.12h1.87c.31 0 .29-.41.29-.41L98 459zm7.75-12.17c-1.74 0-7.48.83-10.77 1.34-.47-.44-1-1-1.56-1.43-1-.88-1.11.21-1.11.21l.52 2.72.73 3.82 5.78 3.38v-1.56c1.77.18 4.33.43 4.91.38.89-.07.81-1.57.47-1.33a12.6 12.6 0 0 1-3.15-.47c-.21 0-.2-1.09-.2-1.09.5-.54 3.75-.61 4.35-1.58.88-2.38 1.28-4.38.03-4.39z" stroke-width="1.6" stroke="#06538f" stroke-linecap="round" stroke-linejoin="round" fill="none"/><path d="M300.61 286.44v-.69a1.73 1.73 0 0 0-.73-1.43v-.06a3.05 3.05 0 0 0-1.73-2.67v-.41a6.44 6.44 0 0 0-1.62-4.31 6.8 6.8 0 0 1-1.74-4.48v-4.6h.82a2.78 2.78 0 0 0 2.82-2.8v-4.23a1.16 1.16 0 0 0-1.2-1.11h-2.85a1.16 1.16 0 0 0-1.2 1.11v1.29h-.46v-1.29a1.16 1.16 0 0 0-1.2-1.11h-3.41a1.16 1.16 0 0 0-1.2 1.11v1.29h-.46v-1.29a1.16 1.16 0 0 0-1.19-1.11h-2.91a1.16 1.16 0 0 0-1.2 1.11V265a2.81 2.81 0 0 0 2.82 2.8h.59v4.74a6.55 6.55 0 0 1-1.68 4.34 6.51 6.51 0 0 0-1.67 4.36v.49a3 3 0 0 0-1.46 2.49v.09a1.78 1.78 0 0 0-.73 1.4v1.1a1.93 1.93 0 0 0 2 1.84h17.63a1.92 1.92 0 0 0 2-1.84.66.66 0 0 0-.04-.37zM284 266.52a1.56 1.56 0 0 1-1.55-1.53v-4.07h2.76v1.76a.63.63 0 0 0 .64.64h1.73a.64.64 0 0 0 .64-.64v-1.76h3.26v1.76a.63.63 0 0 0 .63.64h1.74a.63.63 0 0 0 .63-.64v-1.76h2.71V265a1.52 1.52 0 0 1-1.55 1.53H284zm-.15 11.2a7.82 7.82 0 0 0 2-5.19v-4.74h7.68v4.6a8.08 8.08 0 0 0 2.06 5.33 5.1 5.1 0 0 1 1.3 3.46v.28h-14.4v-.23a5.26 5.26 0 0 1 1.33-3.51zm-1.83 5h15.6a1.88 1.88 0 0 1 1 1.28H281a1.8 1.8 0 0 1 1-1.27zm16.7 4.64h-17.66c-.43 0-.77-.25-.77-.57v-1.1a.54.54 0 0 1 .28-.42H299a.5.5 0 0 1 .34.47v1.05a.86.86 0 0 0 0 .24.78.78 0 0 1-.65.34z" stroke-width=".25" fill="#06538f" stroke="#06538f" stroke-miterlimit="10"/><text class="bq" transform="translate(57.83 483.34)">DOG <tspan x="33.43" y="0" letter-spacing="-.06em">P</tspan><tspan x="40.6" y="0">ARK</tspan></text><text class="bq" transform="translate(266.08 303.24)">GAMES</text><path class="bs" d="M386.66 363.8s7.7 7.47 14.36 7.47c7 0 14.36-6.41 14.36-6.41s-3.27 10.75-14 10.75c-10.61 0-12.93-6.94-14.72-11.81zm0 0l-1.41 15.6m30.13-14.4l1.79 15.05"/><text class="bq" transform="translate(361.3 395.19)">HAMMOC<tspan x="64.63" y="0" letter-spacing="-.01em">K</tspan><tspan x="73.58" y="0">S</tspan></text><path class="bs" d="M390.75 236.86h20.17m-26.48 11.8h32.79m-20.98-8.53l-4 16.71m13.17-16.71l4 16.71"/><text class="bq" transform="translate(359.03 272.01)"><tspan letter-spacing="0">P</tspan><tspan x="7.88" y="0">ICNIC AREA</tspan></text><text class="bq" transform="translate(267.46 391.87)">BENCHES</text><path class="bs" d="M310.41 363.71v5.75m-22.15-5.75v5.75m-3.45 7.11v-7.11h29.05v7.11m-28.27-17.82h27.49v4.8h-27.49z"/><text class="bq" transform="translate(453.64 420.97)"><tspan letter-spacing="-.02em">W</tspan><tspan x="13.12" y="0">ORD </tspan><tspan x="44.51" y="0" letter-spacing="-.04em">W</tspan><tspan x="57.38" y="0" letter-spacing="0">ALL</tspan></text><path class="by" d="M493.04 401.29l-7.74-4.06-.09 8.56 7.83-4.5z"/><path class="bz" d="M489.32 403.46l-3.96-2.08-.05 4.38 4.01-2.3z"/><path class="by" d="M496.87 375.25l6.81 3.58-10.64 22.46-7.74-4.06 11.57-21.98z"/><path class="bz" d="M643.25 308.28l-9.49 4.45-10.26 6.97-82.49 41.24v22.29l-4.64 1.72 28.27 54.99 12.78-5.81 1.55 3.49 16.41-8.13 1.79 2.71 15.75-6.81 2.69 2.25 57.07-24.8v-22.4l6.1-2.66-35.53-69.5zM76.53 222.46l83.26-40.66 1.43 2.96 15.99-7.99 1.84 2.99 16.36-8.42 3.89 6.47 19.35-9.18 20.91 41.05 57.32-28.27 23.62 44.54-16.65 8.13.77 2.71-15.1 7.74.77 3.1-49.57 25-1.55-3.31-16.65 8.52-1.55-2.71-16.26 8.52-25.95-49.18-43.33 22.24-2.36-4.04-16.6 8.68-1.6-2.87L97.83 267l-21.3-44.54zm250.19-59.18l83.26-40.66 1.43 2.96 15.99-8 1.84 3 16.37-8.42 3.88 6.47 17.67 37.48 2.28-.86L486.91 190l42.79-21.69 1.79 2.63 16.33-8.26 2.14 3.2 16.19-8.24 21.25 43.59-81.9 41.63-1.75-3.1-16.07 8.13-1.35-2.71-16.34 7.88-41.04-77.78-43.33 22.25-2.36-4.05-16.6 8.68-1.6-2.87-16.49 8.25-21.85-44.26z"/><path d="M305.75 203.48l5.34 9.74 34.94-17.14-4.91-10.26-35.37 17.66zm263.3-7.72l12.17-5.37 64.46 123.55-10.95 7.26-11.38-24.41-5.4-1.8-9.65-20.63 1.02-5.03-40.27-73.57z" stroke-dasharray="2 5" stroke-width="1.75" stroke="#06538f" stroke-linecap="round" stroke-linejoin="round" fill="none"/><text class="cb" transform="translate(588.32 377.4)">BUILDING<tspan letter-spacing=".04em" font-size="22.86"><tspan x="-1" y="18.51">8</tspan><tspan x="12.83" y="18.51">0</tspan><tspan x="28.01" y="18.51">0</tspan></tspan></text><text class="cb" transform="translate(208.92 228.2)">BUILDING<tspan letter-spacing=".03em" font-size="22.86"><tspan x="-.13" y="18.51">7</tspan><tspan x="11.96" y="18.51" letter-spacing=".04em">0</tspan><tspan x="27.14" y="18.51" letter-spacing=".04em">0</tspan></tspan></text><text class="cb" transform="translate(472.54 205.13)">BUILDING<tspan class="ci"><tspan x="-1.22" y="18.51">6</tspan><tspan class="cj" x="13.05" y="18.51">0</tspan><tspan x="28.23" y="18.51">0</tspan></tspan></text><path class="bz" d="M915.31 466.92v68.72h-73.74v-17.46h-14.86v-15.97H811.3v-35.29h45.13v9.66h6.87v8.54h23.59v-18.2h28.42z"/><text class="cb" transform="translate(857.75 504.65)">BUILDING<tspan class="ci"><tspan x="-1.39" y="18.51">4</tspan><tspan class="cj" x="13.22" y="18.51">0</tspan><tspan x="28.4" y="18.51" letter-spacing=".04em">0</tspan></tspan></text></g></svg>