<svg xmlns="http://www.w3.org/2000/svg" viewBox="0 0 976.83 648"><path d="M915.31 466.92v68.72h-73.74v-17.46h-14.86v-15.97H811.3v-35.29h45.13v9.66h6.87v8.54h23.59v-18.2h28.42zM643.25 308.28l-9.49 4.45-10.26 6.97-82.49 41.24v22.29l-4.64 1.72 28.27 54.99 12.78-5.81 1.55 3.49 16.41-8.13 1.79 2.71 15.75-6.81 2.69 2.25 57.07-24.8v-22.4l6.1-2.66-35.53-69.5zM76.53 222.46l83.26-40.66 1.43 2.96 15.99-7.99 1.84 2.99 16.36-8.42 3.89 6.47 19.35-9.18 20.91 41.05 57.32-28.27 23.62 44.54-16.65 8.13.77 2.71-15.1 7.74.77 3.1-49.57 25-1.55-3.31-16.65 8.52-1.55-2.71-16.26 8.52-25.95-49.18-43.33 22.24-2.36-4.04-16.6 8.68-1.6-2.87L97.83 267l-21.3-44.54zm250.19-59.18l83.26-40.66 1.43 2.96 15.99-8 1.84 3 16.37-8.42 3.88 6.47 17.67 37.48 2.28-.86L486.91 190l42.79-21.69 1.79 2.63 16.33-8.26 2.14 3.2 16.19-8.24 21.25 43.59-81.9 41.63-1.75-3.1-16.07 8.13-1.35-2.71-16.34 7.88-41.04-77.78-43.33 22.25-2.36-4.05-16.6 8.68-1.6-2.87-16.49 8.25-21.85-44.26z" fill="#06538f"/></svg>