<svg xmlns="http://www.w3.org/2000/svg" width="66" height="66"><path d="M33 65.5C15.08 65.5.5 50.92.5 33 .5 15.078 15.08.5 33 .5 50.922.5 65.5 15.078 65.5 33c0 17.92-14.578 32.5-32.5 32.5zm0-62C16.734 3.5 3.5 16.732 3.5 33c0 16.266 13.234 29.5 29.5 29.5 16.268 0 29.5-13.234 29.5-29.5C62.5 16.732 49.268 3.5 33 3.5zm13.885 38.64L37 25.67V19h1c.55 0 1-.45 1-1s-.45-1-1-1H28c-.55 0-1 .45-1 1s.45 1 1 1h1v6.67l-9.883 16.47C16.852 45.915 18.6 49 23 49h20c4.4 0 6.148-3.086 3.885-6.86zM24.533 37L31 26.22V19h4v7.22L41.47 37H24.532z"/></svg>