<svg xmlns="http://www.w3.org/2000/svg" width="66" height="66" viewBox="0 0 66 66"><path d="M33 65.5C15.078 65.5.5 50.92.5 33 .5 15.078 15.078.5 33 .5 50.92.5 65.5 15.078 65.5 33c0 17.92-14.58 32.5-32.5 32.5zm0-62C16.732 3.5 3.5 16.732 3.5 33c0 16.266 13.232 29.5 29.5 29.5 16.266 0 29.5-13.234 29.5-29.5C62.5 16.732 49.266 3.5 33 3.5zm10.934 19.065zM44.006 33c3.568-3.41 5.3-6.753 4.148-8.75-.658-1.14-2.166-1.685-4.22-1.685v1.64c1.438 0 2.485.325 2.798.865.248.428.11 1.085-.05 1.56-.302.914-.966 2.006-1.915 3.16-.574.7-1.238 1.405-1.977 2.106a39.725 39.725 0 0 0-3.377-2.6 39.575 39.575 0 0 0-.562-4.223c1.93-.57 3.67-.868 5.09-.868v-1.64c-1.54 0-3.4.308-5.43.9-1.17-4.795-3.19-7.967-5.5-7.967s-4.33 3.172-5.5 7.967c-2.03-.594-3.88-.902-5.43-.902-2.05 0-3.56.545-4.22 1.685-1.15 1.997.58 5.338 4.15 8.75-3.566 3.41-5.3 6.753-4.146 8.75.66 1.14 2.167 1.685 4.224 1.685 1.546 0 3.4-.31 5.43-.902 1.17 4.8 3.2 7.97 5.505 7.97 2.306 0 4.333-3.17 5.503-7.96 2.034.6 3.888.9 5.43.9 2.057 0 3.56-.54 4.225-1.68 1.15-1.99-.58-5.34-4.15-8.75zm-2.444 0a36.081 36.081 0 0 1-2.03 1.605c.02-.527.028-1.063.028-1.605s-.01-1.078-.027-1.605A35.723 35.723 0 0 1 41.563 33zm-4.28 7.414c-.788-.28-1.593-.6-2.403-.953.46-.25.93-.5 1.4-.77.46-.27.92-.54 1.37-.82-.1.88-.23 1.74-.38 2.56zm-1.823-3.152c-.82.47-1.64.91-2.47 1.32a40.55 40.55 0 0 1-2.46-1.32c-.82-.473-1.61-.965-2.38-1.47-.06-.913-.09-1.846-.09-2.792s.03-1.88.08-2.792a45.489 45.489 0 0 1 4.838-2.79c.827.408 1.65.85 2.462 1.32a45.4 45.4 0 0 1 2.373 1.47 47.33 47.33 0 0 1-.001 5.584c-.764.505-1.557.998-2.377 1.47zm-7.12.593c.45.28.9.56 1.37.828.46.27.93.527 1.4.777-.81.352-1.62.672-2.4.953-.15-.82-.28-1.675-.38-2.558zm-1.88-3.25c-.72-.525-1.4-1.062-2.03-1.605.63-.543 1.31-1.08 2.03-1.605a42.364 42.364 0 0 0 0 3.21zm2.25-9.018c.78.28 1.59.6 2.4.953a45.752 45.752 0 0 0-2.78 1.603c.09-.88.22-1.735.37-2.556zm7.56 1.73c-.47-.272-.94-.528-1.4-.777.81-.353 1.61-.673 2.4-.953.15.82.28 1.676.38 2.558-.45-.282-.91-.558-1.38-.83zM29.89 21.2c.523-1.395 1.14-2.517 1.777-3.237.335-.375.837-.822 1.33-.822.493 0 .995.45 1.327.83.64.72 1.254 1.84 1.777 3.24.32.85.6 1.78.84 2.77-1.27.44-2.59.99-3.94 1.63-1.35-.64-2.67-1.18-3.94-1.62.24-.99.52-1.916.84-2.766zm-8.666 8.59c-.948-1.154-1.612-2.247-1.915-3.16-.16-.476-.3-1.134-.05-1.56.31-.543 1.36-.865 2.8-.865 1.42 0 3.16.3 5.08.868a37.55 37.55 0 0 0-.57 4.223c-1.23.847-2.36 1.72-3.38 2.6a23.726 23.726 0 0 1-1.98-2.107zm.834 12.005c-1.44 0-2.488-.322-2.8-.865-.25-.428-.11-1.084.05-1.56.303-.913.965-2.006 1.914-3.16.574-.7 1.238-1.405 1.98-2.106a38.886 38.886 0 0 0 3.374 2.6c.12 1.488.31 2.904.562 4.223-1.92.57-3.664.868-5.082.868zM36.1 44.8c-.522 1.39-1.14 2.512-1.776 3.232-.332.375-.834.822-1.328.822-.493 0-.995-.448-1.327-.823-.64-.72-1.26-1.84-1.78-3.23-.32-.85-.6-1.77-.84-2.77 1.26-.44 2.59-.98 3.93-1.62 1.35.64 2.67 1.19 3.94 1.63a23.6 23.6 0 0 1-.84 2.77zm10.58-5.43c.16.47.298 1.13.05 1.56-.312.54-1.36.86-2.8.86-1.42 0-3.16-.3-5.083-.87a39.16 39.16 0 0 0 .562-4.22c1.23-.848 2.36-1.72 3.37-2.6.73.7 1.4 1.405 1.98 2.106.95 1.153 1.61 2.246 1.91 3.16zM30.265 33a2.735 2.735 0 0 0 2.734 2.734c1.51 0 2.73-1.224 2.73-2.734s-1.22-2.734-2.73-2.734S30.26 31.49 30.26 33z"/></svg>