<svg xmlns="http://www.w3.org/2000/svg" width="66" height="66"><path d="M32.75 65.5C14.83 65.5.25 50.92.25 33S14.83.5 32.75.5s32.5 14.58 32.5 32.5-14.58 32.5-32.5 32.5zm0-62C16.483 3.5 3.25 16.733 3.25 33c0 16.266 13.233 29.5 29.5 29.5s29.5-13.234 29.5-29.5c0-16.267-13.233-29.5-29.5-29.5zM44.5 40.158a4.343 4.343 0 0 1-4.342 4.342H25.842a4.342 4.342 0 0 1-4.342-4.342V25.842a4.342 4.342 0 0 1 4.342-4.342h14.316a4.343 4.343 0 0 1 4.342 4.342v14.316zm-21-22.934c0-.4-.324-.724-.724-.724h-.553c-.4 0-.724.324-.724.724v2.553c0 .4.32.724.72.724h.55c.4 0 .724-.32.724-.72v-2.55zm7 0c0-.4-.324-.724-.723-.724h-.555c-.4 0-.723.324-.723.724v2.553c0 .4.32.724.72.724h.55c.4 0 .724-.32.724-.72v-2.55zm7 0c0-.4-.323-.724-.723-.724h-.555c-.4 0-.723.324-.723.724v2.553c0 .4.32.724.72.724h.55c.4 0 .724-.32.724-.72v-2.55zm7 0c0-.4-.323-.724-.723-.724h-.555c-.4 0-.723.324-.723.724v2.553c0 .4.32.724.72.724h.55c.4 0 .724-.32.724-.72v-2.55zm-21 28.628c0-.398-.324-.352-.724-.352h-.553c-.4 0-.724-.047-.724.352v2.555c0 .4.32 1.094.72 1.094h.55c.4 0 .724-.69.724-1.09V45.86zm7 0c0-.398-.323-.352-.723-.352h-.555c-.4 0-.723-.047-.723.352v2.555c0 .4.32 1.094.72 1.094h.55c.4 0 .724-.69.724-1.09V45.86zm7 0c0-.398-.323-.352-.723-.352h-.555c-.4 0-.723-.047-.723.352v2.555c0 .4.32 1.094.72 1.094h.55c.4 0 .724-.69.724-1.09V45.86zm7 0c0-.398-.323-.352-.723-.352h-.555c-.4 0-.723-.047-.723.352v2.555c0 .4.32 1.094.72 1.094h.55c.4 0 .724-.69.724-1.09V45.86zm-24-23.63a.723.723 0 0 0-.723-.722h-2.555c-.4 0-.723.324-.723.723v.555c0 .4.32.723.72.723h2.55c.4 0 .724-.32.724-.72v-.55zm0 7a.723.723 0 0 0-.723-.722h-2.555c-.4 0-.723.324-.723.723v.555c0 .4.32.723.72.723h2.55c.4 0 .724-.32.724-.72v-.55zm0 6.632c0-.4-.323-.354-.723-.354h-2.555c-.4 0-.723-.047-.723.354v.553c0 .398.32 1.094.72 1.094h2.55c.4 0 .724-.69.724-1.09v-.55zm0 7c0-.4-.323-.354-.723-.354h-2.555c-.4 0-.723-.047-.723.354v.553c0 .398.32 1.094.72 1.094h2.55c.4 0 .724-.69.724-1.09v-.55zm29-20.63c0-.4-.323-.724-.723-.724h-2.555c-.4 0-.723.324-.723.723v.555c0 .4.32.723.72.723h2.55c.4 0 .724-.32.724-.72v-.55zm0 7c0-.4-.323-.724-.723-.724h-2.555c-.4 0-.723.324-.723.723v.555c0 .4.32.723.72.723h2.55c.4 0 .724-.32.724-.72v-.55zm0 6.63c0-.4-.323-.354-.723-.354h-2.555c-.4 0-.723-.047-.723.354v.553c0 .398.32 1.094.72 1.094h2.55c.4 0 .724-.69.724-1.09v-.55zm0 7c0-.4-.323-.354-.723-.354h-2.555c-.4 0-.723-.047-.723.354v.553c0 .398.32 1.094.72 1.094h2.55c.4 0 .724-.69.724-1.09v-.55z"/></svg>