<svg xmlns="http://www.w3.org/2000/svg" width="66" height="66" viewBox="0 0 66 66"><path d="M30.884 28.893l-8 20h3.037l6.964-6.092 6.963 6.093h3.037l-8-20h-4zm-4.686 17.1l2.68-6.7 2.487 2.178-5.167 4.522zm13.37 0l-5.167-4.52 2.49-2.18 2.68 6.7zm-6.684-5.85l-3.22-2.816 2.573-6.434h1.293l2.572 6.434-3.218 2.816zm6.928-19.25c.682 1.176 1.07 2.543 1.07 4s-.39 2.822-1.07 4l1.732 1c.852-1.47 1.34-3.178 1.34-5s-.488-3.53-1.34-5l-1.732 1zm-13.858 8c-.68-1.178-1.07-2.543-1.07-4s.39-2.824 1.07-4l-1.732-1c-.85 1.47-1.338 3.178-1.338 5s.487 3.53 1.338 5l1.732-1zm-6.93-12c-1.36 2.354-2.14 5.086-2.14 8s.778 5.646 2.14 8l1.732-1c-1.19-2.06-1.873-4.45-1.873-7s.682-4.94 1.873-7l-1.732-1zm29.86 8c0-2.914-.78-5.646-2.14-8l-1.733 1c1.192 2.06 1.874 4.45 1.874 7s-.682 4.94-1.873 7l1.733 1a15.942 15.942 0 0 0 2.14-8zm-18 0a2 2 0 1 0 4.001-.001 2 2 0 0 0-4.001.001zM33 65.5C15.08 65.5.5 50.92.5 33 .5 15.078 15.08.5 33 .5S65.5 15.078 65.5 33c0 17.92-14.58 32.5-32.5 32.5zm0-62C16.733 3.5 3.5 16.732 3.5 33c0 16.266 13.233 29.5 29.5 29.5S62.5 49.266 62.5 33C62.5 16.732 49.267 3.5 33 3.5z"/></svg>