<svg xmlns="http://www.w3.org/2000/svg" width="66" height="66"><path d="M33 65.5C15.08 65.5.5 50.92.5 33 .5 15.078 15.08.5 33 .5S65.5 15.078 65.5 33c0 17.92-14.58 32.5-32.5 32.5zm0-62C16.733 3.5 3.5 16.732 3.5 33c0 16.266 13.233 29.5 29.5 29.5S62.5 49.266 62.5 33C62.5 16.732 49.267 3.5 33 3.5zm11.976 17.554c-3.516-3.516-9.135-3.594-12.55-.177l-5.157 5.155L26 27.3l-5.153 5.156c-3.418 3.416-3.34 9.036.176 12.552s9.135 3.594 12.55.176l5.157-5.154 1.268-1.268 5.155-5.157c3.416-3.417 3.338-9.036-.177-12.55zm-3.49-.22s-4.3.473-10.34 8.222L29.288 27.2l3.77-3.77c0-.002 3.978-4.42 8.427-2.595zM32.16 43.77c-1.27 1.268-2.972 1.95-4.797 1.926a6.975 6.975 0 0 1-2.606-.543c-.865-.36-1.646-.885-2.32-1.56s-1.197-1.452-1.56-2.32a6.915 6.915 0 0 1-.542-2.606c-.026-1.825.658-3.528 1.925-4.796l5.126-5.126 9.9 9.9-5.127 5.126z"/></svg>