<svg xmlns="http://www.w3.org/2000/svg" width="66" height="66"><path d="M33 65.5C15.08 65.5.5 50.92.5 33 .5 15.078 15.08.5 33 .5S65.5 15.078 65.5 33c0 17.92-14.58 32.5-32.5 32.5zm0-62C16.733 3.5 3.5 16.732 3.5 33c0 16.266 13.233 29.5 29.5 29.5S62.5 49.266 62.5 33C62.5 16.732 49.267 3.5 33 3.5zm-8.303 19.464c-6.78 3.933-6.39 10.343-6.16 12.712 8.76-10.375 21.86-9.87 21.86-9.87s-18.57 6.37-24.023 19.145c-.43 1.01 2.02 2.32 2.58 1.13 1.67-3.554 3.997-6.22 3.997-6.22 3.437 1.28 9.377 2.777 13.584-.186 5.595-3.936 5.02-12.66 13.006-16.907 1.862-.99-15.65-5.138-24.843.198z"/></svg>