<svg xmlns="http://www.w3.org/2000/svg" viewBox="-255 347 100 100"><path fill="#55ACEE" d="M-205 347c-27.6 0-50 22.4-50 50s22.4 50 50 50 50-22.4 50-50-22.4-50-50-50z"/><circle cx="-205" cy="397" r="50" fill="none"/><path fill="#4C9AD6" d="M-183 419h-23c-.6 0-2.5.3-3 .8l-1.2 1c.5-.5 2.5-.8 3-.8h23c1.2 0 2.3-.6 3.1-1.5-.6.3-1.2.5-1.9.5zm-35 6v-6h-9c-2.2 0-4-1.8-4-4v-34c0-1 .4-1.9.9-2.5-1.3.7-2.2 2-2.2 3.5v34c0 2.2 1.8 4 4 4h9v6c0 2.3 2.5 0 2.5 0l.7-.5c-.7.5-1.9 1.1-1.9-.5z"/><path fill="#448AC0" d="M-231 388v-7c0-1 .4-1.9.9-2.5-1.3.7-2.2 2-2.2 3.5v6h1.3z"/><path fill="#4C9AD6" d="M-254.1 387.4c.6.4 1.3.6 2.1.6h7v4c0 2.3 2.5 0 2.5 0 2.1-1.7 2-2 3.5-3.2.5-.5 2.5-.8 3-.8h14c2.2 0 4-1.8 4-4v-22c0-2.2-1.8-4-4-4h-14.3c-9 7.3-15.5 17.6-17.8 29.4z"/><path fill="#B8D9F2" d="M-164.3 368H-189c-2.2 0-4 1.8-4 4v22c0 2.2 1.8 4 4 4h14c.6 0 2.5.3 3 .8 1.5 1.2 1.4 1.5 3.5 3.2-.1 0 2.5 2.3 2.5 0v-4h7c2 0 3.6-1.5 3.9-3.4-.4-9.9-3.8-19-9.2-26.6z"/><path fill="#fff" d="M-227 377h44c2.2 0 4 1.8 4 4v34c0 2.2-1.8 4-4 4h-23c-.6 0-2.5.3-3 .8l-6.5 5.2c.1 0-2.5 2.3-2.5 0v-6h-9c-2.2 0-4-1.8-4-4v-34c0-2.2 1.8-4 4-4z"/></svg>