<svg id="Layer_1" xmlns="http://www.w3.org/2000/svg" viewBox="0 0 64 64"><style>.st3{fill:none;stroke:#fff;stroke-width:.25;stroke-miterlimit:10}</style><path class="st3" d="M35.6 61.8c-2 1.1-5.3 1.1-7.2 0L7.7 49.9c-2-1.1-3.6-4-3.6-6.3V19.8c0-2.3 1.6-5.1 3.6-6.3L28.4 1.6c2-1.1 5.3-1.1 7.2 0l20.7 11.9c2 1.2 3.6 4 3.6 6.3v23.9c0 2.3-1.6 5.1-3.6 6.3L35.6 61.8zM17.8 40.3v-.1zM32 14.6zm0 17.1v.1zm14.3-8.5h-.1zM32 48.8z"/><path class="st3" d="M46.2 40.2v-17L32 31.7z"/><path class="st3" d="M32 31.8v17l14.2-8.6L32 31.7zm14.2 8.5l12.3 7.4c.8-1.2 1.4-2.7 1.4-4V32l-13.7 8.3zM32 14.6l-14.2 8.6L32 31.7z"/><path class="st3" d="M32 31.7l-14.2-8.5v17.1L32 31.8zm0 31c1.3 0 2.6-.3 3.6-.9l9.2-5.3L32 48.8v13.9zm-14.2-55L7.7 13.5c-.9.5-1.7 1.3-2.3 2.3l12.3 7.4V7.7zM32 14.6L19.1 6.9l-1.3.8v15.5zm0 17.1l14.2-8.5L32 14.6z"/><path class="st3" d="M32 14.6l14.2 8.6V7.7l-1.3-.8L32 14.6zm12.9-7.7l-9.3-5.3c-1-.6-2.3-.9-3.6-.9v13.9l12.9-7.7zm1.3 16.3v17L59.9 32v-.6l-13.6-8.2z"/><path class="st3" d="M32 14.6V.7c-1.3 0-2.6.3-3.6.9l-9.3 5.3L32 14.6zm27.9 16.8V19.8c0-1.3-.5-2.7-1.3-4l-12.3 7.4 13.6 8.2zm-42.1 8.8L4.1 32v11.6c0 1.3.5 2.8 1.4 4.1l12.3-7.5z"/><path class="st3" d="M17.8 23.2L4.1 31.4v.6l13.7 8.2z"/><path class="st3" d="M5.4 15.8c-.8 1.2-1.3 2.7-1.3 4v11.6l13.7-8.2-12.4-7.4zm26.6 33l-12.8 7.7 9.2 5.3c1 .6 2.3.9 3.6.9V48.8zm-14.2-8.5v15.4l1.4.8L32 48.8z"/><path class="st3" d="M17.8 40.3L32 48.8v-17zm28.4-.1L32 48.8l12.8 7.7 1.4-.8V40.3zm0 15.5l10.1-5.8c.9-.5 1.6-1.3 2.3-2.3l-12.3-7.4v15.5zm-40.7-8c.6.9 1.4 1.7 2.2 2.2l10.1 5.8V40.3L5.5 47.7zm50.8-34.2L46.2 7.7v15.5l12.3-7.4c-.5-1-1.3-1.8-2.2-2.3z"/></svg>