<svg xmlns="http://www.w3.org/2000/svg" width="400" height="117.931" viewBox="0 0 400 117.931"><path d="M44.282 33.348c-4.616-2.18-9.314-4.04-14.108-5.527-.797-.24-2.427-.25-2.408 2.07.02 2.04.01 47.53.002 58.56.002 1.54 1.286 2.03 1.925 1.82 4.814-1.46 9.525-3.31 14.153-5.46 1.926-.893 2.582-1.28 2.58-3.93-.003-9.8-.03-43.144.007-44.42.043-1.5-1.434-2.75-2.15-3.09zm37.885 24.444c-5.13-4.01-10.286-7.847-15.488-11.405-.76-.517-2.28-.614-2.28.88.02 6.197.06 22.28-.01 23.734-.09 1.82 1.42 1.13 2.13.65 5.29-3.6 10.53-7.51 15.75-11.59.95-.74.69-1.63-.11-2.26zm35.803-4.098c-1.536 1.267-3.08 2.54-4.628 3.824-.92.764-1.414 1.733-.167 2.765 1.587 1.318 3.167 2.622 4.744 3.92.59.487 1.77.296 1.77-1.28-.01-2.793-.02-6.887.01-8.192.02-2.04-1.16-1.51-1.73-1.03zM153.9 27.29c-4.657 2.784-9.287 5.874-13.923 9.21-1.37.986-2.312 1.656-2.31 4.19-.012 8.446-.043 35.422-.005 36.964.054 1.844 1.063 2.865 1.592 3.253 5.056 3.675 10.112 7.05 15.192 10.07.63.374 1.963.047 1.88-1.533-.08-1.58.006-60.616.006-60.616-.122-1.506-.683-2.592-2.433-1.54zm36.81-13.99c-4.905.65-9.72 1.816-14.478 3.41-.643.218-1.928 1.286-1.936 2.73-.005 1.288 0 64.757.002 78.514 0 2.027.616 2.842 2.36 3.415 4.63 1.52 9.326 2.63 14.096 3.25.728.09 2.142-.94 2.2-2.61.057-1.68-.004-87.02-.004-87.02 0-.69-1.42-1.81-2.24-1.7zm36.308 4.536c-4.676-1.765-9.407-3.11-14.224-3.982-1.063-.196-1.874.367-1.874 1.148 0 0 .007 83.95.002 86.215-.007 2.263 1.735 2.892 2.6 2.732 4.565-.88 9.06-2.18 13.503-3.86.86-.33 2.568-2.15 2.573-4.13.012-14.12.062-71.43-.005-74.05-.08-2.99-1.713-3.76-2.575-4.09zm36.757 21.435c-4.766-3.55-9.526-6.88-14.298-9.91-.638-.4-1.892-.79-1.913 1.16-.02 1.95-.028 55.24-.005 56.99.03 1.76 1.27 1.49 1.89 1.08 5.05-3.19 10.08-6.73 15.12-10.52.55-.41 1.64-2.09 1.64-3.52V43.2c0-2.72-1.64-3.312-2.45-3.914zm20.22 23.2c2-1.16 2.8-2.33 4.206-3.5-1.4-1.16-2.2-2.33-4.2-3.49v6.99zm53.7-18.96c-5.255 3.41-10.44 7.18-15.606 11.11-5.04 3.82-5.29 4.71 0 8.73 5.21 3.965 10.45 7.77 15.76 11.207.54.347 1.5.04 1.61-1.02.09-.88.03-21.766 0-28.846 0-1.44-1.23-1.534-1.78-1.173zm38.42-13.74c-.007-2.32-2.214-3.14-3.313-2.85-4.03 1.13-7.99 2.51-11.89 4.13-1.16.48-3.473 3.11-3.48 5.76-.053 11.64-.172 43.31.018 45.47.228 2.66 2.142 4.08 3.224 4.54a104.738 104.738 0 0 0 11.745 4.115c1.21.34 3.54.26 3.68-3.21.11-2.947.04-45.09.01-57.947z"/></svg>