<svg xmlns="http://www.w3.org/2000/svg" width="392" height="200"><path d="M124 56.99v86.02a83.066 83.066 0 0 0 6 8.572V48.417a83.066 83.066 0 0 0-6 8.572zm34-31.285v148.59a82.709 82.709 0 0 0 6 2.698V23.007a83.143 83.143 0 0 0-6 2.698zM195 17c-.67 0-1.333.035-2 .05v165.9c.667.015 1.33.05 2 .05 1.342 0 2.674-.038 4-.102V17.102a82.898 82.898 0 0 0-4-.102zm32 6.4v153.2a82.812 82.812 0 0 0 6-2.814V26.217a83.258 83.258 0 0 0-6-2.816zm35 27.627v97.946a82.924 82.924 0 0 0 6-9.445V60.472a83.012 83.012 0 0 0-6-9.445zM0 17v166c2.02 0 4.016-.098 6-.24V17.24A83.305 83.305 0 0 0 0 17zm33 6.836v152.328a82.598 82.598 0 0 0 6-2.895V26.73a82.588 82.588 0 0 0-6-2.894zM66 49.69v100.62a83.688 83.688 0 0 0 6-9.038V58.73a83.322 83.322 0 0 0-6-9.04zm253 10.78v79.057a83.062 83.062 0 0 0 6 9.442V51.027a82.924 82.924 0 0 0-6 9.445zm33-33.202v145.46a81.839 81.839 0 0 0 6 2.98V24.288a82.261 82.261 0 0 0-6 2.982zm34-10.03v165.52c1.984.143 3.98.24 6 .24V17c-2.02 0-4.016.098-6 .24z" opacity=".25" fill="#fff"/></svg>