<svg xmlns="http://www.w3.org/2000/svg" width="400" height="117.931"><path d="M89.12 54.625a522.562 522.562 0 0 0 3.29-2.68c1.293-1.06.34-1.97-.2-2.4-25.695-20.386-53.198-38.42-88.313-38.53A3.886 3.886 0 0 0 .002 14.91a3.876 3.876 0 0 0 3.872 3.88c30.266-.127 55.92 15.306 82.312 35.95 1.132.884 2.13.532 2.934-.113zM400 14.908c-.003-2.156-1.742-3.892-3.87-3.892-41.8.13-72.812 25.612-103.014 50.446-28.942 24.065-58.864 48.945-93.077 48.696-32.42.24-60.957-22.014-88.625-44.938-2.03 1.665-4.073 3.33-6.125 5.002l1.078.882c27.876 22.924 56.687 46.626 93.6 46.827 36.98-.2 65.806-23.92 93.687-46.84l4.39-3.604c32.222-26.725 61.832-48.848 98.06-48.704 2.15 0 3.89-1.74 3.893-3.87z"/></svg>