<svg xmlns="http://www.w3.org/2000/svg" width="196" height="100" viewBox="0 0 196 100"><path fill="#fff" d="M196 98.182c-25.5 0-46.386-20.036-47.913-45.237-.06-.975-.005-1.956-.005-2.944s-.098-1.97-.04-2.943C149.57 21.854 170.5 1.817 196 1.817V0c-24 0-44.19 17.22-48.824 40.027C142.54 17.22 122.42 0 98.264 0S53.767 17.22 49.132 40.027C44.497 17.22 24.5 0 0 0v1.818c25.5 0 46.738 20.036 48.265 45.237.06.975.18 1.955.18 2.944 0 .987-.165 1.97-.224 2.943C46.694 78.146 25.5 98.183 0 98.183V100c24.5 0 44.54-17.22 49.176-40.028C53.81 82.78 74.106 100 98.264 100s44.233-17.22 48.868-40.028C151.767 82.78 172 100 196 100v-1.818zm-97.648 0c-25.58 0-46.562-20.036-48.09-45.237A47.94 47.94 0 0 1 50.17 50c0-.99.033-1.97.093-2.944 1.526-25.2 22.51-45.237 48.09-45.237s46.56 20.035 48.088 45.236c.06.975.094 1.955.094 2.944 0 .988-.033 1.97-.093 2.944-1.526 25.202-22.51 45.238-48.088 45.238z"/></svg>