<svg xmlns="http://www.w3.org/2000/svg" width="400" height="117.931" viewBox="0 0 400 117.931"><path d="M81.545 66.774c-24.79 18.823-49.182 32.49-77.65 32.376A3.892 3.892 0 0 0 0 103.04a3.888 3.888 0 0 0 3.874 3.89c33.123-.115 59.455-16.152 83.997-35.147l19.856-16.002c28.686-23.835 58.362-48.24 92.235-48 33.517-.24 62.844 23.504 91.348 47.19.328.27 1.73.19 2.103-.12a791.931 791.931 0 0 1 3.906-3.18c.86-.706.77-1.416.1-1.75l-3.803-3.11C265.75 23.9 236.933.195 200.033 0c-36.96.203-65.757 23.894-93.62 46.794l-24.868 19.98zM400 103.034a3.88 3.88 0 0 0-3.876-3.882c-27.38.108-50.98-12.513-74.757-30.2-2.435-1.813-3.25-1.912-4.946-.578-.595.47-1.19.945-1.784 1.42-1.68 1.326-1.642 2.662.386 4.21 23.656 17.97 49.238 32.817 81.087 32.926 2.15 0 3.893-1.74 3.893-3.896z"/></svg>