<svg xmlns="http://www.w3.org/2000/svg" viewBox="0 0 500 500"><path fill="#038798" d="M0 0h500v500H0z"/><path fill="#DA9C44" d="M445 500V379l-195-95-195 95v121z"/><path fill="#F3F3F3" d="M95 229h315c5.5 0 10 4.5 10 10v230c0 5.5-4.5 10-10 10H95c-5.5 0-10-4.5-10-10V239c0-5.5 4.5-10 10-10z"/><path fill="#038798" d="M190 254h35l20-25h-35l-20 25zm150-25l-20 25h35l20-25h-35zM85 239v15h15l20-25H95c-5.5 0-10 4.5-10 10z"/><path fill="#EF4E22" d="M255 254h35l20-25h-35l-20 25zm-130 0h35l20-25h-35l-20 25zm285-25h-5l-20 25h35v-15c0-5.5-4.5-10-10-10z"/><path fill="#DFE1E2" d="M367.5 329h-85c-4 0-7.5 3.5-7.5 7.5s3.5 7.5 7.5 7.5h85c4 0 7.5-3.5 7.5-7.5s-3.5-7.5-7.5-7.5zm-15 30h-70c-4 0-7.5 3.5-7.5 7.5s3.5 7.5 7.5 7.5h70c4 0 7.5-3.5 7.5-7.5s-3.5-7.5-7.5-7.5zM195 339l3.5 18-28.5-42.5-40 60c0 5.5 25.5 10 57.5 10s57.5-4.5 57.5-10l-35-50c0-.5-15 14.5-15 14.5zm5-25c5.5 0 10-4.5 10-10s-4.5-10-10-10-10 4.5-10 10 4.5 10 10 10zm82.5 0h85c4 0 7.5-3.5 7.5-7.5s-3.5-7.5-7.5-7.5h-85c-4 0-7.5 3.5-7.5 7.5s3.5 7.5 7.5 7.5z"/><path fill="#F6C37A" d="M445 500V379L197.2 500z"/><path fill="#F4B459" d="M445 500V379l-195 95-195-95v121z"/></svg>