<svg xmlns="http://www.w3.org/2000/svg" viewBox="0 0 500 500"><path fill="#EF4E22" d="M0 0h500v500H0z"/><path fill="#D13E22" d="M250 299c-111 0-201 90-201 201h402c0-111-90-201-201-201zM129.7 486.6H76.3c1.4-18.5 5.7-36.5 12.9-53.6h47.1c-3.6 16.9-5.9 34.9-6.6 53.6zm-26.5-80.4c6.8-10.6 14.7-20.4 23.7-29.4 14.1-14.1 30.2-25.5 48-34-13 17.2-23.7 38.8-31.5 63.4h-40.2zm133.4 80.4h-80.1c.8-18.5 3.2-36.4 7.2-53.6h72.9v53.6zm0-80.4h-65c4.5-12.6 9.9-24.2 16.1-34.5 9-15 19.7-27.1 30.8-35 5.9-4.2 12-7.2 18.1-9v78.5zm26.8-78.4c6.1 1.8 12.2 4.8 18.1 9 11.1 7.9 21.8 19.9 30.8 35 6.2 10.4 11.6 21.9 16.1 34.5h-65v-78.5zm0 158.8V433h72.9c4 17.2 6.4 35.1 7.2 53.6h-80.1zm61.7-143.8c17.8 8.5 33.9 19.9 48 34 9 9 16.9 18.8 23.7 29.4h-40.2c-7.7-24.6-18.5-46.2-31.5-63.4zm38.6 90.2h47.1c7.1 17.1 11.5 35.1 12.9 53.6h-53.4c-.7-18.7-3-36.7-6.6-53.6z"/><path fill="#fff" d="M250 130.6c-57 0-103 49-103 103 0 76 101 182 103 183s103-107 103-183c0-57-46-103-103-103zm0 165.5c-34 0-61-27.5-61-61 0-34 27.5-61 61-61 34 0 61 27.5 61 61s-27 61-61 61z"/><circle fill="#fff" cx="250" cy="234.3" r="36"/></svg>