<svg xmlns="http://www.w3.org/2000/svg" viewBox="0 0 500 500"><path fill="#2EBAA5" d="M0 0h500v500H0z"/><path fill="#038798" d="M55.7 135.2h124.1c9.1 0 16.5 7.4 16.5 16.5v91c0 9.1-7.4 16.5-16.5 16.5H122c-2.3 0-10.3 1.1-12.5 3.3-6.2 5-5.8 6.3-14.5 13.3.2-.2-10.3 9.5-10.3-.1v-16.5h-29c-9.1 0-16.5-7.4-16.5-16.5v-91c-.1-9.1 7.3-16.5 16.5-16.5zm384.8 41.4H316.3c-9.1 0-16.5 7.4-16.5 16.5v91c0 9.1 7.4 16.5 16.5 16.5h57.9c2.3 0 10.3 1.1 12.5 3.3 6.2 5 5.8 6.3 14.5 13.3-.2-.2 10.3 9.5 10.3-.1v-16.5h28.9c9.1 0 16.5-7.4 16.5-16.5v-91c.1-9.1-7.3-16.5-16.4-16.5z"/><path fill="#fff" d="M159.1 213.8h182c9.1 0 16.5 7.4 16.5 16.5V371c0 9.1-7.4 16.5-16.5 16.5H246c-2.3 0-10.3 1.1-12.5 3.3l-26.9 21.5c.2-.2-10.3 9.5-10.3-.1v-24.7h-37.2c-9.1 0-16.5-7.4-16.5-16.5V230.4c0-9.2 7.4-16.6 16.5-16.6z"/></svg>