<svg xmlns="http://www.w3.org/2000/svg" viewBox="0 0 3500 3500"><path fill="#008DA6" d="M1952.1 271.6c50.7 50 132.4 49.5 182.4-1.3 50-50.7 49.5-132.4-1.3-182.4-50.7-50-132.4-49.5-182.4 1.2-49.9 50.8-49.4 132.4 1.3 182.5zm17.5-13.5l17.1-15.3 33.2-29.7c6.4 4.4 13.7 6.7 21.1 7l8.8 43.7 4.5 22.5c-30.1 3.2-61.1-6.2-84.7-28.2zM2119 255c-13.2 13.4-29.1 22.6-45.9 27.5l-4.5-22.4-8.7-43.7c4.2-2 8.2-4.7 11.6-8.2 2.6-2.6 4.7-5.4 6.4-8.5l42.9 12.1 22 6.2c-5.1 13.5-13 26.1-23.8 37zm29-55.5l-22-6.2-42.9-12.1c.2-7-1.3-14.1-4.7-20.4l33.2-29.7 17.1-15.3c18.2 24.4 24.7 54.9 19.3 83.7zm-32.2-98.1l-17.1 15.3-33.2 29.7c-6.4-4.4-13.7-6.7-21.1-7l-8.8-43.7-4.5-22.4c30-3.3 61.1 6 84.7 28.1zm-149.4 3.1c13.2-13.4 29.1-22.6 45.9-27.5l4.5 22.5 8.8 43.7c-4.2 2-8.2 4.7-11.6 8.2-2.6 2.6-4.7 5.4-6.4 8.5l-42.9-12.1-22-6.2c5-13.6 12.9-26.2 23.7-37.1zm-7 61.7l42.9 12.1c-.2 7 1.3 14.1 4.7 20.4l-33.2 29.7-17.1 15.3c-18.3-24.5-24.8-55-19.4-83.8l22.1 6.3z"/><path opacity=".7" fill="#63B1C1" d="M274.2 2343.2c116.8 115.2 304.8 113.9 420-2.9 115.2-116.8 113.9-304.8-2.9-420-116.8-115.2-304.8-113.9-420 2.9-115.2 116.8-113.9 304.8 2.9 420zm40.1-31l39.3-35.2 76.5-68.5c14.7 10.1 31.6 15.5 48.6 16.2l20.1 100.7 10.3 51.7c-68.9 7.4-140.5-14.2-194.8-64.9zm344.1-7.2c-30.4 30.9-67 52-105.8 63.4l-10.4-51.7-20.1-100.7c9.7-4.6 18.8-10.9 26.8-19 5.9-6 10.8-12.5 14.7-19.5l98.8 27.9 50.7 14.3c-11.6 31.1-29.9 60.2-54.7 85.3zm66.9-127.8l-50.7-14.3-98.8-27.9c.6-16.2-3.1-32.4-10.9-47.1l76.5-68.5 39.3-35.1c42 56.3 57 126.6 44.6 192.9zm-74.2-225.9l-39.3 35.1-76.5 68.5a92.497 92.497 0 0 0-48.6-16.2L466.5 1938l-10.3-51.7c69-7.3 140.5 14.2 194.9 65zm-344.1 7.1c30.4-30.8 66.9-52 105.8-63.4l10.3 51.7 20.2 100.7c-9.7 4.6-18.8 10.9-26.8 19-5.9 6-10.8 12.5-14.7 19.5l-98.9-27.9-50.7-14.3c11.7-31.1 30-60.1 54.8-85.3zm-16.2 142.2l98.9 27.9c-.6 16.2 3.1 32.4 10.9 47L324 2244l-39.3 35.2c-42.1-56.3-57-126.6-44.6-192.9l50.7 14.3z"/><path d="M1105.1 2642.9v-190.3c0-9.8-8-17.8-17.8-17.8H756.6c-9.8 0-17.8 8-17.8 17.8v190.3c0 9.8 8 17.8 17.8 17.8h330.8c9.7 0 17.7-8 17.7-17.8zm-21.4-2.9H760.2v-184.5h323.6V2640zm-384.4 142.9c0 5.5 4.4 9.9 9.9 9.9h425.5c5.5 0 9.9-4.4 9.9-9.9 0-2-2-6.7-2.3-7.4-.4-1-41.3-89.9-41.3-89.9-1.8-5.6-5.7-9.6-12.7-9.6H755.6c-6.9 0-10.8 4-12.7 9.6 0 0-40.9 89-41.3 89.9-.3.7-2.3 5.4-2.3 7.4zm173.8-3.4l8.4-35.9h79.4l9.9 35.9h-97.7zm-119.2-45.1l13.6-42H1074l16 42H753.9z" fill="#B9CEC6"/><path fill="#B2D2CD" d="M1418.8 293.4c3.6-19.8 2.6-39.9-2.3-58.8 6.9-3 13.7-6.1 20.4-9.4-3.2-11-7.5-21.6-12.9-31.7-7.1 2.3-14.2 4.8-21.2 7.4-9.7-16.9-23-31.9-39.6-43.6 3.3-6.7 6.5-13.4 9.6-20.3-9.5-6.4-19.6-11.7-30.2-15.9-4 6.4-7.8 12.8-11.5 19.3-19.1-7-39-9.6-58.3-8-1.7-7.3-3.6-14.5-5.7-21.7-11.4 1.2-22.6 3.6-33.4 7.2 1 7.4 2.3 14.8 3.7 22.2-18.5 6.7-35.5 17.3-49.8 31.4-6-4.5-12.1-8.8-18.3-13-7.9 8.2-15 17.3-20.9 27.1 5.6 5 11.3 9.9 17.1 14.6-1.3 2.3-2.6 4.6-3.8 7-8 15.8-12.6 32.4-14.2 49-7.5.4-14.9 1-22.4 1.9-.8 11.4-.3 22.9 1.3 34.2 7.5.3 15 .3 22.5.2 3.4 19.5 11 38.1 22.3 54.5-5.4 5.1-10.8 10.4-16 15.8 6.7 9.2 14.5 17.8 23 25.4 5.9-4.6 11.7-9.4 17.4-14.3 8 6.7 16.8 12.6 26.6 17.5 8.3 4.2 16.9 7.5 25.5 9.9-.9 7.4-1.6 14.9-2.1 22.3 11.1 2.8 22.5 4.3 33.9 4.6 1.6-7.3 2.9-14.7 4.1-22.1 19.9 0 39.6-4.3 57.5-12.5 4.1 6.2 8.4 12.4 12.8 18.5 10.3-5 20-11.1 29-18.2-3.5-6.6-7.2-13.2-11-19.6 13.9-11.6 25.8-26.2 34.5-43.4l1.5-3.1c7.2 2.1 14.4 4.1 21.7 5.9 4.6-10.4 8.2-21.4 10.5-32.6-7.2-2.6-14.2-5.2-21.3-7.7zm-103-115.1l-36.5 72.2-72.2-36.5c24-35 68.7-49.7 108.7-35.7zm-84.5 167.1c-35-24-49.6-68.7-35.7-108.8l72.2 36.5-36.5 72.3zm22.6 11.4l36.5-72.2 72.2 36.5c-23.9 35-68.6 49.6-108.7 35.7zm120.2-58.3l-72.2-36.5 36.5-72.2c35 23.9 49.7 68.7 35.7 108.7z"/><path fill="#006B93" d="M196.2 1606l-83.2 17.7 17 26.1-64.6 42.2 32.8 50.4 64.7-42.2 17 26.2 49.8-69 49.7-69z"/><path fill="#B2D2CD" d="M2736.8 333.7l-77.5 31.3 3.6 8.7 77.5-31.2 10.4 25.9 20.1-25.8 20.1-25.7-64.6-9.1z"/><path fill="#00334D" d="M561.1 2475.1l-.7-1.2c-.3-.4-.5-.8-.7-1.2-1.9-3.1-3-4.8-3-4.8s-1 1.5-2.8 4.1c-9.8 14.8-42.5 65.8-43.1 90.5-.2 8.7 1.4 16.9 4.4 24.1 6.9 17.1 21.5 29.1 38.5 29.5 17.7.4 33.2-11.7 40.6-29.5 2.8-6.7 4.4-14.2 4.6-22.1.5-23.2-26.8-71.2-37.8-89.4zm246.1-84v110.2c.1 21.9-17.6 39.8-39.5 39.9l-56.2.3v-4.7c-.1-12-9.8-21.6-21.8-21.6l-19 .1v7.4l-31.9.1c-1.4-5.7-6.5-9.9-12.6-9.8-7.1 0-12.9 5.8-12.8 13 0 7.1 5.8 12.9 13 12.8 6.1 0 11.2-4.3 12.5-9.9l31.9-.1.2 37.3-31.9.1c-1.4-5.7-6.5-9.9-12.6-9.8-7.1 0-12.9 5.8-12.8 13 0 7.1 5.8 12.9 13 12.8 6.1 0 11.2-4.3 12.5-9.9l31.9-.1v7.4l19-.1c12-.1 21.6-9.8 21.6-21.8v-2.3l56.2-.3c14.3-.1 27.7-5.7 37.8-15.9 10.1-10.2 15.6-23.6 15.5-37.9v-271.8l-13.8.1v161.5z"/><path fill="#63B1C1" d="M183.5 1041.6c21.5 15 45.8 24.9 71 29.4-.2 9.7-.2 19.5 0 29.3 14.7 2.3 29.7 3 44.6 2 1.2-9.7 2.1-19.5 2.8-29.2 25.3-2.2 50.3-9.8 73.3-23 6.1 7.6 12.4 15.1 18.8 22.4 12.7-7.8 24.6-16.8 35.4-27.1-5.4-8.2-10.9-16.3-16.6-24.1 18.8-18.8 32.6-40.9 41.3-64.7 9.6 1.9 19.2 3.6 28.8 5.1 4.8-14.1 8-28.7 9.7-43.6-9.4-2.8-18.8-5.4-28.3-7.8 2.2-25.5-1-51.5-9.9-76.2 8.6-4.7 17-9.5 25.4-14.6-5.4-13.9-12.4-27.2-20.6-39.6-9 3.9-17.9 8-26.6 12.2-2-2.8-4-5.6-6.2-8.3-14.4-18.1-31.5-32.7-50.3-43.7 3.6-9.1 6.9-18.2 10-27.5-13.1-7.2-27-12.9-41.3-17.1-4.4 8.7-8.6 17.6-12.5 26.5-24.9-6.6-51.2-7.9-76.8-3.4-3.1-9.2-6.4-18.4-10-27.6-14.6 2.9-29 7.4-42.6 13.4 2.2 9.5 4.7 19 7.4 28.4-12.3 5.8-24.2 13-35.3 21.9-9.5 7.6-18.1 15.9-25.7 24.9-8.3-5.1-16.8-10-25.3-14.7-9.4 11.6-17.4 24.3-24.1 37.7 7.8 5.9 15.8 11.5 23.9 17-11 23.6-16.6 49.2-16.7 75-9.6 1.4-19.3 3.1-28.9 5 .3 14.9 2.2 29.8 5.7 44.3 9.8-.5 19.5-1.3 29.2-2.3 6.1 22.9 16.9 44.9 32.6 64.6.9 1.2 1.9 2.4 2.9 3.5-6.5 7.3-12.8 14.8-18.9 22.4 9.8 11.2 20.9 21.4 32.9 30.2 7.2-6.8 14.1-13.7 20.9-20.7z"/><path fill="#00334D" d="M2494.9 2468.3c-109.2.5-210.3-1.1-260.4-24.6-45.3-21.2-68.6-55-75.8-118.1-.9-8.3-1.7-31-2-40.3-.2-5.7-1.6-270.8-1.6-276.7l-.1-20.6c-6.4-2.2-11-8.2-11.1-15.4 0-9 7.2-16.4 16.3-16.4 9 0 16.4 7.2 16.4 16.3 0 7.1-4.4 13.1-10.7 15.4l.1 20.6c0 5.9 1.4 270.9 1.6 276.6.4 9.1 1.1 31.8 2.1 39.9 6.8 58.5 28.2 89.5 69.5 108.8 48.1 22.5 148.1 24 255.8 23.5 3-32.1 30-57.3 62.9-57.5l23.2-.1.1 25.8 34.6-.2c6 0 11 4.9 11 10.9s-4.9 11-10.9 11l-34.6.2.1 31.5 34.6-.2c6 0 11 4.9 11 10.9s-4.9 11-10.9 11l-34.6.2.1 25.8-23.2.1c-33.4.4-61-25.5-63.5-58.4z"/><circle fill="#B2D2CD" cx="1011.7" cy="283.3" r="30.6"/><path fill="#00334D" d="M282.3 1331.6c0-183.2 94.1-345.7 239.1-446.3 29.1-279.7 278.4-498.2 581.5-498.2 9.3 0 18.6.2 27.9.6 73.5-74.7 168.5-130.1 275.7-157.4 49.7-12.6 100.9-18.9 152.1-18.9 76.8 0 150.1 14 217.3 39.5 3.6-1.4 7.2-2.7 10.8-4l.5-.2c3.7-1.3 7.3-2.6 11-3.8 61-20.4 126.6-31.6 195-31.6 48.1 0 94.9 5.5 139.6 15.9 52.5-23 111-35.9 172.6-35.9 158.3 0 295.7 84.7 364.5 208.8 137 10.3 252.6 92.6 304.5 207 141.5 31.8 252.9 155.7 252.9 303.1 0 14.1-1 28-2.9 41.7 52.9 51.3 91.1 117.3 107.6 189.3 16.4 71.8 10.8 148.1-15.8 216.7-14.7 37.9-35.6 73.3-61.4 104.7-18.6 23.1-44.6 39.3-63.1 61.5-43.4 33.9-94.3 59.6-149.9 74.4-.8 186.8-161.1 338-358.6 338-1.9 0-3.9 0-5.8-.1-50.3 49.3-120.8 79.9-198.9 79.9-90.4 0-170.7-41.1-221.2-104.7-91 193.5-295.9 328.3-534.1 328.3-97.8 0-189.9-22.7-270.9-62.9-78.1 119.2-217.6 198.7-376.8 198.7-145 0-273.7-65.9-354.5-167.8-228.7-2.2-413.4-178.3-413.4-395.3 0-72.5 20.6-140.3 56.6-198.7-52.1-82.5-81.9-179.1-81.9-282.3z"/><path fill="#005977" d="M1836.9 2462.8c-12.5-29.6-30.4-56.1-53.2-78.9-22.8-22.8-49.3-40.7-78.9-53.2-30.6-13-63.1-19.5-96.6-19.5h-530.4c-114.1 0-206.9-92.8-206.9-206.9v-69.1h-41.4v69.1c0 33.5 6.6 66 19.5 96.6 12.5 29.6 30.4 56.1 53.2 78.9 22.8 22.8 49.3 40.7 78.9 53.2 30.6 13 63.1 19.5 96.6 19.5h530.4c114.1 0 206.9 92.8 206.9 206.9V3500h41.4v-940.6c0-33.5-6.6-66-19.5-96.6z"/><path fill="#0084A4" d="M1772.8 2260c-12.5-29.6-30.4-56.1-53.2-78.9-22.8-22.8-49.3-40.7-78.9-53.2-30.6-13-63.1-19.5-96.6-19.5h-425v41.4h425c114.1 0 206.9 92.8 206.9 206.9V3500h41.4V2356.7c-.1-33.5-6.7-66.1-19.6-96.7z"/><path fill="#00557B" d="M1415.1 1071.8v616.9c0 114.1 92.8 206.9 206.9 206.9l171.1-.2c33.5 0 66 6.6 96.6 19.5 29.6 12.5 56.1 30.4 78.9 53.2 22.8 22.8 40.7 49.3 53.2 78.9 13 30.6 19.5 63.1 19.5 96.6V3500H2000V2143.6c0-114.1-92.8-206.6-206.9-206.6H1622c-33.5 0-66-6.6-96.6-19.5-29.6-12.5-56.1-30.4-78.9-53.2-22.8-22.8-40.7-49.3-53.2-78.9-13-30.6-19.5-63.1-19.5-96.6v-616.9h41.3z"/><path fill="#F26522" d="M2344.3 1200.8v1131.1c0 114.1-92.8 206.9-206.9 206.9h-201.5c-33.5 0-66 6.6-96.6 19.5-29.6 12.5-56.1 30.4-78.9 53.2-22.8 22.8-40.7 49.3-53.2 78.9-13 30.6-19.5 63.1-19.5 96.6v713h41.4v-713c0-114.1 92.8-206.9 206.9-206.9h201.5c33.5 0 66-6.6 96.6-19.5 29.6-12.5 56.1-30.4 78.9-53.2 22.8-22.8 40.7-49.3 53.2-78.9 13-30.6 19.5-63.1 19.5-96.6V1200.8h-41.4z"/><path fill="#0087A7" d="M1961.8 2875.1c-12.5-29.6-30.4-56.1-53.2-78.9-22.8-22.8-49.3-40.7-78.9-53.2-30.6-13-63.1-19.5-96.6-19.5h-229.4c-114.1 0-206.9-92.8-206.9-206.9v-812.5h-41.4v812.5c0 33.5 6.6 66 19.5 96.6 12.5 29.6 30.4 56.1 53.2 78.9 22.8 22.8 49.3 40.7 78.9 53.2 30.6 13 63.1 19.5 96.6 19.5H1733c114.1 0 206.9 92.8 206.9 206.9V3500h41.4v-528.2c.1-33.5-6.5-66-19.5-96.7z"/><path fill="#439EB5" d="M2067.3 1425.8v414.4c0 114.1-92.8 206.9-206.9 206.9h-110.9c-33.5 0-66 6.6-96.6 19.5-29.6 12.5-56.1 30.4-78.9 53.2-22.8 22.8-40.7 49.3-53.2 78.9-13 30.6-19.5 63.1-19.5 96.6V3500h41.4V2295.3c0-114.1 92.8-206.9 206.9-206.9h112.3c33.5 0 64.6-6.6 95.3-19.5 29.6-12.5 56.1-30.4 78.9-53.2 22.8-22.8 40.7-49.3 53.2-78.9 13-30.6 19.5-63.1 19.5-96.6v-414.4h-41.5z"/><path fill="#0087A7" d="M2219.9 923.6V2156c0 114.1-92.8 206.9-206.9 206.9h-138.2c-33.5 0-66 6.6-96.6 19.5-29.6 12.5-56.1 30.4-78.9 53.2-22.8 22.8-40.7 49.3-53.2 78.9-13 30.6-19.5 63.1-19.5 96.6V3500h41.4v-888.9c0-114.1 92.8-206.9 206.9-206.9h138.2c33.5 0 66-6.6 96.6-19.5 29.6-12.5 56.1-30.4 78.9-53.2 22.8-22.8 40.7-49.3 53.2-78.9 12.9-30.6 19.5-63.1 19.5-96.6V923.6h-41.4z"/><path fill="#005977" d="M2480.1 1697.3v190.4c0 114.1-92.8 206.9-206.9 206.9l-147.5-.1c-33.5 0-66 6.6-96.6 19.5-29.6 12.5-56.1 30.4-78.9 53.2-22.8 22.8-40.7 49.3-53.2 78.9-13 30.6-19.5 63.1-19.5 96.6V3500h41.4V2342.7c0-114.1 92.8-206.9 206.9-206.9l32.1.1h115.4c33.5 0 66-6.6 96.6-19.5 29.6-12.5 56.1-30.4 78.9-53.2 22.8-22.8 40.7-49.3 53.2-78.9 12.9-30.6 19.5-63.1 19.5-96.6v-190.4h-41.4zM1564.7 3500V2184.9c0-114.1-92.8-206.9-206.9-206.9H1201v-41.4h156.8c33.5 0 66 6.6 96.6 19.5 29.6 12.5 56.1 30.4 78.9 53.2 22.8 22.8 40.7 49.3 53.2 78.9 12.9 30.6 19.5 63.1 19.5 96.6V3500h-41.3z"/><path d="M2256.4 2980.3s-53.9 78.7-53.9 108.4c0 29.8 24.1 53.9 53.9 53.9 29.8 0 53.9-24.1 53.9-53.9 0-29.7-53.9-108.4-53.9-108.4zm547.93-107.092l-2.32-5.965 17.897-6.956 2.32 5.965zm-73.73 21.892l2.3 6 17.8-7-2.3-5.9zm145.02-49.754l-2.32-5.965 17.8-6.92 2.322 5.97zm-214.1 83.286l-2.322-5.965 17.8-6.926 2.322 5.97zM2694.9 2909l2.3 6 17.8-7-2.3-5.9zm73.683-21.605l-2.32-5.965 17.895-6.956 2.32 5.965zM2623.5 2936.8l2.3 5.9 17.9-6.9-2.4-6zm-104.746 47.404l-2.32-5.965 17.897-6.96 2.32 5.96zM2962.6 2782.2c-17.6-5.8-36.5 3.6-42.4 21.2-2 6.1-2.2 12.4-.8 18.2l-10.4 4 2.3 5.9 10.1-3.9c3.7 8.2 10.7 15 19.9 18.1 17.6 5.8 36.5-3.6 42.4-21.2 5.9-17.5-3.6-36.4-21.1-42.3zm-122.56 77.098l-2.323-5.964 17.797-6.935 2.324 5.96zM2480.7 2992.3l2.3 6 17.9-7-2.3-5.9zm-33.255 19.783l-2.32-5.965 17.804-6.92 2.31 5.965zm-142.85 55.546l-2.318-5.97 17.803-6.92 2.318 5.96zm104.705-47.53l2.4 5.9 17.8-6.9-2.3-6zm145.208-49.74l-2.32-5.97 17.804-6.92 2.32 5.96zm-214.234 83.61l-2.317-5.97 17.803-6.92 2.317 5.96zm35.6-13.91l-2.32-5.97 17.798-6.93 2.32 5.96zm214.153-83.51l-2.318-5.97 17.89-6.96 2.32 5.96z" fill="#B9CEC6"/><path fill="#00557B" d="M2266.3 274.4c37.6-7.6 75-6.3 110 2.3 92.1 22.7 167.6 96.5 187.5 195.7 13.3 66.4-.7 131.9-34.2 184.9.6 2.4 1.2 4.9 1.7 7.3 12.5 62.1-18.8 125.5-76.7 171.3 10.5-26.7 13.8-54.9 8.2-82.9-1.4-7.2-3.4-14.2-5.9-20.9-20.4 13.7-43.2 24.6-67.7 32-7.6 2.3-15.3 4.2-23.3 5.8-136.8 27.5-270.1-61.2-297.5-198-27.6-136.8 61-270 197.9-297.5z"/><path fill="#F26522" d="M2634.8 2857.6l65.5-29.4-132.6-123.4-132.7-123.3 4 181.1 4 181 65.5-29.4 66.5 148.1 126.2-56.7z"/><path fill="#00729E" d="M2018.7 1757.9c1.2-13.4-.5-27.2-5.2-40.1 4.5-2.5 9-5 13.4-7.7-2.9-7.3-6.5-14.3-10.9-20.9-4.7 2-9.4 4.2-14 6.4-1-1.5-2.1-2.9-3.3-4.4-7.6-9.5-16.6-17.2-26.5-23 1.9-4.8 3.6-9.6 5.3-14.5-6.9-3.8-14.2-6.8-21.7-9-2.3 4.6-4.5 9.3-6.6 14-13.1-3.5-27-4.1-40.4-1.8-1.6-4.9-3.4-9.7-5.2-14.5-7.7 1.5-15.3 3.9-22.5 7.1 1.2 5 2.5 10 3.9 14.9-6.5 3-12.7 6.9-18.6 11.5-5 4-9.5 8.4-13.5 13.1-4.4-2.7-8.8-5.3-13.3-7.7-4.9 6.1-9.2 12.8-12.7 19.8 4.1 3.1 8.3 6.1 12.6 8.9-5.8 12.4-8.7 25.9-8.8 39.5-5.1.8-10.1 1.6-15.2 2.6.2 7.9 1.2 15.7 3 23.3 5.2-.3 10.3-.7 15.4-1.2 3.2 12 8.9 23.6 17.2 34l1.5 1.9c-3.4 3.8-6.7 7.8-9.9 11.8 5.2 5.9 11 11.3 17.3 15.9 3.8-3.5 7.4-7.1 11-10.8 11.3 7.9 24.1 13.1 37.4 15.5-.1 5.1-.1 10.3 0 15.4 7.8 1.2 15.6 1.6 23.5 1.1.6-5.1 1.1-10.3 1.5-15.4 13.3-1.2 26.5-5.2 38.6-12.1 3.2 4 6.5 8 9.9 11.8 6.7-4.1 13-8.9 18.7-14.3-2.8-4.3-5.7-8.6-8.8-12.7 9.9-9.9 17.2-21.6 21.8-34.1 5 1 10.1 1.9 15.2 2.7 2.5-7.4 4.2-15.1 5.1-23-5.3-1.4-10.2-2.8-15.2-4z"/><path fill="#005977" d="M1980.5 1470.2c5.8-1.9 11.6-4 17.3-6.2-1.8-9.5-4.8-18.8-8.8-27.7-6 1.4-11.9 3-17.8 4.8-5.1-10.5-11.9-20.1-20.4-28.5 3.6-5 7-10 10.4-15.2-7.1-6.6-15-12.4-23.4-17.2-4 4.7-7.8 9.5-11.6 14.4-10.7-5.7-21.9-9.3-33.3-11.1 0-6.1-.2-12.3-.5-18.4-9.6-1.2-19.4-1.3-29-.2-.5 6.1-.8 12.3-.9 18.4-11.6 1.6-23 5.2-33.4 10.6-3.6-4.9-7.4-9.8-11.2-14.6-8.5 4.7-16.5 10.3-23.6 16.9 3.2 5.2 6.6 10.4 10.1 15.4a102.9 102.9 0 0 0-19.4 25.6l-1.4 2.6c-5.8-1.9-11.7-3.6-17.7-5.2-4.1 8.8-7.2 18-9.2 27.5 5.7 2.4 11.4 4.5 17.2 6.6-2.1 11.7-2.1 23.6-.2 35.1-5.8 1.9-11.6 4-17.3 6.2 1.8 9.5 4.8 18.8 8.8 27.6 6-1.4 11.9-3 17.8-4.8 5.1 10.5 11.9 20.1 20.4 28.5-3.6 5-7 10-10.4 15.2 7.1 6.6 15 12.4 23.4 17.2 4-4.7 7.8-9.5 11.5-14.4 10.7 5.7 21.9 9.3 33.3 11.1 0 6.1.2 12.3.5 18.4 9.6 1.2 19.4 1.3 29 .2.5-6.1.8-12.3.9-18.4 11.6-1.6 23-5.2 33.4-10.6 3.6 4.9 7.4 9.8 11.2 14.6 8.5-4.7 16.5-10.3 23.6-16.9-3.2-5.2-6.6-10.4-10.1-15.4 7.6-7.3 14.2-15.9 19.4-25.6l1.4-2.6c5.8 1.9 11.7 3.6 17.7 5.2 4.1-8.8 7.2-18 9.2-27.5-5.7-2.4-11.4-4.5-17.2-6.6 2.2-11.7 2.2-23.6.3-35z"/><g fill="#00557B"><path d="M1935.2 1185.7c-45.3-.2-82.2 36.3-82.4 81.6-.2 45.3 36.3 82.2 81.6 82.4 45.3.2 82.2-36.3 82.4-81.6s-36.3-82.1-81.6-82.4zm-.6 142.5c-33.4-.2-60.3-27.3-60.1-60.7.2-33.4 27.3-60.3 60.7-60.1 33.4.2 60.3 27.3 60.1 60.7-.2 33.3-27.4 60.2-60.7 60.1z"/><circle cx="1934.8" cy="1267.8" r="30.6"/></g><path fill="#B9CEC6" d="M3302.5 459.6c-7.4-7.3-17.1-11.4-27.5-11.4h-107.9c-10.4 0-20.2 4-27.5 11.4-7.3 7.3-11.4 17.1-11.4 27.5V580c0 10.3 4 19.9 11.1 27.2-1.5 10.4-5.4 20.7-11.9 29.9-2 2.9-4.2 5.5-6.6 8 17.2-2.6 33.3-11.5 44.6-26.3H3275c10.4 0 20.1-4.1 27.4-11.5 7.3-7.3 11.3-17.1 11.3-27.4V487c.2-10.3-3.9-20.1-11.2-27.4zm-131.8 123.6c-9.7 0-17.5-7.8-17.5-17.5s7.8-17.5 17.5-17.5 17.5 7.8 17.5 17.5-7.8 17.5-17.5 17.5zm51.4 0c-9.7 0-17.5-7.8-17.5-17.5s7.8-17.5 17.5-17.5 17.5 7.8 17.5 17.5-7.8 17.5-17.5 17.5zm51.4 0c-9.7 0-17.5-7.8-17.5-17.5s7.8-17.5 17.5-17.5 17.5 7.8 17.5 17.5-7.8 17.5-17.5 17.5z"/><path opacity=".5" fill="#7FD0DD" d="M896.3 557.9c-32.8-52.2-95.8-73.9-152-56.8 5.8-26.2 1.7-54.6-13.7-79.2-31.1-49.5-96.4-64.4-146-33.3-9 5.6-16.8 12.4-23.4 20-3.9-10.1-8.9-19.9-14.9-29.5-51.3-81.7-159.2-106.3-240.9-55-54 33.9-83 92.4-81.7 151.8-25.6 1.3-51.2 8.9-74.5 23.5C76.9 545 55 640.6 100.5 713c31.6 50.3 87.3 76.1 142.7 72-16.1 32.4-15.5 72.1 5.2 104.9 31.5 50.1 97.7 65.2 147.8 33.7 17.6-11.1 30.9-26.4 39.3-43.9 62.2 55.1 155.5 65.2 229.4 18.8 50.9-32 81.6-84 88.4-139.4 33.4 7.6 69.7 2.5 100.9-17.1 62.5-39.1 81.3-121.6 42.1-184.1z"/><path fill="#00557B" d="M389.8 1317.8c33.8 53.8 98.7 76.2 156.7 58.5-6 27-1.7 56.3 14.1 81.6 32 51 99.4 66.4 150.4 34.3 9.2-5.8 17.3-12.8 24.1-20.6 4.1 10.4 9.1 20.6 15.3 30.3 52.9 84.2 164 109.5 248.2 56.6 55.6-34.9 85.5-95.2 84.2-156.4 26.4-1.3 52.8-9.2 76.7-24.3 74.6-46.9 97.1-145.3 50.2-219.9-32.5-51.8-90-78.4-147-74.2 16.6-33.3 16-74.3-5.3-108.1-32.4-51.7-100.6-67.2-152.3-34.8-18.1 11.4-31.8 27.2-40.5 45.2-64-56.8-160.2-67.2-236.3-19.4-52.5 33-84.1 86.5-91.1 143.6-34.4-7.9-71.8-2.6-104 17.6-64.4 40.6-83.8 125.6-43.4 190z"/><path opacity=".7" fill="#007A9B" d="M1641.7 1222.3c12.9-3 25.7-6.2 38.5-9.8-1.9-20.1-5.9-39.9-12-59.2-13.1 1.7-26.2 3.8-39.2 6.1-11.7-34-30.4-64-54.3-88.9 8-10.5 15.7-21.3 23.2-32.3-14.4-14.2-30.2-26.9-47.3-37.7-9 9.8-17.7 19.8-26.1 29.9-29.7-17.9-63.3-29.4-98.7-33.2-.7-13.2-1.7-26.4-3-39.6-20.2-1.6-40.5-1.1-60.5 1.6-.6 13.3-.8 26.5-.7 39.7l-6.1 1c-33.6 6.2-64.2 19-90.9 36.9-9-9.7-18.2-19.2-27.7-28.5-16.5 11.7-31.8 25.1-45.3 40.1 8.1 10.5 16.4 20.8 25 30.9-22.9 26.4-40 57.6-49.9 91.4-13.1-1.7-26.3-3-39.5-4-5.1 19.5-8.2 39.7-9 59.9 13 2.9 26 5.4 39 7.6-.3 15.9 1 32 4.1 48.3 3.5 18.9 9.1 36.9 16.6 53.8-11.1 7.2-22.1 14.6-32.9 22.4 8.6 18.3 19.3 35.7 31.6 51.7 11.8-6.1 23.3-12.5 34.7-19.2 22.2 27.3 50 49.5 81.4 64.9-3.9 12.6-7.5 25.4-10.8 38.2 18.4 8.5 37.6 14.9 57.4 19.3 5.1-12.2 9.8-24.6 14.3-37 29 5.6 59.5 6 90.3.3 4.6-.9 9.2-1.9 13.8-3 5.1 12.2 10.5 24.3 16.3 36.2 19.5-5.3 38.4-12.7 56.4-22.1-4-12.6-8.3-25.2-12.9-37.6 31-17.2 57.6-40.9 78-68.9 11.8 6.1 23.7 11.8 35.8 17.3 11.5-16.6 21.2-34.4 28.9-53.1-11.2-7.1-22.5-14-34-20.5 12.3-32 17.9-67 15.5-102.9z"/><path fill="#414042" d="M2645.6 1877.4c-126.6-38.9-197.8-173-158.9-299.6 38.9-126.6 173-197.8 299.6-158.9 126.6 38.9 197.8 173 158.9 299.6-38.8 126.6-173 197.7-299.6 158.9z"/><radialGradient id="a" cx="6694.15" cy="1718.068" r="465.142" gradientTransform="rotate(10.71 7678.051 -19395.638)" gradientUnits="userSpaceOnUse"><stop offset=".333" stop-color="#4F4F51"/><stop offset=".621" stop-color="#4C4C4E"/><stop offset=".854" stop-color="#434244"/><stop offset="1" stop-color="#393839"/></radialGradient><path fill="url(#a)" d="M2780.2 1438.7c-115.6-35.5-238.1 29.5-273.6 145.1-35.5 115.6 29.5 238.1 145.1 273.6 115.6 35.5 238.1-29.5 273.6-145.1 35.5-115.6-29.4-238.1-145.1-273.6z"/><path fill="#333132" d="M2733.1 1592.4c-30.8-9.5-63.4 7.8-72.9 38.6-9.5 30.8 7.9 63.4 38.6 72.9 30.8 9.5 63.4-7.8 72.9-38.6 9.5-30.9-7.8-63.5-38.6-72.9z"/><path fill="#414042" d="M2728.3 1607.8c-22.2-6.8-45.8 5.7-52.7 27.9-6.8 22.2 5.7 45.8 27.9 52.7 22.2 6.8 45.8-5.7 52.6-27.9 7-22.3-5.5-45.8-27.8-52.7z"/><path fill="#231F20" d="M2725.9 1615.6c-18-5.5-37 4.6-42.5 22.5s4.6 37 22.5 42.5 37-4.6 42.5-22.5c5.6-18-4.5-37-22.5-42.5z"/><path d="M2867.4 1547.1l-30.3 24.4c20.3 32.2 27.8 72.2 17.9 111.5l36.4 13.7c14.6-52.8 4.4-107-24-149.6zm-109.4-36c22.9 7 42.7 19.2 58.6 35l30.3-24.4c-20.7-21.5-47-38.2-77.5-47.5-24.9-7.6-50.2-9.7-74.4-6.8l7.9 38.1c18-1.8 36.7-.1 55.1 5.6zm3 273.1l7.9 38.1c47.5-14.5 88.4-48.3 110.9-95l-36.4-13.7c-17.3 34.1-47.4 59-82.4 70.6zm-184.1-171l-36.4-13.7c-14.7 52.8-4.4 107 24 149.6l30.3-24.4c-20.3-32.1-27.8-72.1-17.9-111.5zm97 172c-22.9-7-42.7-19.2-58.6-35l-30.3 24.4c20.7 21.5 47 38.2 77.5 47.5 24.9 7.6 50.1 9.7 74.4 6.8l-7.9-38.1c-18 1.8-36.7 0-55.1-5.6zm-3-273.2l-7.9-38.1c-47.5 14.5-88.4 48.3-110.9 95l36.4 13.7c17.4-34.1 47.4-59 82.4-70.6z" fill="#3B3B3C"/><path d="M2837.1 1571.5l-59 47.5c5.3 11.4 7.6 24.3 6 37.3l70.9 26.7c9.9-39.3 2.4-79.4-17.9-111.5zm-101 11c8 2.5 15.3 6.3 21.5 11.1l59-47.5c-15.9-15.7-35.7-27.9-58.6-35-18.4-5.7-37.1-7.4-55.2-5.7l15.5 74.2c5.9.1 11.9 1.1 17.8 2.9zm9.5 127.5l15.5 74.2c35-11.6 65-36.5 82.5-70.6l-70.9-26.7c-7 10.1-16.4 18-27.1 23.1zm-97.8-70.1l-70.9-26.7c-9.9 39.3-2.4 79.4 17.9 111.5l59-47.5c-5.3-11.4-7.6-24.3-6-37.3zm48 73.8c-8-2.5-15.2-6.3-21.5-11.1l-59 47.5c15.9 15.7 35.7 27.9 58.6 35 18.4 5.7 37.1 7.4 55.2 5.7l-15.5-74.2c-5.9-.1-11.9-1-17.8-2.9zm-9.4-127.5l-15.5-74.2c-35 11.6-65 36.5-82.5 70.6l70.9 26.7c6.9-10.1 16.3-18 27.1-23.1z"/><path fill="#004161" d="M1540.9 0l3.3 30.7-80 8.6-4.1-39.3H1450l32.7 304.5 10-1.1-5.1-47.2 80-8.6 5.1 47.2 10-1.1L1551.1 0h-10.2zm-75.5 49.3l80-8.6 6.3 59-80 8.6-6.3-59zm101.1 188.3l-80 8.6-6.3-59 80-8.6 6.3 59zm-7.4-69l-80 8.6-6.3-59 80-8.6 6.3 59zM722.2 973.3c-73.2 0-132.5 59.3-132.5 132.5s59.3 132.5 132.5 132.5 132.5-59.3 132.5-132.5-59.3-132.5-132.5-132.5zm48.5 71.3c4.7-11.9 7.9-24.7 9.4-38 .4-3.8 4.1-6.5 8.4-5.4 2.2.5 10.3 5.4 17.3 11.8 7.1 6.3 12.8 13.8 13.5 15.9 1.5 4.2-.7 8.1-4.5 8.9-13.1 2.9-25.4 7.3-36.8 13.3-2.5 1.3-5 1.2-6.4-.2-1.5-1.2-1.9-3.7-.9-6.3zm-56.3-62.4c2-.9 11.4-1.7 20.8-.7 9.4.9 18.5 3.6 20.3 5 3.7 2.5 4.2 7 1.6 9.8-8.9 10.1-16.3 20.9-22 32.4-1.3 2.5-3.3 3.9-5.3 3.6-1.9-.1-3.7-1.9-4.4-4.6-3.2-12.4-8.1-24.6-14.8-36.3-1.8-3.3-.3-7.5 3.8-9.2zm-71.2 28.2c1.2-1.9 8.3-8.1 16.5-12.8 8.1-4.8 17.1-7.9 19.3-8 4.5-.1 7.5 3.2 7.1 7-1.4 13.3-.9 26.5 1.3 39.1.5 2.8-.4 5.1-2.1 6-1.7.9-4.1.7-6.3-1.2-9.8-8.1-21.1-15.1-33.3-20.6-3.5-1.4-4.8-5.6-2.5-9.5zm-35.1 44.6c3.8-8.7 9.2-16.5 11-17.8 3.6-2.7 8-1.8 9.9 1.5 6.7 11.6 14.9 22 24 30.9 2 2 2.6 4.4 1.8 6.1-.8 1.8-2.9 2.9-5.8 2.7-12.7-.8-25.9.1-39 2.9-3.8.8-7.3-1.8-7.8-6.3-.2-2.1 1.9-11.4 5.9-20zm8.9 97c-2.5 2.9-7.1 2.9-10-.6-1.5-1.6-5.1-10.4-7.1-19.7-2.1-9.2-2.2-18.7-1.5-20.8 1.3-4.3 5.3-6.1 8.9-4.6 12.3 5.4 24.9 9 37.6 10.9 2.8.4 4.7 2 5.1 3.9.5 1.9-.7 4.1-3.1 5.6-10.8 6.9-20.8 15.4-29.9 25.3zm56.7 15c-4.7 11.9-7.9 24.7-9.4 38-.4 3.8-4.1 6.5-8.4 5.4-2.2-.5-10.3-5.4-17.3-11.8-7.1-6.3-12.8-13.8-13.5-15.9-1.5-4.2.7-8.1 4.5-8.9 13.1-2.9 25.4-7.3 36.8-13.3 2.5-1.3 5-1.2 6.4.2 1.5 1.2 1.9 3.7.9 6.3zm56.3 62.4c-2 .9-11.4 1.7-20.8.7-9.4-.9-18.5-3.6-20.3-5-3.7-2.5-4.2-7-1.6-9.9 8.9-10.1 16.3-20.9 22-32.4 1.3-2.5 3.3-3.9 5.3-3.6 1.9.1 3.7 1.9 4.4 4.6 3.2 12.4 8.1 24.6 14.8 36.3 1.8 3.4.3 7.6-3.8 9.3zm18.8-84.8c-2.3 1.6-4.8 3-7.3 4.1 1.7 3.6-.2 8.1-4.7 9.3-4.4 1.2-8.5-1.6-8.8-5.6-1.8.2-3.7.3-5.6.3-.9 0-1.9 0-2.8-.1-.1 3.9-4 7.1-8.5 6.1s-6.8-5.3-5.2-9c-2.6-1-5.2-2.2-7.6-3.7-1.9 3.4-6.8 4.4-10.3 1.5-3.5-3-3.5-7.9-.4-10.4-1.9-2.1-3.5-4.4-5-6.8-3.3 2.1-8.1.8-9.8-3.5-1.7-4.3.6-8.6 4.5-9.4-.7-2.7-1.1-5.5-1.3-8.3-4 .3-7.5-3.1-7.1-7.7.4-4.6 4.5-7.3 8.3-6.3.7-2.8 1.6-5.4 2.7-8-3.7-1.5-5.2-6.2-2.7-10.1 2.5-3.9 7.4-4.4 10.3-1.7 1.9-2.1 3.9-4 6.1-5.8-2.5-3.1-1.7-7.9 2.3-10.2 4-2.3 8.6-.5 9.9 3.3 2.6-1 5.3-1.8 8.1-2.3-.8-3.9 2.2-7.8 6.8-7.9 4.6-.1 7.8 3.6 7.2 7.5 2.8.3 5.6.9 8.2 1.8 1.1-3.8 5.6-5.9 9.7-3.9 4.1 2 5.3 6.8 2.9 10 2.3 1.6 4.5 3.4 6.5 5.4 2.7-2.9 7.7-2.7 10.4 1.1 2.7 3.7 1.5 8.5-2.1 10.2 1.3 2.5 2.4 5.1 3.2 7.8 3.7-1.3 8 1.2 8.7 5.8.7 4.6-2.7 8.2-6.6 8.1 0 2.9-.3 5.7-.8 8.4 3.9.6 6.5 4.8 5 9.1-1.5 4.4-6.1 6-9.6 4.1-1.3 2.5-2.8 4.9-4.6 7.1 3.2 2.4 3.5 7.3.2 10.4-3.1 3.3-8 2.6-10.2-.7zm52.4 56.6c-1.2 1.9-8.3 8.1-16.5 12.8-8.1 4.8-17.1 7.9-19.3 8-4.5.1-7.5-3.2-7.1-7 1.4-13.3.9-26.5-1.3-39.1-.5-2.8.4-5.1 2.1-6 1.7-.9 4.1-.7 6.3 1.2 9.8 8.1 21.1 15.1 33.3 20.6 3.5 1.4 4.8 5.6 2.5 9.5zm35.1-44.6c-3.8 8.7-9.2 16.4-11 17.8-3.6 2.7-8 1.8-9.9-1.5-6.7-11.6-14.9-22-24-30.9-1.5-1.4-2.2-3.1-2.2-4.5 1-1.2 1.9-2.4 2.7-3.8.9-.4 2.1-.6 3.4-.5 12.7.8 25.9-.1 39-2.9 3.8-.8 7.3 1.8 7.8 6.3.3 2.1-1.8 11.4-5.8 20zm.8-51.3c-12.3-5.4-24.9-9-37.6-10.9-2.8-.4-4.7-2-5.1-3.9-.5-1.9.7-4.1 3.1-5.6 10.9-6.9 20.9-15.3 29.9-25.3 2.5-2.9 7.1-2.9 10 .6 1.5 1.6 5.1 10.4 7.1 19.7 2.1 9.2 2.2 18.7 1.5 20.8-1.4 4.3-5.4 6.1-8.9 4.6z"/><path fill="#217D9B" d="M2051.6 954.5c4.3-30.8 2-62.6-7.2-93.1 10.7-5.1 21.3-10.5 31.7-16.2-5.7-17.2-13.3-33.8-22.5-49.4-11.2 4.1-22.2 8.5-33.1 13.2-2.2-3.5-4.6-7-7-10.5-16.3-22.9-36.2-41.7-58.4-56.1 4.9-10.8 9.5-21.7 13.9-32.8-15.4-9.5-31.9-17.4-49-23.4-5.9 10.3-11.5 20.8-16.9 31.4-29.9-9.6-61.6-12.8-92.9-9-3.2-11.4-6.6-22.8-10.4-34.1-17.9 2.6-35.6 7.2-52.6 13.6 2.1 11.7 4.5 23.3 7.2 34.9-15.3 6.2-30.2 14.3-44.2 24.3-12.1 8.6-23 18.2-32.7 28.5-9.8-6.7-19.7-13.2-29.8-19.4-12.1 13.5-22.7 28.4-31.6 44.2 9.1 7.6 18.5 15 28 22.1-14.8 27.9-23.2 58.7-25 90-11.8 1.1-23.6 2.6-35.3 4.3-.6 18.1.9 36.3 4.2 54.1 11.9 0 23.8-.4 35.6-1 6 28.1 17.7 55.5 35.5 80.5l3.3 4.5c-8.3 8.5-16.4 17.1-24.3 26 11.2 14.2 24 27.3 38 38.8 9.1-7.7 18-15.6 26.6-23.7 25.1 19.6 54 33.1 84.3 40.2-.9 11.8-1.5 23.7-1.9 35.5 17.7 3.7 35.9 5.5 54 5.3 2-11.7 3.8-23.5 5.2-35.2 30.8-1.1 61.7-8.8 90.4-23.3 6.9 9.6 14.1 19.1 21.4 28.4 16-8.6 30.9-18.9 44.7-30.7-6-10.3-12.2-20.4-18.6-30.3 24-21.6 42.2-47.7 54.2-76 11.5 2.9 23 5.6 34.7 8 6.7-16.8 11.6-34.4 14.5-52.3-11.4-4.1-22.6-7.8-34-11.3zM1936.3 1093c-92.5 54.2-211.4 23.1-265.6-69.4-54.2-92.5-23.1-211.4 69.4-265.6 92.5-54.2 211.4-23.1 265.6 69.4 54.2 92.5 23.1 211.5-69.4 265.6z"/><path d="M3139.5 2254.2l6 4.4c4.4-6 8.7-12.3 12.7-18.7l-6.3-4c-3.9 6.3-8 12.4-12.4 18.3zm54.6-119.6l7.2 1.7c1.7-7.3 3.2-14.7 4.5-22.1l-7.3-1.2c-1.3 7.2-2.7 14.5-4.4 21.6zm-83 153.3l5.3 5.2c5.2-5.4 10.3-11 15.2-16.7l-5.7-4.8c-4.7 5.6-9.7 11.1-14.8 16.3zm90.4-196.7l7.4.8c.8-7.4 1.4-15 1.7-22.4l-7.4-.3c-.4 7.2-.9 14.6-1.7 21.9zm-38.4 125.7l6.6 3.5c3.5-6.6 6.9-13.4 10-20.2l-6.8-3.1c-3.1 6.8-6.4 13.4-9.8 19.8zm18.2-40.1l7 2.6c2.6-7 5.1-14.2 7.2-21.3l-7.1-2.2c-2.2 7-4.5 14.1-7.1 20.9zm22.3-129.7l7.4-.1c-.1-7.5-.4-15-.9-22.5l-7.4.5c.5 7.4.8 14.8.9 22.1zm-3.2-44.1l7.4-1c-1-7.4-2.1-14.9-3.5-22.2l-7.3 1.4c1.3 7.2 2.5 14.6 3.4 21.8zm-.9-45.2c-1.8-7.2-3.8-14.5-6-21.7l-7.1 2.2c2.2 7 4.1 14.2 5.9 21.3l7.2-1.8zm-104.3 345.4c-5.1 4.6-10.4 9-15.9 13.3-7.8-8.2-20.7-9.3-29.9-2.2-9.7 7.6-11.5 21.6-4 31.3 7.6 9.7 21.6 11.5 31.3 4 8.3-6.5 10.8-17.6 6.7-26.8 5.7-4.4 11.3-9.1 16.6-13.9l-4.8-5.7z" fill="#273D56"/><path fill="#006492" d="M2034.6 437.6c-9.2-1.1-18.4-2-27.6-2.6-1.7-17.8-6.5-35-13.8-51 7.7-5.1 15.2-10.5 22.6-16-6.5-13.1-14.5-25.4-23.9-36.6-8.1 4.5-16.1 9.2-23.9 14.2-11.6-13.1-25.4-24.4-41.1-33.1 3.2-8.6 6.2-17.4 8.9-26.3-13-6.8-26.7-12-40.9-15.5-3.9 8.4-7.5 16.9-11 25.5-17.8-3.9-35.6-4.7-52.7-2.7-2.5-8.9-5.2-17.7-8.2-26.5-14.5 2.1-28.7 6-42.2 11.5 1.8 9.1 3.8 18.1 6.1 27.1-16.2 7.1-31.2 16.9-44.2 28.9-7.2-5.7-14.6-11.3-22.2-16.6-9.7 9.5-18.4 20.1-25.9 31.6-.5.8-1.1 1.6-1.6 2.5.7.6 1.4 1.2 2 1.8 6.1 5.6 12.4 11.2 18.8 16.5-3.5 6-6.6 12.3-9.4 18.8-3.5 8.4-6.4 17.1-8.4 26.3l-.9 4.3c-9.2-.4-18.5-.5-27.7-.4-2.4 14.4-3.2 29.1-2.2 43.7 9.2 1.1 18.4 2 27.6 2.6 1.7 17.8 6.5 35 13.8 51-7.7 5.1-15.2 10.5-22.6 16 6.5 13.1 14.5 25.4 23.9 36.6 8.1-4.5 16.1-9.2 23.9-14.2 11.6 13.1 25.4 24.4 41.1 33.1-3.2 8.6-6.2 17.4-8.9 26.3 13 6.8 26.7 12 40.9 15.5 3.9-8.4 7.6-16.9 11-25.5 17.8 3.9 35.6 4.7 52.7 2.7 2.5 8.9 5.2 17.7 8.2 26.5 14.5-2.1 28.7-6 42.2-11.5-1.8-9.1-3.8-18.1-6.1-27.1 16.2-7.1 31.2-16.9 44.2-28.9 7.2 5.7 14.6 11.3 22.2 16.6 10.4-10.2 19.7-21.6 27.5-34.1l-6-5.4c-4.9-4.4-9.8-8.7-14.9-12.9 8-13.7 14.1-28.8 17.8-45l.9-4.3c9.2.4 18.5.5 27.7.4 2.6-14.5 3.3-29.2 2.3-43.8zm-202.3 90.2c-30-6.8-52.2-29.8-59.4-57.7-3.1-11.9-3.5-24.7-.5-37.5 9.7-42.9 52.4-69.7 95.2-60 42.9 9.7 69.7 52.4 60 95.2-5.7 25.2-22.9 44.9-44.7 54.8-15.4 7-33 9.2-50.6 5.2z"/><path d="M638.9 1359.5c11.9 3.6 24.9-3.1 30.7-22.5 5.2-17.4-.2-29.9-13-33.7-12.5-3.7-25.5 3.7-31 22.1-5.4 18.5 1.7 30.7 13.3 34.1zm-3.4-31.7c3.4-11.5 10.4-19.4 18.1-17.2 8.8 2.6 9.3 12.8 5.9 24.2-3.6 12.1-9.9 19.7-18.1 17.3-7.8-2.3-9.7-12.6-5.9-24.3zm73.6-9l-82.8 79.4 7.9 2.4 82.8-79.4zm-3.8 40.6c-12.5-3.7-25.5 3.7-31 22.1-5.4 18.6 1.6 30.8 13.3 34.2 11.9 3.6 24.9-3.1 30.7-22.5 5.2-17.5-.2-30-13-33.8zm3 31.5c-3.6 12.2-10 19.9-18.2 17.4-7.8-2.3-9.7-12.6-5.9-24.3 3.5-11.6 10.5-19.6 18.1-17.3 8.9 2.7 9.3 13 6 24.2z" fill="#00334D"/><path d="M2185.3 1849.4c0-3.1-1.1-5.7-3.2-7.9-.8-.8-1.7-1.5-2.7-2-1.6-.8-3.3-1.3-5.2-1.3-3.1 0-5.7 1.1-7.9 3.3-2.2 2.2-3.3 4.9-3.3 7.9 0 3.1 1.1 5.7 3.3 7.8.6.6 1.3 1.1 2 1.6 1.7 1.1 3.7 1.6 5.9 1.6 3.2 0 5.9-1.1 7.9-3.1 2.2-2.1 3.2-4.7 3.2-7.9zm0 32.8c0-3.1-1.1-5.7-3.2-7.9-.8-.8-1.7-1.5-2.7-2-1.6-.8-3.3-1.3-5.2-1.3-3.1 0-5.7 1.1-7.9 3.3-2.2 2.2-3.3 4.9-3.3 7.9 0 3.1 1.1 5.7 3.3 7.9.6.6 1.3 1.1 2 1.6 1.7 1.1 3.7 1.6 5.9 1.6 3.2 0 5.9-1.1 7.9-3.1 2.2-2.2 3.2-4.9 3.2-8zm0 35.7c0-3.1-1.1-5.7-3.2-7.9-.8-.8-1.7-1.5-2.7-2-1.6-.8-3.3-1.3-5.2-1.3-3.1 0-5.7 1.1-7.9 3.3-2.2 2.2-3.3 4.9-3.3 7.9 0 3.1 1.1 5.7 3.3 7.9.6.6 1.3 1.1 2 1.6 1.7 1.1 3.7 1.6 5.9 1.6 3.2 0 5.9-1.1 7.9-3.1 2.2-2.1 3.2-4.8 3.2-8zm-3.4-97.6v-47.7h14.1c1.4 0 2.7-.8 3.3-2.1.2-.5.4-1.1.4-1.6 0-.8-.3-1.6-.8-2.3l-22.1-27.7c-.7-.9-1.8-1.4-2.9-1.4-1.1 0-2.2.5-2.9 1.4l-22.1 27.7c-.5.7-.8 1.5-.8 2.3 0 .5.1 1.1.4 1.6.6 1.3 1.9 2.1 3.3 2.1h14.1v47.7c0 2 1.6 3.7 3.7 3.7h8.8c1.9 0 3.5-1.6 3.5-3.7z" fill="#004D6D"/><path d="M551.6 2784.7h6.6v32.6h-6.6zm0 65.1h6.6v32.6h-6.6zm0 65.1h6.6v32.6h-6.6zm0 65.1h6.6v32.6h-6.6zm0-325.6h6.6v32.6h-6.6zm0 65.2h6.6v32.5h-6.6zm31.6-153.8c0-15.6-12.7-28.3-28.3-28.3-15.6 0-28.3 12.7-28.3 28.3 0 14.5 11 26.5 25 28.1v28h6.6v-28c14.1-1.6 25-13.6 25-28.1zm-28.3 11.7c-6.4 0-11.7-5.2-11.7-11.7s5.2-11.7 11.7-11.7c6.4 0 11.7 5.2 11.7 11.7s-5.2 11.7-11.7 11.7z" fill="#439EB5"/><path fill="#4EA0B4" d="M272.5 753.8l-29.1 50.4h24.9v74.3h8.4v-74.3h24.8L287 779z"/><path d="M3324.4 961.9c2.7 0 5-.9 6.9-2.8.7-.7 1.3-1.5 1.8-2.3.7-1.4 1.1-2.9 1.1-4.5 0-2.7-1-5-2.9-6.9-1.9-1.9-4.2-2.9-6.9-2.9s-5 1-6.9 2.9c-.5.5-1 1.1-1.4 1.7-1 1.5-1.4 3.3-1.4 5.2 0 2.8.9 5.1 2.7 6.9s4.2 2.7 7 2.7zm-28.6 0c2.7 0 5-.9 6.9-2.8.7-.7 1.3-1.5 1.8-2.3.7-1.4 1.1-2.9 1.1-4.5 0-2.7-1-5-2.9-6.9-1.9-1.9-4.2-2.9-6.9-2.9s-5 1-6.9 2.9c-.5.5-1 1.1-1.4 1.8-1 1.5-1.4 3.3-1.4 5.2 0 2.8.9 5.1 2.7 6.9 1.9 1.7 4.2 2.6 7 2.6zm-31.3 0c2.7 0 5-.9 6.9-2.8.7-.7 1.3-1.5 1.8-2.3.7-1.4 1.1-2.9 1.1-4.5 0-2.7-1-5-2.9-6.9-1.9-1.9-4.2-2.9-6.9-2.9s-5 1-6.9 2.9c-.5.5-1 1.1-1.4 1.7-1 1.5-1.4 3.3-1.4 5.2 0 2.8.9 5.1 2.7 6.9s4.2 2.7 7 2.7zm80.9-2.9h41.6v12.3c0 1.2.7 2.4 1.8 2.9.4.2.9.3 1.4.3.7 0 1.4-.2 2-.7l24.2-19.3c.8-.6 1.2-1.5 1.2-2.5s-.4-1.9-1.2-2.5l-24.2-19.3c-.6-.5-1.3-.7-2-.7-.5 0-.9.1-1.4.3-1.1.5-1.8 1.7-1.8 2.9V945h-41.6c-1.8 0-3.2 1.4-3.2 3.2v7.7c0 1.7 1.4 3.1 3.2 3.1zm-2882-660.9l-38.6-32.3L427 287l-13.7 16.3zm-128.6-12.9l-6.6 20.3 44.6-23.6-48-15.5zM251.2 325l3.9 20.9 27.9-42-49.5 9.3z" fill="#00557B"/><path fill="#00729E" d="M865.4 708.4c43.6-44.2 43.1-115.4-1.1-158.9-44.2-43.6-115.4-43.1-158.9 1.1-43.6 44.2-43.1 115.4 1.1 158.9 44.2 43.6 115.3 43.1 158.9-1.1zm-11.7-15.2l-13.3-14.9-25.9-29c3.8-5.6 5.8-12 6.1-18.4l38.1-7.6 19.6-3.9c2.8 26.2-5.4 53.2-24.6 73.8zm-47-42.7c-11.6 11.8-30.6 11.9-42.3.3-11.8-11.6-11.9-30.6-.3-42.3 11.6-11.8 30.6-11.9 42.3-.3 11.8 11.6 11.9 30.5.3 42.3zm6.6-89.1l5.4-19.2c11.7 4.5 22.7 11.4 32.2 20.8 11.7 11.5 19.7 25.3 24 40l-19.6 3.9-38.1 7.6c-1.7-3.7-4.1-7.1-7.2-10.1-2.3-2.2-4.7-4.1-7.4-5.6l10.7-37.4zm-10.7-23.7l-5.4 19.2-10.6 37.4c-6.1-.2-12.3 1.2-17.8 4.1l-25.9-29-13.3-14.9c21.3-15.9 47.9-21.5 73-16.8zm-85.5 28l13.3 14.9 25.9 29c-3.8 5.6-5.9 12-6.1 18.4l-38.1 7.6-19.6 3.9c-2.8-26.1 5.4-53.2 24.6-73.8zm40.4 131.9l-5.4 19.2c-11.7-4.5-22.7-11.4-32.3-20.8-11.7-11.5-19.7-25.3-24-40l19.6-3.9 38.1-7.6c1.7 3.7 4.1 7.1 7.2 10.1 2.3 2.2 4.7 4.1 7.4 5.6l-10.6 37.4zm16.1 4.5l10.6-37.4c6.1.2 12.3-1.2 17.8-4.1l25.9 29 13.3 14.9c-21.3 15.9-47.9 21.6-73 16.9l5.4-19.3z"/><path fill="#005977" d="M669 2133.9c8.3.1 15.2-7.2 14.4-16.3-.8-9.1-8.7-15.1-17-13.6 8.3-1.3 13.7-9.6 11.5-18.4-2.3-8.8-11.1-13.4-19-10.6 8-2.6 12-11.7 8.3-20.1-3.6-8.4-13.2-11.4-20.4-7.4 7.4-3.9 9.9-13.6 4.9-21.2s-14.9-9.1-21.4-3.9c6.6-5.1 7.5-15 1.4-21.7-6.2-6.6-16.2-6.5-21.8-.3 5.7-6.1 5-16.1-2.3-21.6-7.2-5.6-17-3.8-21.5 3.3 4.6-6.9 2.3-16.6-5.8-21-8-4.3-17.4-1-20.7 6.7 3.4-7.6-.5-16.8-9.1-19.7-8.6-3-17.4 2-19.3 10 2.1-8-3.2-16.5-12.2-17.9-9-1.5-16.8 4.7-17.4 13.1.8-8.3-5.9-15.7-15-15.7-9.1.1-15.8 7.5-14.9 15.8-.6-8.3-8.5-14.5-17.4-13-9 1.4-14.3 10.1-12.1 18-1.9-8-10.7-13-19.3-9.9-8.6 3-12.5 12.1-9.1 19.7-3.3-7.7-12.7-11-20.7-6.7-8 4.4-10.3 14.1-5.7 21-4.5-7.1-14.3-8.7-21.5-3.1-7.2 5.6-7.8 15.7-2.1 21.6-5.5-6.1-15.6-6.3-21.7.5-6.1 6.7-5.2 16.6 1.5 21.7-6.6-5.2-16.4-3.6-21.4 4s-2.3 17.3 5 21.1c-7.3-4.1-16.8-.9-20.4 7.5-3.7 8.3.5 17.4 8.4 20-7.9-2.8-16.7 1.9-18.9 10.7-2.2 8.8 3.4 17.1 11.6 18.4-8.2-1.5-16.2 4.6-16.9 13.7-.8 9.1 6.1 16.4 14.5 16.2-8.3-.1-15.2 7.2-14.4 16.3.8 9.1 8.7 15.1 17 13.6-8.3 1.3-13.7 9.6-11.5 18.4 2.3 8.8 11.1 13.4 19 10.6-8 2.6-12 11.7-8.3 20.1 3.6 8.4 13.2 11.4 20.4 7.4-7.4 3.9-9.9 13.6-4.9 21.2s14.9 9.1 21.4 3.9c-6.6 5.1-7.5 15-1.4 21.7 6.2 6.6 16.2 6.5 21.8.3-5.7 6.1-5 16.1 2.3 21.6 7.2 5.6 17 3.8 21.5-3.3-4.6 6.9-2.3 16.6 5.8 21 8 4.3 17.4 1 20.7-6.7-3.4 7.6.5 16.8 9.1 19.7 8.6 3 17.4-2 19.3-10-2.1 8 3.2 16.5 12.2 17.9 9 1.5 16.8-4.7 17.4-13.1-.8 8.3 5.9 15.7 15 15.7 9.1-.1 15.8-7.5 14.9-15.8.6 8.3 8.5 14.5 17.4 13 9-1.4 14.3-10 12.1-18 1.9 8 10.7 13 19.3 9.9 8.6-3 12.5-12.1 9.1-19.7 3.3 7.7 12.7 11 20.7 6.7 8-4.4 10.3-14.1 5.7-21 4.5 7.1 14.3 8.7 21.5 3.1 7.2-5.6 7.8-15.7 2.1-21.6 5.5 6.1 15.6 6.3 21.7-.5 6.1-6.7 5.2-16.6-1.5-21.7 6.6 5.2 16.4 3.6 21.4-4s2.3-17.3-5-21.1c7.3 4.1 16.8.9 20.4-7.5 3.6-8.3-.5-17.4-8.4-20 7.9 2.8 16.7-1.9 18.9-10.7 2.2-8.8-3.4-17.1-11.6-18.4 8.2 1.5 16.2-4.6 16.9-13.7.8-9-6.2-16.3-14.5-16.2zm-27-49.2l-123.9 31.7c-6.1-12.4-18.9-20.1-32.6-20l-31-121.1c81.3-16.9 162.3 30.5 187.5 109.4zm-151 68.2c-11.2 2.9-22.7-3.9-25.6-15.1-2.9-11.2 3.9-22.7 15.1-25.6 11.2-2.9 22.7 3.9 25.6 15.1 2.9 11.2-3.9 22.7-15.1 25.6zm-51.2-173.8l30.9 120.6c-13.3 6.1-21.6 19.7-21.1 34.3l-121.8 31.2c-15.7-81.4 32.6-161.9 112-186.1zm-108.4 200.7l122-31.2c6.5 13 20.3 21 34.9 19.9l32 124.9c-82.8 17.3-165.2-32.2-188.9-113.6zm203.5 109.9l-32.1-125.4c12.1-6.5 19.6-19.4 19-33.2l124.1-31.8c18.5 82.8-30.1 165.7-111 190.4z"/><path d="M605.2 149.6h-138l.1-131.3h-7.4l-.1 131.3H321.6v6.4h138.2l-.1 123.2h7.4l.1-123.2h138zm-142.3 63.5c-32.2 0-58.4-27-58.4-60.3 0-33.2 26.2-60.3 58.4-60.3s58.4 27 58.4 60.3c0 33.2-26.2 60.3-58.4 60.3zm0-114.3c-28.8 0-52.3 24.2-52.3 54s23.5 54 52.3 54c28.8 0 52.3-24.2 52.3-54s-23.5-54-52.3-54z" fill="#D3E3E9"/><path fill="#00A0C5" d="M379.8 1538.8l24.7 20 86.3-106.4 21.8 17.6 51.6-133.4-119.9 78.1 21.8 17.6z"/><path fill="#0C465A" d="M1288.4 621.4c.2-1.6.3-3.3.4-4.9.6-7.5 7.5-13.8 16.4-14.2l8.4-.2c-.2-7.7-.9-15.3-2.2-22.8l-8.3 1.4c-8.7 1.3-16.7-3.7-18.7-10.9-.5-1.6-.8-3.2-1.3-4.7-2.2-7.2 2-15.6 10.1-19.2l7.7-3.2c-3-7.1-6.4-13.9-10.3-20.5l-7.2 4.3c-7.7 4.4-17 2.7-21.4-3.4l-3-3.9c-4.6-5.9-3.8-15.3 2.5-21.5l6.1-5.8c-5.3-5.5-10.9-10.7-17-15.4l-5.2 6.6c-5.6 6.9-14.9 8.5-21.2 4.5-1.3-.9-2.8-1.7-4.2-2.6-6.4-3.9-9-12.9-5.4-21l3.6-7.6c-6.9-3.2-14-5.9-21.4-8.2l-2.5 8c-2.7 8.4-10.8 13.4-18.1 11.9l-4.9-.9c-7.4-1.2-13.1-8.8-12.6-17.6l.6-8.4c-7.7-.5-15.4-.5-22.9 0l.6 8.4c.5 8.8-5.2 16.3-12.6 17.6-1.6.3-3.2.5-4.8.9-7.3 1.5-15.4-3.4-18.2-11.8l-2.5-8c-7.3 2.3-14.5 5.1-21.4 8.3l3.6 7.6c3.7 8.1 1.1 17.2-5.4 21l-4.2 2.6c-6.3 4.1-15.6 2.4-21.2-4.5l-5.2-6.6c-6 4.7-11.6 9.9-16.9 15.5l6.1 5.8c6.3 6.2 7.1 15.6 2.6 21.5-1.1 1.3-2 2.6-2.9 3.9-4.4 6-13.7 7.8-21.4 3.5l-7.3-4.2c-3.8 6.5-7.2 13.4-10.2 20.5l7.8 3.2c8.1 3.5 12.3 11.9 10.2 19.1l-1.4 4.7c-1.9 7.3-9.9 12.3-18.7 11l-8.3-1.3c-1.2 7.6-1.9 15.3-2.1 22.8l8.4.2c8.8.4 15.8 6.7 16.4 14.2.1 1.6.2 3.3.5 4.9.8 7.4-4.8 15-13.5 17l-8.2 1.8c1.6 7.5 3.7 14.9 6.3 22l7.9-2.9c8.4-2.9 17.2.5 20.4 7.3l2.2 4.4c3.5 6.6 1 15.7-6.4 20.7l-7 4.6c4.2 6.4 8.8 12.5 13.8 18.3l6.3-5.5c6.8-5.7 16.2-5.7 21.7-.6 1.2 1.1 2.4 2.2 3.7 3.3 5.6 5 6.5 14.3 1.5 21.6l-4.9 6.8c6.2 4.4 12.7 8.5 19.5 12l3.9-7.5c4.2-7.8 13-11.1 20-8.4 1.5.6 3 1.3 4.6 1.8 7 2.6 11.3 11 9.2 19.6l-2.1 8.1c2.5.6 4.9 1.2 7.4 1.7 5 1.1 10.1 1.9 15.1 2.4l1-8.3c1.2-8.8 8.2-15.1 15.6-15 1.6.1 3.3 0 4.9 0 7.5-.1 14.5 6.2 15.6 15l1 8.4c7.6-.9 15.2-2.3 22.5-4.3l-2.1-8.1c-2.1-8.6 2.1-17 9.1-19.7l4.6-1.8c6.9-2.9 15.7.5 20 8.3l3.9 7.4c6.8-3.6 13.3-7.6 19.5-12.1l-4.9-6.8c-5.1-7.3-4.2-16.7 1.4-21.6l3.6-3.3c5.5-5.1 14.9-5.2 21.7.5l6.3 5.5c5-5.7 9.6-11.9 13.8-18.3l-7.1-4.6c-7.3-4.9-9.9-14-6.5-20.7.8-1.4 1.5-2.9 2.2-4.4 3.3-6.7 12-10.2 20.4-7.4l7.9 2.8c2.5-7.1 4.6-14.5 6.2-22.1l-8.2-1.7c-8.5-1.8-14.2-9.4-13.3-16.8zm-140.1 97.2c-62.4.1-113.1-50.4-113.2-112.8-.1-62.4 50.4-113.1 112.8-113.2 62.4-.1 113.1 50.4 113.2 112.8.1 62.4-50.4 113.1-112.8 113.2z"/><path d="M126.7 1204c0-2.7-.9-5-2.8-6.9-.7-.7-1.5-1.3-2.3-1.8-1.4-.7-2.9-1.1-4.5-1.1-2.7 0-5 1-6.9 2.9-1.9 1.9-2.9 4.2-2.9 6.9s1 5 2.8 6.8c.5.5 1.1 1 1.7 1.4 1.5 1 3.3 1.4 5.2 1.4 2.8 0 5.1-.9 6.9-2.7 1.9-1.8 2.8-4.2 2.8-6.9zm0 28.5c0-2.7-.9-5-2.8-6.9-.7-.7-1.5-1.3-2.3-1.8-1.4-.7-2.9-1.1-4.5-1.1-2.7 0-5 1-6.9 2.9-1.9 1.9-2.9 4.2-2.9 6.9s1 5 2.8 6.8c.5.5 1.1 1 1.7 1.4 1.5 1 3.3 1.4 5.2 1.4 2.8 0 5.1-.9 6.9-2.7 1.9-1.8 2.8-4.1 2.8-6.9zm0 31.2c0-2.7-.9-5-2.8-6.9-.7-.7-1.5-1.3-2.3-1.8-1.4-.7-2.9-1.1-4.5-1.1-2.7 0-5 1-6.9 2.9-1.9 1.9-2.9 4.2-2.9 6.9s1 5 2.8 6.8c.5.5 1.1 1 1.7 1.4 1.5.9 3.3 1.4 5.2 1.4 2.8 0 5.1-.9 6.9-2.7 1.9-1.8 2.8-4.1 2.8-6.9zm-2.9-80.7v-41.5H136c1.2 0 2.4-.7 2.9-1.8.2-.4.3-.9.3-1.4 0-.7-.2-1.4-.7-2l-19.3-24.1c-.6-.8-1.5-1.2-2.5-1.2s-1.9.4-2.5 1.2l-19.3 24.1c-.5.6-.7 1.3-.7 2 0 .5.1.9.3 1.4.5 1.1 1.7 1.8 2.9 1.8h12.3v41.5c0 1.8 1.4 3.2 3.2 3.2h7.6c1.8 0 3.3-1.4 3.3-3.2z" fill="#0091B4"/><path fill="#008DA6" d="M292.8 569.4c56.6 55.8 147.8 55.2 203.6-1.4 55.8-56.6 55.2-147.8-1.4-203.6-56.6-55.8-147.8-55.2-203.6 1.4-55.8 56.6-55.2 147.8 1.4 203.6zm19.5-15l19-17 37.1-33.2c7.1 4.9 15.3 7.5 23.6 7.8l9.8 48.8 5 25.1c-33.5 3.6-68.2-6.9-94.5-31.5zm166.8-3.5c-14.8 15-32.5 25.2-51.3 30.7l-5-25.1-9.8-48.8c4.7-2.2 9.1-5.3 13-9.2 2.9-2.9 5.2-6.1 7.1-9.5l47.9 13.5 24.6 6.9c-5.6 15.2-14.5 29.4-26.5 41.5zm32.4-61.9l-24.6-6.9-47.9-13.6c.3-7.8-1.5-15.7-5.3-22.8l37.1-33.2 19-17c20.5 27.2 27.7 61.3 21.7 93.5zm-35.9-109.6l-19 17-37.1 33.2c-7.1-4.9-15.3-7.5-23.6-7.8l-9.8-48.8-5-25.1c33.4-3.5 68.1 6.9 94.5 31.5zm-166.9 3.5c14.7-15 32.5-25.2 51.3-30.7l5 25.1 9.8 48.8c-4.7 2.2-9.1 5.3-13 9.2-2.9 2.9-5.2 6.1-7.1 9.4l-47.9-13.5-24.6-6.9c5.7-15.1 14.5-29.2 26.5-41.4zm-7.8 68.9l47.9 13.5c-.3 7.8 1.5 15.7 5.3 22.8L317 521.4l-19 17c-20.4-27.3-27.6-61.4-21.6-93.5l24.5 6.9z"/><path fill="#00729E" d="M886.3 1271.3S796 1403.2 796 1453c0 49.9 40.4 90.3 90.3 90.3s90.3-40.4 90.3-90.3c0-49.8-90.3-181.7-90.3-181.7z"/><path opacity=".4" fill="#B2D2CD" d="M1107.5 3421.1c18.8-37.7 18.1-84.1-6-122.3-36.7-58.5-113.9-76.1-172.3-39.3-20.5 12.9-36 30.8-45.9 51.1-72.5-64.2-181.3-76.1-267.5-21.9-59.4 37.3-95.2 97.9-103.1 162.5-38.9-8.9-81.2-3-117.7 20-13 8.2-24.3 17.9-34 28.9h909.4c-37.3-55.3-100.3-83.6-162.9-79z"/><path fill="#004D6D" d="M1778.9 1687.5l.5-5.2c.7-7.9 8-14.7 17.4-15l8.9-.2c-.2-8.2-.9-16.3-2.2-24.2l-8.8 1.4c-9.3 1.3-17.8-3.9-19.9-11.6-.5-1.7-.9-3.4-1.4-5-2.3-7.6 2.1-16.6 10.7-20.3l8.2-3.4c-3.1-7.5-6.7-14.8-10.9-21.8l-7.7 4.5c-8.2 4.6-18.1 2.8-22.7-3.7l-3.2-4.2c-4.9-6.3-4-16.2 2.7-22.9l6.4-6.1c-5.6-5.9-11.6-11.3-18-16.4l-5.5 7c-6 7.3-15.8 9-22.5 4.8-1.4-1-2.9-1.9-4.4-2.7-6.8-4.1-9.6-13.7-5.7-22.3l3.8-8.1c-7.3-3.4-14.9-6.3-22.7-8.8l-2.6 8.5c-2.9 9-11.5 14.2-19.3 12.6l-5.2-1c-7.9-1.3-13.9-9.3-13.4-18.7l.6-8.9c-8.2-.6-16.3-.6-24.3 0l.6 8.9c.5 9.4-5.6 17.3-13.4 18.7-1.7.3-3.4.5-5.1.9-7.8 1.5-16.3-3.6-19.3-12.6l-2.6-8.5c-7.8 2.4-15.4 5.4-22.7 8.8l3.8 8.1c3.9 8.6 1.1 18.2-5.7 22.3l-4.5 2.8c-6.7 4.3-16.5 2.5-22.5-4.8l-5.5-7c-6.4 5-12.4 10.5-18 16.4l6.4 6.2c6.7 6.6 7.6 16.6 2.7 22.9-1.1 1.3-2.1 2.8-3.1 4.2-4.7 6.4-14.5 8.3-22.7 3.6l-7.7-4.5c-4.1 6.9-7.7 14.2-10.8 21.8l8.2 3.4c8.6 3.7 13.1 12.7 10.8 20.3l-1.5 5c-2 7.7-10.5 13-19.9 11.7l-8.8-1.4c-1.3 8.1-2.1 16.2-2.3 24.2l8.9.2c9.4.4 16.7 7.2 17.4 15.1.1 1.7.2 3.5.5 5.2.8 7.9-5.2 15.9-14.3 18l-8.7 1.8c1.7 8 3.9 15.8 6.7 23.4l8.4-3c8.9-3.1 18.2.6 21.7 7.8l2.3 4.7c3.7 7 1 16.7-6.8 22l-7.4 4.9c4.4 6.8 9.3 13.3 14.7 19.4l6.7-5.8c7.2-6 17.3-6 23-.6l3.9 3.5c5.9 5.3 6.9 15.2 1.5 23l-5.2 7.2c6.5 4.7 13.5 9 20.7 12.8l4.2-7.9c4.5-8.2 13.8-11.8 21.2-8.9 1.6.6 3.2 1.4 4.9 1.9 7.5 2.7 12 11.7 9.8 20.9l-2.2 8.6c2.6.7 5.2 1.3 7.9 1.9 5.4 1.1 10.7 2 16 2.6l1-8.8c1.3-9.3 8.7-16 16.6-15.9 1.7.1 3.5 0 5.2 0 7.9-.1 15.3 6.6 16.6 15.9l1 8.9c8.1-.9 16.1-2.5 23.9-4.5l-2.2-8.6c-2.2-9.1 2.3-18.1 9.7-20.9l4.9-1.9c7.3-3.1 16.7.6 21.3 8.8l4.2 7.9c7.2-3.8 14.1-8.1 20.7-12.8l-5.2-7.2c-5.4-7.8-4.4-17.8 1.6-23l3.8-3.6c5.8-5.4 15.8-5.5 23 .6l6.7 5.9c5.3-6.1 10.2-12.6 14.7-19.4l-7.5-4.9c-7.8-5.3-10.5-14.9-6.9-22 .8-1.5 1.6-3.1 2.3-4.7 3.5-7.1 12.8-10.8 21.7-7.8l8.4 3c2.7-7.5 5-15.4 6.7-23.4l-8.7-1.8c-9.4-2.3-15.4-10.3-14.5-18.2z"/><path fill="#00717F" d="M2093.3 3483.1l68.9-7.4 2.6 24.3h8.7l-21.5-199.9-8.6.9 5.1 47.2-68.9 7.4-5.1-47.2-8.6.9 20.5 190.6h8.7l-1.8-16.8zm-12.7-118.8l68.9-7.4 5.5 50.8-68.9 7.4-5.5-50.8zm6.4 59.4l68.9-7.4 5.5 50.8-68.9 7.4-5.5-50.8z"/><path fill="#007394" d="M1320.8 821.9v51.5h38V891l57.2-43.3-57.2-43.4v17.6z"/><path fill="#439EB5" d="M1692.8 1732.5c34.2-34.7 33.9-90.6-.9-124.8-34.7-34.2-90.6-33.9-124.8.9-34.2 34.7-33.9 90.6.9 124.8 34.7 34.2 90.6 33.8 124.8-.9zm-9.2-12l-10.5-11.7-20.4-22.7c3-4.4 4.6-9.4 4.8-14.5l29.9-6 15.4-3.1c2.3 20.6-4.1 41.9-19.2 58zm-36.9-33.5c-9.1 9.2-24 9.3-33.3.2-9.2-9.1-9.3-24-.2-33.2 9.1-9.2 24-9.3 33.2-.2 9.3 9.1 9.4 23.9.3 33.2zm5.2-70l4.3-15.1c9.2 3.5 17.9 9 25.3 16.3 9.2 9 15.5 19.9 18.8 31.4l-15.4 3.1-29.9 6c-1.4-2.9-3.2-5.6-5.6-8-1.8-1.8-3.7-3.2-5.8-4.4l8.3-29.3zm-8.4-18.6l-4.3 15.1-8.3 29.4c-4.8-.2-9.6.9-14 3.2l-20.4-22.7-10.4-11.7c16.8-12.6 37.7-17 57.4-13.3zm-67.2 22l10.4 11.7 20.4 22.7c-3 4.4-4.6 9.4-4.8 14.5l-29.9 6-15.4 3.1c-2.2-20.6 4.2-41.8 19.3-58zm31.7 103.5l-4.3 15.1c-9.2-3.5-17.9-9-25.3-16.3-9.2-9-15.5-19.9-18.9-31.4l15.4-3.1 29.9-6c1.4 2.9 3.2 5.6 5.6 8 1.8 1.7 3.7 3.2 5.8 4.4l-8.2 29.3zm12.7 3.6l8.3-29.4c4.8.2 9.6-.9 14-3.2l20.4 22.7 10.4 11.7c-16.7 12.5-37.6 16.9-57.3 13.3l4.2-15.1z"/><path fill="#005D88" d="M1963.6 910c-1.5-16.9-6.4-33.1-14.4-48.2-8-15.1-18.8-28.1-32-38.8-12.7-10.3-27.1-18-42.9-22.8-12-3.7-24.5-5.5-36.9-5.5-3.8 0-7.6.2-11.3.5-14.2 1.3-27.9 4.9-40.9 10.8-3.2 1.2-11.4 5.8-14.1 7.5-12.2 7.5-23 16.9-32 28-10.3 12.7-18 27.1-22.8 42.9-3.4 11-5.2 22.3-5.5 33.8v1.9c0 4.2.1 8.4.5 12.6 1.5 16.9 6.4 33.1 14.4 48.2 8 15.1 18.8 28.2 32 38.8 12.7 10.3 27.2 18 42.9 22.8 12 3.7 24.5 5.5 36.9 5.5 3.8 0 7.6-.2 11.3-.5 14.1-1.3 27.7-4.9 40.6-10.7 3.4-1.1 12-5.7 14.9-7.9 12-7.4 22.6-16.8 31.5-27.8 10.3-12.7 18-27.1 22.8-42.9 4.8-15.6 6.5-31.9 5-48.2zm-34.5-48.1l-37 19.7c-7-11.8-14.7-22.8-22.9-32.6l31.5-16.8c11.3 8.1 20.9 18.1 28.4 29.7zm-104.3 55.6l-34.3 18.3c-6-12.5-10.6-25.1-13.8-37.4l29.5-15.7 18.6 34.8zm-2.1-43.7l29.5-15.7c8.4 9.5 16.3 20.4 23.3 32.4l-34.3 18.3-18.5-35zm10.9 60.2l18.6 34.9-29.9 15.9c-8.4-9.6-16.1-20.5-23-32.5l34.3-18.3zm16.5-8.8l34.4-18.3c6.1 12.4 10.8 24.9 14.2 37.3l-29.9 15.9-18.7-34.9zm-12.8-113.1c16.5 0 32.9 3.8 47.8 10.9l-26.7 14.2c-6-6-12.1-11.3-18.3-15.8-4.7-3.4-9.4-6.4-14-8.8 3.7-.3 7.4-.5 11.2-.5zm-40.9 11.1c2.4 0 5 .3 7.7 1 7.7 1.8 16.1 6 24.9 12.5 4 2.9 8 6.3 12 10l-25.6 13.6-19.7-37c.3-.1.5-.1.7-.1zm-21.1 16.3c1.1-2.9 2.4-5.4 3.9-7.5l19.7 37-25.6 13.6c-.8-5.4-1.4-10.5-1.6-15.5-.3-11 .8-20.3 3.6-27.6zm-21.7 11.9c-.6 5.2-.7 10.6-.5 16.4.3 7.6 1.3 15.7 2.9 24l-26.7 14.2c2.9-20 11.5-39.1 24.3-54.6zm-25.4 72.8l31.5-16.8c3.5 12.3 8.3 24.8 14.2 37.2l-37 19.7c-5.4-12.8-8.3-26.2-8.7-40.1zm17.6 56.6l37-19.7c6.8 11.9 14.4 22.9 22.6 32.8l-31.1 16.6c-11.4-8.1-21-18-28.5-29.7zm91.8 49.8c-16.5 0-32.9-3.8-47.8-10.9l26.2-13.9c6.4 6.5 12.9 12.1 19.6 16.8 4.1 2.9 8.2 5.5 12.2 7.6-3.4.2-6.8.4-10.2.4zm40.1-10.8c-12.6 0-28.6-8.4-44.3-23.3l26.1-13.9 19.8 37.2h-1.6zm18.1-8.9l-19.8-37.2 26.1-13.9c3.7 22.6 1.4 40.9-6.3 51.1zm26.1-20.2c.5-4.5.7-9.4.5-14.4-.2-8.1-1.2-16.7-3.1-25.6l26.2-13.9c-2.8 19.8-11 38.4-23.6 53.9zm-6.4-55.5c-3.6-12.3-8.5-24.7-14.6-37l37-19.7c5.5 12.8 8.4 26.2 8.7 40.1l-31.1 16.6z"/><path fill="#0FA7B7" d="M186 1249c-2.6-4-4.1-6.3-4.1-6.3s-1.4 1.9-3.8 5.3c-13.4 19.3-58.1 86-58.7 118.2-.2 11.3 2 22 6.1 31.4 9.7 22.3 29.7 37.8 53.2 38.2 24.3.4 45.6-15.4 55.6-38.6 3.8-8.7 6-18.5 6.2-28.8.7-31.8-41.1-98.7-54.5-119.4z"/><path fill="#0087A7" d="M1124.2 2225.5c2.3 3.5 3.6 5.5 3.6 5.5s1.2-1.7 3.3-4.7c11.7-16.9 50.8-75.2 51.3-103.4.2-9.9-1.8-19.2-5.4-27.5-8.5-19.5-26-33-46.5-33.4-21.3-.4-39.8 13.5-48.6 33.8-3.3 7.6-5.2 16.2-5.4 25.2-.5 27.9 36 86.4 47.7 104.5z"/><path d="M351 1373.1l-8.1 3.5-10.1 4.3L383 1411l-13 57.1 10.1-4.3 8.1-3.5 13-57.1zm-43.8 18.7l-10.1 4.3 50.2 30.1-13 57.1 10.1-4.3 8-3.4 13-57.1-50.2-30.1z" fill="#2C6772"/><path fill="#F15A22" d="M2403 622.6c-3.4-1.9-7-2.8-10.8-3l9.4-16.5 17.4-30.4-5.1-2.9-39-22.2-3.1-1.8c4.5-1.8 8.3-4.8 11-8.9 8.3-12.7 2.5-31.3-13.1-41.5s-35-8.2-43.3 4.5c-3.5 5.3-4.5 11.7-3.3 18l-43.3-24.7-5.1-2.9-79.6 139.3 48.8 27.8c-1.7-6.8-1-13.8 2.7-19.6 8.2-12.8 27.5-15.1 43.3-5.1 15.7 10 21.9 28.5 13.7 41.3-3.1 4.8-7.7 8.1-13.2 9.9l43.9 25.1 5.1 2.9 22.1-38.6c2.1 3.3 4.8 6 8.3 8 13.2 7.5 31.4.4 40.6-15.9 9.1-16.1 5.8-35.3-7.4-42.8z"/><path fill="#439EB5" d="M3410.4 1761.5c-1.3-2.1-2.1-3.3-2.1-3.3s-32.8 44.3-33.5 64c-.6 19.7 13 36.2 30.5 36.7 12.7.4 23.9-7.7 29.3-19.8 2-4.5 3.3-9.6 3.4-15 .5-16.4-20.8-51.6-27.6-62.6z"/><path d="M2564.9 213.1l1.6 9.8c9.6-1.5 19.4-2.7 29.2-3.5l-.8-9.9c-10.1.8-20.2 2-30 3.6zm118.8 8.4c9.7 1.2 19.4 2.8 29 4.7l1.9-9.7c-9.8-1.9-19.8-3.6-29.7-4.8l-1.2 9.8zm57.8 11.3c9.4 2.5 18.9 5.3 28.2 8.5l3.1-9.4c-9.5-3.2-19.2-6.1-28.8-8.6l-2.5 9.5zM2624.9 208l.1 9.9c9.7-.1 19.6.1 29.4.7l.6-9.9c-10-.5-20.1-.8-30.1-.7zm-118.6 19.3l3.1 9.4c9.2-3 18.7-5.8 28.2-8.1l-2.3-9.6c-9.8 2.3-19.5 5.1-29 8.3zm-55.3 23.9l4.8 8.7c8.5-4.6 17.3-8.9 26.3-12.8l-3.9-9.1c-9.4 4-18.5 8.5-27.2 13.2zm-49.9 34l6.4 7.6c7.4-6.2 15.2-12.1 23.3-17.6l-5.6-8.2c-8.4 5.7-16.5 11.8-24.1 18.2zm499.3-15.3c-1.2-24.9-22.4-44.1-47.3-42.9-15.6.8-29 9.4-36.5 21.9-5.2-2.3-10.4-4.5-15.6-6.7l-3.7 9.2c5.1 2.1 10.2 4.2 15.2 6.5-1.7 5.1-2.5 10.7-2.2 16.4 1.2 24.9 22.4 44.1 47.3 42.9 24.9-1.2 44.1-22.4 42.8-47.3zm-44.3 18.5c-9 .4-16.6-6.5-17-15.4-.4-9 6.5-16.6 15.4-17 9-.4 16.6 6.5 17 15.4.5 8.9-6.4 16.5-15.4 17z" fill="#00557B"/><path d="M485.3 1326.2c47.8 0 86.6-38.8 86.6-86.6s-38.8-86.6-86.6-86.6-86.6 38.8-86.6 86.6 38.8 86.6 86.6 86.6zm0-150.4c35.2 0 63.8 28.5 63.8 63.8 0 35.2-28.6 63.8-63.8 63.8-35.2 0-63.8-28.6-63.8-63.8 0-35.3 28.6-63.8 63.8-63.8zm0 96c17.8 0 32.3-14.5 32.3-32.3 0-17.8-14.5-32.3-32.3-32.3-17.8 0-32.3 14.4-32.3 32.3s14.5 32.3 32.3 32.3z" fill="#006C99"/><path fill="#00557B" d="M520.8 1068.8c-11-27.6-21.9-55.2-32.9-82.7l-17-42.7c-5.2-13.1-14.2-23.6-27.1-29.6-11.6-5.4-25-5.9-37.2-2.1-2.6.8-5.1 1.9-7.6 2.9l-11.4 4.5c-7.3-12.3-22.7-17.9-36.4-12.4l3.7 9.2-23.3 9.3c-1.7-2.2-4.8-3.1-7.5-2-3.3 1.3-5 5.1-3.7 8.5 1.3 3.3 5.1 5 8.5 3.7 2.7-1.1 4.3-3.8 4.1-6.6l23.3-9.3 11.8 29.6-23.3 9.3c-1.7-2.2-4.8-3.1-7.5-2-3.3 1.3-5 5.1-3.7 8.5 1.3 3.3 5.1 5 8.5 3.6 2.7-1.1 4.3-3.8 4.1-6.6l23.3-9.3 3.7 9.2c13.9-5.5 21.3-20.5 17.8-34.7l15.5-6.2c20.3-8.1 44.1.5 54 20.1 1.7 3.4 3 7.1 4.4 10.7l21.4 53.8 35.4 88.9c4.7 11.9 9.4 23.8 14.2 35.6l8-3.2c-7.7-19.4-15.4-38.7-23.1-58z"/><path d="M2768 3208c9.3 8.4 19 16.5 28.8 24.2l7.6-9.8c-9.6-7.5-19-15.5-28.1-23.6l-8.3 9.2zm-133.1-179.8c5.4 11.3 11.1 22.5 17.1 33.3l10.8-6c-5.9-10.6-11.5-21.6-16.8-32.6l-11.1 5.3zm192.3 226.2c10.3 7 21 13.7 31.8 19.9l6.2-10.7c-10.5-6.1-21-12.6-31.1-19.5l-6.9 10.3zm-111.5-100.3c8.1 9.5 16.5 18.9 25.2 27.9l8.9-8.6c-8.4-8.7-16.7-17.9-24.6-27.2l-9.5 7.9zm-44.5-60.4c6.7 10.5 13.9 20.9 21.3 30.9l10-7.3c-7.2-9.8-14.2-20-20.8-30.3l-10.5 6.7zm304.6 184.1c-17.8-7.2-38 .4-46.8 17.1-10.6-4.3-21.2-9.1-31.4-14.1l-5.4 11.1c10.7 5.2 21.8 10.2 33 14.7-2.5 16.6 6.5 33.4 22.8 40 19 7.7 40.7-1.5 48.4-20.5 7.6-19-1.6-40.6-20.6-48.3z" fill="#F26522"/><path d="M2751.256 1732.604l6.597-2.884 4.926 11.27-6.6 2.884zm78.594 180.47l6.598-2.88 4.922 11.272-6.598 2.88zm-9.83-22.862l6.596-2.883 4.925 11.27-6.59 2.88zm-88.495-202.567l6.597-2.885 4.93 11.27-6.598 2.884zm29.426 67.636l6.6-2.88 4.93 11.27-6.59 2.89zm9.87 22.62l6.6-2.88 4.93 11.27-6.59 2.89zm39.26 89.94l6.6-2.88 4.93 11.27-6.59 2.89zm-68.46-157.64l6.6-2.88 4.93 11.28-6.6 2.89zm39.03 90.08l6.6-2.88 4.93 11.27-6.59 2.88zm19.7 44.95l6.6-2.88 4.93 11.27-6.59 2.89zm-9.63-22.42l6.6-2.88 4.93 11.27-6.6 2.88zm59.71 119l-4-9.3-6.6 2.9 4.4 10c-3.8 3.8-5 9.7-2.8 14.9 3 6.8 10.9 9.9 17.8 7s9.9-10.9 7-17.8c-2.8-6.2-9.5-9.3-15.8-7.7zm408.95-159.37l-2.44-5.59 11.27-4.92 2.44 5.59zm-22.37 10.09l-2.44-5.59 11.27-4.92 2.44 5.59zm-22.49 9.75l-2.44-5.59 11.27-4.92 2.445 5.59zm-22.574 9.98l-2.44-5.59 11.27-4.92 2.44 5.59zm-22.65 9.54l-2.445-5.59 11.27-4.92 2.444 5.59zm135.093-58.8l-2.44-5.59 11.27-4.92 2.44 5.59zm-22.376 9.9l-2.44-5.59 11.27-4.923 2.44 5.59zm90.03-39.59l-2.444-5.59 11.27-4.93 2.45 5.59zm-22.472 10.152l-2.444-5.59 11.27-4.927 2.44 5.59zm-225.355 98.128l-2.44-5.59 11.27-4.93 2.44 5.59zm202.837-88.64l-2.44-5.59 11.27-4.93 2.448 5.59zm-180.11 78.665l-2.44-5.59 11.27-4.926 2.45 5.59zm-180.22 78.694l-2.44-5.59 11.27-4.925 2.447 5.59zm-22.36 9.974l-2.44-5.59 11.27-4.926 2.448 5.59zm44.93-19.58l-2.44-5.59 11.27-4.93 2.44 5.59zm-112.55 49.14l-2.44-5.59 11.27-4.92 2.446 5.59zm44.96-19.553l-2.44-5.59 11.27-4.923 2.44 5.59zm-22.58 9.73l-2.444-5.59 11.27-4.925 2.446 5.59zm157.738-68.79l-2.442-5.59 11.27-4.93 2.448 5.59zm22.51-9.83l-2.44-5.59 11.27-4.924 2.44 5.59zm-67.56 29.28l-2.444-5.59 11.27-4.924 2.44 5.59zm22.536-9.654l-2.446-5.59 11.27-4.925 2.44 5.59zm67.504-29.613l-2.443-5.59 11.27-4.926 2.44 5.59zm314.08-143.29c-3-6.9-11-10-17.9-7-6.9 3-10 11-7 17.9 3 6.9 11 10 17.9 7 6.8-3 10-11 7-17.9zm-686.7-43.6c9.2-6.4 12.2-18.8 6.7-28.7-5.9-10.6-19.3-14.5-30-8.6-10.6 5.9-14.5 19.3-8.6 30 5.1 9.2 15.8 13.3 25.4 10.5l3.9 9 6.6-2.9-4-9.3z"/><path fill="#00557B" d="M2055.2 2832.6c1.8 0 3.3.8 4.7 1.6l.1-.4c1-3 3.5-5.6 6.9-5.2 1.8.2 3.3 1.2 4.3 2.6 1.3-1.8 3.3-3 5.6-2.6 1.8.2 3.3 1.2 4.3 2.6 1.3-1.8 3.3-3 5.6-2.6 1.8.2 3.3 1.2 4.3 2.6 1.3-1.8 3.3-3 5.6-2.6 3 .4 5.1 2.9 5.7 5.7.4-4.3 3.1-7.8 7.3-9.3 2.1-.8 4.3-.8 6.5-.8h13.8c-5.3-2.2-10-5.8-13.4-10.8-7.3-10.7-6.8-25.1 1-35.3 3.7-4.9 8.9-8.4 14.7-10.3l.7-5h-23.7c-2.3 6.5-7.7 11.8-14.6 13.5-9.1 2.1-19.1-2.1-23.4-10.6-2.9-5.8-3.1-12.6-.3-18.4 2.6-5.5 7.8-9.9 13.8-11.3 6.3-1.5 12.9-.1 17.9 3.9 3.4 2.7 5.8 6.4 7 10.5h25l.8-5.8c-3.1-1.3-5.8-3.7-7.4-6.8-2.8-5.6-2.2-12.5 2-17.2 4.1-4.6 11-6.5 16.8-4.1 5.8 2.4 9.6 7.8 9.7 14.1v.2c-.1 6-3.7 11.2-9 13.6.2 2 .4 3.9.7 5.9h23.1c.3-1.1.7-2.1 1.2-3.1 2.6-5.5 7.8-9.9 13.8-11.3 6.3-1.5 12.9-.1 17.9 3.9 4.9 3.9 7.7 9.9 7.8 16.2-.1 9.3-6.6 18-15.8 20.1-9.1 2.1-19.1-2.1-23.4-10.6-.5-.9-.9-1.9-1.2-2.9h-22c.2 1.6.4 3.2.5 4.8l.9.3c12.1 4.3 20.3 15.6 20.4 28.5-.1 12-7.5 23.1-18.4 27.7h17.8c2 0 4.1-.1 6.1.5 4.2 1.4 7.2 4.6 7.9 8.9l14.1.1c4.8 0 9.6 0 14.4.2 11 .5 21.8 4.1 30.9 10.2 21 14.3 31.4 39.1 31.4 64l-.1 32.7h6.5c1.1 0 2 .9 2 2v15.2c0 .7-.3 1.2-.7 1.5-.3.3-.8.5-1.4.5h-51c-1.1 0-2-.9-2-2v-15.2c0-1.1.9-2 2-2h6.7c-.1-6.3-.1-12.6-.2-19-.1-9.1-.3-18.2-3.4-26.9-3.2-9-9.3-16.6-18.2-20.4-6.5-2.8-13.5-3.1-20.4-3.1h-10.6v1.8c-.1 4.5-3.1 8.4-7.3 9.9-1.7.6-3.4.7-5.1.7h-58.6c-5.7 0-11.1-4.1-11.5-10v-.1c-.7 2.9-2.8 5.6-6 5.8-2.2.1-4.1-1-5.3-2.7-1.1 1.5-2.6 2.6-4.7 2.7-2.2.1-4.1-1-5.3-2.7-1.1 1.5-2.6 2.6-4.7 2.7-2.2.1-4.1-1-5.3-2.7-1.1 1.5-2.6 2.6-4.7 2.7-3.4.2-5.9-2.6-6.6-5.7-2.2 1.2-4.5 1.4-7.1 1.4H2026v-42.8c.3.5 22 .5 29.2.5z"/><path fill="#004161" d="M3074.3 339.4l-56.6 66.3-79.2-67.6 56.6-66.3-9.9-8.5-542.8 635.8 9.9 8.5 48.7-57.1 79.2 67.6-48.7 57.1 9.9 8.5 542.7-635.8-9.8-8.5zm-483.7 566.5l-79.2-67.6 60.9-71.3 79.2 67.6-60.9 71.3zm71.2-83.3l-79.2-67.6 60.9-71.3 79.2 67.6-60.9 71.3zm71.1-83.4l-79.2-67.6 60.9-71.3 79.2 67.6-60.9 71.3zm71.2-83.4l-79.2-67.6 60.9-71.3 79.2 67.6-60.9 71.3zm71.2-83.4l-79.2-67.6 60.9-71.3 79.2 67.6-60.9 71.3zm71.2-83.4l-79.2-67.6 60.9-71.3 79.2 67.6-60.9 71.3z"/><path d="M1092.1 859.1s-42.9 62.7-42.9 86.4c0 23.7 19.2 42.9 42.9 42.9s42.9-19.2 42.9-42.9l-42.9-86.4z"/><path fill="#B9CEC6" d="M845.9 3027.6c-8-8-18.7-12.5-30-12.6H693.4c-12.4-16.1-30.1-26-48.9-28.8 2.6 2.7 5 5.6 7.2 8.8 7.1 10.1 11.4 21.3 13 32.8-7.9 8-12.2 18.6-12.2 29.9v101.9c0 11.4 4.4 22.1 12.5 30.2 8.1 8.1 18.8 12.5 30.2 12.5h120.5c11.4 0 22.1-4.4 30.2-12.5 8.1-8.1 12.5-18.8 12.5-30.2v-101.9c-.1-11.4-4.5-22.1-12.5-30.1zm-131.5 149.7H686v-33.4h28.4v33.4zm36.6 0h-28.4v-57.5H751v57.5zm36.6 0h-28.4v-78.9h28.4v78.9zm36.6 0h-28.4v-102.9h28.4v102.9z"/><path fill="#0087A7" d="M2305.7 873.7h45.5L2240.7 722l-111.5 151.7h46.4v142.4h130.1z"/><path d="M1435.9 3126.7c4.3 0 7.9-3.6 7.9-7.9 0-4.4-3.5-7.9-7.9-7.9-4.3 0-7.9 3.6-7.9 7.9.1 4.3 3.6 7.9 7.9 7.9zm0-30.3c4.3 0 7.9-3.6 7.9-7.9s-3.5-7.9-7.9-7.9c-4.3 0-7.9 3.6-7.9 7.9s3.6 7.9 7.9 7.9zm0-30.3c4.3 0 7.9-3.6 7.9-7.9 0-4.4-3.5-7.9-7.9-7.9-4.3 0-7.9 3.6-7.9 7.9.1 4.3 3.6 7.9 7.9 7.9zm-7.8-38.2c0 4.4 3.5 7.9 7.9 7.9 4.3 0 7.9-3.6 7.9-7.9s-3.5-7.9-7.9-7.9c-4.4-.1-7.9 3.5-7.9 7.9zm0-30.3c0 4.4 3.5 7.9 7.9 7.9 4.3 0 7.9-3.6 7.9-7.9 0-4.4-3.5-7.9-7.9-7.9-4.4-.1-7.9 3.5-7.9 7.9zm0-30.3c0 4.4 3.5 7.9 7.9 7.9 4.3 0 7.9-3.6 7.9-7.9 0-4.4-3.5-7.9-7.9-7.9-4.4-.1-7.9 3.5-7.9 7.9zm0-30.3c0 4.4 3.5 7.9 7.9 7.9 4.3 0 7.9-3.6 7.9-7.9 0-4.4-3.5-8-7.9-8-4.4.1-7.9 3.6-7.9 8zm0-30.3c0 4.4 3.5 7.9 7.9 7.9 4.3 0 7.9-3.6 7.9-7.9 0-4.4-3.5-7.9-7.9-7.9s-7.9 3.5-7.9 7.9zm0-30.3c0 4.4 3.5 7.9 7.9 7.9s7.9-3.6 7.9-7.9c0-4.4-3.5-8-7.9-8s-7.9 3.6-7.9 8zm0-30.3c0 4.4 3.5 7.9 7.9 7.9s7.9-3.6 7.9-7.9-3.5-8-7.9-8-7.9 3.7-7.9 8zm-3.3-15.1h33.3l-22.2-27.3-22.1 27.3z" fill="#D2D2D3"/><path d="M480.4 2574.7c5.8 0 10.5-4.7 10.5-10.4s-4.7-10.4-10.5-10.4-10.5 4.7-10.5 10.4c0 5.8 4.7 10.4 10.5 10.4zm-40.1 0c5.8 0 10.5-4.7 10.5-10.4s-4.7-10.4-10.5-10.4-10.5 4.7-10.5 10.4c0 5.8 4.7 10.4 10.5 10.4zm-40.1 0c5.8 0 10.5-4.7 10.5-10.4s-4.7-10.4-10.5-10.4-10.5 4.7-10.5 10.4c0 5.8 4.7 10.4 10.5 10.4zm-40.1 0c5.8 0 10.5-4.7 10.5-10.4s-4.7-10.4-10.5-10.4-10.5 4.7-10.5 10.4c0 5.8 4.7 10.4 10.5 10.4zm-40.1 0c5.8 0 10.5-4.7 10.5-10.4s-4.7-10.4-10.5-10.4-10.5 4.7-10.5 10.4c0 5.8 4.7 10.4 10.5 10.4zm-25 4.3v-44l-46.1 29.3 46.1 29.4z" fill="#00334D"/><path fill="#439EB5" d="M600.1 3016c-8.7-8.5-20.2-13.2-32.4-13.1H438.6c-12.2.1-23.6 6.2-32.2 14.9-8.6 8.7-13.2 20.2-13.1 32.4v109c.1 12.1 5.9 23.4 14.4 31.9-1.7 12.3-6.1 24.3-13.7 35.2-2.3 3.4-4.9 6.5-7.6 9.5 20.1-3.2 39-13.9 52.1-31.3h131.1c12.2-.2 23.6-6.2 32.1-14.9s13.1-20.2 13-32.4v-109c0-12.3-5.9-23.7-14.6-32.2zm-77.9 136h-93v-13h93v13zm55.8-28.5H429.2v-13H578v13zm0-28.5H429.2v-13H578v13zm0-28.5H429.2v-13H578v13z"/><path d="M3024.2 2384.3h-8.2v-30.4c0-17.8-15.5-32.2-34.6-32.2-12.2 0-22.9 5.9-29.1 14.7v-10.9c0-35.8-31.2-64.8-69.8-64.8s-69.8 29-69.8 64.8v9.2c-9.3-9.6-22.8-15.6-37.9-15.6-28.2 0-51.1 21.3-51.1 47.5v17.6h-18.1c-35.8 0-64.8 32.7-64.8 73s29 73 64.8 73h216.3c-.1 1-.1 2.1-.1 3.2 0 29.5 20.8 54.1 48.5 59.9-7.5-10.2-12-22.8-12-36.4 0-9.6 2.2-18.6 6.1-26.7h59.5c35.8 0 64.8-32.7 64.8-73s-28.7-72.9-64.5-72.9zm-302.2 274h49.7v-49.6h16.9l-41.8-55.2-41.8 55.2h17zm108.3 0h49.6v-49.6h17l-41.8-55.2-41.8 55.2h17z" opacity=".9" fill="#005977"/><path d="M1065.6 1235.4l3.5 3.1 7-7.9-3.5-3.1 45.5-51.1-7.9-7-65.7 73.8 7.9 7.1zm9.4-4.7l-6 6.7-3.5-3.2-13.2 14.9-6.7-5.9 64.7-72.7 6.7 6-45.5 51.1zm25.7-69.8l-7.9-7-18.9 21.3-10.3-9.1-5.7 6.4-3.6-3.2-2.4-2.1-10-9-5.3 5.9-5.5-4.8-5.3-4.7-7 7.8 4.7 4.2-13.6 15.2 7.9 7 18.8-21.1 7.7 6.8-13.5 15.2 7.8 7 19.3-21.6 9 8-19.4 21.8 7.9 7zm-52.1 43.9l19.4-21.8-10.2-9.1-19.2 21.7-6.7-6 13.5-15.2-8.8-7.8-18.8 21.1-6.7-6 13.5-15.2-4.7-4.1 6-6.7 4.7 4.2 6 5.3.1.1 5.2-5.9 9.5 8.4 2.4 2.1 4.2 3.7 5.7-6.4 10.3 9.1 18.9-21.3 6.7 6-44.3 49.8zm-64 .9l-7.9-7-17.2 19.2 7.9 7zm-1.2.1l-16 18-6.7-6 16-18zm91.5 47.1l-7.9-7.1-12.4 13.9 7.9 7.1zm-1.2 0l-11.3 12.7-6.6-5.9 11.3-12.7zm10.8 2.6l-7.9-7.1-4 4.6 7.9 7zm-1.1 0l-3 3.4-6.7-6 3-3.3zm21.45-101.662l12.1 10.77-5.917 6.648-12.1-10.77zm10.93 10.795l-4.85 5.455-10.836-9.635 4.85-5.455zM1021 1161.4l-6.4-5.6-6 6.8 6.3 5.7zm-11.3 1.2l5-5.6 5.1 4.5-5 5.6zm92.8 79.8l-5-4.4-2.3-2.1-14.3-12.7-7 7.9 13.6 12.2-8.3 9.3 7.9 7zm-13.8.8L1075 1231l6-6.7 13.6 12.2 2.4 2.1 4.3 3.9-14.2 16-6.7-6zm-49.8 23.5l6.4 5.7 11.6-13.1-7.9-7-10.4 11.7-6.4-5.7-11.6 13.1 7.9 7zm-.2-1.6l10.4-11.7 6.6 6-10.5 11.8-6.4-5.6-10.4 11.7-6.7-6 10.6-11.8zm-32.9 25.3l5.9-6.5 10.5-11.9-7.9-7.1-10 11.3-39-34.7 10-11.2-8-7-10.5 11.8-6.5 7.3 54.9 48.8zm-48.4-54.8l10-11.2 6.7 6-9.9 11.2 40.1 35.8 10.1-11.3 6.7 6-10 11.2-5.9 6.6-.1.1-46.9-41.7-6.7-6zm53.9-73.8l-7.9-7-34.5 38.8 7.9 7zm-41.3 31.7l33.5-37.5 6.7 5.9-33.5 37.6z" fill="#D2D2D3"/><path fill="#B9CEC6" d="M2998.1 2737.3h-86.2c-5.2 0-10 1.8-13.9 4.8-5.1 4.1-8.2 9.9-8.6 16.5v180c0 12.4 10.1 22.5 22.5 22.5h86.2c12.4 0 22.5-10.1 22.5-22.5v-178.8c0-12.5-10.1-22.5-22.5-22.5zm12.5 152.7h-111.2v-129.4h111.2V2890z"/><path fill="#439EB5" d="M2037.5 1470.2h103v-76h35.2l-86.7-114.5-86.7 114.5h35.2z"/><path fill="#58C4C8" d="M2607.8 1373.9L2575 1403h-34.9l24.2-21.4h-69.5v-15.4h69.5l-24.2-21.4h34.9z"/><path fill="#F7941E" d="M1482.8 707.3c20.8 19.8 48.9 31.1 78.9 31.9h.9l-13 39.8 47.3-43.9c16.8-4.5 32.3-12.5 45.3-23.6 22-18.8 34.6-44.4 35.3-71.9.7-27.5-10.4-53.7-31.4-73.7-20.8-19.8-48.9-31.1-79-31.9-30.1-.8-58.7 9.1-80.5 27.7-22 18.8-34.6 44.4-35.3 71.9-.7 27.5 10.5 53.7 31.5 73.7zm118-99.8c0-13 10.6-23.6 23.6-23.6 13 0 23.6 10.5 23.6 23.6 0 13-10.5 23.6-23.6 23.6-13.1-.1-23.6-10.6-23.6-23.6zm-64.2 0c0-13 10.5-23.6 23.6-23.6 13 0 23.6 10.5 23.6 23.6 0 13-10.5 23.6-23.6 23.6-13-.1-23.6-10.6-23.6-23.6z"/><path fill="#439EB5" d="M2742.9 2410c-30-14.1-60.7.2-73.5 27.3-12.2 26-.3 51 21.8 61.3 9.4 4.4 16.9 6.5 26.6 6.6l1.2-8.8c-6.6.3-14.5-1.6-21.3-4.8-19.8-9.3-28.1-28.6-17.6-50.8 11.9-25.4 37.2-32.9 57.5-23.4 20.6 9.7 25.4 28.3 17.3 45.6-7.2 15.3-17.8 19.2-23.4 16.4-3.7-1.9-2.9-5.9 2.1-13.1l15.5-22.7c-2.4-3.4-8.4-8-14.2-10.7-19.1-9-38 .1-45.6 16.3-5.1 10.9-1.9 20.2 6.8 24.3 7 3.3 14.6 2.7 21.9-2.2l.3.1c-2.6 7.4.4 12.7 6.6 15.6 14.3 6.7 31-.4 40.1-19.7 10.5-22.4 1.3-46.3-22.1-57.3zm-18.9 46.5c-4.8 7.1-12.9 11-17.8 8.6-4.4-2.1-5.1-6.3-2.8-11.4 4.8-10.2 15.8-15.6 24.5-11.5 1.7.8 2.9 1.7 3.9 2.5l-7.8 11.8z"/><path fill="#00729E" d="M509 699.7l4.1-27.9h-14.3v-16.2h17.1l2.8-19.9h-15v-16.2h17.5l3.9-27h15.5l-3.9 27h16.2l3.9-27h15.7l-3.9 27h14.1v16.2h-16.6l-2.8 19.9h14.6v16.2h-17.3l-3.9 27.9h-15.9l3.9-27.9h-16.1l-3.9 27.9H509zm38.6-44.1l2.8-19.9h-16.1l-2.8 19.9h16.1z"/><path fill="#B9CEC6" d="M3315.6 2798.3l-11.9-24.2-12 24.2-26.7 3.9 19.4 18.8-4.6 26.6 23.9-12.6 23.9 12.6-4.6-26.6 19.3-18.8z"/><path fill="#439EB5" d="M3171 884.7v-9.4h-25.1v-8.7h8.7v-25h-8.7v-9.1h-18.4v16.7h-9.3v18.3h-9v9.1h-9.4v8.9h-25.3v61.4h34.7v-10.3h-25.3v-41.2h15.9v-9.9h9.4v-8.9h9.2v-9.1h9.2v-9.3h9.1v-16.6h9.2v25h-9.2v18h34.3V895h-16.4v8.9h16.4v7.4h-16.4v9.4h16.4v7.4h-16.4v9.4h16.4v9.4h-61.8v10.2h62v-10.2h9.1v-62.2z"/><path fill="#414042" d="M901.5 859.5l-29 25.7h-30.8l21.3-18.8h-61.3v-13.7H863l-21.3-18.9h30.8z"/><path fill="#005977" d="M2698.3 459.6l-24.2 19.1 28.4 1.6-48.1 38 8.4 10.7 48.2-38-5 28 24.2-19.1 6.8-38.1z"/><path d="M824.7 1530.9c-30-55.7-99.8-76.5-155.5-46.4-46.5 25.1-68.7 77.9-57.3 127l-97.6 50c-14.7 7.9-20.2 26.3-12.3 41 7.9 14.7 26.3 20.2 41 12.2l97.6-50c34.8 36.5 91.1 46.8 137.5 21.7 55.8-30 76.7-99.8 46.6-155.5zm-62.5 125.9c-39.4 21.3-88.5 6.6-109.7-32.7-21.2-39.4-6.5-88.5 32.8-109.8 39.4-21.3 88.5-6.6 109.7 32.7 21.2 39.4 6.5 88.5-32.8 109.8zm24.3-80.8c-3.9-18.4-15-34.7-30.4-44.6-15.6-10-34.2-13.5-52.4-9.9h-.1c-5.3 1.1-8.5 6-7.4 11.4 1.1 5.5 6 8.8 11.4 7.7 13.4-2.7 27.3.1 38.2 7.4 11.1 7.5 18.7 18.8 21.5 31.9 1.1 5.3 6.1 8.5 11.5 7.4 2.6-.5 4.9-2.1 6.3-4.2 1.5-2 1.9-4.5 1.4-7.1z" opacity=".7" fill="#007A9B"/><path d="M3172.9 1255.4c9.5 0 17.3-7.7 17.3-17.3 0-9.5-7.7-17.3-17.3-17.3-9.5 0-17.3 7.7-17.3 17.3 0 9.6 7.7 17.3 17.3 17.3zm82.1 51.6v-42h-164.6v41.8c-7.6 1.8-13.2 8.6-13.2 16.8 0 9.5 7.7 17.3 17.3 17.3 9.5 0 17.3-7.7 17.3-17.3 0-7.5-4.8-13.9-11.4-16.3v-32.5h67.5v32.2c-7 2.2-12.2 8.7-12.2 16.5 0 9.5 7.7 17.3 17.3 17.3 9.5 0 17.3-7.7 17.3-17.3 0-7.9-5.3-14.5-12.5-16.6v-32.1h67.5v32.3c-7 2.2-12 8.7-12 16.5 0 9.5 7.7 17.3 17.3 17.3 9.5 0 17.3-7.7 17.3-17.3-.2-7.9-5.6-14.6-12.9-16.6z" fill="#005977"/><path fill="#414042" d="M1200 3208c43.3 26.2 97.6 18.9 132.6-14.3l88.6 56.3c13.7 8.3 31.5 3.9 39.8-9.8 8.3-13.7 3.9-31.5-9.8-39.7l-88.6-56.3c13.2-46.4-5.6-97.8-48.8-124-51.8-31.3-119.5-14.7-150.9 37.1-31.4 51.7-14.8 119.3 37.1 150.7zm-9.5-134.1c22.2-36.6 69.8-48.3 106.5-26.2 36.6 22.2 48.4 69.8 26.2 106.4-22.2 36.6-69.8 48.3-106.5 26.2-36.6-22.1-48.4-69.8-26.2-106.4z"/><path fill="#787777" d="M1194 3113.8c1.6-17.9 9.9-34.2 23.4-46 13.4-11.6 31.5-17.5 49.6-16.1 2.5.2 4.8 1.3 6.4 3.2 1.6 1.9 2.4 4.5 2.2 7-.4 5.3-4.7 9.1-10 8.7-12.9-1-25.5 3-35.5 11.2-9.8 8.1-16.1 20.3-17.3 33.5-.5 5.3-4.9 9-10.3 8.5-5.2-.5-8.9-4.8-8.5-10z"/><path fill="#439EB5" d="M3223.1 252.7l-103.2-76.5v31.6h-91.1v93.9h91.1V332z"/><g fill="#005977"><circle cx="1329.3" cy="2082.2" r="7.9"/><path d="M1407.3 2052.7c-4.9-11.1-11.7-21-20.5-29.5s-18.8-15.1-30-19.7c-11.6-4.7-23.9-7.1-36.6-6.9v24.4c38.2-.5 70 30.7 70.4 68.9h24.4c0-12.6-2.6-25.7-7.7-37.2zm-87-15.4v24.4c15.7-.2 29.5 12.4 29.7 28.2h24.4c-.3-29.2-24.9-52.9-54.1-52.6z"/></g><path fill="#006B93" d="M1037.1 1030.4c0-42-34-76-76-76s-76 34-76 76 34 76 76 76 76-34 76-76zm-75.9 42.9H937v-47.9h-16.5l40.7-53.3 40.7 53.3h-16.5v47.9h-24.2z"/><g fill="#439EB5"><circle cx="3027.9" cy="2126.7" r="7.2"/><path d="M2974.8 2147.7c-3.8 10.9-6.8 32.7-6.8 36.7 0 41.6 31.8 72.6 73 74.1l2.8.1c39.1 0 71.4-29.2 76.3-66.9-7.9 3.7-16.8 5.8-26.1 5.8-9.7 0-18.8-2.2-27-6.2l12.3-39.2c8.4-26.7-6.4-55-33.1-63.4-17.1-5.4-35-1.2-47.8 9.6l-25.5-9.1 13 21.7-25.3 1 20.4 15.5-6.2 20.3zm35.9-21c0-9.5 7.7-17.2 17.2-17.2s17.2 7.7 17.2 17.2-7.7 17.2-17.2 17.2-17.2-7.7-17.2-17.2z"/></g><path fill="#B9CEC6" d="M1440.4 2383h-79.2c-14.9 0-27 12.1-27 27v129.5c0 14.9 12.1 27 27 27h79.2c14.9 0 27-12.1 27-27V2410c.1-14.9-12.1-27-27-27zm-79.1 166.2c-5.6 0-10.2-4.5-10.2-10.2 0-5.6 4.5-10.2 10.2-10.2 5.6 0 10.1 4.5 10.1 10.2 0 5.6-4.5 10.2-10.1 10.2zm0-31c-5.6 0-10.2-4.5-10.2-10.2s4.5-10.2 10.2-10.2c5.6 0 10.1 4.5 10.1 10.2s-4.5 10.2-10.1 10.2zm0-31c-5.6 0-10.2-4.5-10.2-10.2s4.5-10.2 10.2-10.2c5.6 0 10.1 4.5 10.1 10.2s-4.5 10.2-10.1 10.2zm39.5 62c-5.6 0-10.2-4.5-10.2-10.2 0-5.6 4.5-10.2 10.2-10.2 5.6 0 10.2 4.5 10.2 10.2 0 5.6-4.5 10.2-10.2 10.2zm0-31c-5.6 0-10.2-4.5-10.2-10.2s4.5-10.2 10.2-10.2c5.6 0 10.2 4.5 10.2 10.2s-4.5 10.2-10.2 10.2zm0-31c-5.6 0-10.2-4.5-10.2-10.2s4.5-10.2 10.2-10.2c5.6 0 10.2 4.5 10.2 10.2s-4.5 10.2-10.2 10.2zm39.6 62c-5.6 0-10.1-4.5-10.1-10.2 0-5.6 4.5-10.2 10.1-10.2s10.2 4.5 10.2 10.2c0 5.6-4.5 10.2-10.2 10.2zm0-31c-5.6 0-10.1-4.5-10.1-10.2s4.5-10.2 10.1-10.2 10.2 4.5 10.2 10.2-4.5 10.2-10.2 10.2zm0-31c-5.6 0-10.1-4.5-10.1-10.2s4.5-10.2 10.1-10.2 10.2 4.5 10.2 10.2-4.5 10.2-10.2 10.2zm12.8-47.2c0 7.1-5.7 12.8-12.8 12.8h-79.2c-7.1 0-12.8-5.7-12.8-12.8v-30c0-7.1 5.7-12.8 12.8-12.8h79.2c7.1 0 12.8 5.7 12.8 12.8v30z"/><path fill="#006B93" d="M2533.6 1435.6l-26.6-15.3-26.6-15.4v26.3h-50v8.9h50v26.3l26.6-15.4z"/><path fill="#B9CEC6" d="M2605.1 2119.1h-170c-10.1 0-18.3 8.2-18.3 18.3v101.9c0 10.1 8.2 18.3 18.3 18.3h170c10.1 0 18.3-8.2 18.3-18.3v-101.9c.1-10.1-8.2-18.3-18.3-18.3zm-169.9 11.7h170c3.7 0 6.7 3 6.7 6.7v62.7h-183.3v-62.7c-.1-3.8 2.9-6.7 6.6-6.7zm169.9 115.2h-170c-3.7 0-6.7-3-6.7-6.7v-9.6h183.3v9.6c.1 3.7-2.9 6.7-6.6 6.7z"/><path d="M3105.8 1480.3v-19.7l-47.5-34.4-47.4 34.4v19.7l47.4-34.3zm-47.5 4.5l47.5 34.4v-19.8l-47.5-34.3-47.4 34.3v19.8zM1620.8 307.1c-8.8-8.8-20.6-13.7-33-13.7h-129.6c-12.5 0-24.2 4.9-33 13.7-8.8 8.8-13.7 20.6-13.7 33v111.6c0 12.3 4.8 23.9 13.4 32.7-1.8 12.5-6.5 24.8-14.3 35.9-2.4 3.4-5.1 6.6-7.9 9.6 20.6-3.1 40-13.9 53.6-31.5H1588c12.4-.1 24.1-4.9 32.9-13.8 8.8-8.8 13.6-20.5 13.6-33V340.1c0-12.5-4.9-24.2-13.7-33zm-158.3 148.5c-11.6 0-21-9.4-21-21s9.4-21 21-21 21 9.4 21 21-9.4 21-21 21zm61.8 0c-11.6 0-21-9.4-21-21s9.4-21 21-21 21 9.4 21 21-9.4 21-21 21zm61.7 0c-11.6 0-21-9.4-21-21s9.4-21 21-21 21 9.4 21 21-9.4 21-21 21zm-80.6 314.5l-58.5-43.3v17.9h-51.7v53.2h51.7v17.3zM3407 1257v-19.5l-12 13.5v-18.5h-8.7v18.5l-11.9-13.5v19.5l16.3 18.4zm0-41.7v-19.6l-16.3-18.4-16.3 18.4v19.6l11.9-13.6v18.5h8.7v-18.5z" fill="#439EB5"/><path fill="#006B93" d="M756.4 105.3h-16c-2.8-18.4-17.5-32.8-36.1-35.2V53.3c0-3-2.5-5.5-5.5-5.5s-5.5 2.5-5.5 5.5v16.8c-18.5 2.4-33.2 16.9-36.1 35.2h-16c-3 0-5.5 2.5-5.5 5.5s2.5 5.5 5.5 5.5H657c2.1 19.2 17.2 34.6 36.3 37.1v15c0 3 2.5 5.5 5.5 5.5s5.5-2.4 5.5-5.5v-15c19.1-2.5 34.2-17.8 36.3-37.1h15.8c3 0 5.5-2.5 5.5-5.5s-2.5-5.5-5.5-5.5zm-52.1 35.3v-13.4c0-3-2.5-5.5-5.5-5.5s-5.5 2.5-5.5 5.5v13.4c-12.2-2.3-21.7-12-23.6-24.3h12.6c3 0 5.5-2.5 5.5-5.5s-2.5-5.5-5.5-5.5H670c2.5-11.4 11.7-20.3 23.2-22.5v11.5c0 3 2.5 5.5 5.5 5.5s5.5-2.5 5.5-5.5V82.9c11.5 2.2 20.7 11.1 23.2 22.5h-12.3c-3 0-5.5 2.5-5.5 5.5s2.5 5.5 5.5 5.5h12.6c-1.7 12.2-11.2 21.9-23.4 24.2zM820 1958.1v31.4c4.4-.8 8.1-2.6 10.8-5.6 2.8-3 4.2-6.5 4.2-10.5 0-3.6-1.2-6.7-3.5-9.3-2.4-2.6-6.2-4.6-11.5-6zm-21.3-48.8c-2.1 2.6-3.1 5.4-3.1 8.5 0 2.8.9 5.5 2.8 7.9 1.9 2.4 4.8 4.4 8.6 5.9v-27.9c-3.4 1.2-6.2 3-8.3 5.6zm14.6-62.3c-56.2 0-101.8 45.6-101.8 101.8 0 30.4 13.3 57.7 34.5 76.4a72.92 72.92 0 0 1-20.6 16.1c-3.1 1.6-6.2 3-9.4 4.1 19.7 9.6 43.5 10.3 64.5-.2 10.3 3.5 21.3 5.4 32.8 5.4 56.2 0 101.8-45.6 101.8-101.8S869.5 1847 813.3 1847zm33.7 148.1c-6.5 6.7-15.5 10.7-27.1 12.2v15.1H807v-14.7c-10.3-1.1-18.6-4.6-25-10.4-6.4-5.8-10.5-14-12.3-24.6l23.2-2.3c.9 4.3 2.7 8 5.3 11.1 2.6 3.1 5.5 5.4 8.7 6.8v-33.7c-11.6-3-20.1-7.6-25.6-13.7-5.4-6.1-8.1-13.5-8.1-22.2 0-8.8 3.1-16.2 9.2-22.2s14.3-9.4 24.5-10.4v-8H820v8c9.4 1 16.9 3.9 22.5 8.7 5.6 4.8 9.1 11.2 10.7 19.3l-22.5 2.7c-1.4-6.3-4.9-10.6-10.7-12.9v31.5c14.2 3.5 23.9 8 29.1 13.6 5.2 5.6 7.7 12.7 7.7 21.4 0 9.8-3.3 18-9.8 24.7z"/><path fill="#439EB5" d="M1303.9 1528.7c-1.9-.5-3.9-1-5.9-1.4-4-.8-7.9-1.5-11.8-2l-.8 6.6c-1 7-6.5 11.9-12.3 11.8-1.3-.1-2.6 0-3.9 0-5.9 0-11.3-5-12.2-12l-.7-6.6c-6 .7-11.9 1.8-17.7 3.3l1.6 6.5c1.6 6.8-1.7 13.5-7.2 15.6l-3.6 1.4c-5.4 2.3-12.4-.5-15.7-6.6l-3.1-5.9c-5.3 2.8-10.4 6-15.3 9.5l3.8 5.4c4 5.8 3.2 13.3-1.2 17.2l-2.9 2.6c-4.3 4.1-11.7 4.1-17-.5l-5-4.4c-3.9 4.5-7.6 9.4-10.9 14.5l5.5 3.7c5.8 4 7.7 11.1 5 16.4-.6 1.1-1.2 2.3-1.8 3.5-2.6 5.3-9.5 8.1-16 5.8l-6.2-2.3c-2 5.6-3.7 11.5-5 17.5l6.4 1.4c6.8 1.6 11.2 7.6 10.6 13.5-.2 1.3-.3 2.6-.4 3.9-.5 5.9-6 11-12.9 11.2l-6.6.1c.1 6.1.7 12.2 1.6 18.1l6.5-1.1c6.9-1 13.1 3 14.7 8.7.3 1.3.6 2.5 1 3.8 1.7 5.7-1.6 12.4-8 15.2l-6.1 2.5c2.3 5.6 5 11.1 8 16.3l5.7-3.4c6.1-3.4 13.4-2 16.8 2.8l2.3 3.1c3.6 4.7 2.9 12.1-2.1 17.1l-4.8 4.6c4.1 4.4 8.5 8.5 13.3 12.3l4.1-5.2c4.4-5.4 11.7-6.7 16.7-3.5 1.1.8 2.2 1.4 3.3 2.1 5 3.1 7 10.3 4.2 16.7l-2.8 6c5.4 2.6 11 4.8 16.8 6.6l2-6.4c2.2-6.7 8.5-10.6 14.3-9.4l3.8.7c5.8 1 10.3 7 9.9 14l-.5 6.6c6.1.5 12.1.5 18 .1l-.4-6.7c-.3-7 4.2-12.9 9.9-13.9 1.3-.2 2.6-.4 3.8-.7 5.8-1.1 12.1 2.8 14.2 9.5l1.9 6.4c5.8-1.8 11.4-4 16.8-6.5l-2.8-6c-2.8-6.4-.8-13.6 4.3-16.6l3.3-2.1c5-3.2 12.3-1.8 16.7 3.7l4.1 5.2c4.7-3.7 9.2-7.8 13.4-12.2l-4.8-4.6c-4.9-4.9-5.5-12.4-1.9-17.1.9-1 1.6-2.1 2.3-3.1 3.5-4.8 10.8-6.1 16.8-2.7l5.7 3.4c3-5.2 5.7-10.6 8.1-16.2l-6.1-2.6c-6.4-2.8-9.6-9.5-7.9-15.2l1.1-3.8c1.5-5.8 7.8-9.7 14.7-8.7l6.5 1.1c1-6.1 1.6-12.1 1.7-18.1l-6.6-.2c-7-.3-12.4-5.4-12.8-11.3l-.3-3.9c-.6-5.9 3.9-11.9 10.6-13.4l6.5-1.4c-1.2-6-2.9-11.8-4.9-17.5l-6.2 2.2c-6.6 2.2-13.5-.5-16-5.9l-1.7-3.5c-2.7-5.3-.7-12.5 5.1-16.4l5.5-3.6c-3.3-5.1-6.9-10-10.8-14.6l-5 4.3c-5.3 4.5-12.8 4.5-17 .3-.9-.9-1.9-1.7-2.9-2.6-4.4-4-5-11.4-1-17.2l3.8-5.4c-4.8-3.5-9.9-6.8-15.3-9.6l-3.1 5.9c-3.4 6.1-10.3 8.8-15.7 6.6-1.2-.5-2.4-1-3.6-1.4-5.5-2.1-8.8-8.8-7.2-15.6l1.7-6.3zm-3 133.3c-3.6 16.8-20 27.5-36.6 23.9-16.6-3.6-27.2-20.1-23.7-36.9 3.6-16.8 20-27.5 36.6-23.9 16.7 3.5 27.3 20.1 23.7 36.9z"/><path fill="#006B93" d="M207.4 2755.8V2885c0 14.4 5.6 28 15.8 38.2 10.2 10.2 23.7 15.9 38.1 15.9H414c15.7 20.5 38.2 33 62.1 36.5-3.3-3.4-6.3-7.1-9.1-11.1-9-12.8-14.5-27-16.6-41.5 10-10.2 15.5-23.6 15.5-37.9v-129.2c0-14.4-5.6-28-15.9-38.3-10.2-10.2-23.8-15.8-38.3-15.8H261.5c-14.5 0-28.1 5.6-38.3 15.8-10.2 10.2-15.8 23.8-15.8 38.2zm37.7 117v-58.9c0-5.6 2.5-10.7 6.7-14.5.7-1.5 45.3-46.4 45.3-46.4 5.3-5.3 13.5-5.6 18.4-.8 4.9 4.8 4.6 13-.7 18.3l-22.2 21.9h118.9c5.7 0 10.3 4.7 10.3 10.6 0 5.9-4.6 10.7-10.3 10.7h-62.4v8.1h71.3c6.1 0 11 5.1 11.1 11.3 0 6.3-4.9 11.4-11 11.4l-71.3.1v7.6h60.6c5.4 0 9.8 4.4 9.8 10s-4.4 10.4-9.8 10.4h-60.6c0 2-.3 3.8-.9 5.6h42.3c4.2 0 7.5 3.5 7.5 7.7 0 4.3-3.4 7.8-7.5 7.8H270c-13.7 0-24.9-9.2-24.9-20.9zm2218-2369.9l21.7-23.4c.7 3 2.2 5.7 4.6 7.8 7.1 6.3 19.1 4.2 26.8-4.5 7.7-8.8 8.1-20.9 1-27.2-2-1.8-4.4-2.9-7-3.3l21.1-22.7-25.7-23.9c.1 4.4-1.4 8.5-4.4 11.5-6.8 6.6-18.9 5.2-27-3.1-8.1-8.3-9.2-20.5-2.4-27.1 2.5-2.5 5.8-3.8 9.4-4.1l-23.1-21.5-2.7-2.5-18.9 20.3c-.8-2.3-2.1-4.4-3.9-6-7-6.4-19-4.7-26.9 3.8-7.9 8.6-8.6 20.7-1.6 27.2 1.8 1.6 3.9 2.7 6.1 3.3l-8.1 8.7-14.9 16 2.7 2.5 20.5 19.1 1.6 1.5c-3 .5-5.7 1.7-7.9 3.8-6.9 6.5-5.9 18.7 2.1 27.1 8 8.4 20.1 10 27 3.5 2.9-2.7 4.4-6.5 4.6-10.5l22.8 21.2 2.5 2.5zm-612.8-141.1c-48.3 0-87.6 39.3-87.6 87.6s39.3 87.6 87.6 87.6 87.6-39.3 87.6-87.6c.1-48.3-39.3-87.6-87.6-87.6zm0 160.8c-40.4 0-73.2-32.8-73.2-73.2s32.8-73.2 73.2-73.2 73.2 32.8 73.2 73.2-32.8 73.2-73.2 73.2zm0-123.6c1.9 0 3.4-1.5 3.4-3.4v-12.7c0-1.9-1.5-3.4-3.4-3.4s-3.4 1.5-3.4 3.4v12.7c0 1.9 1.5 3.4 3.4 3.4zm0 100.8c-1.9 0-3.4 1.5-3.4 3.4v12.7c0 1.9 1.5 3.4 3.4 3.4s3.4-1.5 3.4-3.4v-12.7c.1-1.9-1.5-3.4-3.4-3.4zm66.5-53.9h-12.7c-1.9 0-3.4 1.5-3.4 3.4s1.5 3.4 3.4 3.4h12.7c1.9 0 3.4-1.5 3.4-3.4 0-1.8-1.5-3.4-3.4-3.4zm-120.3 0h-12.7c-1.9 0-3.4 1.5-3.4 3.4s1.5 3.4 3.4 3.4h12.7c1.9 0 3.4-1.5 3.4-3.4.1-1.8-1.5-3.4-3.4-3.4zm72.9-21.9l-16.7 16.7c-.8-.2-1.5-.3-2.4-.3-1.1 0-2.1.2-3.1.5l-34.8-34.8c-1.7-1.7-4.3-1.7-6 0-1.7 1.7-1.7 4.3 0 6l35.1 35.1c-.2.7-.3 1.4-.3 2.1 0 1.9.6 3.7 1.7 5.2l-33.6 33.4c-.7.7-.7 1.9 0 2.7.7.7 1.9.7 2.7 0l33.7-33.5c1.3.8 2.9 1.2 4.5 1.2 4.9 0 9-4 9-9 0-.6-.1-1.3-.2-1.9l16.9-16.9c1.8-1.8 1.8-4.8 0-6.6-1.7-1.7-4.7-1.7-6.5.1zm-19.1 29.3c-2.2 0-3.9-1.8-3.9-3.9 0-2.2 1.8-3.9 3.9-3.9s3.9 1.8 3.9 3.9c0 2.1-1.7 3.9-3.9 3.9z"/><path fill="#439EB5" d="M1255.2 2764.1l-86.4 114.1h35.1v102.3h102.6v-102.3h35.1z"/><path fill="#006B93" d="M3328.7 186.8l-30 26.5h-31.8l22-19.5h-63.4v-14.1h63.4l-22-19.5h31.8z"/><path d="M245.674 1750.962l-8.273-8.273 8.21-8.21 8.28 8.27zm24.707 24.663l8.21-8.202 8.28 8.273-8.2 8.202zm8.42-24.825l8-8-8.4-8.4-8 8-8.1-8.1-8.4 8.4 8.1 8.1-24.6 24.7 8.4 8.4 24.6-24.7 8.2 8.2 8.4-8.4z" fill="#00506F"/><path fill="#439EB5" d="M917.8 1668.5l18.6 10.7 18.6 10.7v-18.3h21.4v-6.2H955V1647l-18.6 10.7z"/><path d="M1699.7 2014.8l35.3-20.4-35.3-20.4zm60.6 0l35.3-20.4-35.3-20.4zm60.5-40.8v40.8l35.4-20.4z" fill="#006B93"/><path fill="#439EB5" d="M667 712.6V763h-50.4c0 27.9 22.6 50.4 50.4 50.4 27.8 0 50.4-22.6 50.4-50.4 0-27.9-22.6-50.4-50.4-50.4z"/><path fill="#006B93" d="M655.4 701c-27.8 0-50.4 22.6-50.4 50.5h50.4V701z"/><path fill="#439EB5" d="M941 228.3c-37.8-45-104.9-50.9-149.9-13.1S740.2 320.1 778 365.1s104.9 50.9 149.9 13.1c45-37.7 50.8-104.9 13.1-149.9zm-12.6 10.6l-32 26.9c-10.1-12.2-26.4-18.7-42.2-16.9l-4.5-41.6c29.3-3.5 59.9 8.8 78.7 31.6zM770 306.5c-3.5-29.3 8.8-59.9 31.6-78.7l26.9 32c-12.2 10.1-18.7 26.4-16.9 42.2l-41.6 4.5zm20.5 48.1l32-26.9c10.1 12.2 26.4 18.7 42.2 16.9l4.5 41.6c-29.2 3.4-59.9-8.9-78.7-31.6zm89.5-33.4c-13.5 11.3-33.6 9.6-45-3.9-11.3-13.5-9.6-33.6 3.9-45 13.5-11.3 33.6-9.6 45 3.9 11.3 13.5 9.6 33.6-3.9 45zm37.3 44.4l-26.9-32c12.2-10.1 18.7-26.4 16.9-42.2l41.6-4.5c3.5 29.3-8.8 60-31.6 78.7z"/><path fill="#006B93" d="M2334.4 398.6l-20.6-32c3.7 0 7.3-.9 10.3-3 9.3-6.4 10.5-20.9 2.6-32.3-7.9-11.4-21.8-15.5-31.2-9.1-2.6 1.8-4.6 4.3-5.9 7.1l-20-31-35.2 22.7c5.1 1.2 9.4 4.1 12 8.5 5.7 9.8.5 23.4-11.5 30.3-12 7-26.4 4.7-32.1-5.1-2.1-3.7-2.7-7.9-2-12.1l-31.7 20.4-3.7 2.4 18 27.8c-2.9.2-5.7 1.1-8.1 2.7-9.5 6.2-11 20.6-3.5 32.3 7.6 11.6 21.4 16.1 30.9 9.9 2.4-1.6 4.3-3.7 5.7-6.1l7.7 11.9 14.2 21.9 3.7-2.4 28.1-18.1 2.2-1.4c-.3 3.6.3 7.1 2.1 10.3 5.5 9.9 19.9 12.4 32 5.6 12.1-6.8 17.5-20.3 11.9-30.2-2.3-4.1-6.2-7-10.8-8.4l31.2-20.1 3.7-2.5zm-573.1 897.8l10.9.1 8.7-.1 34-46.9-34-47h-19.6l34.1 47zm-4.4-46.9l-34.1 47h19.6l34-47-34-47h-19.6z"/><path fill="#00334D" d="M1495.4 1118.4c-67-51.8-163.4-39.5-215.2 27.5-51.8 67-39.5 163.4 27.5 215.2 67 51.8 163.4 39.5 215.2-27.5 51.9-67 39.5-163.4-27.5-215.2zm-18.7 18.4l-18 20.5-35 39.9c-8.2-4.3-17.2-6-25.9-5.3l-16.6-50.4-8.5-25.9c35-8.1 73-1.5 104 21.2zm-176 25c13.7-17.7 31.1-30.8 50.3-39.1l8.5 25.9 16.6 50.4c-4.7 2.9-9 6.7-12.6 11.4-2.6 3.4-4.8 7.1-6.3 10.9l-52.4-8.2-26.9-4.2c4.1-16.7 11.7-32.7 22.8-47.1zm-26.4 69.7l26.9 4.2 52.4 8.2c.7 8.3 3.6 16.4 8.5 23.5l-35 39.9-18 20.5c-25-26.5-37-61.6-34.8-96.3zm52.1 111.2l18-20.5 35-39.9c8.1 4.3 17.2 6 25.9 5.3l16.6 50.4 8.5 25.9c-34.9 8.1-73 1.5-104-21.2zm176-25c-13.7 17.7-31.1 30.8-50.3 39.1l-8.5-25.9-16.6-50.4c4.7-2.9 9-6.7 12.6-11.4 2.7-3.4 4.8-7.1 6.4-10.9l52.4 8.2 26.9 4.2c-4.1 16.6-11.7 32.7-22.9 47.1zm-.5-73.9l-52.4-8.2c-.7-8.3-3.6-16.4-8.5-23.5l35-39.9 18-20.5c25.1 26.3 37.1 61.4 34.9 96.2l-27-4.1z"/><path fill="#F26522" d="M2290.2 1090.9h147.4v215.4h-147.4z"/><path fill="#005977" d="M2490 992.2h147.4v314.1H2490zm199.8-164.8h147.4v478.9h-147.4zm199.7-231.7h147.4v710.7h-147.4z"/><path fill="#009CAF" d="M2587.7 1042.9l8.2-14.5-9.4-5.3-8.4 14.9c-14.9-5.5-29-1-36 11.4-7.4 13-1.9 25.3 9.9 39.9 8.5 10.7 11.5 19.1 6.8 27.3-4.8 8.5-15.5 10.6-26.1 4.6-8.4-4.7-14.4-12.1-17.7-18.5l-9.2 8c3.1 6.7 10.4 14.4 19 19.4l-8.5 14.9 9.4 5.3 8.8-15.5c16.7 6.3 31.2-.1 38-12 7.5-13.3 4.1-25.3-7.8-40.3-9.9-12.9-13.2-19.9-8.9-27.5 3.5-6.1 11.7-10.5 23.2-4 9.6 5.4 13.7 12.3 15.9 15.9l9.3-7.7c-3.1-5.1-7.8-11-16.5-16.3z"/><path d="M1049.4 1328.1c0 12.6-9.7 22.9-22 23.8v166.9c12.3 1 22 11.2 22 23.8 0 12.6-9.7 22.9-22 23.8v19.3c12.3 1 22 11.2 22 23.8 0 13.2-10.7 23.9-23.9 23.9-12.6 0-22.9-9.7-23.8-22H737.3c-.9 12-10.4 21.6-22.4 22.5v90c10 1.8 17.6 10.3 18.2 20.7h36.6c.6-11.7 10.3-21.1 22.2-21.1 11.9 0 21.6 9.3 22.2 21.1h190.4c.6-11.3 9.7-20.4 21-21v-27.1c-12-.7-21.5-10.6-21.5-22.7 0-12.6 10.2-22.7 22.7-22.7 12.1 0 22.1 9.5 22.7 21.5h13.2c.3-13 10.8-23.4 23.9-23.4 13.2 0 23.9 10.7 23.9 23.9 0 12.6-9.7 22.9-22 23.8v103.9c12.3 1 22 11.2 22 23.8 0 12.6-9.7 22.9-22 23.8v19.3c12.3 1 22 11.2 22 23.8 0 13.2-10.7 23.9-23.9 23.9-12.6 0-22.9-9.7-23.8-22H980c-.9 12-10.4 21.6-22.4 22.5v90c10 1.8 17.6 10.3 18.2 20.7h26c.6-11.7 10.3-21.1 22.2-21.1 11.9 0 21.6 9.3 22.2 21.1h19.8c.6-11.3 9.7-20.4 21-21v-27.1c-12-.7-21.5-10.6-21.5-22.7 0-12.6 10.2-22.7 22.7-22.7 12.1 0 22.1 9.5 22.7 21.5h96.6v3h-96.6c-.9 11.2-9.8 20.1-21 20.9v27.2c11.5.9 20.5 10.5 20.5 22.2 0 12.3-10 22.3-22.3 22.3-11.7 0-21.3-9-22.2-20.5H1046c-.9 11.5-10.5 20.5-22.2 20.5s-21.3-9-22.2-20.5h-26.1c-.9 11.5-10.5 20.5-22.2 20.5-12.3 0-22.3-10-22.3-22.3s10-22.3 22.3-22.3h.8V1916c-12.8-.7-23.1-11.3-23.1-24.4 0-13.5 10.9-24.4 24.4-24.4 13 0 23.6 10.2 24.4 23h82.8c.7-12.2 10.4-21.9 22.6-22.6v-19.2c-12.6-.7-22.6-11.1-22.6-23.9 0-12.8 10-23.2 22.6-23.9v-103.8c-11.7-.6-21.2-9.7-22.4-21.3h-13.4c-.9 11.2-9.8 20.1-21 20.9v27.2c11.5.9 20.5 10.5 20.5 22.2 0 12.3-10 22.3-22.3 22.3-11.7 0-21.3-9-22.2-20.5H814.1c-.9 11.5-10.5 20.5-22.2 20.5s-21.3-9-22.2-20.5h-36.6c-.9 11.5-10.5 20.5-22.2 20.5-12.3 0-22.3-10-22.3-22.3s10-22.3 22.3-22.3h.8V1634c-12.8-.7-23.1-11.3-23.1-24.4 0-13.5 10.9-24.4 24.4-24.4 13 0 23.6 10.2 24.4 23h264.3c.7-12.2 10.4-21.9 22.6-22.6v-19.2c-12.6-.7-22.6-11.1-22.6-23.9 0-12.8 10-23.2 22.6-23.9V1352c-12.6-.7-22.6-11.1-22.6-23.9 0-13.2 10.7-23.9 23.9-23.9 13.1 0 23.8 10.7 23.8 23.9zm2100.2 569c0-12.8 10-23.2 22.6-23.9v-184.1c-12.6-.7-22.6-11.1-22.6-23.9 0-12.8 10-23.2 22.6-23.9v-233.8c-12.2-.7-21.9-10.4-22.6-22.6h-148.8c-.7 12.8-11.3 23-24.4 23-13.5 0-24.4-10.9-24.4-24.4 0-13 10.2-23.7 23.1-24.4V1140h-.8c-12.3 0-22.3-10-22.3-22.3s10-22.3 22.3-22.3c11.7 0 21.3 9 22.2 20.5h102.7c.9-11.5 10.5-20.5 22.2-20.5s21.3 9 22.2 20.5h47.4c.9-11.5 10.5-20.5 22.2-20.5 12.3 0 22.3 10 22.3 22.3 0 11.7-9 21.3-20.5 22.2v27.2c11.2.8 20.1 9.7 21 20.9h96.6v3H3236c-.6 12-10.6 21.5-22.7 21.5-12.6 0-22.7-10.2-22.7-22.7 0-12.1 9.5-22 21.5-22.7V1140c-11.3-.6-20.4-9.7-21-21h-47.3c-.6 11.7-10.3 21.1-22.2 21.1s-21.6-9.3-22.2-21.1h-102.6c-.6 10.4-8.2 18.9-18.2 20.7v219.8c12 .9 21.5 10.5 22.4 22.5h148.9c1-12.3 11.2-22 23.8-22 13.2 0 23.9 10.7 23.9 23.9 0 12.6-9.7 22.9-22 23.8v233.9c12.3 1 22 11.2 22 23.8 0 12.6-9.7 22.9-22 23.8v184.2c12.3 1 22 11.2 22 23.8 0 13.2-10.7 23.9-23.9 23.9-13.4-.1-24.1-10.8-24.1-24z"/><path fill="#F26522" d="M2769.7 955.3l20.9 33.1-67.3 42.6 23.6 37.5 67.3-42.5 20.9 33.1L2963 906z"/><path fill="#F7941E" d="M2754.9 1256.7l-48.8 73.6 34.4 6.4-14.6 77.7 66.3 12.5 14.6-77.7 34.4 6.4-18.8-86.2-18.7-86.2z"/><g fill="#F26522"><path d="M2801.2 1314.6c10.8-10.8 10.8-28.3 0-39.1s-28.3-10.8-39.1 0-10.8 28.3 0 39.1c10.7 10.8 28.3 10.8 39.1 0zm-34-34c8-8 20.9-8 28.8 0 8 8 8 20.9 0 28.8s-20.9 8-28.8 0c-8-7.9-8-20.8 0-28.8z"/><circle cx="2781.6" cy="1295.1" r="10.3"/></g><path d="M813.717 1333.398l6.7-3.144 5.35 11.407-6.698 3.15zM728.06 1150.99l6.7-3.143 5.354 11.407-6.7 3.144zm10.6 22.858l6.608-3.1 5.35 11.408-6.61 3.1zm96.453 205.157l6.7-3.142 5.35 11.408-6.7 3.15zm-32.152-68.284l6.71-3.14 5.35 11.41-6.7 3.14zm-10.7-22.92l6.61-3.1 5.35 11.41-6.61 3.1zm-36.16-94.4l-6.7 3.2 5.4 11.4 6.6-3.1zm68.27 162.87l6.7-3.14 5.35 11.41-6.7 3.15zm-42.8-91.14l6.61-3.1 5.35 11.41-6.61 3.1zm-21.43-45.73l6.7-3.14 5.36 11.4-6.7 3.15zm10.8 22.77l6.61-3.1 5.35 11.41-6.61 3.11zM724.6 1126.3c3.7-4 4.9-10 2.4-15.3-3.2-6.9-11.5-9.9-18.4-6.6-6.9 3.2-9.9 11.5-6.6 18.4 2.9 6.2 9.9 9.2 16.3 7.4l4.4 9.4 6.7-3.1-4.8-10.2zm-430.152 189.334l-2.674-5.704 11.408-5.35 2.674 5.705zm22.803-10.706l-2.67-5.703 11.41-5.35 2.68 5.702zm22.94-10.734l-2.67-5.703 11.41-5.35 2.68 5.71zm22.83-10.61l-2.67-5.703 11.41-5.35 2.68 5.71zm22.67-10.813l-2.67-5.7 11.41-5.35 2.68 5.7zm-136.87 64.29l-2.67-5.7 11.41-5.35 2.68 5.71zm22.89-10.72l-2.67-5.7 11.41-5.35 2.68 5.7zm-91.31 42.84l-2.67-5.7 11.41-5.34 2.67 5.71zm20.12-16.47l2.7 5.7 11.4-5.3-2.6-5.7zm230.94-101.28l-2.67-5.7 11.41-5.35 2.68 5.71zM226 1347.73l-2.675-5.703 11.41-5.35 2.673 5.707zm182.652-85.6l-2.674-5.704 11.41-5.347 2.675 5.7zm182.48-85.666l-2.674-5.704 11.41-5.35 2.675 5.7zm22.88-10.66l-2.673-5.705 11.41-5.35 2.67 5.71zm-45.77 21.386l-2.675-5.708 11.407-5.354 2.68 5.71zm114.2-53.54l-2.676-5.71 11.408-5.35 2.68 5.705zm-45.61 21.463l-2.674-5.706 11.408-5.35 2.676 5.705zm22.818-10.768l-2.673-5.704 11.41-5.34 2.674 5.71zm-159.784 74.945l-2.675-5.705 11.41-5.35 2.68 5.707zm-22.83 10.76l-2.675-5.706 11.41-5.35 2.68 5.7zm68.41-32.18l-2.675-5.706 11.41-5.35 2.68 5.7zm-22.842 10.685l-2.673-5.7 11.41-5.35 2.68 5.703zm-68.354 32.16l-2.676-5.7 11.4-5.354 2.68 5.7zM159.2 1360c-7 3.3-9.9 11.5-6.7 18.5 3.3 7 11.5 10 18.5 6.7s10-11.5 6.7-18.5-11.6-10-18.5-6.7zm723.8 57.9c-5.5-9.3-16.5-13.2-26.4-10.1l-4.3-9.1-6.7 3.1 4.4 9.3c-9.2 6.8-12 19.6-6 29.7 6.3 10.8 20.2 14.3 31 8 10.8-6.3 14.4-20.1 8-30.9z" fill="#273D56"/><path fill="#1997A4" d="M2963.4 649.9c0 14.3-9 21.7-18.9 21.7-10.4 0-18.6-7.8-18.6-20.6 0-12.2 7.4-21.4 19.1-21.4 11.8.1 18.4 8.7 18.4 20.3zm-25.6.8c0 7.1 2.4 12.3 7 12.3 4.5 0 6.7-4.6 6.7-12.3 0-6.9-1.9-12.3-6.8-12.3-4.7 0-6.9 5.5-6.9 12.3zm7.6 49.5l39.1-70.5h8.6l-39.2 70.5h-8.5zm67.1-21.9c0 14.3-9 21.7-18.9 21.7-10.3 0-18.5-7.8-18.6-20.6 0-12.2 7.4-21.4 19.1-21.4 11.8 0 18.4 8.6 18.4 20.3zm-25.5.7c-.1 7.1 2.3 12.3 6.9 12.3 4.5 0 6.7-4.6 6.7-12.3 0-6.9-1.8-12.3-6.7-12.3-4.8 0-6.9 5.5-6.9 12.3z"/><path fill="#00789B" d="M2793.8 864.7h-22.6v-22.6h-15.7v22.6h-22.6v15.7h22.6V903h15.7v-22.6h22.6z"/><path d="M2359.1 1214.6h8.3v8.3h-8.3zm-7.5-39.2h7.6v7.6h8.3v-7.6h7.6v-8.2h7.6v-8.3H2344v8.3h7.6zm-40.4-40.1h8v40.5h8.2v7.6h8.1v7.6h8.1v15.9h-8.4v7.6h-8.1v8.3h-7.9v40.8h-8v24h104.2v-24h-8v-40.9h-7.8v-8.2h-8.1v-7.6h-8.3v-16.3h8.2v-7.6h8.1v-8h7.9v-39.7h8v-24h-104.2v24zm16.3 0h71.6v32.5h-7.9v7.6h-8.1v7.7h-8.2v7.7h-8.3v15.2h8.3v8h8.3v8.1h8.1v7.6h7.8v33.9h-8v-8.2h-8.6v-7.8h-7.5v-8.3h-7.6v-7.6h-8.3v7.6h-7.6v8.3h-7.5v7.8h-7.9v8.2h-8.5v-33.9h7.9v-7.6h8.2v-7.7h8.4v-8.4h8.2v-15.2h-8.2v-7.3h-8.2v-7.7h-8.1v-7.6h-8.2v-32.9z" fill="#F7941E"/><path fill="#006B93" d="M2943.4 798.1h-15.2V813h30.6v43.5h-14.4v14.9h29.3V842h14.7v-14.6h14.5v14.3h14.9V724.3H3003V739h-14.9v14.7h-14.9v14.7h-14.9v14.7h-14.9v15zm14.9-14.7h14.9v-14.7h14.9V754h14.9v58.6h-29.5v-14.4h-15.1v-14.8z"/><path fill="#00334D" d="M3356.5 2636.9c-5.8-4.1-11.7-8-17.7-11.7 6.8-15.6 10.6-32.8 10.6-50.9v-3.3c7-1.2 13.9-2.6 20.9-4.2-.5-10.7-2.2-21.3-5.1-31.7-7.1.6-14.2 1.3-21.2 2.3-5.5-18.1-14.8-34.4-27.2-48.2 4.5-5.4 9-10.9 13.2-16.5-7.4-7.8-15.6-14.9-24.5-21-5.1 4.9-10 10-14.8 15.2-15.4-10-33.1-16.9-52.1-19.7 0-7-.2-14-.6-21-10.8-1.3-21.6-1.5-32.4-.5-.7 7-1.1 14-1.4 21-19.2 2.2-37.1 8.5-52.8 18-4.6-5.3-9.3-10.6-14.1-15.7-9.1 5.8-17.6 12.6-25.2 20.2 4.1 5.8 8.3 11.4 12.6 17-12.8 13.4-22.7 29.5-28.7 47.3-7-1.2-14-2.2-21.1-3.1-3.2 10.3-5.2 20.8-6.1 31.5 6.9 1.8 13.8 3.5 20.7 5-.1 2.5-.2 5-.2 7.5 0 16.6 3.2 32.5 9 47-6.1 3.5-12.2 7.2-18.1 11 4.2 9.9 9.5 19.3 15.8 28 6.5-3 12.8-6.1 19.1-9.3 11.2 14.9 25.6 27.2 42.2 36.2-2.4 6.6-4.7 13.2-6.8 20 9.7 4.9 19.8 8.7 30.3 11.5 3-6.4 5.9-12.8 8.6-19.3 9.6 2.2 19.7 3.4 30 3.4 8.9 0 17.5-.9 25.8-2.5 2.4 6.6 5 13.1 7.8 19.6 10.6-2.4 20.9-5.9 30.7-10.5-1.8-6.8-3.8-13.5-6-20.2 16.9-8.4 31.7-20.3 43.3-34.8 6.1 3.5 12.4 6.8 18.7 10 6.6-8.7 12.2-17.9 16.8-27.6zm-137 30.3c-52.4 0-94.8-42.5-94.8-94.8 0-52.4 42.5-94.8 94.8-94.8 52.4 0 94.8 42.5 94.8 94.8 0 52.4-42.4 94.8-94.8 94.8zm167.3 185.5c-3.6-2.5-7.3-4.9-11-7.3 4.2-9.7 6.6-20.4 6.6-31.6v-2c4.3-.8 8.6-1.6 12.9-2.6-.3-6.6-1.4-13.2-3.2-19.6-4.4.4-8.8.8-13.1 1.4-3.4-11.2-9.2-21.4-16.8-29.9 2.8-3.3 5.6-6.7 8.2-10.2-4.6-4.9-9.7-9.2-15.2-13-3.1 3.1-6.2 6.2-9.1 9.4-9.6-6.2-20.5-10.5-32.3-12.2 0-4.3-.1-8.7-.4-13-6.7-.8-13.4-.9-20.1-.3-.4 4.3-.7 8.7-.9 13-11.9 1.4-23 5.3-32.7 11.2-2.8-3.3-5.8-6.6-8.8-9.8-5.6 3.6-10.9 7.8-15.6 12.5 2.5 3.6 5.1 7.1 7.8 10.5-7.9 8.3-14.1 18.3-17.8 29.3-4.3-.7-8.7-1.4-13.1-1.9-2 6.4-3.3 12.9-3.8 19.5 4.3 1.1 8.5 2.2 12.8 3.1-.1 1.5-.1 3.1-.1 4.6 0 10.3 2 20.1 5.6 29.2-3.8 2.2-7.5 4.5-11.2 6.8 2.6 6.1 5.9 12 9.8 17.4 4-1.8 8-3.8 11.8-5.8 7 9.2 15.9 16.9 26.2 22.4-1.5 4.1-2.9 8.2-4.2 12.4 6 3 12.3 5.4 18.8 7.1 1.9-3.9 3.7-7.9 5.3-12 6 1.4 12.2 2.1 18.6 2.1 5.5 0 10.8-.5 16-1.6 1.5 4.1 3.1 8.1 4.8 12.1 6.6-1.5 13-3.7 19-6.5-1.1-4.2-2.4-8.4-3.7-12.5 10.5-5.2 19.6-12.6 26.9-21.6 3.8 2.2 7.7 4.2 11.6 6.2 4.1-5 7.5-10.8 10.4-16.8zm-85 18.8c-32.5 0-58.8-26.3-58.8-58.8s26.3-58.8 58.8-58.8 58.8 26.3 58.8 58.8-26.3 58.8-58.8 58.8z"/><path fill="#008FAF" d="M1141.3 437.2s-76.7 112.1-76.7 154.5c0 42.4 34.4 76.7 76.7 76.7 42.4 0 76.7-34.4 76.7-76.7.1-42.5-76.7-154.5-76.7-154.5z"/><path fill="#FAA61A" d="M2184.4 1223.6h-21.9v-21.9c0-4.3-3.5-7.7-7.7-7.7-4.3 0-7.7 3.5-7.7 7.7v21.9h-21.9c-4.3 0-7.7 3.5-7.7 7.7 0 4.3 3.5 7.7 7.7 7.7h21.9v21.9c0 4.3 3.5 7.7 7.7 7.7 4.3 0 7.7-3.5 7.7-7.7V1239h21.9c4.3 0 7.7-3.5 7.7-7.7 0-4.3-3.5-7.7-7.7-7.7z"/></svg>