<svg xmlns="http://www.w3.org/2000/svg" viewBox="-255 347 100 100"><path fill="#EFC75E" d="M-205 347c27.6 0 50 22.4 50 50s-22.4 50-50 50-50-22.4-50-50 22.4-50 50-50z"/><path fill="#D7B354" d="M-250.4 418h19.4v-43l-24 24c.3 6.7 1.9 13.2 4.6 19z"/><path fill="#923604" d="M-247.1 424c8.9 13.8 24.4 23 42.1 23s33.2-9.2 42.1-23h-84.2z"/><path fill="#7B2B00" d="M-162.9 424H-247c.7 1 1.3 2 2.1 3h80c.6-1 1.3-2 2-3z"/><path fill="#9B481A" d="M-194.2 439.4c1.5-.9 2.2-1.3 1.7-3.2-.9-3.7.3-8.8 1.4-12.1h-2c-1.1 3.6-2.3 9.2-.8 11.2.3.4.2.9-.2 1.2-.4.3-.9.2-1.2-.2-2-2.6-.7-8.7.4-12.2h-.9c-.7 2.5-1.8 6.8-2.3 12.2-.6 6.5-1.3 9.5-4.4 10.8 1.3-.1 2.6-.2 3.9-.4.3-4.9 2.7-6.3 4.4-7.3zm6.4-15.4h-1.5c-1 3.1-2.4 8.3-1.5 11.7.8 3.2-.9 4.2-2.5 5.1-1.6.9-3.3 1.9-3.6 5.6.8-.1 1.6-.3 2.4-.5.2-1 .6-1.8 1.2-2.6 1.7-2 4-2.4 6.3-1.2.5.2.9.6 1.4.9.7-.3 1.3-.6 1.9-.9-.7-.8-1.4-1.7-2.2-2.5-5-5.3-3.6-11.6-1.9-15.6zm-4.2 20.5c-.3.3-.4.7-.6 1 1.8-.5 3.5-1 5.2-1.6l-.3-.2c-1.7-.9-3.1-.6-4.3.8zm24.7-14.8l1.8-2.2c.1-1.1.3-2.3.6-3.5h-1.9c.1 1.5 0 3.5-.5 5.7zm-32.5 6.4c.5-5.3 1.5-9.5 2.2-12.1h-2.2c-.4 3.2-1.8 8.8-7 11.7-3.8 2.1-5.1 5.5-4.4 7.8.5 1.7 1.9 2.6 4 2.6 5.9-.2 6.7-1.2 7.4-10zm30.3-12.1c.1.7.1 1.4.1 2.2 0 3.5-1.2 7.8-6.1 10.7-3.1 1.8-5.3 1.1-6.6.2-2.5-1.7-3.9-5.7-3.4-9.5.2-1.3.6-2.5 1.2-3.5h-1.8c-1.7 3.5-3.3 9.5 1.5 14.6.9 1 1.7 1.9 2.5 2.9 4.4-2.3 8.5-5.2 12-8.7 1.5-3.1 1.7-6.6 1.7-8.8 0-.1-1.1-.1-1.1-.1zm-47.7 0h-2.9c-1.2.5-2.8.9-4.9 1-5.7.2-9.6 1-9.7 1-.5.1-.9-.2-1-.7-.1-.5.2-.9.7-1 .1 0 .8-.2 2-.3h-4.1c-.5 3.1-2.1 5.5-4.5 6.9.2.3.5.5.8.8l.1-.1c3.7-2.5 7.8-5.3 13.8-5.3 4.8 0 7.9-1.1 9.7-2.3zm54.1 0v.2-.2zm-49.7 20c-.8-3 .7-7.3 5.2-9.8 4.4-2.4 5.7-7.3 6.1-10.2h-1.1c-.8 5.1-3.9 7.5-6.7 9.7-3.6 2.7-6.6 5.1-5.8 12.1v.2c1.4.3 2.8.5 4.2.7-.9-.7-1.6-1.6-1.9-2.7zm2.4-11.6c2.7-2.1 5.3-4.1 6.1-8.4h-2.2c-.8 2.9-3.5 7.5-12 10.1-5 1.5-9.3 3.5-12.5 5.6l1.2.7c1.4-.5 3-.6 4.4-.1 1.2.4 2.7 1.4 3.3 3.7 1.7.6 3.4 1.1 5.2 1.6-.7-7.7 3-10.5 6.5-13.2zm-28.5-8.4h-2.8c.2.6.1 1.2-.3 1.8-.5.7-1.3 1.3-2.4 1.7.5.7 1.1 1.4 1.7 2.1 2.6-1.4 3.5-4 3.8-5.6zm12.9 17.9c-.5-.2-1-.2-1.5-.2 1 .5 2.1 1 3.2 1.5-.4-.7-1-1.1-1.7-1.3zm-17.5-17c.2-.3.1-.5.1-.5-.1-.1-.2-.3-.5-.4h-3.1l1.4 2.1c1.1-.3 1.8-.7 2.1-1.2zm62.5 7.5c.2.2.8.9 2.6.2 3.3-1.5 4.4-5.2 3.4-7.8-.1-.3-.3-.6-.4-.8h-2.5c1.4.9 1.8 2 1.9 2.7.2 1.4-.3 2.9-1.4 3.7-.4.3-.9.2-1.2-.2-.3-.4-.2-.9.2-1.2.6-.5.9-1.3.8-2.1-.2-.9-.9-1.6-2.1-2-.3-.1-.6.1-1 .6-1.2 1.7-1.5 5.5-.3 6.9zm-27.3-8.4h-2c-1.4 2.4-4.5 5.7-10.7 6.6-4.4.7-10 3.1-14.3 6.2l2.7 2c3.8-2.6 9-4.8 13.5-6.2 7.4-2.3 9.9-6.1 10.8-8.6zm27.1 11.7c1.3.9 3 .8 4.8-.3 5.4-3.1 5.7-8.1 5.2-11.4h-2.3l.1.2c1.3 3.3 0 8-4.3 9.9-2.6 1.1-4 .1-4.6-.6-1.7-2.1-1.3-6.7.2-8.9l.5-.6h-.5c-.9.9-1.4 2.2-1.7 3.8-.5 3.1.6 6.5 2.6 7.9zm-31.1-11.7h-2.2c-1.9 1.9-5.5 4-12.5 4-5.3 0-9.2 2.6-12.7 4.9 1 1 2 1.9 3.1 2.8 4.6-3.4 10.7-6.1 15.4-6.8 4.8-.7 7.4-3 8.9-4.9z"/><path fill="#A34A1B" d="M-247.1 424h84.1c1.2-1.9 2.3-3.9 3.3-6h-90.8c1.1 2.1 2.2 4.1 3.4 6z"/><path fill="#F3F3F3" d="M-170 414v1c0 1.7-1.3 3-3 3h-64c-1.7 0-3-1.3-3-3v-1h70z"/><path fill="#D5D5D5" d="M-209.5 413h9c.8 0 1.5.7 1.5 1.5s-.7 1.5-1.5 1.5h-9c-.8 0-1.5-.7-1.5-1.5s.7-1.5 1.5-1.5z"/><path fill="#36434F" d="M-231 375h52c1.1 0 2 .9 2 2v37h-56v-37c0-1.1.9-2 2-2z"/><path fill="#465765" d="M-230 378h50v33h-50v-33z"/><path fill="#7E8A94" d="M-217 407h24c1.7 0 3 1.3 3 3v1h-30.1l.1-1c0-1.7 1.3-3 3-3z"/><path fill="#E4E7E7" d="M-214 405c1.1 0 2 .9 2 2s-.9 2-2 2-2-.9-2-2 .9-2 2-2z"/><path fill="#EFC75E" d="M-208 405c1.1 0 2 .9 2 2s-.9 2-2 2-2-.9-2-2 .9-2 2-2z"/><path fill="#E4E7E7" d="M-202 405c1.1 0 2 .9 2 2s-.9 2-2 2-2-.9-2-2 .9-2 2-2zm6 0c1.1 0 2 .9 2 2s-.9 2-2 2-2-.9-2-2 .9-2 2-2z"/><path fill="#88411A" d="M-187.2 427h1.7c.2-1.1.6-2.1 1.1-3h-1.7c-.3.9-.8 1.9-1.1 3zm7.4-2.1c-.3-.1-.6.1-1 .6-.3.4-.5.9-.7 1.5h3.8c-.1-.9-.8-1.6-2.1-2.1zm-3.9 2.1h.5c.2-.9.6-1.8 1-2.4l.5-.6h-.5c-.7.8-1.2 1.8-1.5 3zm10.3-2.8c.3.9.5 1.8.5 2.8h1.9c.1-1.1 0-2.1-.1-3h-2.3v.2zm-2.6 2.5v.3h1.2c0-.8-.1-1.5-.3-2.2-.1-.3-.3-.6-.4-.8h-2.4c1.4.9 1.8 2 1.9 2.7zm-69.6-.6c1-.3 1.8-.8 2.1-1.2.2-.3.1-.5.1-.5-.1-.1-.2-.2-.5-.4h-3.1l1.4 2.1zm33.3-2.1h-2.2c-1.1 1.1-2.7 2.2-5.2 3h4c1.5-.9 2.6-2 3.4-3zm-26.6 0h-2.8c.2.6.1 1.2-.3 1.8-.3.4-.7.8-1.3 1.2h3.3c.6-1.1.9-2.2 1.1-3zm21.7 0h-2.9c-1.2.5-2.8.9-4.9 1-5.7.2-9.6 1-9.7 1-.5.1-.9-.2-1-.7-.1-.5.2-.9.7-1 .1 0 .8-.2 2-.3h-4.1c-.2 1.1-.5 2.1-.9 3h6.2c1.5-.4 3.1-.7 4.9-.7 4.8 0 7.8-1.1 9.7-2.3zm23.3 3h2c.3-1.1.6-2.1.8-3h-2c-.3.9-.6 1.9-.8 3zm25.3 0c.1-1.1.1-2.2.1-3h-1.1c.1.7.1 1.4.1 2.2v.8h.9zm3.8-3h-1.9c0 .8 0 1.9-.1 3h1.5c.1-1 .2-2 .5-3zm-48 3h2.9c.9-1.1 1.4-2.1 1.7-3h-2c-.7.9-1.5 2-2.6 3zm49.7-3v.2-.2zm-44.8 3h2.6c.4-.9.8-1.8 1-3h-2.2c-.3.9-.7 1.9-1.4 3zm7.5 0h2.1c.3-1.1.5-2.2.8-3h-2.2c-.2.9-.4 1.9-.7 3zm3.8 0h.9c.2-1.1.5-2.1.8-3h-.9c-.2.8-.5 1.8-.8 3zm-6.8 0h1.2c.3-1.1.5-2.1.7-3h-1.1c-.2 1.1-.5 2.1-.8 3zm13.2 0h1.3c.3-1.1.6-2.1 1-3h-1.5c-.2.9-.5 1.9-.8 3z"/><path fill="#AC5C32" d="M-217.8 418h-3.6c-1.4.8-3.1 1.5-5.1 2.1-3.6 1.1-6.9 2.4-9.7 3.9h12.5c1.3-2.5 3.4-4.1 5.4-5.6.1 0 .5-.4.5-.4zm10.2 4c.1-1.4.3-2.8.5-4h-3.4c-1 1.4-2.3 2.7-4.1 3.6-1.2.7-2.2 1.5-2.9 2.4h9.8c0-.6 0-1.3.1-2zm7.3.1c-.3-1.2-.4-2.7-.3-4.1h-1.9c0 1.3.2 2.5.7 3.2.3.4.2.9-.2 1.2-.4.3-.9.2-1.2-.2-.8-1-1-2.5-1-4.2h-1.3c-.2 1.3-.4 2.7-.5 4.2l-.2 1.8h5.8c.3-.4.4-1 .1-1.9zm-26.7-3.6l1.5-.5h-8.9c-3.8 1.4-7.7 3.5-10.6 6h5.4c3.8-2.3 8.5-4.2 12.6-5.5zm-23.2 0l.7-.5h-.9l.2.5zm34.7 1.7c1.1-.6 2-1.3 2.7-2.2h-2.4l-2.1 1.7c-1.7 1.3-3.4 2.6-4.5 4.3h2.1c1-1.4 2.3-2.8 4.2-3.8zm-23.1-2.2h-7.8l-1.5 1-1.5 1c.7 1.3 1.4 2.6 2.2 3.8 2.3-2.2 5.4-4.2 8.6-5.8zm65.3 0h-2.3c-.6 1.5-1.3 3-2.5 4.2-.4.5-.8 1.1-1.1 1.7h6.9c-.5-1.7-.9-3.7-1-5.9zm11.9 3.4l1.4-2.6v-.8h-2.1c0 1 .2 2.2.7 3.4zm-4.3 2.6h2.8l.5-.8c-.9-1.9-1.3-3.6-1.4-5.2h-3.6c0 1.9.7 4 1.7 6zm-29.2 0c-1.4-2-2-4-2.2-6h-1.8c-.1 1.3-.1 2.6.2 3.7.2.9.2 1.7.1 2.3h3.7zm25.7-6h-2.4c.1 2.3.5 4.2 1.1 6h2.9c-1-2-1.5-4.1-1.6-6zm-11.8 6c.4-1.1 1-2.1 1.7-2.8.8-1 1.5-2 1.9-3.2h-1c-.9 1.8-2.4 3.5-4.8 4.8-3.1 1.8-5.3 1.1-6.7.2-1.5-1-2.6-2.9-3.2-5h-2.4c.2 2 1 4 2.6 6h11.9zm-9-4.5c-.3-.4-.6-.9-.8-1.5h-.4c.5 1.6 1.3 2.9 2.3 3.6 1.4.9 3 .8 4.9-.3 1.7-1 2.9-2.1 3.7-3.4h-2.3c-.7.8-1.7 1.6-2.8 2.1-2.6 1.2-4 .2-4.6-.5zm3.9-.9c.4-.2.7-.4 1-.6h-3.8l.2.4c.2.2.8.9 2.6.2z"/></svg>