<svg xmlns="http://www.w3.org/2000/svg" viewBox="-255 347 100 100"><path fill="#324D5B" d="M-205 347c-27.6 0-50 22.4-50 50s22.4 50 50 50 50-22.4 50-50-22.4-50-50-50z"/><path fill="#2B424D" d="M-236 430v-56l-18.8 18.8c-.1 1.4-.2 2.8-.2 4.2 0 12.6 4.7 24.2 12.5 33h6.5z"/><path fill="#DA9C44" d="M-166 428.3V404l-39-19-39 19v24.3c9.2 11.4 23.2 18.7 39 18.7s29.8-7.3 39-18.7z"/><path fill="#F3F3F3" d="M-236 374h63c1.1 0 2 .9 2 2v46c0 1.1-.9 2-2 2h-63c-1.1 0-2-.9-2-2v-46c0-1.1.9-2 2-2z"/><path fill="#26A6D1" d="M-217 379h7l4-5h-7l-4 5zm30-5l-4 5h7l4-5h-7zm-51 2v3h3l4-5h-5c-1.1 0-2 .9-2 2z"/><path fill="#E2574C" d="M-204 379h7l4-5h-7l-4 5zm-26 0h7l4-5h-7l-4 5zm57-5h-1l-4 5h7v-3c0-1.1-.9-2-2-2z"/><path fill="#DFE1E2" d="M-181.5 394h-17c-.8 0-1.5.7-1.5 1.5s.7 1.5 1.5 1.5h17c.8 0 1.5-.7 1.5-1.5s-.7-1.5-1.5-1.5zm-3 6h-14c-.8 0-1.5.7-1.5 1.5s.7 1.5 1.5 1.5h14c.8 0 1.5-.7 1.5-1.5s-.7-1.5-1.5-1.5zm-31.5-4l.7 3.6-5.7-8.5-8 12c0 1.1 5.1 2 11.5 2s11.5-.9 11.5-2l-7-10c0-.1-3 2.9-3 2.9zm1-5c1.1 0 2-.9 2-2s-.9-2-2-2-2 .9-2 2 .9 2 2 2zm16.5 0h17c.8 0 1.5-.7 1.5-1.5s-.7-1.5-1.5-1.5h-17c-.8 0-1.5.7-1.5 1.5s.7 1.5 1.5 1.5z"/><path fill="#F4B459" d="M-166 428.3V404l-39 19-39-19v24.3c9.2 11.4 23.2 18.7 39 18.7s29.8-7.3 39-18.7z"/><path fill="#F6C37A" d="M-166 404l-68.4 33.4c8.2 6 18.4 9.6 29.4 9.6 15.8 0 29.8-7.3 39-18.7V404z"/></svg>