<svg xmlns="http://www.w3.org/2000/svg" width="120" height="96.318"><g fill-rule="evenodd" clip-rule="evenodd"><path fill="#153154" d="M84.386 2.213l-.722 1.18a68.56 68.56 0 0 0-2.442 4.36c-5.988-1.4-12.28-2.108-18.744-2.108-7.195 0-14.002.657-20.277 1.942L36.61.127l-3.4 1.186c-.005 0-16.452 5.758-16.452 5.758l2.662 5.05c.56 1.06 1.098 2.21 1.617 3.43C14.79 19.3 9.627 24.07 6.01 29.48 2.14 35.268 0 41.77 0 47.798c0 5.89 2.047 12.26 5.765 17.95 3.398 5.202 8.23 9.85 14.076 13.57-.57 1.15-1.19 2.315-1.85 3.53l-2.64 4.815 20.98 8.655 2.02-4.168c.63-1.284 1.38-2.85 2.15-4.52 6.75 1.535 14.14 2.314 22 2.314 5.95 0 11.99-.68 18-2.015l6.92 7.97 3.27-1.36 16.687-6.89-2.64-4.82c-.585-1.06-1.13-2.1-1.646-3.11 4.578-2.31 8.18-4.53 10.28-5.81l4.515-2.77-12.28-17.02-3.81 2.07c-1.53.83-3.386 1.824-5.455 2.853-.49-3.93-.574-7.7-.574-11.26 0-2.76.133-5.53.365-8.29 1.14.76 2.28 1.54 3.4 2.3l5.51 3.75 2.877-3.07L120 29.613l-5.977-4.85c-2.8-2.31-6.872-5.66-12.488-8.94a47.975 47.975 0 0 1 1.737-3.7l2.663-5.05L85.735 0l-1.35 2.213zm-60.12 45.214c0-1.845.886-3.99 2.454-6.13.143 2.17.218 4.34.218 6.5 0 2.332-.04 4.773-.204 7.297-2.157-3.246-2.47-6.227-2.47-7.667zm38.212-19.94c4.46 0 8.357.423 12.052 1.3-.87 5.576-1.3 11.808-1.302 18.958-1.592-1.81-2.75-3.15-3.462-4.01-1.764-2.126-6.03-7.645-12.412-16.053a68.532 68.532 0 0 1 5.124-.194zM49.39 51.717c.713.9 1.304 1.636 1.745 2.17 1.677 2.02 5.548 6.546 11.526 13.48h-.18c-5.37 0-10.29-.396-14.69-1.17.9-4.567 1.43-9.354 1.61-14.48z"/><path fill="#fff" d="M86.403 5.063a64.491 64.491 0 0 0-3.452 6.434c-6.44-1.747-13.32-2.645-20.47-2.645-7.78 0-15.04.78-21.61 2.3l-5.42-7.224-1.18.412-12.94 4.527.93 1.756c1.02 1.933 1.96 4.06 2.81 6.323-6.89 3.673-12.55 8.587-16.38 14.31-3.53 5.27-5.47 11.143-5.47 16.54 0 5.272 1.86 11.023 5.24 16.197 3.64 5.57 9.01 10.404 15.56 14.08-.94 2.012-1.99 4.092-3.21 6.318l-.92 1.68 14.87 6.14.704-1.45c1.06-2.18 2.17-4.51 3.215-6.86 7.153 1.89 15.15 2.86 23.814 2.86 6.352 0 12.79-.8 19.15-2.36l6.673 7.68 1.137-.47 13.38-5.52-.92-1.673a106.328 106.328 0 0 1-3.127-6.13c5.79-2.715 10.35-5.51 12.89-7.072l1.57-.96-8.6-11.94-1.325.73c-2.875 1.57-6.01 3.21-9.474 4.764-1.12-5.594-1.3-10.97-1.3-15.98 0-4.716.336-9.358.95-13.857 2.516 1.605 5.11 3.374 7.83 5.225l3.24 2.21 1-1.067 9.74-10.37-3.3-2.68c-3.16-2.607-7.836-6.46-14.485-10 .874-2.37 1.85-4.6 2.917-6.63l.93-1.76-14.24-5-.72 1.18zM21.058 47.427c0-4.274 3.075-9.19 8.172-13.244.596 4.424.914 8.984.914 13.613 0 4.533-.138 9.382-1 14.42-7.233-5.536-8.086-12.075-8.086-14.79zm25.2.37c0-1.907-.032-3.72-.092-5.475 3.643 4.754 6.142 7.95 7.438 9.514 2.042 2.463 7.358 8.662 15.802 18.43-2.28.2-4.598.31-6.928.31-6.94 0-13.152-.634-18.514-1.87 1.536-6.385 2.294-13.24 2.294-20.91zm16.22-23.517c5.88 0 10.914.698 15.708 2.168-1.172 6.084-1.75 13.08-1.75 21.348 0 3.08.117 5.986.353 8.782-4.87-5.436-8.06-9.06-9.5-10.795-2.1-2.53-7.58-9.645-15.89-20.636 3.54-.567 7.25-.867 11.07-.867z"/><path fill="#96C0E6" d="M104.135 60.514c-3.487 1.902-7.28 3.89-11.52 5.676-1.442-5.99-1.778-11.684-1.778-18.394 0-5.674.45-11.318 1.34-16.7 3.83 2.327 7.734 5.042 12.142 8.037l8.47-9.032c-3.07-2.39-8.64-7.59-17.4-12.02 1.01-2.94 2.18-5.71 3.52-8.25L87.86 5.96c-1.5 2.46-2.82 4.96-3.96 7.574-6.1-1.79-13.2-2.967-21.425-2.967-8.495 0-15.9.92-22.314 2.505-3.18-4.24-5.33-7.112-5.33-7.112L23.77 9.83c1.286 2.444 2.422 5.104 3.406 7.928-15.867 7.88-22.26 20.65-22.26 30.044.002 9.2 6.137 21.64 21.305 29.55-1.09 2.46-2.38 5.06-3.92 7.866l11.61 4.79c1.34-2.75 2.61-5.425 3.78-8.142 6.97 1.988 15.18 3.166 24.79 3.166 7.17 0 13.8-1.018 19.76-2.563l6.55 7.54 11.61-4.8c-1.52-2.78-2.8-5.36-3.89-7.8 6.12-2.75 10.96-5.66 14.27-7.69l-6.64-9.22zM62.478 22.57c6.973 0 12.6.973 17.68 2.71-1.355 6.32-2.012 13.594-2.012 22.516 0 5.2.343 9.774.957 13.92C73.29 55.253 68.026 49.34 65.98 46.873c-2.754-3.32-10.527-13.532-17.62-22.923 4.278-.88 8.993-1.38 14.118-1.38zm-43.13 24.857c0-5.23 3.884-11.414 11.172-16.305.887 5.374 1.335 11.01 1.335 16.674 0 6.313-.298 11.727-1.533 17.335-8.552-5.39-10.975-12.69-10.975-17.7zm43.13 24.858c-8.3 0-15.074-.872-20.584-2.322 1.653-6.217 2.653-13.277 2.653-22.167 0-3.946-.13-7.565-.39-10.927 4.71 6.19 8.895 11.62 10.764 13.87 2.63 3.17 10.46 12.24 17.92 20.87-3.24.42-6.68.66-10.36.66z"/></g></svg>