<svg xmlns="http://www.w3.org/2000/svg" width="80.349" height="96.146"><g fill-rule="evenodd" clip-rule="evenodd"><path fill="#231F20" d="M66.917 35.95l12.45-.036-.063-21.36L64.874 0l-50.51.15L0 14.6l.09 29.87 15.675 14.883 6.876-.11.01 1.116-22.33.06.06 21.09 15.16 14.63 50.47-.15 14.34-14.66-.08-27.57-.01-2.82-13.34-14.99zm-30.33 25.924l7.317-.02.02 7.485-7.317.02-.02-7.49z"/><path fill="#fff" d="M25.636 57.14l-8.874.025L2.557 43.42l-.083-27.804 12.922-13 48.452-.143 12.99 13.102.053 17.876-20.68.07-.03-12.19-1.366.005.047 15.89 9.856-.03 13.08 14.7.086 28.444-12.91 13.2-48.43.146L2.847 80.47 2.795 62.7l21.35-.064.036 12.194 1.51-.005-.05-17.684zm31.12 17.59L56.7 57.047l-1.848.005.02 6.356-8.357.024-.014-3.702-12.39.036.04 12.23 12.39-.035-.01-5.08 8.36-.02.027 7.89 1.85-.007zM23.593 21.416l.047 15.89 1.892-.005-.047-15.89-1.89.01zm23.16 7.78l-.023-7.85-8.282.025 8.306 7.83zm-13.176-.145l.024 8.23 8.76-.02-8.78-8.2z"/><path fill="#EC1C24" d="M21.89 77.306l-.036-12.196-16.583.05.05 14.25L17.53 91.2l46.393-.138 11.48-11.737-.08-26.497-11.72-13.172-8.747.026.01 2.858-6.812.02L45 39.71l-11.39.035.008 2.858-8.07.024-.01-2.858-4.36.01-.06-20.83 4.358-.02-.008-2.74 7.468-.02 2.896 2.726 10.89-.033-.007-2.736 8.07-.025.01 2.734 3.665-.01.036 12.194 15.916-.044-.043-14.397L62.82 4.94l-46.395.14-11.48 11.55.077 25.74 12.736 12.323 8.996-.027 3.8-3.37 19.713-.058 3.4 3.35 5.494-.018c.03 7.542.05 15.084.07 22.625l-5.64.018-3.23 3.218-19.71.06-3.65-3.2-5.1.02zm26.483-15.78l4.63-.015-.017-4.95-3.47-3.41-18.263.056-3.756 3.33.057 18.754 3.773 3.31 18.263-.057 3.45-3.437-.018-6.34-4.63.012.013 5.087-16.117.045-.046-16.034 16.116-.044.015 3.702zm.212-43.49l.046 15.514-16.42-15.467-4.87.015.07 22.623 4.34-.01-.04-15.98 17.07 15.93 4.22-.01-.064-22.62-4.342.012z"/></g></svg>