<svg xmlns="http://www.w3.org/2000/svg" width="740.679" height="409.54"><path fill-rule="evenodd" clip-rule="evenodd" fill="#E51D38" d="M687.68 292.04a2.5 2.5 0 1 1-5.002-.002 2.5 2.5 0 0 1 5.002.002m-26 18a2.5 2.5 0 1 1-5.002-.002 2.5 2.5 0 0 1 5.002.002m42 18a2.5 2.5 0 1 1-5.002-.002 2.5 2.5 0 0 1 5.002.002m-37 73a2.5 2.5 0 1 1-5.002-.002 2.5 2.5 0 0 1 5.002.002m31-20a2.5 2.5 0 1 1-5.002-.002 2.5 2.5 0 0 1 5.002.002m18-27a2.5 2.5 0 1 1-5.002-.002 2.5 2.5 0 0 1 5.002.002m-81 6a2.5 2.5 0 1 1-5.002-.002 2.5 2.5 0 0 1 5.002.002m8 16a2.5 2.5 0 1 1-5.002-.002 2.5 2.5 0 0 1 5.002.002m-21 26a2.5 2.5 0 1 1-5.002-.002 2.5 2.5 0 0 1 5.002.002m94 5a2.5 2.5 0 1 1-5.002-.002 2.5 2.5 0 0 1 5.002.002m23-84a2.5 2.5 0 1 1-5.002-.002 2.5 2.5 0 0 1 5.002.002m2 51a2.5 2.5 0 1 1-5.002-.002 2.5 2.5 0 0 1 5.002.002m-53-14a2.5 2.5 0 1 1-5.002-.002 2.5 2.5 0 0 1 5.002.002m-21-3a2.5 2.5 0 1 1-5.002-.002 2.5 2.5 0 0 1 5.002.002m12-20a2.5 2.5 0 1 1-5.002-.002 2.5 2.5 0 0 1 5.002.002"/><path fill="#F8C6CD" d="M360.6 231.217l-.068.368.09-.363 13.316 3.242 308.74 57.492a2.56 2.56 0 0 1 .138-.737L360.6 231.21"/><path fill="#E51D38" d="M682.816 291.22c-.08.23-.128.478-.137.736l2.43.453.13-.74-2.43-.45"/><path fill="#F8C6CD" d="M380.075 236.73l18.475 5.23 258.143 67.813c.027-.255.093-.5.19-.726L400.74 241.76l-20.665-5.03"/><path fill="#E51D38" d="M656.883 309.05c-.098.226-.163.47-.19.725l2.39.628.192-.725-2.392-.63"/><path fill="#F8C6CD" d="M376.515 238.312l8.43 3.765 267.753 110.625c-.048-.286-.09-.574-.127-.864l-245.76-101.54-30.29-11.986"/><path fill="#F39CA8" d="M652.57 351.838c.037.29.08.578.127.864l9.054 3.74c.07-.247.16-.48.29-.693l-9.46-3.92"/><path fill="#E51D38" d="M662.037 355.75a2.466 2.466 0 0 0-.286.692l2.29.944.29-.693-2.28-.944"/><path fill="#F8C6CD" d="M372.807 235.45l47.964 16.656 239.84 80.126c.24-.188.48-.37.73-.548L375.95 236.34l-3.14-.89"/><path fill="#F39CA8" d="M661.334 331.685c-.247.178-.49.36-.728.548l13.108 4.38c.044-.252.125-.49.238-.71l-12.618-4.218"/><path fill="#E51D38" d="M673.953 335.9a2.5 2.5 0 0 0-.238.712l2.345.783.238-.71-2.345-.784"/><path fill="#F8C6CD" d="M371.502 234.855l4.443 1.484 322.753 91.38c.03-.26.102-.5.204-.72L398.55 241.96l-27.048-7.105"/><path fill="#E51D38" d="M698.902 327.006a2.437 2.437 0 0 0-.204.722l2.378.673.205-.72-2.37-.67"/><path fill="#F39CA8" d="M369.153 234.07l2.35.785 27.047 7.106-18.475-5.23-10.922-2.66m.66.35l2.994 1.04 3.138.89-4.443-1.48-1.688-.44"/><path fill="#EF7C8C" d="M368.076 233.81l1.738.602 1.688.443-2.35-.785-1.076-.26"/><path fill="#F8C6CD" d="M370.588 233.84l30.152 7.92 332.948 81.06c.022-.256.083-.5.177-.73l-359.927-87.626-3.35-.624m-10.056-2.255"/><path fill="#E51D38" d="M733.865 322.09c-.094.23-.154.474-.177.73l2.4.585.18-.73-2.403-.584"/><path fill="#F39CA8" d="M360.62 231.222l-.088.363.095-.36 9.96 2.615 3.35.624-13.316-3.242m7.87 2.227l11.59 3.28 20.67 5.03-30.15-7.92-2.1-.39"/><path fill="#EF7C8C" d="M360.627 231.224l-.094.36.1-.358 7.855 2.223 2.1.39-9.96-2.62m5.158 1.726l3.367 1.125 10.922 2.66-11.587-3.28-2.702-.505"/><path fill="#EC6477" d="M360.634 231.226l-.1.36.117-.356h.01l5.13 1.715 2.71.504-7.85-2.23m-.1.36l4.84 1.28 2.71.94 1.077.26-3.367-1.13-.42-.08"/><path fill="#EA5268" d="M360.655 231.23l4.71 1.637.42.078-5.135-1.715m0 0l-.117.354.123-.354h-.005"/><path fill="#F8C6CD" d="M376.82 239.27l17.514 8.715 235.45 111.338c.072-.244.18-.472.32-.678L391.96 246.032l-15.14-6.76"/><path fill="#E51D38" d="M630.104 358.645c-.14.206-.248.434-.32.678l2.234 1.057.32-.678-2.234-1.057"/><path fill="#F8C6CD" d="M374.548 238.98l6.5 3.627 256.762 132.63c.082-.24.198-.464.345-.665L404.738 254l-30.19-15.02m-14.016-7.394"/><path fill="#E51D38" d="M638.154 374.572c-.146.2-.263.426-.345.666l2.19 1.135.34-.666-2.2-1.135"/><path fill="#F8C6CD" d="M382.972 240.45l23.833 9.848 245.657 97.2.072-.777-248.44-98.3-21.122-7.97"/><path fill="#F39CA8" d="M652.534 346.72l-.072.778 30.28 11.98c.057-.248.15-.482.275-.696l-30.483-12.06"/><path fill="#E51D38" d="M683.018 358.782c-.125.214-.22.448-.275.697l2.3.9.274-.7-2.3-.91"/><path fill="#F39CA8" d="M372.227 236.397l4.288 1.915 30.29 11.986-23.833-9.847-10.745-4.05"/><path fill="#F8C6CD" d="M695.22 347.407l.05.81 15.45 5.366c.047-.25.13-.49.246-.708l-15.745-5.468M379 238.147l8.155 3.078 270.43 93.905c.178-.205.36-.407.543-.605l-237.352-82.42L379 238.148"/><path fill="#F39CA8" d="M658.122 334.525c-.184.198-.365.4-.54.605l37.687 13.087-.05-.81-37.1-12.882"/><path fill="#E51D38" d="M710.966 352.875c-.115.22-.2.457-.245.708l2.34.812.25-.71-2.33-.81"/><path fill="#F39CA8" d="M368.936 234.355l10.057 3.793 41.778 13.958-47.96-16.655-3.87-1.09"/><path fill="#EF7C8C" d="M367.418 233.782l1.518.573 3.87 1.096-2.992-1.03-2.396-.63"/><path fill="#EC6477" d="M366.414 233.403l1.004.38 2.396.63-1.738-.604-1.662-.41"/><path fill="#EA5268" d="M364.627 232.73l1.787.673 1.662.406-2.71-.95-.74-.14"/><path fill="#E9455C" d="M360.655 231.23l-.122.354.132-.35.005.003 3.957 1.493.74.137-4.712-1.636h-.004m-.118.353v.002-.002"/><path fill="#F8C6CD" d="M693.835 356.912l-.283.694 42.182 15.912c.053-.25.144-.486.265-.702l-42.17-15.904m-316.78-119.19l27.03 10.697 249.35 94.06.24-.71-266.54-100.55-10.09-3.51"/><path fill="#F39CA8" d="M653.693 341.77l-.245.71 40.104 15.127.283-.694-40.142-15.143"/><path fill="#E51D38" d="M735.998 372.816c-.12.216-.212.452-.265.702l2.312.872.266-.7-2.31-.874"/><path fill="#F39CA8" d="M372.71 236.212l10.262 4.24 21.123 7.967-27.038-10.7-4.346-1.51"/><path fill="#EF7C8C" d="M368.66 234.806l3.567 1.59 10.745 4.055-10.26-4.23-4.05-1.4"/><path fill="#E83B53" d="M360.665 231.235l-.132.35.137-.348-.005-.002"/><path fill="#F39CA8" d="M373.5 236.314l3.557 1.407 10.09 3.51-8.154-3.08-5.492-1.83"/><path fill="#EF7C8C" d="M367.58 233.972l5.92 2.342 5.493 1.834-10.057-3.793-1.356-.383"/><path fill="#EC6477" d="M366.48 233.536l1.1.436 1.356.383-1.518-.573-.937-.246"/><path fill="#EA5268" d="M365.717 233.234l.764.302.94.246-1-.38-.69-.168"/><path fill="#E9455C" d="M364.28 232.665l1.437.57.697.168-1.787-.673-.348-.065"/><path fill="#E83B53" d="M360.67 231.237l3.61 1.428.347.065-3.962-1.495"/><path fill="#EF7C8C" d="M370.665 235.366l2.046.846 4.35 1.51-3.55-1.408-2.83-.948"/><path fill="#EC6477" d="M367.696 234.375l.965.43 4.05 1.407-2.04-.846-2.97-.99m-1.04-.668l4.02 1.658 2.84.948-5.92-2.342-.93-.264"/><path fill="#EA5268" d="M365.43 233.362l2.266 1.013 2.97.99-4.015-1.657-1.22-.346m.38-.003l.85.34.93.26-1.1-.44-.67-.18"/><path fill="#E9455C" d="M365.198 233.107l.608.252.675.17-.76-.3-.52-.13m-.32 0l.56.25 1.22.34-.84-.35-.93-.246"/><path fill="#E83B53" d="M364.454 232.927l.42.187.932.245-.608-.26-.744-.18m-.454-.32l1.2.49.52.12-1.44-.57-.27-.05"/><path fill="#E7334C" d="M360.67 231.237l-.137.348.142-.346 3.325 1.37.28.05-3.61-1.43h-.004m2.91 1.3l.88.39.743.18-1.2-.5-.43-.08"/><path fill="#E62E48" d="M360.675 231.24l-.142.345.152-.342 2.89 1.29.426.08-3.32-1.374m-.14.34"/><path fill="#F8C6CD" d="M366.647 235.167l2.586 1.704 292.603 163.3c.09-.23.213-.45.366-.65L381.05 242.61l-14.403-7.44"/><path fill="#E51D38" d="M662.203 399.508a2.488 2.488 0 0 0-.366.655l2.16 1.204.364-.654-2.15-1.205"/><path fill="#F39CA8" d="M365.908 234.68l.74.487 14.4 7.44-6.5-3.628-8.64-4.3"/><path fill="#F8C6CD" d="M360.532 231.586l-.207.313 256.583 169.09c.105-.23.246-.44.413-.63L369.24 236.87l-8.884-4.957.183-.327"/><path fill="#E51D38" d="M617.32 400.367a2.518 2.518 0 0 0-.412.625l2.064 1.36.412-.626-2.063-1.36"/><path fill="#F39CA8" d="M360.532 231.587l-.182.326 8.884 4.958-2.587-1.7-6.287-3.25.005.01h-.005l.172-.33"/><path fill="#EF7C8C" d="M360.36 231.92l6.288 3.247-.74-.487-5.542-2.758m.166-.335l-.172.332.172-.34"/><path fill="#F8C6CD" d="M379.69 241.06L404.737 254l306.06 152.274c.078-.242.19-.468.335-.67l-316.8-157.62-14.644-6.924"/><path fill="#E51D38" d="M711.133 405.604c-.144.203-.257.43-.335.67l2.214 1.103.334-.672-2.213-1.1"/><path fill="#F39CA8" d="M372.438 237.313l7.25 3.747 14.646 6.924-17.514-8.713-4.382-1.95m-1.996-.62l4.106 2.29 30.19 15.02-25.05-12.94-9.246-4.37"/><path fill="#EF7C8C" d="M368.07 235.363l2.372 1.325 9.247 4.372-7.26-3.747-4.37-1.95m-2.9-1.168l.73.485 8.64 4.3-4.11-2.292-5.27-2.493"/><path fill="#EC6477" d="M364.58 233.805l.593.39 5.27 2.493-2.373-1.325-3.49-1.558m-4.048-2.22"/><path fill="#EC6477" d="M360.532 231.587l-.167.335-.005-.003 5.548 2.76-.735-.49-4.8-2.27.16-.34"/><path fill="#EA5268" d="M360.532 231.586l-.16.34 4.8 2.27-.592-.39-4.2-1.877.152-.35"/><path fill="#F8C6CD" d="M670.188 370.29l22.58 10.084a2.52 2.52 0 0 1 .307-.685l-20.425-9.13c-.835-.05-1.657-.14-2.462-.28M374.274 237.67l17.687 8.362 268.62 119.965a22.216 22.216 0 0 1-1.86-1.652L384.95 242.077l-10.67-4.408"/><path fill="#F39CA8" d="M658.716 364.345a21.286 21.286 0 0 0 1.86 1.652l9.61 4.292c.807.14 1.63.23 2.463.27l-13.94-6.22"/><path fill="#E51D38" d="M693.074 379.69a2.484 2.484 0 0 0-.306.684l2.257 1.01.307-.687-2.258-1.008"/><path fill="#F39CA8" d="M371.13 236.183l3.144 1.486 10.67 4.4-8.43-3.77-5.384-2.13m-.825-.16l6.515 3.24 15.14 6.76-17.686-8.367-3.97-1.64"/><path fill="#EF7C8C" d="M368.603 235.183l1.702.846 3.97 1.64-3.145-1.49-2.527-1m.456.02l2.07.98 5.38 2.13-4.29-1.92-3.17-1.2"/><path fill="#EC6477" d="M367.344 234.557l1.26.626 2.526 1-2.07-.98-1.716-.646"/><path fill="#EC6477" d="M366.994 234.227l2.065.976 3.16 1.194-3.57-1.59-1.67-.58"/><path fill="#EA5268" d="M365.96 233.868l1.384.69 1.715.645-2.07-.976-1.04-.36m.421.065l.624.295 1.667.58-.96-.432-1.32-.443"/><path fill="#E9455C" d="M364.773 233.177l1.597.755 1.326.443-2.267-1.013-.66-.185"/><path fill="#E83B53" d="M364.35 232.977l.423.2.656.185-.56-.248-.53-.137"/><path fill="#E7334C" d="M364.023 232.82l.328.157.53.137-.42-.187-.43-.106"/><path fill="#E62E48" d="M363.31 232.484l.713.337.43.11-.88-.39-.263-.05"/><path fill="#E52944" d="M360.685 231.243l-.152.342.16-.338 2.617 1.237.264.05-2.89-1.29"/><path fill="#E9455C" d="M365.514 233.646l.446.222 1.034.36-.624-.296-.856-.286"/><path fill="#E83B53" d="M364.304 233.044l1.21.602.856.286-1.597-.755-.47-.133"/><path fill="#E7334C" d="M363.967 232.876l.337.168.47.133-.423-.2-.38-.1"/><path fill="#E62E48" d="M363.7 232.743l.267.133.384.1-.32-.155-.32-.07"/><path fill="#E52944" d="M363.103 232.445l.597.298.323.078-.713-.33-.207-.04"/><path fill="#E52641" d="M360.692 231.247l-.16.338.167-.335 2.4 1.196.2.038-2.62-1.237m-.16.338"/><path fill="#EF7C8C" d="M368.538 235.3l3.9 2.013 4.382 1.958-6.515-3.24-1.767-.73"/><path fill="#EC6477" d="M367.36 234.69l1.178.61 1.767.73-1.702-.847-1.243-.493m-1.064-.317l1.774.99 4.368 1.95-3.9-2.013-2.242-.927"/><path fill="#EA5268" d="M365.66 234.02l.636.353 2.242.927-1.178-.61-1.7-.67m.778.194l.922.476 1.243.493-1.26-.626-.905-.343"/><path fill="#E9455C" d="M365.123 233.72l.537.3 1.7.67-.922-.476-1.315-.495m.247-.056l1.068.55.906.344-1.384-.69-.59-.204"/><path fill="#E83B53" d="M364.452 233.344l.67.375 1.316.49-1.068-.55-.918-.32"/><path fill="#E83B53" d="M365.012 233.478l.358.185.59.205-.446-.222-.502-.168"/><path fill="#E7334C" d="M364.01 232.96l1.002.518.502.168-1.21-.602-.294-.083"/><path fill="#E62E48" d="M363.722 232.812l.288.15.294.082-.337-.168-.245-.064"/><path fill="#E52944" d="M363.49 232.692l.232.12.245.064-.267-.133-.21-.05"/><path fill="#E52641" d="M362.965 232.42l.526.272.21.05-.59-.296-.14-.026"/><path fill="#E5233E" d="M360.7 231.25l-.167.335.17-.332 2.262 1.167.138.026-2.404-1.196"/><path fill="#E7334C" d="M364.215 233.212l.237.132.918.32-.358-.186-.797-.266"/><path fill="#E62E48" d="M363.512 232.82l.703.392.797.266-1.002-.517-.498-.14"/><path fill="#E52944" d="M363.3 232.7l.212.12.498.14-.288-.148-.423-.112"/><path fill="#E52641" d="M363.124 232.603l.175.097.42.112-.23-.12-.37-.09m-2.59-1.016"/><path fill="#E5233E" d="M360.532 231.586l2.18.787.412.23.367.09-.52-.273-.25-.047"/><path fill="#E5213D" d="M360.704 231.253l-.17.332h-.002l.183-.326 1.998 1.11.252.04-2.26-1.17"/><path fill="#EA5268" d="M364.01 233.43l.57.375 3.49 1.558-1.774-.99-2.287-.944"/><path fill="#E9455C" d="M363.77 233.27l.24.16 2.286.943-.636-.354-1.89-.75"/><path fill="#E83B53" d="M363.548 233.124l.22.146 1.892.75-.537-.3-1.575-.596"/><path fill="#E7334C" d="M363.246 232.925l.302.2 1.575.594-.67-.38-1.207-.42"/><path fill="#E62E48" d="M363.13 232.85l.116.075 1.206.42-.237-.133-1.084-.362"/><path fill="#E52944" d="M362.764 232.607l.367.243 1.09.362-.7-.393-.75-.22"/><path fill="#E52641" d="M362.644 232.528l.12.08.748.21-.213-.118-.66-.172"/><path fill="#E5233E" d="M362.542 232.46l.102.068.655.172-.18-.097-.58-.142"/><path fill="#E5213D" d="M362.289 232.296l.25.165.58.15-.41-.23-.43-.08"/><path fill="#E4213C" d="M360.715 231.26l-.183.326.207-.314 1.55 1.023.42.078-2-1.114"/><path fill="#E9455C" d="M360.532 231.586l-.153.343 4.2 1.87-.57-.38-3.62-1.5.14-.35"/><path fill="#E83B53" d="M360.532 231.587l-.143.346 3.62 1.496-.24-.16-3.38-1.34.13-.35v-.01"/><path fill="#E7334C" d="M360.53 231.59l-.135.345 3.374 1.335-.23-.146-3.15-1.187.13-.348m.013-.002v.002-.01m0 0"/><path fill="#E62E48" d="M360.532 231.587v.002l-.132.34 3.148 1.18-.302-.2-2.837-.99.12-.35v-.007"/><path fill="#E52944" d="M360.532 231.586v.004-.004m-.002.004l-.12.35 2.836.985-.115-.075-2.71-.91.12-.35"/><path fill="#E52641" d="M360.532 231.586v.004l-.118.35 2.717.91-.36-.243-2.33-.66.11-.36"/><path fill="#E5233E" d="M360.532 231.587l-.102.36 2.334.66-.12-.08-2.207-.58.094-.358.01-.01"/><path fill="#E5213D" d="M360.53 231.59l-.093.358 2.207.58-.102-.067-2.1-.51.09-.36m0-.005v.003-.01"/><path fill="#E4213C" d="M360.532 231.586v.003l-.09.36 2.1.51-.253-.17-1.83-.34.07-.37"/><path fill="#E4203B" d="M360.74 231.272l-.208.314-.07.37 1.827.34-1.55-1.024"/><circle fill-rule="evenodd" clip-rule="evenodd" fill="#56A1D4" cx="78.616" cy="355.89" r="2.5"/><circle fill-rule="evenodd" clip-rule="evenodd" fill="#56A1D4" cx="104.273" cy="321.777" r="2.5"/><circle fill-rule="evenodd" clip-rule="evenodd" fill="#56A1D4" cx="66.847" cy="338.747" r="2.5"/><circle fill-rule="evenodd" clip-rule="evenodd" fill="#56A1D4" cx="21.392" cy="268.966" r="2.5"/><circle fill-rule="evenodd" clip-rule="evenodd" fill="#56A1D4" cx="21.613" cy="305.028" r="2.5"/><circle fill-rule="evenodd" clip-rule="evenodd" fill="#56A1D4" cx="39.977" cy="328.848" r="2.5"/><circle fill-rule="evenodd" clip-rule="evenodd" fill="#56A1D4" cx="83.01" cy="275.33" r="2.5"/><circle fill-rule="evenodd" clip-rule="evenodd" fill="#56A1D4" cx="56.04" cy="269.673" r="2.5"/><circle fill-rule="evenodd" clip-rule="evenodd" fill="#56A1D4" cx="42.504" cy="256.438" r="2.5"/><circle fill-rule="evenodd" clip-rule="evenodd" fill="#56A1D4" cx="2.5" cy="291.371" r="2.5"/><circle fill-rule="evenodd" clip-rule="evenodd" fill="#56A1D4" cx="45.634" cy="367.032" r="2.5"/><circle fill-rule="evenodd" clip-rule="evenodd" fill="#56A1D4" cx="19.157" cy="330.383" r="2.5"/><circle fill-rule="evenodd" clip-rule="evenodd" fill="#56A1D4" cx="55.534" cy="304.806" r="2.5"/><circle fill-rule="evenodd" clip-rule="evenodd" fill="#56A1D4" cx="72.504" cy="292.078" r="2.5"/><circle fill-rule="evenodd" clip-rule="evenodd" fill="#56A1D4" cx="78.161" cy="314.706" r="2.5"/><path stroke="#56A1D4" stroke-width=".25" stroke-miterlimit="10" d="M270.924 218.077L78.616 355.89m192.308-137.813l-166.65 103.7m166.65-103.7l-198.42 74m198.42-74L78.16 314.707m-11.313 24.04l204.077-120.67M45.634 367.032l225.29-148.955M83.01 275.33l187.914-57.253m0 0L56.04 269.673m-.507 35.134l215.39-86.73M39.978 328.847l230.947-110.77M19.157 330.384l251.767-112.307m-249.532 50.89l249.532-50.89m0 0l-228.42 38.36M2.5 291.372l268.424-73.293m-249.31 86.95l249.31-86.95" fill="none"/><circle fill-rule="evenodd" clip-rule="evenodd" fill="#00549B" cx="228.377" cy="61.959" r="2.5"/><circle fill-rule="evenodd" clip-rule="evenodd" fill="#00549B" cx="262.49" cy="87.616" r="2.5"/><circle fill-rule="evenodd" clip-rule="evenodd" fill="#00549B" cx="245.52" cy="50.189" r="2.5"/><circle fill-rule="evenodd" clip-rule="evenodd" fill="#00549B" cx="315.301" cy="4.734" r="2.5"/><circle fill-rule="evenodd" clip-rule="evenodd" fill="#00549B" cx="279.238" cy="4.956" r="2.5"/><circle fill-rule="evenodd" clip-rule="evenodd" fill="#00549B" cx="248.419" cy="22.32" r="2.5"/><circle fill-rule="evenodd" clip-rule="evenodd" fill="#00549B" cx="308.937" cy="66.353" r="2.5"/><circle fill-rule="evenodd" clip-rule="evenodd" fill="#00549B" cx="314.594" cy="39.382" r="2.5"/><circle fill-rule="evenodd" clip-rule="evenodd" fill="#00549B" cx="327.828" cy="25.847" r="2.5"/><circle fill-rule="evenodd" clip-rule="evenodd" fill="#00549B" cx="299.896" cy="25.843" r="2.5"/><circle fill-rule="evenodd" clip-rule="evenodd" fill="#00549B" cx="231.235" cy="42.977" r="2.5"/><circle fill-rule="evenodd" clip-rule="evenodd" fill="#00549B" cx="260.883" cy="2.5" r="2.5"/><circle fill-rule="evenodd" clip-rule="evenodd" fill="#00549B" cx="275.46" cy="43.876" r="2.5"/><circle fill-rule="evenodd" clip-rule="evenodd" fill="#00549B" cx="292.188" cy="55.847" r="2.5"/><circle fill-rule="evenodd" clip-rule="evenodd" fill="#00549B" cx="271.561" cy="61.504" r="2.5"/><path stroke="#00549B" stroke-width=".25" stroke-miterlimit="10" d="M307.19 183.267L228.376 61.96m78.812 121.307l-44.7-95.65m44.7 95.65l-15.002-127.42m15 127.42L271.562 61.504M245.52 50.19l61.67 133.077m-75.956-140.29l75.955 140.29m1.74-116.913l-1.75 116.913m0 0l7.4-143.884m-39.14 4.493l31.73 139.39M248.42 22.32l58.77 160.947M260.882 2.5l46.306 180.767M315.3 4.734l-8.11 178.533m0 0l20.638-157.42m-27.932-.004l7.293 157.424M279.23 4.957l27.95 178.31" fill="none"/><path fill="#56A1D4" d="M42.154 256.796L55.69 270.03l.7-.715-13.536-13.234m-.605-.07l-21.12 12.53.51.86 21.11-12.52m39.83 18.2l-10.51 16.75.84.53 10.52-16.76M72.2 291.68L55.23 304.4l.6.8 16.97-12.72m-51.685 12.5l-2.456 25.355.99.096 2.45-25.35m-19.9-13.3l19.11 13.66.58-.81-19.1-13.66m16.35 39.92L40 329.36l-.075-1-20.865 1.538m47.37 8.563l-21.21 28.284.8.6 21.21-28.285m-.81-.02l11.77 17.15.823-.56-11.77-17.145m37.15-17.17l-26.11-7.07-.26.965 26.11 7.07M77.7 314.5l-11.313 24.04.905.426 11.31-24.04"/><path fill="#E41D39" d="M619.187 402.415l45-1-.017-.75-45 1m44.963-.253l49 6 .092-.744-49-6m.224.112l-24-25-.55.52 24 25m-31.7-40.887l32-3-.07-.746-32 3m31.98-2.256l21 3 .1-.74-21-3m20.61 3.53l10 21 .673-.32-10-21m52.895 13.87l-25-20-.47.59 25 20m-24.465-20.07l23-31-.6-.44-23 31M701.03 327.7l-25 9 .254.71 25-9m-24.81 8.45l-17-27-.63.4 17 27m60.51-14.52l-51-31-.39.64 51 31"/><path fill="#00549B" d="M228.872 62.03l2.858-19.543-.99-.144-2.858 19.544m3.114-19.033l14.284 7.774.48-.878-14.285-7.774m31.487 45.804l9.07-26.112-.944-.328-9.07 26.112m13.15-43.17l16.73 11.97.58-.812-16.727-11.97m16.31 11.894l-20.63 5.656.27.967 20.63-5.657m-43.48-33.745l12.47-19.82-.84-.53L248 22.053m12.82-19.057l18.356 2.456.133-.992-18.36-2.456m39.35 24.134l15.4-21.11-.81-.59-15.41 21.11M314.87 4.99l12.53 21.112.86-.51-12.53-21.114m11.74 21.017L314.236 39.03l.715.7 13.24-13.536M314.11 39.28l-5.656 26.97.98.206 5.655-26.97"/></svg>