<svg xmlns="http://www.w3.org/2000/svg" width="106.594" height="90" viewBox="0 0 106.594 90"><g fill-rule="evenodd" clip-rule="evenodd"><path fill="#00529C" d="M59.1 0l12.853 20.89v48.222L59.1 90h28.164c10.704 0 19.33-8.176 19.33-18.845V19.26C106.594 8.59 97.968 0 87.298 0H59.1zM0 90l12.887-20.89V20.89L0 .035h56.155L43.268 20.89v48.22L56.155 90H0z"/><path fill="#fff" d="M46.802 15.104s4.434-8.488 9.56-8.28l-1.28 9.354 1.074.208s1.28-5.092 1.04-5.75c0 0 4.053 1.905 2.978 7.655 0 0 6.616 2.98 9.596 13.83l2.217 2.77-.31 2.39s2.32 2.08 2.77 3.16c0 0 5.82 9.46 6.166 14.24 0 0 1.04.87-7.24.62 0 0-.208 4.06-2.772 4.06 0 0 3.19 2.57.42 5.55 0 0 2.98.63 4.92 4.26 0 0 4.02 7.38 5.3 10.19 0 0 3.4 7.04-2.11 4.47l-7.24-4.26s1.49 6.86-2.11 5.61c0 0-6.85-2.07-16.17-7.51 0 0-10.43-3.81-15.31-1.49 0 0-6.37 1.49-14.68 7.45 0 0-2.32-7.66 2.77-14.24 0 0 2.15-.21.21-2.565 0 0-.83-2.354 1.28-2.77 0 0 1.91-1.697.21-3.395 0 0-1.28-2.77.45-5.543 0 0 1.04-.412-.24-2.525 0 0-7.31-8.73-5.57-18.95 0 0 1.28-22.796 24.11-18.5z"/><path fill="#00529C" d="M49.122 21.48S50.404 9.596 55.29 7.863c0 0-2.322 5.543-1.283 8.314 0 0 .45 3.187 2.98.623 0 0 1.072-1.696 1.072-3.81 0 0 1.49 2.53 1.28 5.96 0 0 5.75 3.186 8.28 11.465 0 0 2.14 4.26 2.77 4.885l-.63 1.94 3.39 3.394 5.51 11.916s.86 1.49-.83 1.7l-5.75-.21s1.07 3.604-2.57 3.604l-.63.866s2.98 3.602 1.49 4.018c0 0-.42 1.073-1.7 1.28 0 0 5.96 4.678 6.37 6.826l4.88 9.146s2.15 4.02-2.32 1.246c0 0-12.54-6.373-15.11-6.79 0 0-4.26-1.49-.867.832l8.73 3.845s1.696 6.583-2.356 3.81c0 0-15.31-7.654-20.405-8.07 0 0-7.443-3.395-22.1 5.544 0 0-1.94-6.617 4.89-11.918 0 0-3.398-5.3 1.7-3.19 0 0 .41 3.6 6.79 4.26 0 0-8.49-6.62-9.15-9.15 0 0-1.04-7.45 3.843-3.19l7.24 5.09s.83 0-1.076-1.91c0 0-6.376-4.06-8.315-7.04 0 0-10.6-8.07-6.374-22.76 0 0 1.076-14.9 18.08-14.45 0 0 5.13.2 2.15 2.98 0 0-1.28 2.98 1.49 3.81 0 0 1.907 1.07 2.32-1.28z"/><path fill="#fff" d="M58.06 28.718s-3.603 0-.415 1.698l2.528 2.98s-1.905 1.073-1.696 2.146c0 0 1.28 0 2.77-.658 0 0 1.905 2.113 1.49 3.395 0 0-.624 2.56 2.355.86 0 0 4.677-7.87-7.032-10.43zm-15.727 7.45s1.905 5.957 1.246-.867c0 0-3.19-5.09-4.44-5.5 0 0-3.85-3.39-2.98-6.61 0 0-3.43.87-3.85 10.88 0 0 0 8.91 3.6 15.07 0 0 3.22 6.17 8.31 8.52 0 0 1.9-5.09.21-9.56 0 0-.21 6.79-1.08 7.21 0 0-14.03-8.69-7.87-28.68 0 0 1.28 3.4 3.39 4.68 0 .01 2.98 2.98 3.43 4.89zm-4.677-3.396s-3.43-4.92-1.075.624l3.82 7.448s-1.04 3.845.45 4.885c0 0 1.49 2.97 1.49-.84 0 0-2.35-1.49-.24-3.85l-4.43-8.28zM67.24 70.878s7.17 2.876 1.005-2.875c0 0-.174-.277.14-.035 2.112 1.697 6.788 4.296 1.593-.97-1.386-1.386-3.81-2.494-4.54-3.152-.38-.346-.24-1.594.694-1.524 0 0 4.676 1.28 2.355-1.697 0 0-3.846-2.77-9.596-4.054 0 0-1.24.21-.83 2.57 0 0-.21 2.56-1.07-1.28 0 0-1.9-8.07 3.19-7.86 0 0 4.68.42 7.66-1.69 0 0 5.13-3.18 1.7 0 0 0-4.02 3.81.24 1.91 0 0 4.89-.21 4.89 2.56l1.7.21s1.29 0 .21-1.69l-5.09-10.02s-2.35-2.77-3.43-1.9c0 0-.83.87.87 2.57l-2.32-.45s-7.24 5.96-14.06.24c0 0-3.395-2.98-1.904 2.12 0 0 2.115 2.56-.622 5.75 0 0-6.82 9.35.83 18.5 0 0 12.06 5.82 18.29 7.447 1.91.485 4.78.103-2.46-2.46 2.26.21 3.33-.45.59-2.18z"/><path fill="#00529C" d="M55.29 57.645s-.625-5.75 0-6.582c0 0 .414-3.43-2.114-1.074 0-.01-.658 6.16 2.113 7.65z"/><path fill="#fff" d="M63.603 52.344s6.582 1.906 6.582 3.188l.416-2.563s5.55-1.08-.62-1.29l-3.08.42s1.39-1.7-1.38-.83l-1.9 1.07zm-2.355.624s-3.604-.415-1.49 2.32l7.655 3.223 1.49-2.77-7.655-2.77zm-.45-26.78c-1.422-1.003-3.708-2.562-5.787-2.562-2.25 0-3.29 2.46-3.11 4.642.76-1.004 2.7-2.46 3.36-2.702.69-.173 3.95.277 5.55.623z"/><path fill="#00529C" d="M104.62 86.952a1.4 1.4 0 0 1 .345.104c.07.07.14.173.14.277 0 .14-.035.242-.14.276-.068.07-.173.07-.346.1v.34l.41.86h.48l-.52-1.01c.17-.04.31-.11.38-.21.1-.11.14-.25.14-.42 0-.21-.07-.35-.21-.45-.18-.11-.38-.14-.7-.18v.28zm0 2.876v-.278c.207 0 .38-.068.588-.14.207-.068.38-.207.554-.346.14-.172.278-.346.348-.554.103-.208.138-.416.138-.658 0-.243-.035-.45-.104-.658-.104-.208-.21-.416-.382-.554a1.948 1.948 0 0 0-.554-.38 2.898 2.898 0 0 0-.59-.14v-.243c.21 0 .382.035.555.104.208.07.416.18.59.32.242.18.414.42.554.7.14.28.208.56.208.87 0 .28-.07.52-.173.77-.07.24-.208.45-.417.63-.173.18-.415.31-.657.42-.21.1-.417.14-.66.17zm-.45-2.876h.45v-.277h-.866v2.25h.416v-.968h.415l.035.103v-.345h-.45v-.763zm.45-1.074v.242h-.07c-.242 0-.45.07-.658.14-.208.068-.38.207-.555.346-.138.173-.277.38-.38.59-.07.207-.105.414-.105.657 0 .207.034.45.104.658.104.21.208.39.38.52.175.18.348.32.556.39.207.11.416.14.624.14h.104v.28h-.07c-.276 0-.52-.07-.76-.17a1.972 1.972 0 0 1-1.075-1.07 1.79 1.79 0 0 1-.14-.73c0-.21.035-.45.105-.66.07-.2.174-.38.312-.55.208-.24.415-.45.692-.55.277-.14.555-.21.866-.21h.07z"/></g></svg>