<svg xmlns="http://www.w3.org/2000/svg" viewBox="-255 347 100 100"><circle fill="#F4F0D2" cx="-205" cy="397" r="50"/><circle cx="-205" cy="397" r="50" fill="none"/><path fill="#F0C854" d="M-164.2 425.9l-44.5-44.5 28.1-28.1c-2.5-1.4-5.1-2.6-7.8-3.5l-25.9 25.9-19.6-19.6c-2.2 1.6-4.3 3.3-6.2 5.1l52.1 52.1-31.4 31.4c3 .9 6.2 1.5 9.5 1.9l27.6-27.6 12.9 12.9c1.9-1.8 3.7-3.8 5.2-6z"/><circle fill="#fff" cx="-218.1" cy="391.7" r="14"/><path fill="#E45647" d="M-218.1 370.5c-11.4 0-20.6 9.8-20.6 20.6 0 15.2 20.2 36.4 20.6 36.6.4.2 20.6-21.4 20.6-36.6 0-11.4-9.2-20.6-20.6-20.6zm0 33.1c-6.8 0-12.2-5.5-12.2-12.2 0-6.8 5.5-12.2 12.2-12.2 6.8 0 12.2 5.5 12.2 12.2 0 6.7-5.4 12.2-12.2 12.2z"/></svg>