<svg xmlns="http://www.w3.org/2000/svg" width="18.083" height="6.889" viewBox="0 0 18.083 6.889"><path fill="#231F20" d="M17 2.808l.006-.03V2.75l.012-.023.053-.023V2.66l.02-.04.01-.017.01-.007.06-.01.02-.025v-.03l.03-.03.06-.03h.02l.02.02.03.02.08-.01.05-.01v-.03l.02-.01h.03l.02-.002.04-.04v-.01l-.01-.02-.01-.02v-.073l.05-.05.005-.01-.01-.025-.01-.01-.01-.01-.01-.05V2.1l-.023-.06-.01-.004V2l.016-.03.004-.05v-.03l-.02-.04-.027-.03-.02-.048.01-.015-.04-.06-.02-.04-.01-.023V1.6l-.034-.024-.016-.025-.004-.01-.09-.04h-.1l-.073.04-.02.01v.02l.01.01.01.01.02.028v.02h-.02l-.03.02-.02.04h-.014l-.03.01-.04-.01-.02-.01-.034-.07.01-.06-.02-.03-.06-.04.66-.1v.03l.014.02.076.02.01.003.004.006.01.014v.01l.03.02h.01l.036.06.02.035.008.03.01.02v.017l-.007.014v.01l.038.05v.003l.02.053h.01l.03.03.025.06.02.016.01.023v.008l.01.016h.01l.01-.013h.01l-.004-.01-.01-.02-.02-.06-.008-.005-.026-.06-.015-.03-.01-.01-.04-.08-.075-.16-.027-.04-.02-.03-.03-.064-.015-.023-.023-.04-.01-.01-.03-.05-.046-.09-.02-.04-.02-.05v-.01l-.05-.12-.04-.06-.01-.005V.85l-.01-.07-.01-.02-.02-.05-.02-.05-.03-.117-.04-.147v-.01L17.2.192 17.18.07h-.11l-.064.006h-.164l-.177.006-.058.005h-.164l-.16.006-.128.007h-.176l-.06.006h-.17l-.11.006h-.17l-.06.006h-.14l-.18.006h-.04v.018h-.01l-.19.006h-.23l-.05.006-.03-.006-.01-.006-.04.006-.03.006h-.22l-.12.006h-.42l-.02.006h-.34l-.2.004h-.06l-.28.006h-.45l-.1.006H12l-.025.006h-1.53l-.065.006h-.03L10.2.188h-.65L9.455.182H9.04L8.944.176h-.31L8.54.17h-.25L8.235.164h-.03l-.02-.006H8.12L8.112.152l-.1-.006h-.017L7.915.14l-.06-.005h-.06L7.755.13H7.71L7.65.122h-.04L7.567.117h-.035L7.485.11h-.017L7.416.106l-.03.006h-.188L7.075.106H7.07L6.986.1H6.98L6.918.094h-.064l-.1-.012h-.088L6.653.076h-.076L6.57.07h-.04L6.518.064h-.082L6.372.06h-.04l-.08-.008H6.12L5.985.04H5.98L5.955.036 5.92.03l-.03.005h-.01L5.873.03h-.047L5.803.022 5.668.01 5.516 0 5.51.005v.018l.006.012v.01H5.51v.007h-.018L5.486.046v.006L5.48.06v.005l.006.005v.023L5.48.1l-.01.01v.013L5.462.13H5.45v.028l.007.006V.17h.006v.023L5.47.2v.01l-.007.007v.006L5.47.23v.05h.005v.006l-.006.01v.007L5.46.31h-.005l-.013.006-.017.012v.006L5.43.34v.012l-.005.005v.018L5.42.387V.4l-.005.01-.018.018-.01.006L5.38.44l-.005.01v.013l.006.012.02.012v.028L5.39.52v.007l.007.006.01.012v.023L5.41.58v.006l.006.006h.012l.01.01v.025l-.01.006-.012-.006L5.41.62 5.398.616h-.03L5.364.62H5.33V.616h-.013V.61L5.3.597 5.286.592h-.012L5.27.586V.574L5.264.568h-.012l-.018.006-.005.012-.03.006h-.02l-.01.012-.02.006-.01.005V.62h-.01l-.01.013L5.1.65v.012l-.012.012-.012.012L5.06.69 5.052.687 5.03.704l-.02.034-.035.054-.012.022-.047.065-.023.04-.006.01-.03.05-.024.03-.035.06-.005.01-.018.02v.01h-.02L4.74 1.1h-.016l-.007.01v.006l-.02.02-.04.017h-.04l-.01-.004h-.043l-.004-.01-.01-.01v-.02l-.01-.03-.02-.03h-.05l-.006.008h-.02v-.01l-.01-.01-.01-.01-.01-.01-.01-.01h-.02l-.01.004v.01l-.008.01h-.01l-.01.01-.01.01-.014.01H4.32l-.005-.01h-.01l-.01.014-.005.004h-.026l-.014-.01-.018.007-.01.004-.007.01-.007.01-.017.01v.003h-.02v.01h-.04v-.01l-.01.01-.01.01v.01H4.1l-.01.01h-.01l-.007.01-.006.004-.01.01H4.05l-.03.02-.012.01-.017.03-.01.023-.07.13H3.9l-.008.004-.027.02-.012.005H3.85v.01l-.007.01-.01.007-.02.02-.01.01h-.02l-.01.007h-.005l-.018.01h-.02l-.01.01-.01.002v.02l-.02-.005-.01-.01h-.03l-.005.004h-.02L3.61 1.5H3.6v-.02l.006-.026.007-.01-.01-.01H3.6l-.006-.01V1.4l.006-.01.006-.01.01-.017.01-.005.012-.017v-.01h-.012V1.3H3.6l-.013-.01h-.01l.005-.012v-.006l-.03-.03h-.01l-.013.007-.02.01H3.5l-.024.01H3.44v.01l-.02.01v.01H3.4v.01h-.008l-.02.01-.005-.01h-.005l-.04.02-.01.01H3.29l-.026.005-.006.01v.01l-.008.01V1.4l.008.008h.008l.008.01v.003l-.003.01h-.02v.003h-.01v.03h-.01l-.02.02-.01.01.01.01v.01H3.2l-.01.01-.015.006-.004-.01v-.01l-.01-.006-.01-.01-.02-.02v-.01l-.02.01-.01-.01-.02.01-.01.005v.01H3l-.005.013v.024H2.99l-.007.01h-.01v.03l.01.02v.03l.006.01v.01h-.01v.04l-.01.01h-.01l-.02.01v.01l-.01.027v.024l-.01.01h-.01l-.01.005h-.01l-.01.014h-.01v.01l-.02.016-.01.017v.007l-.01.01v.01l-.01.003h-.01l-.01.005v.01l-.018.014-.013.01h-.01l-.01-.01-.014-.006-.045-.02-.01.01h-.02l-.01-.01-.01.003h-.01l-.02-.006h-.03v.01l-.03.02v.01h-.01l-.01.006-.01.01-.01.002h-.05l-.01-.01h-.01l-.01.01v.016l-.01.023h-.01V2l-.01.01v.007l-.012.017h-.01l-.02.006h-.04l-.01-.006-.01.006-.02-.006h-.01v.006l-.01.006-.016.006-.004.006v.023l-.01.02.01.01v.02l-.01.01v.01l-.004.02-.02.01-.016.02v.02l-.003.01-.015.02h-.01l-.015.01h-.01l-.013-.02-.006-.01h-.03l-.01.01-.02.008-.01-.006v.005l-.01.01v.01l-.02.02-.01-.01H2v.01h-.024v.006l-.006.02-.012.01h-.012l-.006.01-.01.01-.02.01h-.005l-.01.006h-.007L1.87 2.3h-.012v.005l-.01.01-.013.012-.012.018h-.017l-.006.01v.006l-.006.01h-.006v.01l-.006.01-.01.03H1.76l-.014.01h-.04L1.7 2.42h-.076l-.018-.01h-.01l-.008.006h-.023V2.4l-.012-.018-.017-.01h-.012l-.012.01-.034.01h-.013v.005H1.43l-.006-.004-.006.006h-.093l-.03.01h-.023l-.006-.01H1.19v.01l-.02.01-.01.01-.04.01-.017.02-.03.02H1.07l-.005-.01-.018.01h-.03l-.007-.01H.967l-.007.01-.002.01-.018.02H.93l-.012.01v.02H.91l-.007.01v.01l-.007.01h-.05l-.01.01v.01l-.02.01H.81l-.007-.01h-.01v.01l-.007.01H.773v.01H.756l-.01.01-.02.01-.005.01v.03l-.01.01H.7l-.01.02-.007.004h-.01l-.003.01-.006.004v.01l.006.02.006.01H.68l.01.013v.01H.686L.68 2.8h.006v.03l-.012.02-.012.01v.004H.65l-.023.01-.007.01.014.03.006.01v.006l-.007.004v.004l-.006.03-.006.01h.01L.65 3l.01.022-.003.01-.012.01h-.02L.61 3.07l-.02.022H.578l-.01.004-.02.005H.52v.02H.517l-.012.01H.498v.01H.433l-.006.01v.01H.364l-.007.01h-.03l-.005.01H.305l-.012-.01H.28l-.004-.01v-.01L.27 3.11v-.004L.258 3.09v-.007l-.006-.005H.23l-.013.01-.024.025-.023.012-.006.005-.006.013-.035.01-.012.018v.02L.1 3.18l-.007.047-.012.056v.04l-.01.112-.02.105v.02l-.01.088v.045l-.02.07.13.006h.77l.01.01h.3l.2.01h.52l.03.01h.34l.16.01.11-.03.08-.02.02-.01.03-.01.21-.06.19-.05.04-.01h.01l.01-.007.01.006h.01v.07l-.01.005.005.01.007.004.01-.004h.01l.01-.01h.025l.003-.01v-.01l.006-.01h.025v-.01l.01-.01v-.01h.03l.02-.01.004-.01h.01l.02-.02-.01-.008.01-.01.003-.007v-.01h.02v.007l.01.007v.005h.03l.01-.008v.002h.01l.01-.01h.01v.005h.02l.01-.013.004-.004.01-.007V3.54h.02l.01.007.02-.01h.06v.01h.01v-.02l.01-.01h.03v.02h.01v-.01h.01l.01-.01h.047l.014-.02h.026l.01.01h.003l.016-.01.016.01v.01l.007.006h-.01l.007.01h.02V3.5l.004-.02.006-.01v-.01l.01-.025v-.01h.02l.01-.003.05-.005.008.01.005.01-.006.005v.028l.002.01H4l.005-.01h.005v-.01h.034l.01.01v.01h.008l.005-.004v.006h.006v.01l.013.004h.01l.004-.02h.004v-.01h.002l.02-.01.02-.006.013-.01.01-.007h.01l.03.005h.01l.03.006h.03l.01.008h.04l.02.01h.04l.06.008.07.006h.03l.08.01h.27l.09.01h.06l.08.01.06.005h.06l.01.01h.08l.01.01h.04l.06.01.05.01h.03l.06.007h.03l.04.01h.06l.04.01h.05l.005.006h.06l.143.015.075.006h.186l.06.008.066.006h.012l.06.005h.03l.026.005h.04l.034.007.04.01h.02v.012l-.01.02v.005h.01l.025.01v.01l.01.01v.02H6.7v.01l-.01.01-.01.01h-.01l-.01.02v.07l.01.01.02.03.11-.08.01-.007.01-.01.04-.03.01-.004v-.02l.003-.01.03-.02.005.016.02.03.02.03.05.02.03.036.03.04.01.024.023.035.027.03.03.06.03.04.04.05.01.02-.01.038-.01.05-.03.16v.034l-.007.01h.16l.054.006h.14l.066.007h.13l.06.004h.13l.014.01h.16l.02.004h.13l.09.007h.46l.013.01h.67l.014.01.03.02.03.02.018.02.003.004.02.026.026.023.03.02.07.074.01.014.04.04.024.025h.01l.06.06.01.02.02.025.01.015.03.02.06.065.11.11.02.02.05.06.01.01.01.005.01.015.02.01v.01l.02.02.02.02.026.03.07.066.01.02.013.002.032.037.005.01.03.03.01.006.02.017.074.08.02.017.07.07.08.08.06.063.094.1.01.02h.003l.03.03.01.014.01.01.01.01.015.01.01.014.04.03.04.037v.01l.04.04.02.02.01.016h.006l.04.03.06.06.03.033.155.16.046.05h.01l.02.015.08.086.02.025h.01v.01l.04.04.03.03.04.046v.01l.01.01.01.01.017.01h.007l.03.034.036.033.03-.012.01-.01.02-.01.06-.02h.01l.013-.004h.006l.01-.01.02-.01.14-.06h.013l.057-.003.16-.02.08-.01h.206l.013.004.03.003h.03l.014.005h.01l.01.004.024.01h.01l.07.03h.02l.02.003.01.01.02.03v.02l.01.01.072.03.02-.02.01-.05.02-.08.04-.08.04-.11v-.02l.01-.01.02-.06.004-.02.025-.08.01-.04.01-.01.023-.07.03-.08.03-.053.032-.05.03-.06.01-.014.04-.07.01-.01.06-.066.042-.055.005-.006.02-.02.03-.04.05-.055.02-.01.037-.035.09-.08.02-.02.04-.036.01-.01.04-.037.036-.03h.005l.02-.02h.01l.04-.02.056-.05.23-.13.02-.015.017-.01.03-.01.09-.073.052-.04.01-.01h.024l.01-.01.02-.02h.02l.006-.01.01-.005.02-.013.04-.02.017-.01.02-.006.04-.015.04-.02h.01l.02-.01.02-.01.1-.03h.087l.01-.01.09-.02.05-.01h.1l.09-.01h.04l.03-.005h.12l.04.006h.05l.016.007.02.004v.006l.04.02.052.01.026.013.024.01.02.01.02.003.04.02.01.01v.037l-.01.005-.01.03.025.03.02.034h.01l.01-.04.002-.02V4.9h.004l.03-.068.02-.052.01-.01.076-.115.06-.088.006-.006.06-.08.003-.01v.01l.05-.05.07-.07.03-.03.07-.06.08-.07.19-.21.13-.11.077-.07-.01-.01-.01-.01-.04-.01h-.01l-.05.07-.037.04-.1.11-.065.08-.08.1-.08.07-.02.02-.08.07-.03.03-.007.01-.04.05-.02.017-.01.005-.026.02-.01.01h-.02l-.01-.01-.02-.01V4.4l.004-.04.02-.024.01-.01h.01l.03-.02v-.01l.02-.014h.04l.03-.03.03-.034.02-.04.006-.01.05-.05.01-.014.01-.036-.01-.016-.03-.02-.01-.02v-.02l.007-.02.004-.004v-.02l-.003-.013-.054-.023-.07-.03-.02-.003.006.02.024.02.04.08.01.02-.01.02-.136-.01-.01-.01-.01-.03h-.003l-.013-.02h-.01l-.01-.02-.02-.08v-.04l-.01-.02-.05-.05h-.01l-.01.01-.01.04-.02.04.005.05-.01.02-.01.01-.075.02h-.06l-.04.02h-.085l-.03-.04-.008-.02-.01-.01v-.05l.014-.03.03-.02h.02l.03-.02.01-.02v-.02l.01-.025h.026l.02-.01.016-.03.007-.01.025-.02.02-.05-.005-.04.01-.015v-.01l.03-.05.04-.037V3.44h.01l.01-.02.01-.03.01-.016.01-.008.02-.05v-.05l-.02-.04-.02-.05-.04-.026-.1-.01-.013-.004-.07-.004-.03-.01-.005-.008-.03-.017-.02-.06.02-.03.025-.02.05-.01.07-.03.055-.01.05.02.03.02H16l.022-.02.01-.006h.018l.04.03.002.04h.02l.022.01.004.01h.02l.02-.02h.01l.01.01.02.02.03.007h.016l.01-.02h.053l.05.02.033.003h.01l.01-.02h.034l.057.03h.05l.03.01v.006h.04l.01-.008.02-.03.02-.01.06-.027.05-.03.03-.03-.01-.02V2.9l.01-.01.012-.02.03.01.02.01.01-.01.01-.02.01-.01v-.03l.01-.03.06-.01zm-.687-1.213L16.3 1.6l-.028.007-.047.006-.006-.006-.03-.034.19-.03-.08.052zm1.753.75l-.018-.088-.01-.047-.042-.124-.012-.03v-.004l-.006-.006-.04-.07-.013-.006-.006.012.01.035v.032l.01.02v.06l.01.04v.03l.01.01v.02H18l.006.02.01.02.02.06.005.06.01.11v.03l-.01.03v.07l.01.03-.01.08-.01.07v.09l-.02.13-.01.05-.01.07v.03l-.01.01h-.01l-.03.01h-.04v-.01h-.02l-.003-.01v.02l-.003.02-.03.01-.03.03-.02.01-.05.02h-.02l-.01-.01-.006.002-.016.016-.01.01-.014.02-.02.01-.038.01-.02.01-.015.01-.07.015-.014.01-.013.01-.03.01-.01.007-.04.01-.11.06-.03.025-.03.02-.06.04-.02.01-.017-.01-.006.003h-.02v.02h-.01v.02l.01.02-.01.02-.02.015-.02.04-.01.01.01.005.01-.007v-.01h.01l.03-.04.04-.02.033-.034.07-.04.143-.08.1-.05.04-.025h.015l.01-.006.02-.01.04-.02.11-.05.07-.03.05-.02.058-.01h.04l.04.007.012.01h.002l.014-.03.01-.02.01-.02V3.2l.02-.13.025-.18.002-.01v-.03l.024-.18.004-.14V2.5l.006-.04V2.4l-.02-.07zm-.44-.498l.012.018.06.012.034.023h.006l.012-.018-.006-.03v-.005l-.006-.023V1.8l.006-.018-.03-.07-.017-.03-.006-.006v-.023l-.01.006h-.01v-.03l.01-.02-.02-.02v-.01l-.02-.01-.01-.02-.03-.01h-.03l-.02.01.01.01.04.02.02.01v.02l.037.04h.01l.02.03v.02l.01.02v.05l-.03.014z"/></svg>