<svg xmlns="http://www.w3.org/2000/svg" viewBox="3 299 599.3 223.9"><g fill="#fff"><circle cx="550.9" cy="320.9" r="3.1"/><circle cx="509.5" cy="447.5" r="3.1"/><circle cx="507.1" cy="423.7" r="3.1"/><circle cx="489.3" cy="423.3" r="3.1"/><circle cx="500.3" cy="387.3" r="3.1"/><circle cx="430.6" cy="491.8" r="3.1"/><circle cx="410.3" cy="509.9" r="3.1"/><circle cx="457.3" cy="411.1" r="3.1"/><circle cx="468.4" cy="449.2" r="3.1"/><circle cx="429.5" cy="434.2" r="3.1"/><circle cx="470.7" cy="383.2" r="3.1"/><circle cx="491.5" cy="362.5" r="3.1"/><circle cx="496.4" cy="322" r="3.1"/><circle cx="457.7" cy="311.4" r="3.1"/><circle cx="459.2" cy="358.3" r="3.1"/><circle cx="434" cy="395.1" r="3.1"/><circle cx="438" cy="369.6" r="3.1"/><circle cx="438.7" cy="348" r="3.1"/><circle cx="404.1" cy="430.2" r="3.1"/><circle cx="405.7" cy="387.1" r="3.1"/><circle cx="413.9" cy="319.2" r="3.1"/><circle cx="382.4" cy="373.9" r="3.1"/><circle cx="365.7" cy="419" r="3.1"/><circle cx="379.6" cy="457" r="3.1"/><circle cx="378.5" cy="486.9" r="3.1"/><circle cx="361.5" cy="453.3" r="3.1"/><circle cx="353.8" cy="388.4" r="3.1"/><circle cx="373.1" cy="348.8" r="3.1"/><circle cx="366.4" cy="311.3" r="3.1"/><circle cx="340.9" cy="338.4" r="3.1"/><circle cx="332.1" cy="409.8" r="3.1"/><circle cx="314.5" cy="436.4" r="3.1"/><circle cx="306" cy="396" r="3.1"/><circle cx="310" cy="369.6" r="3.1"/><circle cx="315.2" cy="309.5" r="3.1"/><circle cx="281.8" cy="426" r="3.1"/><circle cx="279.7" cy="398.2" r="3.1"/><circle cx="285.9" cy="355.3" r="3.1"/><circle cx="304.5" cy="343.3" r="3.1"/><circle cx="278.7" cy="336.2" r="3.1"/><circle cx="252" cy="310.5" r="3.1"/><circle cx="264.6" cy="371.1" r="3.1"/><circle cx="240" cy="406.6" r="3.1"/><circle cx="238.6" cy="359.5" r="3.1"/><circle cx="219.5" cy="331" r="3.1"/><circle cx="217.2" cy="396" r="3.1"/><circle cx="212" cy="366.2" r="3.1"/><circle cx="184.4" cy="363.9" r="3.1"/><circle cx="197.4" cy="402" r="3.1"/><circle cx="167.7" cy="394.3" r="3.1"/><circle cx="168.5" cy="367.8" r="3.1"/><circle cx="160.2" cy="344.7" r="3.1"/><circle cx="127.3" cy="374.3" r="3.1"/><circle cx="132.7" cy="396.7" r="3.1"/><circle cx="101.5" cy="376.5" r="3.1"/><circle cx="83.8" cy="391.4" r="3.1"/><circle cx="31.6" cy="414.1" r="3.1"/></g></svg>