<svg xmlns="http://www.w3.org/2000/svg" viewBox="6 300 599.3 223.9"><g fill="#fff"><circle cx="570" cy="314.6" r="3.1"/><circle cx="592.9" cy="352.2" r="3.1"/><circle cx="582.6" cy="372.3" r="3.1"/><circle cx="601.1" cy="403" r="3.1"/><circle cx="494.3" cy="430.1" r="3.1"/><circle cx="521.7" cy="445.9" r="3.1"/><circle cx="500.9" cy="418.5" r="3.1"/><circle cx="520" cy="403.5" r="3.1"/><circle cx="482.3" cy="383.9" r="3.1"/><circle cx="502.2" cy="381.5" r="3.1"/><circle cx="458.8" cy="392.5" r="3.1"/><circle cx="464.6" cy="404.7" r="3.1"/><circle cx="445.4" cy="428.4" r="3.1"/><circle cx="443.5" cy="480" r="3.1"/><circle cx="443" cy="496.9" r="3.1"/><circle cx="466.3" cy="358" r="3.1"/><circle cx="476.5" cy="317.6" r="3.1"/><circle cx="497.9" cy="326.8" r="3.1"/><circle cx="507.5" cy="318.6" r="3.1"/><circle cx="519.9" cy="319" r="3.1"/><circle cx="509.5" cy="350.3" r="3.1"/><circle cx="530.7" cy="346.2" r="3.1"/><circle cx="534.3" cy="331.2" r="3.1"/><circle cx="540.3" cy="337.6" r="3.1"/><circle cx="547.2" cy="340.9" r="3.1"/><circle cx="554.3" cy="336.3" r="3.1"/><circle cx="556.1" cy="326.5" r="3.1"/><circle cx="450.3" cy="354.4" r="3.1"/><circle cx="417.1" cy="343.7" r="3.1"/><circle cx="438" cy="350.8" r="3.1"/><circle cx="392.9" cy="368.1" r="3.1"/><circle cx="382.2" cy="370.8" r="3.1"/><circle cx="370.4" cy="322.4" r="3.1"/><circle cx="362.7" cy="451.6" r="3.1"/><circle cx="337.2" cy="412.8" r="3.1"/><circle cx="340.8" cy="400.3" r="3.1"/><circle cx="351.1" cy="372.8" r="3.1"/><circle cx="338.6" cy="372.7" r="3.1"/><circle cx="315.7" cy="371.6" r="3.1"/><circle cx="305.8" cy="399.1" r="3.1"/><circle cx="311.3" cy="408.8" r="3.1"/><circle cx="301.2" cy="355.4" r="3.1"/><circle cx="320.8" cy="315.2" r="3.1"/><circle cx="285.9" cy="370.9" r="3.1"/><circle cx="283.1" cy="361.1" r="3.1"/><circle cx="270.8" cy="379.7" r="3.1"/><circle cx="258.1" cy="388.7" r="3.1"/><circle cx="260.6" cy="403.9" r="3.1"/><circle cx="261" cy="394.5" r="3.1"/><circle cx="263" cy="425.1" r="3.1"/><circle cx="295.5" cy="429.4" r="3.1"/><circle cx="316.6" cy="433.2" r="3.1"/><circle cx="243.1" cy="366.3" r="3.1"/><circle cx="224.1" cy="405.7" r="3.1"/><circle cx="218.5" cy="386.7" r="3.1"/><circle cx="219.6" cy="355.6" r="3.1"/><circle cx="195.4" cy="357.8" r="3.1"/><circle cx="227.3" cy="311.9" r="3.1"/><circle cx="203.1" cy="316.5" r="3.1"/><circle cx="190.1" cy="334.3" r="3.1"/><circle cx="173.8" cy="344.7" r="3.1"/><circle cx="159.6" cy="353.7" r="3.1"/><circle cx="150.5" cy="360" r="3.1"/><circle cx="144.6" cy="353.3" r="3.1"/><circle cx="121.9" cy="358.4" r="3.1"/><circle cx="134.5" cy="402.6" r="3.1"/><circle cx="101.3" cy="382.6" r="3.1"/><circle cx="88.4" cy="394.8" r="3.1"/><circle cx="71.1" cy="406.6" r="3.1"/><circle cx="165.8" cy="397.5" r="3.1"/><circle cx="406.1" cy="323.6" r="3.1"/><circle cx="394.2" cy="329.4" r="3.1"/></g></svg>