<svg xmlns="http://www.w3.org/2000/svg" viewBox="6 298 599.3 223.9"><path fill="#fff" d="M569.7 388.6l.2-1v-1l.5-.8 1.8-.8v-.2l-.2-.5v-.5l.6-1.4.3-.4.2-.2 2-.3.6-.8v-1l.8-1.2 1.8-1 .5-.2.6.6.9.6 2.7-.4 1.5-.5-.2-1.2.6-.6.2-.2.2-.2.2-.2.5-.2 1.4-1.3v-.4l-.6-.8-.3-.6-.2-.8v-1.4l1.8-1.7.2-.4-.2-.8-.2-.3-.2-.2-.4-1.7v-.5l-.8-2-.2-.2-.2-.2.2-.5.5-.9.2-1.8v-.9l-.6-1.3-.9-.9-.5-1.5.2-.5-1.4-1.9-.6-1.3-.4-.8v-.5l-1.2-.8-.5-.9-.2-.4-2.9-1.3-3.2.1-2.5 1.2-.7.4v.4l.2.2.4.2.7.8v.9l-.2.2-.2.2-.9.6-.7 1.5-.4.2-.8.2-1.4-.4-.4-.2-1.2-2.3.4-1.9v-.2l-.7-.9-2.1-1.4 21.9-3.3v.9l.5.6 2.5.5.4.2.2.2.4.4v.2l.2.4 1 .8.4.2 1.2 2.2.8 1.2.2 1 .2.5v.5l-.2.4v.4l1.2 1.8.2.2.8 1.8.2.2.9 1.2 1 2 .6.6.4.8v.2l.2.4h.4l.2-.5h.2l-.2-.2-.4-.6v-.2l-.8-1.8-.2-.2-.9-1.9-.4-1.2v-.2l-.2-.2v-.2l-1.3-2.5-2.6-5.3h-.2v-.2l-.8-1.3-.4-1-1-2.2-.6-.9-.8-1.3-.4-.3-1-1.8-1.6-3.1-.6-1.3-.8-1.5v-.2l-.2-.2-1.5-4-.8-2-.2-.2v-.2l-.8-2.3-.2-.5-.6-1.7-.6-1.5-1.2-3.9-1.2-4.9v-.3l-1.7-6.4-.8-4.1h-3.7l-2.2.2-5.5.1-5.9.2-1.9.2-5.5.1-5.3.2-4.2.2-5.9.1-1.7.2-5.6.1-3.7.2-5.5.1-1.7.2h-4.5l-6 .2h-1.4v.4l.2.2h-.4l-6 .2-7.6.1-1.7.2-1-.2-.2-.2-1.4.2-1 .2-7.3.1-3.9.2-14.5-.9-.8.2h-11.3l-6.7.2h-1.9l-9.3.2-14.9.1-3.3.2h-8.6l-1 .2-50.8.2-2.2.2-6.3-.2-21.6.1-3.2-.2-13.8.1-3.1-.2-10.3.1-3.1-.2h-8.3l-1.8-.2h-1l-.8-.2h-2.1l-.2-.2-3.3-.2h-.6l-2.7-.2-1.9-.2h-1.9l-1.4-.2h-1.5l-1.9-.2h-1.4l-1.4-.2-1.2.1-1.7-.6h-.5l-1.7-.2-1 .2h-6.2l-4.2-.2-2.7-.2h-.2l-2.1-.2h-2.1l-3.3-.4-2.9.2-.4-.2h-2.5l-.2-.2h-1.4l-.4-.2h-2.7l-2.1-.2H215l-2.5-.2H208l-4.5-.4h-.2l-.7-.2-1.2-.2-1 .2h-.4l-.2-.2h-1.5l-.8-.2-4.5-.4-5-.3-.2.2v.5l.2.4v.5h-.5l-.2-.2v.2l-.2.2v.2l.2.2v.7l-.2.2-.3.4v.4l-.2.2h-.4v1l.2.2v.2h.2v.7l.2.2v.4l-.2.2v.2l.2.2v1.8h.2v.2l-.2.4v.2l-.2.2h-.2l-.4.2-.6.4v.2l.2.2v.4l-.2.2v.5l-.2.4v.4l-.2.4-.6.6-.3.2-.2.2-.2.4v.4l.2.4.4.4v.2l.2.2-.2.4v.2l-.2.2v.2l.2.2.4.4v.7l.2.4v.2l.2.2h.4l.4.3v.9l-.3.2-.4-.2-.2-.2-.4-.2h-1l-.5.3-1.2.1v-.2h-.4v-.2l-.5-.3-.4-.2h-.4l-.2-.2v-.4l-.2-.2h-.4l-.5.2-.2.4-.9.2h.2l-.6.4-.4.2-.3.2-.2.2h-.2l-.4.4-.6.5-.2.4-.4.4-.4.4-.5.2-.2-.2-.8.6-.5 1.2-1.2 1.9-.5.7-1.5 2.2-.8 1.4-.2.5-.9 1.8-.8.9v.2l-1.2 1.9-.2.4-.6.8v.5h-.2l-.2.2-.4-.4h-.2l-.4-.3-.2.4v.2l-.5.6-1.2.5h-1.5l-.2-.2h-.4l-.3.2h-.9l-.2-.2-.2-.5-.2-.4v-.6l-.2-.9v-.1l-.4-.8h-.5l-.4.2h-.9l-.2.2h-.5v-.2l-.2-.2h-.2l-.2-.2-.4-.2-.4-.4-.4-.2h-.4l-.3.2v.2l-.2.4-.2.2-.4.4v.2h-.2l-.3.2v.2l-.4.4-.2-.2-.2-.2h-.3l-.2.4-.2.2h-.4v-.2h-.5l-.6-.6-.5.2-.3.2-.2.2-.2.2-.6.4-.2.2h-.3l-.2.2-1.2.1v-.2l-.3.2-.3.2v.2l-.4.2-.4.2h-.2l-.2.2-.2.2-.3.2h-.2l-.9.8-.4.4-.6.8-.4.8-2.6 4.3-.2.2-.2.2-.8.4-.4.2-.2.2v.2l-.2.2-.3.2-.6.5-.4.4h-.7l-.2.2h-.2l-.5.2-.2.2h-.5l-.4.4-.3.2-.2.5-.8-.2-.4-.2-.2-.2v-.3h-.2l-.7-.2-.2.2h-.4l-.4-.2h-.2v-.5l.2-1 .2-.2-.2-.4h-.2l-.2-.2v-.7l.2-.2.2-.4.3-.5.2-.2.4-.4v-.5l-.2-.2-.2-.2v-.2l-.4-.2-.4-.3h-.3l.2-.4v-.2l-1-.9-.4.2-.4.4h-.5l-.9.4-.2.2-.8.2-.2.2v.2l-.2.2-.8.4-.2.2-.4.2h-.4v.4l-.2.2-.6.4-.2-.2-.2.2-1.3.8-.2.2h.1l-.4.2-.8.2-.2.2v.3l-.2.2-.2.2v.7l.2.2h.2l.2.2v.2l-.2.4h-.4v.2h-.2v1h-.2l-.8.5-.5.5v.2l.2.4-.2.2h-.3l-.3.2-.4.2-.2-.5-.2-.4-.4-.2-.4-.3-.5-.6-.2-.2-.5.2-.5-.5-.2-.2-.9.4-.5.2-.2.2-.2-.2-.2.5v.9h-.2l-.2.2h-.3l.1 1.2.4.4v1l.2.2v.4l-.2.2v.2l.2.2v.2h.2v.4l-.2.2-.2.2h-.3l-.4.4h-.2v.4l-.2.7v.9l-.2.2h-.3l-.2.2-.2.2-.2.5h-.5v.2l-.6.5-.2.5v.2l-.2.2v.2l-.2.2-.2.4.2.2-.2.2h-.3l-.4.2-.2.4-.4.4-.6.4h-.5l-.4-.3-.4-.2-1.5-.8-.2.2h-.5v-.2l-.4-.2-.4.2h-.4l-.5-.2h-.4l-.4.2v.2l-.8.6h-.2v.2h-.4l-.3.2-.2.2-.4.2-.5-.2-1.4.2v.2l-.4-.2h-.4l-.4.4v.4l-.4.8h-.2l-.4.2-.2.4v.2l-.5.5h-.2l-.5.2H86l-.2-.2-.2.2-.5-.2h-.5v.2l-.2.2-.5.2-.2.2v.7l-.2.4.2.2-.2.4v.2l-.4.4h-.2l-.2.2-.2.4-.4.2h-.4l-.6.4v.5l-.2.4-.4.4H82l-.5.2h-.2l-.4-.4-.2-.3-1-.2-.2.2-.5.2-.2-.2v.2l-.4.4v.4l-.2.2v.2l-.6.5h-.2l-.2-.2-.4.2v.2h-.7v.2l-.2.5-.4.2h-.4l-.2.2-.3.2-.5.2v.2h-.2l-.3.2h-.2l-.5-.2h-.4v.2l-.3.4-.4.4-.5.6H71l-.2.2v.2l-.2.2h-.2v.3l-.2.2-.4.8h-.4l-.4.4-1.4-.2-.2-.2h-2.6l-.5-.2H64l-.2.2h-.7v-.2l-.4-.6-.5-.3-.2-.2-.4.4-1.2.4H60v.2h-.5l-.5-.2-.2-.2-.2.2-.2-.2h-2.9l-1 .4h-.7l-.2-.2-1 .2-.6.8-.2.2h-.7v.4l-.6.4-.3.4-1.2.4-.6.5-.9.8h-.2l-.2-.2-.6.5h-1l-.2-.2-1.2.1-.4.2-.2.2-.2.4-.6.8h-.2l-.4.4v.5H42l-.2.4v.4l-.2.4-.3.2h-.2l-.4-.2h-.2v.2H40l-.3.4v.2l-.7.2-.2.2-.2-.3h-.3v.4l-.2.4h-.2l-.2-.2v.2l-.2.2v.2h-.4l-.3.5-.5.2-.2.4-.2.2-.2.4v.2l-.2.2h-.2l-.3.5-.2.2h-.2l-.2.2-.2.2v.2l.2.4.2.2h.2l.4.6v.2l-.2.2-.2.2h.2v1l-.5.6-.4.4v.2l-.4.2-.8.4-.2.2.4 1 .2.2v.2l-.2.2v.2l-.2.7-.2.4h.2l.4.2.4.8-.2.4-.4.4-.4.2-.6.8-.6.8h-.4l-.3.2-.5.2h-.2l-.4.2h-.2v.4h-.2l-.4.4h-.2v.2h.3l-.4-.2-1.2.1-.2.2v.2h-.5l-.2-.2h-1.4l-.2.2-.4-.2h-.2l-.4.2-.2.2h-.5l-.2-.9h-.4l-.2-.4v-.5l-.2-.2v-.2l-.4-.4v-.2l-.2-.2h-.7l-.4.4-.8.8-2-.4-.2.2-.2.4-1.2.4-.5.5-.2.2-.2.2-.2-.2-.2 1.5-.4 1.9-.2 1.2v.2l-.5 3.7-.6 3.5-6.4-.5-.2 3.1-.2.8v.5l-.3 2.6 4 .1 1.8.2h1.9l1.8.2 2.4.2 1.2-.1 2.1.2 4.5.2h1.8l1.7.2h2.9l1 .2 3.3-.1.4.2h2.7l1.8.2 3.5-.1 1.8.2h.4l6.6.3v-.4h1.5l3.2.2h4.5l6.9.2h1l1 .2H83l5.5.2 3.5-.9 2.7-.8.5-.2.8-.2 7-1.9 6-1.6 1.3-.5h.2l.2-.2.2.2h.2v.5l-.2.4v.2l-.2.2.2.2.2.2.2-.2h.2l.3-.2h.9l.2-.4v-.2l.2-.2h.7v-.3l.4-.2.2-.2v-.4h1l.5-.2.2-.2h.2l.2.2.6-.6v-.9l-.2-.2.2-.2v-.2l.2-.2v-.4h.7v.2l.2.2v.2h1l.4-.2v-.2h.2l.4-.4h.4l.2.2h.5l.2-.4.2-.2h.2l.4-.2v-.2h.7l.2.2.8-.4h.5l.4-.2h.2l.2-.2.2-.2.2-.2h.2v.2l.2-.2h.2v-.4l.1-.2h1v.2h.2v.2h.5v-.2h.2l.2-.2.2-.2h1.4l.5-.5.2-.2h.4l.4-.2.4.2h.2l.6-.4.4.2v.2l.2.2h-.3v.2l.2.3h.7l.2-.2.2-.2.2-.5.2-.4v-.7l.5-.8.2-.4.2-.2h.4l.3-.1 1.5-.3.2.3.2.4-.2.2v.7l.2.2.2.2h.4l.2-.2h.2v-.4l.2-.2h.4l.4-.2h.2l.4.2v.2h.2l.2-.2v.2h.2v.2l.4.2h.2l.2-.2h.2v-.2h.2l.5-.2.8-.2.4-.2.4-.2h.5l1.2.2h.4l1 .2h1l.4.2h1.4l.8.2 1.2-.1 1.9.2 2.4.2h1l2.9.2h.5l2.1.2h.4l1.2.2h1l2.9.2h.5l2.9.2 1.2.2h1l2.7.2 1.9.2h2.1l.2.2h2.5l.4.2h1.4l1.9.2 1.5.2h1l1.9.2 1.2-.1 1.2.2h1.9l1.5.2h1.8l.2.2h1.9l4.9.4 2.6.2h1l.5.2h2.6l.2.2h1.8l1.9.2 2.1.2h.5l2.1.2h1l.8.2h1.4l1.2.2 1.4.2h.7v.2l-.2.2v.2l-.5.8v.2h.2l.8.5v.4l.4.6v.5l-.2.2v.2h-.5l-.2.2h-.2v.2l-.2.2h-.2l-.2.5v2.3l.4.4.6.9 3.7-2.6.2-.2.3-.2 1.6-1 .2-.2.2-.2.2-.2 1-.6.2.4.8.9.8 1.2.6.8.9 1.2.9 1.3.4.8.8 1.2.7.9 1.2 1.9 1 1.3 1.4 1.8.4.6-.2 1.2-.2 1.6-.8 5.3.1 1.2-.2.4 5.5-.1 1.8.2h4.8l2.1.2h4.2l1.9.2h4.2l.5.2 5.3-.1.5.2h4.2l3.1.2h2.9l1.8.2h4.5l1.5.2h4.6l.4.2h2.3l2.7.2 12.4-.1 1.4.2 3.3-.1.4.4.7.8.9.9.5.6.2.2.8.8.8.8.9.7 2.2 2.5.4.4 1.5 1.5.8.8h.2l2 1.9.5.8.6.8h.2l.5.5v.2l.8.6 1.9 2.1 3.6 3.6.6.6 1.7 1.9.4.4.2.2.4.4.7.6v.2l.6.6.7.8.8.9 2.2 2.1.2.4.4.2 1.2 1.2.2.3.9 1 .2.2.6.6 2.5 2.7.6.6 2.4 2.3 2.8 2.5 1.9 2.1 3.2 3.2.4.6h.2l.9.9.4.4.2.4.2.2.6.5.2.4 1.3 1.2 1.2 1.2.2.4 1.3 1.2.6.8.4.4h.2v.2l1.2 1 2 1.9.9 1.2 5.3 5.3 1.5 1.8h.2l.5.6 2.8 2.7.6.8h.2v.2l1.5 1.4.9.9 1.5 1.5v.2l.4.3.3.3.4.4h.2l.9 1.2 1.1 1.1 1-.4.3-.4h.2l.6-.4 1.7-.7h.2l.4-.2h.2l.4-.2.8-.2 4.9-1.9h.4l1.9-.2 5.3-.6 2.7-.2h6.8l.5.2 1 .2h.9l.4.2h.4l.2.2.7.2h.4l2.3.8h.5l.5.2.2.4.4 1v.9l.2.4 2.5 1 .8-.6V521l.2-1.8.6-2.8 1.3-2.7 1.2-3.5.2-.7.2-.4.5-1.9.2-.5.8-2.5.4-1.2.4-.4.8-2.3.9-2.8.9-1.8 1.2-1.8v-.2l1.2-2 .4-.4 1.4-2.3.2-.2v-.2l1.8-2.2 1.5-1.9.2-.2.7-.8.9-1.4 1.8-1.7.6-.4 1.2-1.2 2.9-2.8.5-.5 1.3-1.2.4-.2 1.3-1.2 1.1-.8h.2l.6-.6h.2l1-.8 1.9-1.4 7.6-4.3.8-.6.4-.2.8-.5 3.1-2.5 1.8-1.4.3-.4h.2l.6-.4.2-.2.6-.6.5-.2.2-.2.2-.2.8-.4 1.2-.6h.2l.4-.4.8-.2 1.3-.6 1.3-.6h.4l.8-.4.5-.2 3.6-1.2.2-.2h.4l2.1-.4h.2l.4-.2.5-.2 3-.6 1.8-.5h.4l.5-.2h.4l.9-.2.7-.2h.4l3.1-.4 1.4-.2 1-.2h4.1l1.4.2h1.8l.4.2.5.2v.2l1.4.6 1.8.4 1 .4.7.2.8.5.5.2 1.4.7.2.2.1 1.2-.3.2-.2 1 .8 1.1.6 1.2.2-.2.4-1.2.2-.7v-.2h.2l1-2.2.7-1.8.4-.4 2.5-3.9 1.9-2.9.2-.2 1.9-2.5.2-.4v-.2l1.8-1.7 2.2-2.5.9-1 .2-.2 2.3-2.2 2.7-2.3 6.2-7 4.3-3.7 2.5-2.5-.2-.4-.4-.4-1.4-.6-.4.2-1.5 2.2-1.2 1.3-3.3 3.5-2.2 2.5-2.5 3.1-2.7 2.3-.8.8-2.5 2.4-.2.2-.8.9-.2.4-1.4 1.6-.6.4 2.9 1.9-.8.8-.4.2h-.7l-.5-.2-.5-.3v-1l.2-1.4.6-.8.2-.4h.4l.9-.6.2-.4.6-.4h1.4l.9-.9.9-1.2.6-1.2.2-.4 1.6-1.8.3-.4.2-1.2-.2-.5-.9-.5-.5-.5v-.9l.2-.5.2-.2v-.7l-.2-.3-1.8-.7-2.3-1-.7-.2v.2l.2.5.7.6 1.4 2.5.4.8-.5.6-4.5-.2-.2-.2-.4-1h-.2l-.6-.6h-.2l-.4-.4-.6-2.5v-1.4l-.4-.8-1.6-1.5-.4.2-.4.4-.4 1.5-.6 1.4-.2 1.5-.2.4-.4.4-2.5.6-1.9.2-1.3.6h-.2l-2.5-.2-.9-1.3-.2-.5-.2-.3V423l.5-.8 1.2-.8h.5l.9-.6.5-.6v-.7l.5-.8h.7l.6-.4.4-1 .2-.5.8-.6.6-1.5v-.5l-.2-1.4.2-.4v-.4l.9-1.5 1.2-1.2.2-.2.4-.2.2-.8.2-1 .5-.6.4-.2.6-1.5v-1.4l-.5-1.3-.8-1.5-1.2-.8-3.3-.4-.4-.2-2.4-.2-1-.2-.2-.2-.9-.6-.6-1.7.6-.8.9-.8 1.7-.2 2.2-.2 1.7-.2 1.5.8.9.8h.7l.8-.8.4-.2h.4l1 .4.2 1.4h.4l.4.2.8.4.2.4h.5l.8-.6.4-.2.4.2.8.6 1 .2.5-.2.5-.6.5-.2h1.5l1.5.8 1.2.2h.4l.5-.6 1.2-.1 1.9.9h1.8l.8.4.2.2 1.2.2.3-.2v-.7l.8-1 .5-.2 2-.8 1.5-1 .8-.9-.3-.9-.2-.3v-.5l.2-.4.6-.6 1 .2.8.5.4-.2.3-.5.2-.4-.2-.8.2-.7.4-.7zm-23-40.2l-.4.2-1 .2-1.5.2-.2-.2-.8-1.1 6.4-1c.1 0-2.5 1.7-2.5 1.7zM605 373l-.6-2.9-.4-1.5-1.4-4.1-.4-1v-.2l-.2-.2-1.4-2.3-.4-.2-.2.4.4 1.2.2.4.2.8.4.8v.4l.2.5v1l.5 1.5.2 1 .4.6.2.5h.2l.2.5.4.8.5 2.2.2 1.9.2 3.9-.2 1.2-.4 1v2.3l.2 1-.4 2.8-.4 2.3-.2 3.1-.7 4.3-.2 1.5-.4 2.3-.3.9-.2.4-.5.2-1 .4-1.5.2-.2-.2h-.5l-.2-.2v.9l-.2.4-1 .5-.9.9-.8.4-1.5.6h-.7l-.4-.4h-.7l-.5.6-.4.2-.6.6-.6.4-1.2.4-.8.2-.6.4-2.2.4-.5.5-.6.4-.8.4-.4.2-1.3.4-3.4 2.1-.9.8-1 .6-2.1 1.4-.8.2-.4-.4-.2.2h-.6v.2l-.2.2v.5l.2.5-.2.7-.6.6-.7 1.4-.2.4.2.2.3-.2v-.2h.4l1.2-1.3 1.3-.8 1.1-1.2 2.2-1.4 4.9-2.8 3.3-1.8 1.3-.8h.4l.4-.2.5-.2 1.3-.6 3.9-1.5 2.3-1 1.8-.8 2-.4h1.4l1.2.2.5.2h.2l.4-.8.2-.5v-.2l.2-.7v-.5l.2-.4v-.3l.7-4.2.7-6 .2-.4v-.7l.7-6 .2-4.9v-1.3l.2-1.5v-1.9c.3 0-.3-2.3-.3-2.4zm-14.7-16.5l.5.6 1.9.4 1.2.8h.2l.5-.6-.2-1v-.2l-.2-.8v-.9l.2-.5-1-2.3-.5-.9-.2-.2-.2-.2-.2-.3-.2-.2-.4.2h-.5v-.7l.2-.4h-.2l-.8-.6-.2-.2-.7-.2-.2-.4-1.3.1h-1l-.6.4v.2l.4.6 1.4.8.4.4v.7l1.2 1.6h.5l.6.9.2.5.2.8v1.4c.1-.3-1 .2-1 .2z"/></svg>