<svg xmlns="http://www.w3.org/2000/svg" viewBox="6 299 599.3 223.9"><g fill="#fff"><circle cx="548.1" cy="307.9" r="3.1"/><circle cx="554" cy="317.5" r="3.1"/><circle cx="546.7" cy="324.2" r="3.1"/><circle cx="538.2" cy="332.3" r="3.1"/><circle cx="527.6" cy="338.2" r="3.1"/><circle cx="517.1" cy="313.1" r="3.1"/><circle cx="523.5" cy="366.3" r="3.1"/><circle cx="552.3" cy="364.2" r="3.1"/><circle cx="574.9" cy="371.2" r="3.1"/><circle cx="548.4" cy="389.5" r="3.1"/><circle cx="503" cy="384.9" r="3.1"/><circle cx="513.3" cy="419.8" r="3.1"/><circle cx="500.7" cy="449.4" r="3.1"/><circle cx="467.7" cy="445.1" r="3.1"/><circle cx="474.3" cy="431.6" r="3.1"/><circle cx="476.1" cy="380.8" r="3.1"/><circle cx="490.6" cy="365.2" r="3.1"/><circle cx="498.3" cy="340.3" r="3.1"/><circle cx="498.9" cy="322.6" r="3.1"/><circle cx="472.3" cy="311.5" r="3.1"/><circle cx="454.6" cy="329.5" r="3.1"/><circle cx="456.8" cy="354.7" r="3.1"/><circle cx="452.4" cy="392.4" r="3.1"/><circle cx="451.9" cy="406.8" r="3.1"/><circle cx="436" cy="436.5" r="3.1"/><circle cx="434.9" cy="469.8" r="3.1"/><circle cx="431.1" cy="400.4" r="3.1"/><circle cx="435.1" cy="372.5" r="3.1"/><circle cx="432.9" cy="347.6" r="3.1"/><circle cx="431.1" cy="488.2" r="3.1"/><circle cx="411.2" cy="507.6" r="3.1"/><circle cx="382.4" cy="486.5" r="3.1"/><circle cx="404.1" cy="426.1" r="3.1"/><circle cx="393.1" cy="462.1" r="3.1"/><circle cx="408.7" cy="384.6" r="3.1"/><circle cx="413.3" cy="340.4" r="3.1"/><circle cx="427.8" cy="317" r="3.1"/><circle cx="388.1" cy="321.8" r="3.1"/><circle cx="383.6" cy="364.5" r="3.1"/><circle cx="369.8" cy="398.2" r="3.1"/><circle cx="369" cy="421.7" r="3.1"/><circle cx="347.1" cy="427.1" r="3.1"/><circle cx="356.2" cy="460.8" r="3.1"/><circle cx="333.2" cy="446.6" r="3.1"/><circle cx="315" cy="426.1" r="3.1"/><circle cx="291.2" cy="428.3" r="3.1"/><circle cx="261.5" cy="430.4" r="3.1"/><circle cx="305.5" cy="409.4" r="3.1"/><circle cx="331.7" cy="400" r="3.1"/><circle cx="349.1" cy="369.5" r="3.1"/><circle cx="351.5" cy="388.9" r="3.1"/><circle cx="310" cy="368.2" r="3.1"/><circle cx="336.5" cy="350.5" r="3.1"/><circle cx="373.1" cy="345.7" r="3.1"/><circle cx="364.4" cy="314.8" r="3.1"/><circle cx="353.4" cy="335.2" r="3.1"/><circle cx="344" cy="314.1" r="3.1"/><circle cx="314.1" cy="340.1" r="3.1"/><circle cx="312" cy="312.2" r="3.1"/><circle cx="283.8" cy="364.2" r="3.1"/><circle cx="277.4" cy="335.6" r="3.1"/><circle cx="282.6" cy="311.1" r="3.1"/><circle cx="249.8" cy="328.5" r="3.1"/><circle cx="260.4" cy="373.3" r="3.1"/><circle cx="261.3" cy="347.9" r="3.1"/><circle cx="247.3" cy="309.8" r="3.1"/><circle cx="256.5" cy="394.3" r="3.1"/><circle cx="240.7" cy="410.3" r="3.1"/><circle cx="233.3" cy="365.5" r="3.1"/><circle cx="214.4" cy="387.2" r="3.1"/><circle cx="215" cy="371.7" r="3.1"/><circle cx="218.8" cy="352.6" r="3.1"/><circle cx="219.8" cy="324.4" r="3.1"/><circle cx="220.4" cy="306.7" r="3.1"/><circle cx="192.1" cy="402.4" r="3.1"/><circle cx="194.1" cy="345.5" r="3.1"/><circle cx="195.4" cy="308.1" r="3.1"/><circle cx="180.5" cy="360.5" r="3.1"/><circle cx="167.1" cy="391.1" r="3.1"/><circle cx="157.4" cy="372.8" r="3.1"/><circle cx="184.9" cy="323.1" r="3.1"/><circle cx="169.1" cy="335" r="3.1"/><circle cx="152.3" cy="340.9" r="3.1"/><circle cx="143.3" cy="353" r="3.1"/><circle cx="127.3" cy="374.8" r="3.1"/><circle cx="150.2" cy="400.9" r="3.1"/><circle cx="129.6" cy="398.7" r="3.1"/><circle cx="109.8" cy="409.6" r="3.1"/><circle cx="88.5" cy="398.8" r="3.1"/><circle cx="118" cy="352.1" r="3.1"/><circle cx="99" cy="376.9" r="3.1"/><circle cx="68.2" cy="382.1" r="3.1"/><circle cx="70.2" cy="411.3" r="3.1"/><circle cx="47.5" cy="416.7" r="3.1"/><circle cx="38.5" cy="393.9" r="3.1"/><circle cx="24.1" cy="412.8" r="3.1"/></g></svg>