<svg xmlns="http://www.w3.org/2000/svg" width="138" height="122" viewBox="0 0 138 122"><path fill="#fff" d="M85.15 36.69l.007-.004.003-.007-.01.01zM73.725 19.75h-.006l-.01.01.01-.01zm13.71 14.657l-.468.468.012-.013-.47.466.01-.013-.47.47.01-.016-.47.46.01-.01c-.03.28-.18.44-.46.46-.02.28-.18.43-.46.45-.02.28-.18.43-.46.46L83.21 39c7.36.838 13.97-1.15 20.01-5.528-5.475-1.61-11.99-1.204-15.81.94l.015-.014zm-.988-23.743l-.014.007-.002.01.02-.01zm.29.136l-.493.5c.002.402-.377.513.033.462 1.043-.122 2.764.304 3.02-.814.534-2.324 1.478-4.554 2.044-7.162-1.62.774-2.04 2.015-2.55 3.16-.61 1.36.26 1.058-2.05 3.854zm-9.67 6.004c1.044-.2 2.593-.695 2.5-2.174-.136-2.124.798-3.93 1.407-6.11-4.645 1.06-5.63 2.376-4.902 6.433.123.687-.017 2.045.996 1.85zm-4.705 4.317l-.008.01-.003.01h.02zm14.072-10.45c.23-2.28 2.02-3.94 2.443-6.15.51-.79.05-.42-.268-.31-1.63.95-3.3 1.84-4.89 2.84-2.77 1.74-2.94 4.56-3.31 7.66 2.58-.98 3.9-3.09 6.02-4.02zm-13.617 10v-.01l-.007.01-.004.01h.01zm-1.362 1.82l.002-.01-.013.01v.01h.01zm-2.28 3.61l-.003.03h.014l-.01-.01zm2.735-4.52l-.002-.01-.01.01-.004.01h.016zm1.817-1.82l-.012.01h.01l.002-.01zm-3.634 5.01v-.01l-.01.01v.01l.01-.01zm3.177-4.54l.002-.01h-.006l-.004.01h.008zm12.875 15.1h-.013v.01l.013-.01zm22.735 10.22c.368.68.66 1.25 1.657 1.23 2.156-.02 4.14.74 6.016 1.76 2.786 1.51 5.853 2.25 8.796 3.43.35-1.18-.49-1.62-.99-2.22-3.64-4.38-8.91-5.77-13.98-7.46-1.01-.33-2.36-.56-3.43.33 1.16.64 1.35 1.92 1.91 2.95zM87.058 34.41l-.016.002.004.01.012-.013zm-6.092-15.532c3.338 1.295 5.135.478 6.69-3.438-3.29 1.605-7.134-.68-10.058 2.358 1.237.393 2.325.677 3.368 1.08zm7.95-5.9c-.132-.996-1.12-.564-1.657-.448-2.05.44-4.06 1.044-5.86 3.052 2.43.044 4.39-.498 6.36-.868.87-.164 1.24-1.055 1.15-1.738zM105.576 42c-3.716-1.917-7.68-2.59-12.302-2.566 1.348 1.304 2.938 1.58 3.396 3.37-5.823-4.783-12.065-2.773-18.606-1.86 1.23 1.74 3.398 1.65 3.913 3.457.722-.09 1.13.28 1.364.92.29.02.44.18.46.46.29.02.44.18.46.46 1.53 1.49 2.47 3.35 3.35 5.24.85 1.82 2.03 2.74 4.24 2.54 2.54-.23 4.83-1.06 7.14-1.97 1.63-.64 1.81-1.54 1.22-3.17-.71-1.95-2.23-3.48-2.66-5.54a11 11 0 0 1 2.73 3.96c1.25 3.05 1.25 3.03 4.35 1.7 1.31-.56 3.24-.72 3.8-1.69.62-1.07-.91-2.5-1.39-3.82-.09-.26-.05-.57-.06-.85-.62.18-.92-.367-1.37-.597zm1.388.588l-.018-.012v.02l.01-.002.008-.006zm-23.63 2.73h.01l-.003-.007h-.01l.01.01zm.91.91h.007l-.01-.01.01.01zm-.456-.455h.01l-.004-.007-.01-.003.003.01zm-1.81-1.373h-.01l.004.007.01.005-.005-.012zm1.81 1.373c-.303 0-.453-.15-.455-.454-.722.09-1.127-.29-1.36-.92-1.317-.69-2.876-1.14-3.874-2.15-1.09-1.1-1.95-.8-2.96-.33-2.62 1.22-6.16 5.72-4.58 9.97.34-.16.66-.35 1.01-.47 3.45-1.15 6.86-2.19 10.32.19 1.65 1.13 3.65 1.54 5.64 1.77-.61-2.71-2.84-4.52-3.3-7.17-.31 0-.46-.16-.46-.46zm1.9-10.003h-.01v.015l.01-.015zm-12.55 4.365c-.246.377-.855.83-.31 1.356.39.38.833-.01 1.245-.17 3.258-1.25 6.74-1.91 9.787-3.72-.007-.31.147-.46.457-.46-.005-.3.145-.46.455-.45-.007-.31.145-.46.453-.45-.007-.31.146-.46.454-.45-.01-.3.14-.46.45-.45-.01-.31.14-.46.45-.45-.01-.31.14-.46.45-.45-.31-.43.78-1.34-.31-1.37-2.43-.07-4.91-.67-7.22.83-2.57 1.67-4.71 3.72-6.38 6.27zm51.543 8.716c-1.38-5.54-5.69-7.9-11.28-6.49 4.15 1.4 7.98 2.91 11.28 6.49zM84.24 37.6l.006-.003.006-.01-.012.012zm2.36-2.738h-.013v.012l.013-.012zm29.363 5.27c-2.004-2.195-4.06-3.887-6.695-4.744-1.73-.56-3.34-1.94-5.338-.94-2.52 1.258-5.166 2.277-7.594 3.953 6.455 1.46 12.732 3.42 19.627 1.74zm-32.09-2.544l-.012.006v.005l.02-.02zm1.363-1.363h-.01l-.002.012.012-.012zm-.54.918l.01-.004v-.01l-.01.01zm.085-.463v.01l.01-.01zm-.45.454h-.01v.01l.01-.01zM4.31 88.912l-.003.01.01-.005.002-.006-.01.01zm0 0c.376-1.44 1.372-2.26 2.726-2.724.872-1.024 1.9-1.826 3.184-2.273l-.01.01h.007l.003-.008c1.922-2.032 4.573-2.97 6.804-4.54.01-.32.373-.874-.23-.857-1.68.045-3-.857-4.45-1.457-3.245-1.34-5.323-.48-6.716 2.684-.424.964-.906 1.904-1.295 2.882C3.22 85.37 2.15 88.13 1 91.05c1.383-.265 1.59-1.805 2.85-1.688-.01-.314.143-.465.457-.456zm-.46.455v.01l.012-.005v-.006h-.01zm28.343-11.4c-.974-3.512-3.7-4.708-6.85-2.993-1.72.936-3.356 2.017-5.07 2.96-.97.537-1.32 1.27-1.405 2.36-.23 2.955.417 5.853.43 8.784.007.692.202 1.105.997 1.198 2.31.27 4.61.634 6.917.922.57.07 1.24.23 1.6-.473 1.676-3.274 3.65-6.443 3.693-10.807-.05-.327-.085-1.165-.306-1.95zM73.73 19.76c0 .305-.15.456-.456.454.003.306-.147.455-.45.455 0 .3-.15.45-.456.45 0 .3-.144.46-.452.45.112.43-.026.74-.454.91-.164.93-.528 1.74-1.362 2.27-.002.65-.2 1.18-.907 1.36l-.012 1.35h.01c4.66-2.15 9.77-3.41 13.9-6.92-2.97-1.2-5.74-2.57-8.89-1.27.01.32-.15.46-.45.46zM85.2 64.582c-1.64-1.27-3.513-1.77-5.526-1.528-2.702.323-5.323 1.052-7.735 2.334-1.04.553-2.21 1.286-2.15 2.685.11 2.792-.53 5.494-1.01 8.903 2.93-3.453 6.11-2.938 9.48-2.216 4.45.956 8.7 2.278 12.42 4.998.65.223 1.22.55 1.59 1.354-1.05.208-1.49-.382-1.85-1.126-4.83-2.123-9.64-4.232-14.98-4.89-3.6-.446-7.02 2.01-7.1 5.572-.05 2.34-.3 4.73.44 6.98.65 2.003-.18 3.944-.05 5.75.46 6.844-.96 13.546-.95 20.328 0 .812-.6 1.61-.14 2.62 1.19-2.024 2.27-3.917 3.39-5.78 3.52-5.83 8.52-10.37 13.22-15.175.6-.61 1.55-1.09 1.2-2.24l-3.737-4.11.45-.37c1.53 1.11 2.72 2.51 3.49 4.27 1.034.34 1.534-.46 2.06-1.05 2.12-2.38 4-4.98 4.89-8.05.58-2.01 1.41-3.97 1.13-6.26-.71-5.81-4.235-9.63-8.567-12.98zM70.84 89.29c1.988-4.125 6.47-5.134 9.607-2.142-3.9-2.23-6.77-.245-9.607 2.14zM44.203 71.013c2.613-1.466 3.738-4.4 6.87-6.098-4.347-.388-7.015 1.64-9.874 3.268.48.99 1.77.91 1.97 2.083-1.44.14-2.39-1.592-3.76-1.106-3.46 1.226-6.88 2.586-10.72 4.046 3.79 1.75 5.01 4.57 4.64 8.136-.19 1.88-.77 3.673-1.58 5.4-.67 1.404-1.64 2.69-1.96 4.538 5.41.01 9.49-2.388 13.03-6.014.69-.702.63-1.543.46-2.34-.77-3.412-.49-6.77.7-10.005.26-.71-.58-1.46.2-1.9zM67.398 91.03c.035-2.755-3.148-5.297-5.846-4.03l-3.455 1.627c-.393.83-1.023 1.434-1.955 2.02-.12-1.394.76-1.852 1.662-2.292 2.996-2.98 6.273-3.462 10.025-.6-.55-2.808-.5-5.142-.34-7.453.11-1.623-.6-2.717-1.86-3.3-2.1-.976-4.39-1.37-6.73-1.424-2.39-.054-3.95 1.684-5.92 2.534l-.45.448c-.44 1.05-1.26 1.768-2.32 2.61.03-1.632 1.03-2.26 2.06-2.862l.45-.456c1.87-2.358 4.5-3.47 7.31-3.243 2.68.21 5.5.66 7.71 2.82l1.36-7.85c.19-1.11.04-1.88-1.04-2.67-3.89-2.83-8-3.59-12.58-2.09-8.14 2.66-12.31 9.55-10.52 18.24.15.76.29 1.56 1.41 1.18.36-.79 1.08-1.1 2.06-1.7-.39 1.24-1.05 1.64-1.84 1.9-.91.64-1.13 1.42-.82 2.54.85 3.04 2.87 5.26 5.01 7.41.434.44.93.44 1.463.27.14-.33.23-.7.68-.73.055 0 .17.08.17.12-.01.41-.31.61-.627.79-.39 1.034.48 1.47.99 2.085 2.31 2.784 4.774 5.46 6.89 8.392 3.303 4.58 4.36 9.98 4.9 15.563.79-.6.63-1.407.79-2.12.585-2.61.12-5.314.59-7.885 1.21-6.61.63-13.253.723-19.89zm-13.62 2.475c.024-1.268.505-1.754 1.323-2.187.18 1.058-.44 1.464-1.32 2.187zM17.03 79.385v-.015l-.01.007v.008h.01zm11.898-7.072c2.434-1.015 4.938-1.857 7.387-2.834 3.223-1.29 3.287-1.8.645-4.02-.23-.19-.477-.37-.727-.54-3.562-2.42-7.72-3.34-11.742-4.59-.74-.23-1.52-.13-2.15.38-2.36 1.96-4.7 3.94-7.4 6.21 3.19.72 5.91 1.24 8.55 1.98 1.63.45 3.43.96 3.55 3.19.62.18 1.14.53 1.91.2zm-1.905-.204l-.01-.01.012.01-.002-.01zM14.42 77.07c1.643.702 3.555 1.292 5.395.227 2.084-1.208 4.156-2.444 6.27-3.597.694-.377 1.032-.82.93-1.593-3.283-3.52-7.938-3.017-12.06-4.078-.31-.08-.823.04-1.042.26-2.16 2.22-4.297 4.48-5.977 7.48 2.544-.13 4.498.44 6.484 1.29zm-7.387 9.12l-.006.007h.01l.002-.008h-.01zm95.83-24.98v.01l.004-.002.008-.01-.01.002zm-14.077-5.45v.005l.004-.002v-.005l-.005.003zm15.61 4.03c2.465-1.402 5.094-2.402 7.973-2.92-3.17-4.333-9.1-5.9-13.67-3.82-1.16.53-2.41.895-3.63 1.285-2.06.657-4.36.232-6.29 1.428-.75 1.55-1.49 3.105-2.26 4.65-.62 1.24-.41 2.117.68 3.14 2.2 2.073 4.4 3.806 7.69 3.168.56-.1 1.24-.05 1.78.15 1.4.52 1.95-.06 2.47-1.33.74-1.8 1.21-3.98 3.71-4.32.01-1 .92-1.07 1.53-1.42zm-81.65-29.643c4.09-1.457 8.147-2.67 12.573-1.54 1.16.298 2.35-.515 3.68.59 2.03 1.688 4.5 2.843 6.85 4.268.45-1.765.15-3.33-.23-4.846-.62-2.41-1.61-4.66-4.38-5.23-2.81-.58-5.63-.55-8.72.18 1.13.93 2.53 1.3 2.75 3.21-.78-.67-1.23-1.13-1.75-1.47-1.06-.69-2.08-1.64-3.51-1.22-4.73 1.42-8.89 3.72-11.79 7.89l.25.26c1.43-.68 2.72-1.58 4.24-2.12zm111.667 49.82c-1.537-4.048-4.486-6.51-9.105-6.527-1.467-.008-2.934-.34-4.398-.522 3.073-.715 6.063-.183 9.093.32-4.7-7.14-10.633-10.27-19.002-6.05 3.12-2.968 6.89-2.722 10.87-2.442-1.34-1.86-3.01-3.107-4.6-4.465-2.92-2.49-6.02-2.88-9.45-1.27-1.63.77-3.29 1.48-4.94 2.21-1.13 1.4-2.27 2.77-3 4.46-.41.95-.48 1.63.71 1.78 2.12.27 4.1 1.01 6.06 1.78.94.37 1.77.26 2.55-.36.17-.23.47-.55.66-.27.23.34-.25.37-.47.5-.09.44-.24.89.31 1.17 2.61 1.31 4.95 3.19 8.08 3.29.9.03 2.02.04 2.47 1.2 1.09.34 2.03.9 2.7 1.85 2.344 1.56 4.85 2.93 6.406 5.42l.45.45c.23.22.574.41.23.8l-.49-.53-.455-.46c-2.073-1.856-4.446-3.36-6.34-5.435-1.01-.47-1.99-.97-2.635-1.93-.666-.22-1.217.06-1.758.39-.23 1.474-.55 2.93-.49 4.45.17 4.495 1.806 6.55 6.087 7.78 3.835 1.1 7.49 2.645 10.743 5.018-.32-2.897-2.14-5.236-3.05-7.926 2.725 2.74 3.52 6.49 5.24 10.03.62-5.34-.684-10.09-2.43-14.68zm-47.04-25.61c-1.69-.385-3.458-.622-4.954-1.544-1.38-.85-2.69-.662-3.79.198-3.42 2.67-6.01 5.98-7.58 10.34.62-.17.98-.23 1.31-.37 3.85-1.53 7.75-2.54 11.91-1.35.9.26 1.03-.29 1.39-.98.89-1.71.86-4.04 3.11-4.88-.01-.94-.57-1.21-1.42-1.4zm9.99 13.638c-.487-1.138-3.43-.363-5.278-.406l-.326.22c1.31 1.77 2.48 3.46 3.26 5.82.95-2.18 3-4.09 2.34-5.64zm20.942 7.3v.002l.015-.008v-.02l-.016.02zm-12.495-5.502c-1.77-.672-3.595-1.09-5.396-1.627-1.166-.35-1.72.166-2.355 1.112-2.18 3.216-2.39 6.796-1.98 10.432.28 2.47.71 5.757 2.88 6.58 3.36 1.275 7.24 2.127 11.1.244-2.05-2.91-4.05-5.68-4.31-9.22-.15-1.993-.38-4.014 1.19-5.65.04-.883-.12-1.484-1.14-1.87zm28.856 22.753l-.01-.007.002.01.008-.01zm-27.717-20.88v.002l.01-.01v-.007l-.01.02zm11.02 2.882c-3.18-.27-5.82-1.87-8.47-3.426-1.06-.623-1.83-.23-2.55.536-.37 1.77-.55 3.556-.45 5.367.18 3.43 1.88 6.24 4.06 8.634 1.29 1.42 3.45.36 5.21.44 2.93.13 2.92.04 1.98-2.81-.31-.93-.65-1.88-.72-2.84-.12-1.83-.42-3.76 1.25-5.17-.11-.26-.2-.74-.33-.75zm-99.66 6.1c.31-1.07-.51-1.206-1.29-1.263.09 1.14-.86 1.475-1.58 1.89-1.7.967-3.19 2.366-5.24 2.648-.47 1.58-1.69 2.122-3.18 2.27-.38 1.44-1.4 2.234-2.73 2.724-.03.273-.18.424-.46.455-.41 1.44-2.03 2.075-2.36 3.56l.27.23c4.31-3.705 9.23-4.727 14.71-3.378 1.5.37 1.98-.264 1.94-1.758-.07-2.456-.84-4.898-.11-7.378zm27.91-34.436c2.26.745 4.43 1.59 6.67 2.157 3.8.96 7.71 1.14 11.75 1.01-3.3-7.88-11.62-9.34-18.43-3.17zm-27.82-12.7l.03-.025-.06.006.02.02zm32.93 30.35c2 .075 3.83-.772 5.74-1.15.29-.06.62-.44.76-.75.98-2.25-1.03-6.087-3.43-6.725-3.32-.884-6.68-.914-10.61-.737.89.5 1.33.667 1.67.952 2.42 2.02 5.65 3.533 4.81 7.635-.17.802.5.757 1.04.775zM29.75 33.507c.688 2.39 2.89 3.598 4.507 5.102.767.71 2.886-.67 4.31-1.34.547-.26 1.104-.52 1.586-.87 1.3-.95 3.78-1.4 3.705-2.8-.07-1.35-2.5-1.85-3.885-2.74-2.205-1.42-4.328-1.5-6.467.23-.657.53-1.364 1.25-2.4 1.03-.013.89-.765 1.04-1.358 1.36zm16.83-.593c-.05 1.092 0 2.06 1.02 2.796 2.737 1.973 5.724 3.442 8.96 4.794l.004-3.722c0-1.334-.002-2.64-.01-3.94-.004-1.07-.104-2.27-.84-2.98-3.125-3.018-6.803-5.063-11.646-6.083 2.64 2.93 2.67 6.02 2.52 9.13zm-15.473-.766v-.01H31.1l-.005.01h.01zM74.18 19.3l.002-.006h-.002l-.012.012.013-.005zm-4.098 5.45c-.01-1.037.14-1.978 1.362-2.27-.11-.435.023-.75.454-.91.035-.27.18-.43.456-.455.02-.28.175-.432.456-.454.02-.28.173-.43.455-.45.02-.28.174-.43.453-.45.025-.28.188-.42.46-.45 2.675-2.26.433-4.91.618-7.42-2.883 3-4.912 6.46-5.955 10.4-.3 1.15-.72 2.65.34 3.83.03-.63.2-1.17.91-1.34zm-7.566-4.31c-2.273-.273-4.617-.22-6.99-.336.227.162.438.365.69.475.827.36 1.655.73 2.51 1.02 6.24 2.14 7.43 3.81 7.33 10.43-.087 5.51.288 10.99 1.26 16.42.17.94.325 2.13-.095 2.89-1.61 2.91-.94 6.03-1.2 9.08-.12 1.52.45 2.63 1.61 3.51.45.34.78 1.07 1.49.74.54-.25.51-.88.56-1.41.26-3.46.36-6.9-.63-10.28-.42-1.46-.58-2.94-.28-4.46 1.27-6.46.13-12.937.05-19.4 0-.36.1-.88-.32-.987-2.27-.553-2.07-2.553-2.38-4.15-.4-2.076-1.79-3.364-3.58-3.58zm-2.3 41.987c1.284.2 2.585.32 4.013.494-.94-3.24-2.78-5.32-5.86-6.23.43 1.43 1.13 2.78.98 4.35-.06.64.11 1.27.86 1.39zM58.35 56.68l.025.008-.008-.026-.017.017zM29.738 33.5v.015l.015-.007-.003-.008h-.012zm31.1-15.434c.47.315.828 1.015 1.527.64.516-.276.525-.86.547-1.4.102-2.35-.15-4.68-.865-6.897-.664-2.06-1.7-3.96-4.33-4.89 1.25 2.63 1.006 5.19 1.16 7.72.107 1.75.23 3.65 1.96 4.82zM34.262 29.17c-5.987-.51-11.162.887-15.82 4.316 1.523-.17 3.088-.178 4.555-.565 2.36-.62 4.474.74 6.742.58-.05-.95.54-1.27 1.36-1.36.61-1.28 2.33-1.3 3.15-2.97zm22.29-14.747c.702.024 1.53.518 1.407-.99-.18-2.17-.46-4.298-.92-6.425-.49-2.282-1.72-3.39-4.09-3.08l-.08.08c-.18 2.633.49 4.954 2.15 7.083.72.94 1.75 1.9 1.53 3.34zm-9.67-6.863c-.802.15-1.84-.107-1.66 1.19.147 1.087-.304 2.843 1.415 2.83 3.248-.023 5.957 1.483 8.832 2.562l.27-.27c-1.84-3.667-3.7-7.27-8.86-6.312zm-.886-.882c1.824.043 3.646.066 5.47.1l-.61-.816.178-.117c.45.034.535.406.672.732.64.018.71-.335.637-.873-.36-2.637-1.045-3.218-4.838-4.04l-.072.07.148.757.47.45.46.46c.25.09.7.15.46.48-.21.28-.49-.05-.65-.3l-.44-.45-.45-.45c-.93-.42-1.26-1.7-2.69-1.76.18 1.75.34 3.43.51 5.1.05.44.36.65.77.66zm10.555 7.76l.01-.015h-.01l.02.016zM41.85 44.37c2.2 1.25 4.004 1.172 5.975-.494 1.95-1.646 4.2-2.876 7.518-2.725-3.8-2.07-7.245-3.61-9.923-6.32-.514-.52-1.012-.08-1.426.17-2.75 1.71-5.5 3.42-8.972 4.56 2.334 2.1 4.523 3.51 6.83 4.82zm-16.2 15.383c.492.184 1 .328 1.502.49 4.576 1.47 9.328 2.623 12.408 6.824.445.604.963.535 1.582.185 2.092-1.187 4.158-2.373 6.512-3.08 2.02-.607 2.668-2.146 1.695-3.666-1.89-2.945-4.4-5.357-8.04-5.65-5.81-.47-10.87 2.1-16.06 4.35.23.336.29.51.39.548zm31.81-27.86c0 3.02.105 5.41-.034 7.786-.086 1.44.516 2.33 1.693 2.83 2.39 1.01 4.41 2.52 6.38 4.31-2.58-4.82-4.29-10.09-8.04-14.93zM46.2 12.143c2.882 7.288 7.392 7.048 13.895 6.945-3.952-3.752-8.197-6.52-13.896-6.945zm19.33 8.99c.17-4.64-.446-7.08-2.302-8.587 1.524 2.595-1.634 6.257 2.303 8.587z"/></svg>