<svg xmlns="http://www.w3.org/2000/svg" width="138" height="122"><path fill="#fff" d="M71.1 67.44l-.003-.014-.01.005-.004.01h.016zm1.357-1.363l.002-.01h-.01l-.01.01zm.457-.465l-.012.012h.01l.002-.012zm3.343-2.945c1.042-.2 2.592-.695 2.497-2.173-.135-2.125.8-3.93 1.41-6.11-4.647 1.06-5.633 2.376-4.903 6.433.13.685-.01 2.044 1 1.85zm-3.345 2.945l-.006.002-.004.01.01-.012zM79.69 87.83l.006-.002.004-.005-.01.007zm-8.14-20.846l.002-.01-.01.003-.002.008h.01zm8.475 20.51h.006l.01-.005h-.01zm29.36 8.597c-1.02-4.07-4.183-5.8-8.283-4.76 3.047 1.03 5.86 2.13 8.282 4.77zm-6.403-6.4c-1.472-1.61-2.98-2.85-4.916-3.48-1.27-.41-2.45-1.42-3.92-.69-1.85.93-3.792 1.67-5.574 2.9 4.74 1.07 9.348 2.51 14.41 1.27zM72.005 66.53v-.01l-.007.004-.004.008h.01zm13.616-9.995c.23-2.284 2.02-3.95 2.45-6.156.51-.8.05-.43-.27-.32-1.63.94-3.29 1.83-4.88 2.84-2.76 1.73-2.94 4.55-3.31 7.65 2.58-.98 3.91-3.1 6.02-4.02zm-3.86 28.95l-.01.004.01-.01zm-1.67 1.67v.007l.01-.007zm.67-.668v.002l.01-.01zm-.06.342l.01-.01h-.01zm-.27-.01l.01-.01zm1.61-1.33l.01-.01-.34.34.01-.01-.34.34.01-.01-.34.34.01-.01-.33.33c-.02.2-.13.32-.34.34-.01.2-.12.31-.33.33-.01.2-.12.31-.33.33l-.75 1.04c5.4.61 10.26-.85 14.69-4.06-4.02-1.18-8.8-.88-11.61.69zm-.93.66h-.01l.01-.01zm.34-.34v.01l.01-.01zm.1-1.34c-1.78-.05-3.6-.49-5.3.61-1.88 1.22-3.45 2.73-4.68 4.6-.18.28-.63.61-.22.99.29.27.61-.02.91-.13 2.39-.92 4.95-1.41 7.19-2.73 0-.23.11-.34.34-.34 0-.23.11-.34.34-.33 0-.23.11-.34.34-.34-.01-.23.1-.34.33-.33-.006-.23.104-.34.33-.33-.004-.23.107-.34.336-.34-.01-.23.1-.34.33-.33-.23-.32.57-.99-.226-1.01zm-1.16 2.68v-.01.01zm5.56-30.5l-.49.5c0 .4-.38.51.03.46 1.05-.12 2.77.3 3.02-.82.54-2.33 1.48-4.56 2.05-7.17-1.63.77-2.04 2.01-2.55 3.16-.61 1.36.25 1.06-2.05 3.85zm-6.18 30.83l.01-.01zm.4-22.75c3.34 1.29 5.14.47 6.69-3.44-3.29 1.6-7.13-.68-10.06 2.35 1.24.39 2.33.67 3.37 1.08zm5.49-8.21h-.01v.01l.02-.02zm-6.22 31.3l.01-.01zm8.68-28.99c-.13-1-1.12-.57-1.65-.45-2.04.44-4.05 1.04-5.85 3.05 2.44.04 4.39-.5 6.36-.87.88-.17 1.24-1.06 1.15-1.74zM67.95 94.41c1.27-6.46.124-12.932.048-19.4-.004-.356.098-.88-.322-.983-2.27-.55-2.07-2.55-2.385-4.15-.4-2.07-1.79-3.36-3.58-3.58-2.27-.27-4.61-.22-6.99-.33.23.16.44.37.69.48.83.37 1.66.74 2.51 1.03 6.24 2.14 7.43 3.82 7.33 10.43-.08 5.52.29 10.99 1.27 16.43.17.94.33 2.136-.09 2.89-1.62 2.91-.95 16.04-1.21 19.08-.13 1.524.45 2.63 1.6 3.517.45.346.78 1.075 1.49.745.53-.25.51-.88.55-1.41.26-3.46.36-16.9-.63-20.28-.42-1.46-.57-2.94-.28-4.46zm-10.68-8.09c-.08 1.33.474 2.146 1.557 2.604 2.21.933 4.07 2.32 5.87 3.962-2.36-4.427-3.94-9.272-7.39-13.727 0 2.78.1 4.98-.03 7.16zm-1.922 1.354c-3.494-1.903-6.664-3.325-9.126-5.818-.473-.48-.93-.08-1.312.156-2.53 1.568-5.058 3.143-8.25 4.19 2.145 1.93 4.16 3.23 6.28 4.434 2.024 1.147 3.68 1.077 5.493-.456 1.796-1.513 3.86-2.643 6.915-2.504zm-8.38 4.655c2.084.69 4.076 1.47 6.132 1.99 3.5.89 7.093 1.05 10.812.94-3.033-7.24-10.684-8.59-16.945-2.92zM33.06 79.39c.56-1.173 2.146-1.2 2.9-2.73-5.506-.467-10.265.817-14.55 3.97 1.402-.156 2.842-.163 4.19-.52 2.17-.57 4.114.68 6.2.533-.037-.876.504-1.17 1.26-1.252zm6.862 4.727c.502-.235 1.016-.474 1.458-.797 1.195-.875 3.477-1.28 3.407-2.57-.067-1.24-2.3-1.7-3.572-2.517-2.028-1.302-3.98-1.375-5.948.218-.603.49-1.253 1.16-2.205.95-.012.82-.703.96-1.248 1.25.633 2.2 2.658 3.31 4.145 4.7.7.66 2.65-.61 3.96-1.22zm-8.12-3.474l-.002.015.015-.007h-.013zM79.026 93.5h.007l-.003-.006-.007-.003.003.01zm17.337-2.002h.007l.006-.004-.013-.01v.014zm12.784 5.233c-2.673-3.21-6.54-4.24-10.26-5.47-.74-.24-1.73-.41-2.512.24.855.47.996 1.41 1.406 2.17.27.5.49.91 1.22.91 1.59-.01 3.04.54 4.42 1.29 2.05 1.11 4.3 1.65 6.46 2.52.26-.86-.35-1.19-.72-1.63zm-13.79-5.66c-2.73-1.41-5.64-1.9-9.033-1.88.99.96 2.158 1.16 2.494 2.48-4.277-3.51-8.86-2.03-13.662-1.36.903 1.28 2.495 1.21 2.872 2.54.53-.07.83.2 1.002.67.208.02.32.13.335.34.207.02.318.13.335.34l-.008-.01v.01h.007c1.11 1.09 1.81 2.46 2.45 3.85.62 1.33 1.49 2.01 3.11 1.86 1.86-.17 3.54-.78 5.23-1.45 1.19-.47 1.33-1.13.89-2.33-.53-1.43-1.64-2.56-1.96-4.07a7.95 7.95 0 0 1 2 2.9c.91 2.24.91 2.23 3.19 1.25.96-.41 2.37-.53 2.79-1.25.45-.78-.67-1.83-1.02-2.8-.07-.19-.04-.41-.05-.62-.46.13-.68-.27-1.01-.438zM70.642 68.35l.002-.01-.013.005v.01l.01-.005zm8.718 25.48c-.222 0-.332-.11-.334-.33-.53.07-.827-.208-1-.67-.967-.51-2.112-.837-2.844-1.576-.798-.806-1.43-.587-2.168-.243-1.923.9-4.52 4.21-3.36 7.33.25-.11.484-.26.74-.34 2.537-.84 5.04-1.6 7.576.14 1.215.84 2.684 1.14 4.146 1.3-.444-1.99-2.085-3.32-2.423-5.26-.225.01-.334-.11-.333-.33zM33.064 79.4v-.01h-.004l-.006.01h.01zm44.964 13.424h-.006l.003.005h.007l-.004-.01zm1.332 1.006l.007.002-.002-.005-.007-.003.002.006zm-5.992-28.666v-.007l-.013.012.013-.01zm-4.098 5.448c-.01-1.036.14-1.976 1.362-2.27-.11-.434.024-.748.455-.91.035-.27.18-.43.456-.455.02-.28.174-.432.455-.453.022-.284.174-.435.456-.457.02-.28.173-.43.452-.453.025-.28.188-.424.46-.458 2.675-2.26.434-4.914.62-7.418-2.884 2.992-4.913 6.457-5.956 10.395-.305 1.15-.728 2.644.333 3.826.03-.63.19-1.18.907-1.35zm-4.55-3.615c.17-4.64-.448-7.078-2.304-8.587 1.523 2.594-1.635 6.257 2.303 8.587zm4.56 3.62v-.01l-.01.005v.013l.01-.01zm3.633-4.994c0 .305-.15.457-.456.454.002.306-.148.455-.452.455.003.304-.15.454-.454.453 0 .302-.14.46-.45.456.11.44-.02.75-.45.91-.16.93-.52 1.74-1.36 2.27 0 .66-.2 1.18-.9 1.37l-.01 1.36.01.01c4.66-2.14 9.77-3.41 13.9-6.91-2.97-1.2-5.74-2.56-8.89-1.26.01.32-.15.46-.46.46zM21.377 80.655l.036-.024-.058.01.022.02zm46.986-8.695l-.003.026.013-.005-.01-.01zm-8.338-8.03c.47.314.828 1.014 1.527.64.516-.278.525-.862.548-1.402.102-2.35-.15-4.68-.865-6.897-.665-2.05-1.702-3.95-4.33-4.88 1.25 2.63 1.005 5.19 1.16 7.72.108 1.76.23 3.66 1.96 4.82zM46.07 53.42c-.803.15-1.84-.107-1.66 1.19.147 1.087-.304 2.843 1.414 2.83 3.25-.023 5.958 1.484 8.833 2.562l.272-.27c-1.84-3.666-3.7-7.27-8.86-6.312zm-.885-.88c1.823.042 3.646.065 5.47.098l-.61-.816.178-.117c.448.034.534.406.67.732.64.017.712-.336.64-.874-.36-2.637-1.046-3.218-4.84-4.04l-.072.07.15.756.47.44.46.45c.25.08.7.15.46.48-.2.28-.48-.06-.64-.3l-.44-.45-.45-.46c-.92-.42-1.26-1.71-2.69-1.76.18 1.75.34 3.42.51 5.1.05.44.36.65.77.66zM25.373 77.56c3.758-1.34 7.49-2.458 11.56-1.417 1.073.274 2.162-.474 3.388.543 1.87 1.55 4.15 2.613 6.31 3.923.42-1.63.15-3.07-.21-4.46-.56-2.22-1.48-4.28-4.02-4.81-2.58-.53-5.17-.51-8.01.17 1.04.85 2.33 1.19 2.54 2.95-.72-.61-1.12-1.04-1.61-1.35-.98-.63-1.91-1.51-3.22-1.12-4.35 1.31-8.17 3.42-10.84 7.26l.24.24c1.32-.62 2.51-1.45 3.9-1.95zM55.74 60.285c.7.024 1.528.518 1.406-.988-.172-2.17-.46-4.3-.916-6.426-.488-2.28-1.717-3.39-4.09-3.08l-.078.08c-.174 2.64.496 4.96 2.15 7.09.725.93 1.748 1.9 1.527 3.33zm-7.51 22.39c2.517 1.813 5.262 3.165 8.24 4.408l.002-3.422c0-1.22-.002-2.42-.01-3.62-.003-.98-.094-2.08-.77-2.74-2.874-2.77-6.256-4.65-10.71-5.59 2.42 2.71 2.448 5.54 2.31 8.4-.046 1.01 0 1.9.938 2.57zM59.284 64.95c-3.954-3.75-8.198-6.52-13.896-6.944 2.883 7.287 7.392 7.047 13.896 6.944zm-3.546-4.65v-.016h-.014l.014.016z"/></svg>