<svg xmlns="http://www.w3.org/2000/svg" width="138" height="122"><path fill="#fff" d="M67.853 102.725c-1.99-.487-1.818-2.242-2.095-3.644-.357-1.82-1.57-2.95-3.143-3.14-1.996-.24-4.053-.19-6.137-.29.2.14.385.32.605.42.727.32 1.454.65 2.205.91 5.478 1.88 6.522 3.35 6.433 9.16-.07 4.84.26 9.65 1.11 14.42l1.27.09c1.12-5.67.11-11.35.04-17.03 0-.31.09-.77-.28-.86zm-9.896-11.257l.198-.197c-1.334-2.66-2.688-5.28-6.437-4.58-.582.11-1.336-.08-1.206.87.108.79-.22 2.07 1.028 2.06 2.36-.01 4.33 1.08 6.417 1.86zm3.36 3.594c-2.87-2.724-5.954-4.736-10.094-5.044 2.094 5.294 5.37 5.12 10.095 5.044zm3.95 1.485c.123-3.37-.325-5.14-1.674-6.237 1.107 1.885-1.187 4.544 1.673 6.237zm-6.525-4.862v-.012h-.01l.01.012zm3.115 2.634c.34.22.6.73 1.108.46.375-.2.382-.63.398-1.02.073-1.71-.11-3.4-.63-5.01-.482-1.5-1.235-2.87-3.145-3.55.908 1.91.73 3.77.844 5.6.08 1.27.17 2.66 1.425 3.5zm-10.78-8.28c1.323.03 2.647.05 3.974.07l-.44-.6.13-.09c.33.02.39.29.49.53.47.01.52-.25.47-.64-.26-1.92-.76-2.34-3.51-2.94l-.05.05.11.55.34.33.34.33c.19.06.51.11.34.35-.15.2-.35-.04-.47-.22l-.32-.33-.33-.33c-.67-.31-.914-1.24-1.954-1.28.127 1.27.24 2.49.37 3.71.037.31.263.47.56.48zm7.666 5.62c.51.02 1.11.37 1.022-.72a35.264 35.264 0 0 0-.666-4.67c-.36-1.66-1.25-2.46-2.97-2.24l-.06.05c-.13 1.91.36 3.6 1.56 5.14.52.67 1.27 1.37 1.11 2.42zm9.94 9.03l.007-.01v-.01h-.006zm8.452-7.28h-.008l.008-.01zM72.29 96.6c.54-.104 1.34-.36 1.29-1.122-.063-1.095.42-2.03.73-3.153-2.4.546-2.91 1.226-2.53 3.32.06.356-.01 1.058.516.957zm4.84-3.166c.12-1.18 1.045-2.04 1.26-3.18.267-.41.028-.22-.14-.164-.84.487-1.7.947-2.52 1.465-1.423.897-1.514 2.353-1.71 3.95 1.336-.504 2.02-1.595 3.11-2.072zm-8.91 7.965v.01h.006v-.01l-.003-.01zm2.58-3.51v-.01h-.003.006zm0 0c.008.16-.08.23-.233.23.002.15-.076.23-.234.23 0 .15-.077.23-.233.23 0 .15-.08.23-.236.23 0 .15-.072.24-.23.23.058.22-.013.38-.235.47-.09.48-.28.9-.71 1.17 0 .34-.11.61-.47.71l-.01.7c2.4-1.11 5.04-1.76 7.17-3.57-1.54-.62-2.97-1.32-4.6-.65zm-2.112 2.81c-.005-.54.073-1.02.703-1.17-.05-.23.02-.39.24-.47.02-.14.1-.22.24-.24.01-.15.09-.23.24-.24.02-.15.09-.23.24-.24.02-.15.09-.22.24-.24.02-.14.1-.22.24-.24 1.38-1.17.22-2.54.32-3.83-1.49 1.54-2.54 3.33-3.07 5.37-.16.59-.37 1.36.18 1.97.02-.33.1-.61.47-.7zm3.88-3.59c.637.2 1.2.35 1.738.55 1.724.67 2.65.24 3.455-1.78-1.7.83-3.68-.35-5.19 1.21zm5.78-5.61c-.314.7.13.55-1.06 1.99l-.254.26c0 .21-.194.26.018.24.54-.07 1.428.15 1.56-.42.276-1.2.764-2.35 1.057-3.7-.85.4-1.06 1.04-1.32 1.63zm-.793 2.88c-1.055.22-2.092.54-3.02 1.57 1.257.02 2.267-.26 3.285-.45.45-.09.64-.55.593-.9-.07-.52-.58-.29-.857-.23zm-8.162 5.14l.007-.01v-.01h-.007zm.47-.71h.004v-.01h-.002zm.706-.71h-.01v-.01h-.01zm-.94.93h-.01l.01-.01h-.01zm.7-.71v-.01zm-.24.23l-.01.005v-.01l-.01.003z"/></svg>