<svg xmlns="http://www.w3.org/2000/svg" width="138" height="122" viewBox="0 0 138 122"><path fill="#fff" d="M83.242 70.77l-.014.006v.008l.014-.015zm-.013.006c.19-1.98 1.75-3.422 2.11-5.334.44-.688.04-.368-.23-.276-1.41.818-2.86 1.59-4.23 2.46-2.4 1.506-2.55 3.95-2.87 6.63 2.23-.85 3.38-2.68 5.21-3.48zm-8.12 5.314c.9-.174 2.24-.603 2.16-1.884-.12-1.84.69-3.406 1.22-5.294-4.03.917-4.88 2.058-4.25 5.574.1.595-.02 1.773.86 1.604zm-4.47 4.134v-.01l-.01.005h-.01l.01-.01zm.78-.786v-.008l-.01.002-.01.008v-.002zm12.06-8.55l-.43.433c0 .35-.33.45.03.4.9-.1 2.39.27 2.61-.7.46-2.01 1.28-3.94 1.77-6.2-1.42.67-1.77 1.75-2.22 2.74-.53 1.18.22.92-1.78 3.34zm-11.67 8.157v-.01l-.01.002-.01.01v-.002zm-.79.785v-.007l-.01.003v.006-.002zm1.18-1.187l-.01.01v-.01zm0 0l-.01.01v-.01zm6.4 22.497l.01-.002v-.003l-.01.005zm1.74-1.734v-.01l-.3.3v-.01l-.3.298.01-.008-.3.298.01-.01-.3.298.01-.008c-.02.18-.116.28-.297.295-.01.17-.11.27-.286.28-.013.18-.11.28-.29.29l-.65.9c4.685.53 8.895-.73 12.74-3.52-3.49-1.03-7.64-.77-10.07.6zm-1.45 1.444v-.005l-.01.006zm1.21-1.453l-.01.003v.006l.01-.01zm-.29.29l-.01.003v.006l.01-.008zm24.25 8.91c-.89-3.532-3.63-5.038-7.19-4.135 2.64.89 5.08 1.85 7.18 4.134zm-5.56-5.553c-1.27-1.398-2.58-2.476-4.26-3.022-1.11-.356-2.13-1.236-3.4-.6-1.61.802-3.29 1.452-4.84 2.52 4.11.923 8.11 2.177 12.5 1.102zm-20.2-1.614l.01-.007-.01.007zm.63-.875h-.006v.007l.01-.007zm-.87.868l-.006.004v.003l.01-.007zm.29-.29l-.007.003v.003l.003-.01zm1.535-2.608c-1.55-.042-3.13-.426-4.6.53-1.635 1.06-3 2.37-4.06 3.99-.16.24-.55.53-.2.863.25.236.53-.01.793-.11 2.075-.8 4.294-1.22 6.234-2.37-.008-.2.09-.294.29-.292-.007-.197.09-.294.29-.29-.007-.197.09-.294.29-.29-.008-.197.09-.295.29-.29-.008-.195.09-.292.283-.288 0-.198.097-.293.29-.29 0-.195.097-.29.29-.288-.2-.273.5-.856-.19-.875zm-1.426-20.64c2.893 1.123 4.45.414 5.8-2.98-2.855 1.392-6.186-.588-8.72 2.045 1.073.34 2.014.586 2.92.936zm.18 22.96v.006zm.58-.58h-.005l-.003.01.006-.01zm.29-.29l-.008.003v.006l.01-.008zm5.85-27.205c-.11-.86-.97-.482-1.437-.38-1.774.38-3.515.904-5.07 2.644 2.106.04 3.8-.43 5.51-.75.76-.143 1.074-.915.996-1.507zm-29.64-.48c.7.026 1.53.52 1.406-.99-.17-2.17-.46-4.3-.913-6.423-.49-2.282-1.718-3.39-4.09-3.08l-.08.08c-.173 2.633.497 4.954 2.15 7.083.726.93 1.75 1.894 1.53 3.33zm-5.47 32.6c1.693.558 3.314 1.19 4.99 1.614 2.845.723 5.77.856 8.794.76-2.47-5.895-8.695-6.99-13.788-2.374zm8.38-4.89c-.065 1.084.385 1.748 1.27 2.12 1.79.76 3.3 1.887 4.77 3.224-1.927-3.602-3.205-7.544-6.015-11.17 0 2.26.07 4.05-.03 5.826zm9.3 6.425c1.27-6.463.12-12.934.05-19.4-.008-.36.1-.883-.32-.985-2.27-.554-2.07-2.554-2.39-4.15-.41-2.075-1.79-3.362-3.58-3.58-2.276-.272-4.62-.22-6.99-.335.225.16.435.363.69.473.83.364 1.653.736 2.51 1.028 6.24 2.14 7.43 3.82 7.33 10.43-.086 5.517.29 10.99 1.263 16.428.17.94.322 2.135-.097 2.89-1.62 2.913-.95 4.038-1.21 7.08-.125 1.522.45 2.63 1.61 3.515.46.34.78 1.07 1.5.74.533-.25.512-.88.554-1.4.26-3.46.356-4.9-.633-8.28-.42-1.46-.58-2.94-.28-4.46zm-30.01-11.05v.013l.01-.006v-.01h-.01zm40.1 11.264h.005v-.01h-.006l.01.01zM44.54 98.2c.41-.192.826-.387 1.187-.65.972-.71 2.828-1.04 2.77-2.09-.053-1.01-1.87-1.385-2.905-2.048-1.65-1.06-3.238-1.118-4.838.177-.49.39-1.02.93-1.796.77-.01.66-.57.78-1.015 1.01.516 1.79 2.164 2.69 3.372 3.81.575.53 2.16-.5 3.224-1zm12.544 2.896c-2.843-1.55-5.422-2.705-7.425-4.734-.39-.39-.76-.065-1.07.127-2.06 1.27-4.12 2.55-6.72 3.41 1.74 1.56 3.38 2.62 5.11 3.6 1.64.93 2.99.87 4.47-.37 1.46-1.24 3.14-2.16 5.62-2.04zm21.24 5.828h.005l-.01-.005zm14.458-2.313h.01l-.012-.01v.01zm11.09 4.54c-2.32-2.79-5.673-3.67-8.9-4.75-.64-.21-1.5-.35-2.178.21.74.41.864 1.22 1.22 1.88.232.43.42.79 1.053.79 1.375-.01 2.64.47 3.832 1.12 1.77.96 3.72 1.43 5.6 2.18.22-.75-.31-1.03-.63-1.42zm-11.962-4.91c-2.367-1.22-4.892-1.65-7.835-1.63.858.83 1.87 1.01 2.163 2.15-3.71-3.04-7.685-1.76-11.85-1.18.782 1.11 2.164 1.05 2.49 2.2.46-.06.723.18.87.59.18.02.276.11.29.29.18.02.276.12.29.3.97.946 1.57 2.13 2.132 3.337.538 1.157 1.294 1.746 2.7 1.617 1.614-.15 3.07-.676 4.543-1.255 1.036-.41 1.152-.984.772-2.024-.45-1.24-1.417-2.215-1.695-3.53a6.973 6.973 0 0 1 1.737 2.52c.792 1.94.794 1.93 2.77 1.085.833-.357 2.06-.46 2.42-1.08.392-.68-.58-1.595-.886-2.436-.06-.164-.03-.36-.04-.543-.39.114-.58-.23-.87-.38zm-15.03 1.53h-.005l.002.01h.006-.003zm.866.59h.006-.01l.004.01zm.29.29c-.193 0-.288-.09-.29-.29-.46.06-.72-.18-.87-.58-.835-.44-1.83-.73-2.465-1.37-.69-.7-1.24-.51-1.88-.21-1.66.78-3.92 3.65-2.91 6.35.22-.1.42-.22.64-.29 2.2-.73 4.37-1.39 6.57.12 1.06.73 2.33.99 3.6 1.13-.38-1.72-1.81-2.87-2.1-4.56-.19.01-.29-.09-.29-.29zm-39.08-12.28c.455-.95 1.747-.98 2.36-2.22-4.48-.38-8.35.67-11.836 3.23 1.14-.12 2.31-.13 3.407-.42 1.766-.46 3.348.55 5.046.44-.032-.71.41-.95 1.022-1.01zm.002.01h.002-.005l-.004.01h.01zM69.058 83c-.01-.9.12-1.715 1.18-1.97-.094-.375.023-.65.396-.79.03-.23.154-.37.395-.39.02-.244.15-.376.39-.395.02-.246.15-.376.39-.396.02-.25.15-.38.39-.4.02-.25.16-.37.4-.4 2.31-1.96.37-4.26.53-6.43-2.5 2.59-4.26 5.59-5.16 9.01-.27.99-.63 2.29.29 3.31.02-.55.16-1.02.78-1.17zm-9.033-7.05c.47.316.828 1.016 1.527.64.516-.276.525-.86.548-1.4.102-2.35-.15-4.68-.865-6.897-.665-2.06-1.702-3.952-4.33-4.88 1.25 2.63 1.005 5.188 1.16 7.72.108 1.758.23 3.658 1.96 4.82zM64.72 79c.17-4.64-.45-7.078-2.305-8.587 1.523 2.595-1.635 6.258 2.303 8.588zm5.527 2.016l.002-.008-.02.004v.008l.01-.005zm-1.18 1.966v-.01l-.01.005v.01l.01-.006zm3.146-4.328c0 .264-.13.395-.395.393 0 .265-.13.394-.393.394.002.26-.13.39-.394.39 0 .27-.12.4-.39.4.1.38-.02.65-.39.79-.14.81-.45 1.51-1.18 1.97 0 .57-.17 1.03-.78 1.19l-.01 1.18.01.01c4.04-1.86 8.47-2.95 12.04-5.99-2.57-1.03-4.97-2.22-7.71-1.09.01.277-.13.4-.39.4zm-3.94 5.493l-.004.022.01-.01v-.01l-.01-.01zm4.336-5.89v-.007l-.01.01.01-.003zM32.7 92.865c3.06-1.09 6.096-2 9.406-1.153.873.223 1.76-.385 2.756.442 1.52 1.262 3.37 2.126 5.13 3.192.342-1.32.12-2.492-.17-3.625-.462-1.8-1.203-3.48-3.276-3.9-2.1-.43-4.212-.41-6.52.14.847.7 1.895.98 2.06 2.41-.584-.49-.917-.84-1.31-1.1-.796-.51-1.56-1.22-2.622-.91-3.54 1.07-6.652 2.79-8.82 5.91l.194.2c1.068-.5 2.04-1.18 3.173-1.58zM45.186 64.54c1.823.044 3.646.067 5.47.1l-.61-.816.178-.117c.448.034.534.406.67.732.64.01.712-.34.64-.88-.36-2.64-1.046-3.22-4.84-4.04l-.072.07.15.75.464.45.458.45c.25.08.7.15.458.48-.206.28-.488-.06-.648-.3l-.447-.45-.455-.46c-.927-.42-1.26-1.71-2.692-1.76.175 1.75.333 3.42.51 5.1.045.43.358.65.767.66zM29.45 95.383l.03-.02-.048.004.018.016zm26.288-23.08v-.016h-.014l.014.016zm3.546 4.65c-3.954-3.75-8.198-6.52-13.896-6.944 2.883 7.28 7.392 7.04 13.896 6.94zM46.07 65.423c-.803.15-1.84-.108-1.66 1.19.147 1.086-.304 2.842 1.414 2.83 3.25-.024 5.958 1.483 8.833 2.56l.272-.27c-1.84-3.665-3.7-7.27-8.86-6.31zm5.228 31.603c2.048 1.476 4.28 2.575 6.704 3.587l.002-2.785c0-.998-.002-1.974-.008-2.95-.003-.8-.076-1.695-.627-2.228-2.34-2.258-5.09-3.79-8.72-4.552 1.97 2.2 1.99 4.505 1.88 6.835-.04.818 0 1.542.76 2.093z"/></svg>