<svg xmlns="http://www.w3.org/2000/svg" width="138" height="122"><path fill="#fff" d="M81.927 53.82l.01-.01-.01.01zm4.14-28.91l-.49.5c0 .4-.377.512.033.46 1.043-.122 2.763.304 3.02-.814.535-2.324 1.48-4.553 2.045-7.162-1.63.774-2.04 2.014-2.553 3.16-.61 1.362.25 1.06-2.054 3.855zM81.56 54.185l.008-.002.002-.006-.01.008zm4.22-29.412l-.014.008-.002.01.017-.01zm10.38 57.213c-1.337-.508-2.72-.824-4.08-1.23-.88-.263-1.3.126-1.78.84-1.642 2.433-1.805 5.14-1.49 7.887.218 1.866.538 4.352 2.18 4.975 2.543.963 5.475 1.607 8.39.184-1.542-2.2-3.056-4.293-3.254-6.97-.11-1.507-.284-3.034.897-4.27.037-.67-.092-1.122-.863-1.416zM81.195 54.55l.006-.003.01-.004-.01.006zm32.182 9.422c-1.116-4.463-4.584-6.365-9.078-5.225 3.34 1.125 6.42 2.337 9.07 5.225zm-36.35-12.058c-2.066 1.343-3.788 2.996-5.134 5.043-.198.304-.688.668-.25 1.09.314.3.672-.013 1.003-.14 2.623-1.01 5.426-1.54 7.88-2.996-.007-.24.116-.37.364-.36-.005-.25.116-.37.366-.36-.005-.25.116-.37.365-.36 0-.25.12-.37.37-.36 0-.24.12-.37.37-.36 0-.25.12-.37.37-.36 0-.24.12-.36.36-.36-.25-.34.63-1.08-.24-1.1-1.95-.05-3.95-.54-5.81.67zm29.332 5.042c-1.62-1.768-3.27-3.13-5.39-3.82-1.4-.45-2.69-1.562-4.3-.757-2.03 1.01-4.16 1.83-6.11 3.18 5.19 1.16 10.25 2.75 15.79 1.39zm-25.54-2.04v-.01l-.01.01zm-.3-.01l-.01.005v.01l.01-.01zM72.15 34.78v-.01l-.008.003-.004.01.01-.002zm.452-.455l.002-.01H72.6l-.005.01h.007zm32.753 51.26c-2.405-.207-4.4-1.416-6.4-2.59-.803-.472-1.38-.174-1.926.403-.29 1.338-.42 2.69-.35 4.058.14 2.592 1.42 4.718 3.06 6.526.98 1.076 2.61.277 3.94.337 2.21.1 2.2.03 1.5-2.12-.23-.7-.49-1.42-.54-2.15-.09-1.38-.32-2.84.94-3.91-.08-.2-.15-.56-.25-.57zM85.765 24.78c.23-2.283 2.02-3.948 2.445-6.155.51-.793.048-.425-.268-.318-1.63.943-3.293 1.835-4.884 2.838-2.763 1.738-2.938 4.557-3.31 7.652 2.58-.98 3.903-3.092 6.018-4.016zM97.022 83.4v.003l.01-.008v-.005l-.01.01zM71.696 35.23v-.01l-.008.003-.003.008h.01zm4.706-4.317c1.043-.2 2.593-.695 2.498-2.173-.135-2.125.8-3.93 1.41-6.11-4.647 1.06-5.633 2.376-4.903 6.433.122.686-.017 2.045.996 1.85zm29.204 55.233v.002l.013-.006v-.01l-.02.014zM73.056 33.86h-.005v.01l.01-.01zm.003 0l-.02.01h.01v-.01zm10.33 18.487l-.38.377.01-.01-.38.374.01-.01-.38.377.01-.012-.37.367c-.02.227-.14.353-.37.372-.02.226-.14.348-.37.364-.02.228-.14.35-.37.368L80 56.05c5.92.68 11.24-.92 16.1-4.44-4.405-1.29-9.65-.97-12.722.76l.008-.01zm-2.56 9.513l-.01-.01v.008zm18.28-2.93l-.02-.01v.016h.01v-.005zm-4.02 15.495a18.784 18.784 0 0 1 6.02-2.206c-2.39-3.28-6.88-4.46-10.33-2.89-.88.4-2.77.12-3.69.42 0 0-2.19-.64-2.61-.1s-1.75 4.07-2.9 5.24c-.47.93-.31 1.6.51 2.37 1.66 1.56 3.33 2.87 5.81 2.39.43-.09.94-.04 1.34.11 1.06.39 1.47-.05 1.87-1.01.56-1.36.91-3.01 2.8-3.27 0-.76.69-.81 1.15-1.08zm-65.07 15.77c.24-.81-.38-.912-.98-.955.07.86-.65 1.112-1.2 1.426-1.29.73-2.42 1.788-3.96 2.002-.36 1.194-1.27 1.603-2.4 1.716-.28 1.088-1.06 1.688-2.06 2.06-.02.207-.13.32-.34.344-.3 1.087-1.53 1.567-1.78 2.69l.21.174c3.26-2.8 6.98-3.573 11.12-2.553 1.14.28 1.5-.2 1.47-1.33-.06-1.86-.64-3.71-.08-5.58zm70.64-28.89c.29.543.53 1 1.33.99 1.73-.018 3.33.594 4.84 1.414 2.24 1.21 4.71 1.8 7.07 2.76.28-.96-.39-1.31-.8-1.8-2.93-3.53-7.17-4.65-11.25-6.01-.81-.27-1.9-.45-2.76.26.94.51 1.09 1.54 1.54 2.37zm-20.2.19c-.25 0-.37-.123-.37-.364-.58.08-.9-.22-1.09-.73-1.06-.55-2.31-.91-3.11-1.72-.88-.88-1.57-.64-2.38-.26-2.11.99-4.96 4.61-3.69 8.03.27-.13.53-.28.81-.37 2.78-.92 5.52-1.76 8.3.15 1.33.92 2.94 1.25 4.54 1.43-.49-2.18-2.29-3.63-2.66-5.77-.25 0-.37-.12-.37-.37zm37.32 28.185c-1.16-3.063-3.39-4.924-6.89-4.938-1.11-.006-2.22-.256-3.33-.395 2.32-.54 4.58-.138 6.87.243-3.56-5.396-8.04-7.764-14.37-4.572 2.35-2.245 5.2-2.06 8.21-1.848-1.02-1.406-2.28-2.35-3.48-3.375-2.22-1.886-4.55-2.182-7.15-.96-1.23.58-2.49 1.113-3.73 1.667-.86 1.058-1.72 2.093-2.28 3.37-.31.715-.37 1.23.53 1.343 1.6.2 3.09.76 4.58 1.347.7.28 1.33.194 1.92-.277.13-.174.35-.42.49-.204.17.26-.2.28-.36.38-.07.34-.19.68.23.89 1.97.99 3.74 2.41 6.11 2.48.68.02 1.52.03 1.86.9.82.26 1.53.68 2.04 1.4 1.77 1.18 3.663 2.22 4.84 4.1l.34.34c.174.17.44.31.18.61l-.376-.4-.34-.34c-1.56-1.4-3.36-2.54-4.79-4.11-.76-.35-1.5-.73-1.99-1.46-.5-.16-.92.05-1.33.3-.18 1.12-.41 2.22-.37 3.37.13 3.4 1.366 4.96 4.6 5.89 2.9.83 5.666 2 8.12 3.79-.24-2.19-1.61-3.96-2.3-5.99 2.056 2.07 2.656 4.91 3.96 7.58.46-4.04-.52-7.62-1.84-11.09zM80.46 61.49l.008.002v-.006l-.008-.004.002.007zm-.365-.363h.01v-.017l.005.01zm13.84 14.366v.006l.01-.01.007-.01h-.01zM79.01 60.39H79l.003.005.008.004v-.01zm2.623-6.58v.002l-.002.007.01-.01zm.37-.366l-.005.002-.003.01.01-.012zm.368-.365v.01l.01-.01zm-1.09 1.09l.01-.01zm1.46-1.47h-.01v.01l.01-.02zm-1.83 1.83h-.01l.01-.01zm2.4 16.84h-.01l.01-.01zm-.54-2.3c-1.28-.29-3.2-.24-4.33-.94-1.04-.64-1.97.51-2.8 1.16-2.58 2.01-4.54 4.52-5.73 7.81.48-.13.75-.18 1-.28 2.91-1.16 5.86-1.93 9.01-1.03.68.19.78-.22 1.05-.74.67-1.29.65-3.06 2.36-3.69 0-.72.1-2.16-.54-2.3zm-2.46-36.09c3.34 1.29 5.14.47 6.7-3.44-3.29 1.6-7.14-.68-10.06 2.36 1.24.39 2.33.67 3.37 1.08zm2.8 19.36h-.01l.01.01.01-.01zm5.15-25.27c-.13-1-1.12-.57-1.65-.45-2.04.44-4.05 1.04-5.85 3.05 2.44.04 4.39-.5 6.36-.87.88-.17 1.24-1.06 1.15-1.74zm9.76 31.38c-2.99-1.55-6.18-2.09-9.9-2.07 1.09 1.05 2.37 1.27 2.74 2.71-4.69-3.85-9.71-2.24-14.98-1.5.99 1.4 2.73 1.32 3.15 2.78.58-.08.91.22 1.09.73.23.02.35.14.37.37.23.02.35.14.37.37 1.23 1.2 1.99 2.69 2.7 4.22.68 1.46 1.64 2.2 3.41 2.04 2.04-.19 3.89-.85 5.74-1.59 1.31-.52 1.46-1.25.98-2.56-.57-1.57-1.79-2.8-2.14-4.46.98.9 1.7 1.97 2.2 3.19 1 2.45 1.01 2.44 3.5 1.37 1.06-.45 2.61-.59 3.06-1.37.5-.86-.73-2.01-1.12-3.08-.07-.21-.04-.46-.05-.69-.5.14-.74-.29-1.1-.48zM36.57 45.21c-5.42-.46-10.102.802-14.316 3.905 1.38-.152 2.795-.16 4.12-.51 2.138-.562 4.05.668 6.104.524-.038-.87.493-1.15 1.236-1.23.55-1.16 2.114-1.19 2.856-2.69zm28.295-9.965c.17-4.64-.447-7.076-2.303-8.585 1.524 2.595-1.634 6.257 2.303 8.587zm-4.693-3.065c.47.315.828 1.015 1.527.64.51-.277.52-.86.54-1.4.1-2.35-.15-4.68-.87-6.898-.67-2.06-1.7-3.954-4.33-4.88 1.25 2.627 1 5.186 1.16 7.72.1 1.755.23 3.656 1.96 4.817zm-4.286-3.643c.702.025 1.53.52 1.407-.987-.17-2.17-.458-4.3-.915-6.426-.488-2.283-1.717-3.39-4.09-3.08l-.078.08c-.174 2.63.496 4.953 2.15 7.08.724.93 1.747 1.895 1.527 3.33zm0 .017v-.017h-.015l.02.02zM45.366 50.48c-2.49 1.542-4.977 3.092-8.12 4.123 2.112 1.897 4.094 3.177 6.18 4.36 1.993 1.13 3.623 1.06 5.406-.45 1.767-1.49 3.8-2.6 6.804-2.465-3.438-1.872-6.558-3.27-8.98-5.724-.465-.47-.917-.08-1.29.154zM64.062 63.5c-2.985-7.13-10.514-8.452-16.673-2.87 2.05.674 4.01 1.44 6.03 1.952 3.44.872 6.98 1.033 10.64.916zm-4.634-30.3c-3.955-3.75-8.2-6.518-13.897-6.943 2.89 7.288 7.4 7.047 13.9 6.944zM48.64 51.125c2.476 1.786 5.177 3.116 8.107 4.34l.002-3.368c0-1.208-.01-2.388-.01-3.566-.01-.96-.1-2.05-.76-2.69-2.83-2.73-6.16-4.58-10.54-5.5 2.38 2.66 2.41 5.45 2.27 8.27-.05.99 0 1.86.92 2.53zM46.213 21.67c-.802.15-1.838-.108-1.66 1.19.148 1.086-.303 2.842 1.415 2.83 3.248-.024 5.957 1.483 8.832 2.56l.272-.27c-1.836-3.666-3.7-7.27-8.86-6.31zm1.06 58.395c1.58-.898 3.142-1.795 4.92-2.33 1.527-.458 2.02-1.62 1.282-2.77-1.424-2.227-3.32-4.05-6.075-4.272-4.393-.354-8.215 1.588-12.136 3.29.177.254.217.384.297.415.38.138.76.248 1.14.37 3.46 1.112 7.06 1.983 9.38 5.16.34.453.73.402 1.2.137zM57.558 47.67c0 2.733.093 4.896-.032 7.044-.078 1.31.467 2.112 1.53 2.562 2.17.918 3.997 2.282 5.774 3.898-2.33-4.354-3.875-9.122-7.273-13.505zM29.045 89.24v-.013l-.01.006v.005h.01zm-5.152 3.423l-.007.006.006-.01v-.01zm16.613-4.497c-.74-2.655-2.8-3.56-5.182-2.263-1.3.707-2.538 1.524-3.835 2.238-.74.41-1 .96-1.07 1.79-.18 2.24.31 4.43.32 6.64 0 .53.15.84.75.91 1.74.21 3.48.48 5.23.7.43.06.93.17 1.21-.36 1.26-2.47 2.76-4.87 2.79-8.17-.04-.24-.07-.88-.23-1.47zM19.08 96.784v.007h.008-.008zm.347-.343c.282-1.08 1.036-1.7 2.06-2.05.658-.77 1.437-1.38 2.406-1.72 1.452-1.53 3.456-2.24 5.144-3.43.007-.24.28-.66-.174-.65-1.27.04-2.27-.64-3.366-1.1-2.45-1.01-4.022-.36-5.076 2.03-.32.73-.68 1.44-.98 2.18-.83 2.08-1.64 4.17-2.51 6.37 1.05-.2 1.2-1.36 2.16-1.27 0-.23.11-.35.35-.34zm2.058-2.05l-.004.01h.01v.01zm4.662-48.29c3.697-1.32 7.37-2.41 11.375-1.39 1.056.27 2.127-.46 3.332.54 1.84 1.53 4.076 2.57 6.205 3.86.41-1.59.14-3.01-.21-4.38-.56-2.18-1.46-4.21-3.96-4.72-2.54-.52-5.1-.5-7.89.17 1.02.85 2.29 1.18 2.49 2.91-.71-.6-1.11-1.02-1.59-1.33-.96-.62-1.89-1.48-3.17-1.1-4.28 1.29-8.05 3.37-10.67 7.15l.23.24c1.29-.61 2.46-1.43 3.83-1.91zm-6.72 50.35l-.003.01h.01-.006zm30.158-13.54c1.977-1.11 2.826-3.32 5.193-4.61-3.286-.29-5.303 1.24-7.464 2.47.363.75 1.34.69 1.488 1.58-1.083.11-1.803-1.2-2.838-.83-2.616.93-5.197 1.96-8.1 3.06 2.865 1.33 3.786 3.46 3.51 6.15-.146 1.42-.577 2.78-1.195 4.09-.5 1.06-1.24 2.04-1.48 3.43 4.09.01 7.18-1.8 9.85-4.54.52-.53.48-1.17.34-1.77-.58-2.58-.37-5.12.53-7.56.19-.53-.44-1.1.15-1.44zM45.33 20.79c1.822.043 3.645.066 5.47.1l-.61-.817.177-.115c.448.034.534.406.67.732.64.018.712-.335.64-.873-.36-2.637-1.046-3.218-4.84-4.04l-.072.07.15.756.463.44.458.455c.25.085.7.15.458.482-.206.28-.488-.058-.648-.3l-.447-.45-.46-.454c-.93-.42-1.26-1.706-2.69-1.757.17 1.75.33 3.42.51 5.1.04.44.36.65.76.66zm-8.737 62.948l.01.01-.002-.01zM73.058 33.87c0 .304-.15.456-.456.453.002.306-.148.455-.452.455.003.304-.15.454-.454.453 0 .31-.145.46-.452.46.11.44-.027.74-.456.91-.164.93-.527 1.74-1.362 2.27-.002.66-.2 1.18-.907 1.37l-.02 1.36v.01c4.66-2.14 9.76-3.41 13.89-6.91-2.97-1.2-5.75-2.56-8.9-1.26.01.32-.15.46-.46.46zm7.52 44.177c-1.24-.96-2.657-1.337-4.18-1.156-2.043.25-4.025.8-5.848 1.77-.788.42-1.668.98-1.627 2.03.084 2.11-.398 4.16-.76 6.73 2.217-2.61 4.624-2.22 7.165-1.67 3.367.73 6.58 1.73 9.392 3.78.495.17.926.42 1.203 1.03-.79.16-1.13-.29-1.4-.85-3.65-1.6-7.283-3.2-11.32-3.69-2.722-.33-5.305 1.52-5.362 4.22-.03 1.77-.22 3.58.34 5.28.49 1.52-.13 2.98-.03 4.35.35 5.18-.72 10.24-.71 15.37 0 .61-.45 1.22-.1 1.98.9-1.53 1.72-2.96 2.57-4.37 2.67-4.41 6.44-7.84 10-11.47.46-.46 1.17-.83.91-1.69L78 96.57l.34-.28c1.154.836 2.054 1.893 2.64 3.23.78.255 1.16-.35 1.56-.796 1.6-1.8 3.02-3.762 3.69-6.09.44-1.52 1.07-3.003.858-4.73-.54-4.39-3.2-7.28-6.48-9.814zm-10.854 18.68c1.502-3.12 4.892-3.882 7.263-1.62-2.95-1.685-5.12-.186-7.263 1.62zm-1.216-56.52l-.003.026.013-.006v-.007l-.01-.013zm.906-1.35c-.01-1.035.14-1.976 1.362-2.27-.11-.433.024-.747.455-.91.04-.268.18-.428.46-.454.02-.28.18-.432.46-.453.02-.284.18-.435.46-.457.02-.28.18-.43.45-.453.03-.28.19-.425.46-.458 2.68-2.26.44-4.914.62-7.418-2.88 2.992-4.91 6.457-5.95 10.395-.3 1.15-.73 2.64.34 3.82.03-.63.19-1.18.91-1.35zm4.1-5.446h-.002l-.012.01h.013zm-2.727 3.19l.002-.01-.02.01v.01h.01zm-1.362 2.27v-.01l-.01.01v.02l.01-.01zm48.55 60.33h-.008l.002.01v-.01zM61.85 34.55c-2.275-.273-4.618-.22-6.992-.336.228.162.438.365.69.475.827.36 1.655.73 2.51 1.02 6.24 2.13 7.432 3.81 7.33 10.43-.087 5.51.29 10.99 1.262 16.42.17.94.323 2.13-.096 2.89-1.615 2.91-.948 6.03-1.203 9.08-.12 1.52.45 2.63 1.61 3.51.45.34.78 1.07 1.49.74.54-.25.52-.88.56-1.41.26-3.46.36-6.9-.63-10.28-.42-1.46-.58-2.94-.28-4.46 1.27-6.46.13-12.93.05-19.4 0-.36.1-.88-.32-.99-2.27-.56-2.07-2.56-2.38-4.15-.41-2.08-1.79-3.37-3.58-3.58zm27.92 46.078c-.367-.86-2.59-.275-3.99-.308l-.245.17c.99 1.343 1.88 2.62 2.467 4.4.72-1.645 2.267-3.09 1.768-4.262zm-34.79-3.125c1.516.057 2.895-.583 4.34-.87.226-.043.475-.332.577-.566.74-1.7-.78-4.6-2.592-5.083-2.507-.668-5.048-.69-8.016-.557.67.378 1 .504 1.26.72 1.83 1.525 4.27 2.67 3.64 5.77-.13.606.37.573.78.586zm-16.94 6.39c1.838-.768 3.73-1.405 5.583-2.144 2.436-.98 2.485-1.36.487-3.04-.174-.15-.36-.28-.55-.41-2.693-1.83-5.835-2.52-8.876-3.47-.56-.18-1.156-.1-1.628.29-1.787 1.48-3.557 2.98-5.6 4.7 2.413.54 4.46.94 6.465 1.49 1.24.34 2.59.73 2.68 2.41.47.14.86.4 1.44.15zm-5.564-34.768l-.002.014.015-.01-.01-.01h-.01zm-10.26.012l.036-.024-.057.005.022.02zM60.28 72.073l.02.007-.004-.02-.014.013zM32.49 49.13c.622 2.164 2.615 3.256 4.078 4.618.694.646 2.61-.598 3.898-1.205.495-.23 1-.466 1.436-.785 1.176-.86 3.42-1.26 3.353-2.527-.065-1.22-2.263-1.67-3.515-2.47-1.995-1.28-3.917-1.35-5.852.22-.593.48-1.233 1.14-2.17.94-.01.81-.69.95-1.228 1.23zm1.228-1.228v-.01h-.004l-.005.01h.01zm37.527-12.216l-.002-.013-.01.005-.003.01.016-.002zM67.12 98.04c.028-2.08-2.378-4.002-4.418-3.046l-2.61 1.23c-.3.628-.775 1.084-1.48 1.528-.09-1.054.575-1.4 1.257-1.733 2.26-2.26 4.74-2.62 7.57-.46-.42-2.13-.38-3.89-.26-5.64.08-1.23-.45-2.06-1.4-2.5-1.59-.74-3.32-1.04-5.09-1.08-1.81-.04-2.99 1.27-4.47 1.91l-.34.34c-.34.79-.95 1.33-1.76 1.97.02-1.24.78-1.71 1.56-2.17l.34-.35c1.42-1.79 3.4-2.63 5.53-2.46 2.03.16 4.16.5 5.83 2.13.37-2.12.69-4.03 1.03-5.93.14-.84.03-1.42-.79-2.02-2.94-2.14-6.04-2.71-9.51-1.58-6.15 2.01-9.31 7.22-7.95 13.79.12.57.22 1.18 1.06.89.27-.6.82-.83 1.56-1.28-.3.94-.8 1.24-1.4 1.44-.69.48-.86 1.07-.62 1.92.64 2.3 2.17 3.97 3.79 5.6.33.33.7.33 1.11.203.1-.246.18-.524.51-.545.04 0 .13.06.13.09-.01.31-.24.46-.48.6-.298.78.36 1.11.742 1.572 1.75 2.106 3.613 4.13 5.21 6.345 2.5 3.46 3.296 7.54 3.705 11.77.6-.46.48-1.07.6-1.608.444-1.97.09-4.01.45-5.96.91-5 .47-10.02.542-15.03zm-10.297 1.873c.02-.958.384-1.326 1.002-1.653.136.8-.333 1.106-1.002 1.653zm4.868-23.495c.98.152 1.96.242 3.04.373-.71-2.45-2.1-4.02-4.42-4.71.33 1.08.86 2.11.75 3.29-.04.48.08.96.65 1.05zm-35 4.436c-1.63 1.682-3.24 3.387-4.52 5.66 1.93-.1 3.41.333 4.91.975 1.24.53 2.69.97 4.08.17 1.58-.92 3.14-1.85 4.74-2.72.53-.29.78-.62.71-1.21-2.48-2.66-6-2.28-9.11-3.09-.23-.06-.62.03-.79.2z"/></svg>