<svg xmlns="http://www.w3.org/2000/svg" width="138" height="122" viewBox="0 0 138 122"><path fill="#fff" d="M67.935 109.4c1.27-6.462.124-12.933.048-19.4-.004-.357.098-.882-.322-.984-2.26-.554-2.07-2.554-2.38-4.15-.4-2.075-1.79-3.362-3.58-3.58-2.27-.272-4.61-.22-6.99-.335.23.17.44.37.69.48.83.37 1.66.74 2.51 1.03 6.24 2.14 7.43 3.82 7.33 10.43-.08 5.52.29 10.99 1.27 16.43.17.94.33 2.14-.09 2.89-1.61 2.91-.94 1.04-1.2 4.08-.12 1.52.45 2.63 1.61 3.52.45.35.78 1.08 1.49.75.54-.25.52-.87.56-1.4.26-3.45.36-1.89-.63-5.28-.42-1.45-.57-2.94-.28-4.45zm-22.185-8.64l.002-.006h-.004l-.003.005h.005zm-.002-.005c.335-.703 1.286-.72 1.738-1.634-3.296-.28-6.145.49-8.708 2.38.84-.09 1.7-.1 2.507-.31 1.3-.34 2.463.41 3.712.32-.023-.52.3-.7.75-.75zm9.08 1.965c1.507 1.086 3.15 1.895 4.932 2.64v-2.05c0-.733 0-1.45-.004-2.168-.003-.59-.057-1.248-.46-1.64-1.722-1.66-3.746-2.787-6.413-3.35 1.45 1.62 1.467 3.315 1.384 5.03-.028.6 0 1.133.56 1.538zm-16.07-1.21l.02-.014-.035.003.014.01zm2.39-1.85c2.248-.803 4.483-1.47 6.918-.85.643.165 1.294-.282 2.028.326 1.118.928 2.48 1.564 3.774 2.348.25-.97.086-1.833-.128-2.667-.34-1.326-.884-2.56-2.408-2.875-1.544-.316-3.1-.302-4.798.102.624.512 1.396.714 1.518 1.768-.43-.366-.676-.622-.965-.81-.585-.377-1.146-.903-1.93-.668-2.603.784-4.892 2.05-6.486 4.345l.15.14c.79-.37 1.5-.87 2.34-1.17zm12.92 8.84c1.248.41 2.44.875 3.67 1.188 2.095.53 4.245.63 6.472.558-1.815-4.336-6.395-5.14-10.142-1.746zm5.016-2.786c-2.09-1.14-3.988-1.99-5.46-3.482-.284-.287-.56-.048-.786.093-1.516.938-3.027 1.88-4.938 2.508 1.284 1.154 2.49 1.932 3.76 2.653 1.21.687 2.202.644 3.287-.273 1.074-.905 2.31-1.582 4.137-1.5zm-14.087-4.21v.008l.007-.003-.002-.01h-.005zm15.237 3.4c-.047.796.284 1.285.932 1.558 1.32.56 2.43 1.388 3.512 2.372-1.417-2.65-2.357-5.55-4.424-8.215 0 1.66.057 2.97-.02 4.28zm-10.378-1.32c.3-.14.607-.285.873-.478.71-.523 2.08-.766 2.03-1.538-.04-.742-1.38-1.02-2.14-1.507-1.22-.77-2.39-.82-3.56.13-.36.3-.75.69-1.32.57-.01.49-.42.58-.75.75.38 1.32 1.59 1.98 2.48 2.81.42.4 1.59-.36 2.37-.73zm25.36 4.446h.003v-.005l-.01.005zm.19-.19h.004v-.004l-.003.004zm.85-1.71c-1.01-.028-2.047-.28-3.008.345-1.07.695-1.96 1.552-2.657 2.612-.1.157-.35.346-.12.565.16.154.35-.007.52-.073 1.36-.53 2.81-.8 4.08-1.56 0-.13.06-.19.19-.19 0-.13.06-.19.19-.19 0-.13.06-.19.19-.19 0-.13.06-.19.19-.19 0-.13.06-.2.19-.19 0-.13.06-.19.19-.19 0-.13.06-.19.19-.19-.13-.18.33-.56-.12-.58zm8.423 3.98l-.01-.005v.006zm-9.62-2.085l-.01.002v.003-.005zm.53-.374l-.01.01zm.56-.56l-.01.01zm15.77 6c-1.52-1.82-3.71-2.4-5.82-3.11-.42-.14-.99-.23-1.43.14.48.27.57.8.8 1.23.15.28.27.52.69.51.9-.01 1.72.31 2.51.74 1.16.63 2.44.94 3.66 1.43.14-.49-.2-.68-.41-.93zm-15.73-6.2h-.01v.01zm4.05 1.48c2.69.61 5.3 1.43 8.18.72-.84-.91-1.69-1.62-2.79-1.98-.72-.23-1.4-.81-2.23-.39-1.05.53-2.16.95-3.17 1.65zm-3.87-1.66h-.01v.01zm15.68 6.02c-.58-2.31-2.37-3.29-4.7-2.7 1.73.58 3.32 1.21 4.7 2.71zm-16.43-5.26h-.01v.01zm-.38.38h-.01l-.01.01zm.76-.75zm-.57.56h-.01v.01zm.38-.38l-.01.01v.01-.01zm7.31-.95c-2.29-.67-5-.5-6.59.4l-.2.2-.19.19-.19.19v-.01l-.2.19.01-.002c-.01.12-.07.185-.19.194 0 .11-.07.18-.18.183-.01.116-.08.18-.19.19l-.43.59c3.06.35 5.82-.48 8.34-2.3zm-8.86 4.55h-.01v.01zm.75.58c-.13 0-.19-.06-.19-.19-.3.04-.47-.11-.57-.38-.55-.29-1.2-.47-1.62-.89-.46-.45-.82-.33-1.23-.13-1.09.51-2.57 2.39-1.91 4.16.14-.06.27-.14.42-.19 1.44-.47 2.86-.91 4.3.08.69.48 1.52.65 2.35.74-.25-1.13-1.19-1.88-1.38-2.99-.13 0-.19-.06-.19-.19zm-.19-.19h-.01zm.19.19H75v.01zm9.07-1.57c-1.55-.8-3.2-1.08-5.13-1.07.56.55 1.22.66 1.41 1.41-2.43-1.99-5.03-1.15-7.76-.77.51.73 1.42.69 1.63 1.44.3-.04.47.12.57.38.12.01.18.08.19.19.12.01.18.08.19.2l-.01-.002c.63.62 1.02 1.4 1.39 2.19.35.75.844 1.14 1.764 1.05 1.06-.1 2.01-.44 2.977-.82.68-.27.755-.645.508-1.325-.293-.81-.924-1.45-1.11-2.31.51.47.88 1.02 1.14 1.65.52 1.27.52 1.26 1.815.71.54-.24 1.35-.31 1.58-.71.26-.45-.38-1.046-.58-1.596-.04-.11-.02-.24-.03-.36-.26.077-.39-.15-.58-.25zM60.66 79.37c.4.27.71.87 1.31.55.44-.24.45-.74.47-1.2.08-2.01-.13-4.01-.74-5.91-.57-1.765-1.46-3.39-3.72-4.185 1.07 2.26.86 4.45.993 6.62.09 1.51.195 3.14 1.68 4.14zm-.64.88c-3.39-3.21-7.03-5.59-11.92-5.95 2.47 6.25 6.34 6.04 11.913 5.956zm4.66 1.76c.144-3.98-.386-6.07-1.977-7.364C64.02 76.86 61.31 80 64.69 82zm-7.7-5.74v-.015l.01.02zm-8.296-5.9c-.69.127-1.57-.094-1.42 1.02.13.93-.26 2.437 1.21 2.426 2.79-.02 5.11 1.275 7.58 2.2l.234-.233c-1.57-3.145-3.17-6.236-7.6-5.414zm-.76-.757c1.57.03 3.13.05 4.69.08l-.52-.7.16-.1c.385.03.46.35.576.63.55.01.61-.29.548-.75-.31-2.26-.9-2.76-4.15-3.467l-.064.06.13.648.4.388.392.39c.21.078.6.13.39.42-.178.24-.42-.05-.558-.26l-.38-.385-.39-.39c-.796-.36-1.08-1.46-2.31-1.506.15 1.5.285 2.94.44 4.38.04.37.31.56.66.56zm9.06 6.64c.6.02 1.31.44 1.207-.85-.14-1.86-.39-3.69-.78-5.51-.42-1.96-1.47-2.91-3.51-2.64l-.06.07c-.15 2.253.43 4.244 1.85 6.07.62.8 1.5 1.626 1.31 2.86zm14.3 6.715c0 .21-.105.32-.317.316 0 .21-.103.315-.313.315 0 .22-.103.32-.315.32 0 .21-.1.32-.31.32.08.31-.02.52-.32.64-.11.64-.36 1.21-.94 1.57 0 .46-.14.82-.63.95l-.01.94c3.24-1.49 6.79-2.37 9.66-4.81-2.068-.84-4-1.78-6.19-.88.01.22-.1.32-.317.32zm-2.534 3.47c-.01-.72.098-1.373.947-1.58-.078-.3.014-.52.312-.63.02-.187.12-.3.31-.316.01-.196.12-.3.31-.317.02-.195.12-.3.32-.316.01-.2.12-.3.31-.32.02-.2.13-.29.32-.32 1.86-1.57.3-3.42.43-5.16-2.01 2.08-3.42 4.49-4.14 7.23-.21.8-.51 1.84.23 2.66.02-.44.13-.82.63-.94zm2.85-3.786v-.01l-.01.01h.01zm-3.48 4.724l-.002.01.01-.01v-.004l-.004-.01zm3.165-4.42h-.004.01v-.005zm2.328-2.05c.726-.14 1.804-.49 1.737-1.51-.09-1.48.56-2.74.98-4.25-3.23.73-3.91 1.65-3.41 4.47.09.48-.01 1.42.7 1.28zm-2.642 2.37v-.01l-.01.01zm.32-.32l.01-.006zm-.95.95l.01-.01v.006h.01zm-.31.31h-.01v.005h.01zm.63-.63v-.006h-.01l-.01.006zm-1.89 2.84v-.005l-.002.01v.01h.006zm13.09-8.19c-.09-.69-.78-.39-1.15-.31-1.425.305-2.82.725-4.07 2.12 1.69.03 3.05-.345 4.42-.6.61-.11.86-.73.8-1.21zm-5.52 4.11c2.32.9 3.57.33 4.65-2.39-2.29 1.11-4.96-.48-7 1.64.86.27 1.61.47 2.34.75zm-6.613 2.51l.006-.01h-.01v.008h.005zm10.63-8.13l-.34.344c0 .28-.264.36.02.32.724-.08 1.92.217 2.1-.56.37-1.62 1.03-3.17 1.42-4.98-1.13.537-1.42 1.4-1.773 2.196-.42.945.178.736-1.424 2.68zm-.21-.09c.16-1.59 1.404-2.75 1.7-4.28.35-.55.03-.3-.19-.22-1.13.65-2.29 1.27-3.394 1.97-1.92 1.21-2.043 3.17-2.302 5.32 1.79-.68 2.71-2.15 4.18-2.79zm.01-.01h-.01v.01l.01-.01z"/></svg>