<svg id="Layer_1_barcode" xmlns="http://www.w3.org/2000/svg" viewBox="0 0 175.4 143"><title id="barcode_title">Barcode</title><style>.barcode-st0{fill:#606161}.barcode-st1{fill:none;stroke:#606161;stroke-width:.25;stroke-miterlimit:10}.barcode-st2{font-family:&apos;CourierNewPSMT&apos;}.barcode-st3{font-size:14px}</style><path class="barcode-st0" d="M27.9 81.3c1.1 0 1.6 0 1.7 1.1.1.7.1 1.9.1 2.7 0 .7 0 2.9-.4 3.4-.3.3-1 .4-1.5.4s-1.2 0-1.5-.4c-.3-.5-.3-2.7-.3-3.4 0-.8 0-2 .1-2.7.2-1 .7-1.1 1.8-1.1zm0-1.2c-1.3 0-2.4.1-2.8 1.5-.4 1.1-.4 2.3-.4 3.4 0 1.2.1 3.7.9 4.6.5.5 1.5.6 2.3.6.8 0 1.8-.1 2.3-.6.9-.9 1-3.4 1-4.6 0-1.1-.1-2.4-.4-3.4-.5-1.4-1.6-1.5-2.9-1.5zm8.4 1.2c1.1 0 1.5 0 1.7 1.1.1.7.1 1.9.1 2.7 0 .7 0 2.9-.4 3.4-.3.3-1 .4-1.5.4s-1.2 0-1.5-.4c-.4-.5-.4-2.7-.4-3.4 0-.8 0-2 .1-2.7.4-1 .8-1.1 1.9-1.1zm0-1.2c-1.3 0-2.4.1-2.8 1.5-.4 1.1-.4 2.3-.4 3.4 0 1.2.1 3.7 1 4.6.5.5 1.5.6 2.3.6.8 0 1.8-.1 2.3-.6.9-.9 1-3.4 1-4.6 0-1.1-.1-2.4-.4-3.4-.6-1.4-1.7-1.5-3-1.5zm8.4 1.2c1.1 0 1.6 0 1.7 1.1.1.7.1 1.9.1 2.7 0 .7 0 2.9-.4 3.4-.3.3-1 .4-1.5.4s-1.2 0-1.5-.4c-.4-.5-.4-2.7-.4-3.4 0-.8 0-2 .1-2.7.4-1 .9-1.1 1.9-1.1zm0-1.2c-1.3 0-2.4.1-2.8 1.5-.4 1.1-.4 2.3-.4 3.4 0 1.2.1 3.7 1 4.6.5.5 1.5.6 2.3.6.8 0 1.8-.1 2.3-.6.9-.9 1-3.4 1-4.6 0-1.1-.1-2.4-.4-3.4-.6-1.4-1.7-1.5-3-1.5zm8.5 1.2c1.1 0 1.6 0 1.7 1.1.1.7.1 1.9.1 2.7 0 .7 0 2.9-.4 3.4-.3.3-1 .4-1.5.4s-1.2 0-1.5-.4c-.4-.5-.4-2.7-.4-3.4 0-.8 0-2 .1-2.7.3-1 .8-1.1 1.9-1.1zm0-1.2c-1.3 0-2.4.1-2.8 1.5-.4 1.1-.4 2.3-.4 3.4 0 1.2.1 3.7.9 4.6.5.5 1.5.6 2.3.6.8 0 1.8-.1 2.3-.6.9-.9 1-3.4 1-4.6 0-1.1-.1-2.4-.4-3.4-.6-1.4-1.6-1.5-2.9-1.5zm8.4 1.2c1.1 0 1.5 0 1.7 1.1.1.7.1 1.9.1 2.7 0 .7 0 2.9-.4 3.4-.3.3-1 .4-1.5.4s-1.2 0-1.5-.4c-.4-.5-.4-2.7-.4-3.4 0-.8 0-2 .1-2.7.3-1 .8-1.1 1.9-1.1zm0-1.2c-1.3 0-2.4.1-2.8 1.5-.4 1.1-.4 2.3-.4 3.4 0 1.2.1 3.7.9 4.6.5.5 1.5.6 2.3.6.8 0 1.8-.1 2.3-.6.9-.9 1-3.4 1-4.6 0-1.1-.1-2.4-.4-3.4-.5-1.4-1.6-1.5-2.9-1.5zm13.5 1.2c1.1 0 1.6 0 1.7 1.1.1.7.1 1.9.1 2.7 0 .7 0 2.9-.4 3.4-.3.3-1 .4-1.5.4s-1.2 0-1.5-.4c-.4-.5-.4-2.7-.4-3.4 0-.8 0-2 .1-2.7.3-1 .8-1.1 1.9-1.1zm0-1.2c-1.3 0-2.4.1-2.8 1.5-.4 1.1-.4 2.3-.4 3.4 0 1.2.1 3.7 1 4.6.5.5 1.5.6 2.3.6.8 0 1.8-.1 2.3-.6.9-.9 1-3.4 1-4.6 0-1.1-.1-2.4-.4-3.4-.6-1.4-1.7-1.5-3-1.5zm8.4 1.2c1.1 0 1.6 0 1.7 1.1.1.7.1 1.9.1 2.7 0 .7 0 2.9-.4 3.4-.3.3-1 .4-1.5.4s-1.2 0-1.5-.4c-.4-.5-.4-2.7-.4-3.4 0-.8 0-2 .1-2.7.4-1 .8-1.1 1.9-1.1zm0-1.2c-1.3 0-2.4.1-2.8 1.5-.4 1.1-.4 2.3-.4 3.4 0 1.2.1 3.7.9 4.6.5.5 1.5.6 2.3.6.8 0 1.8-.1 2.3-.6.9-.9 1-3.4 1-4.6 0-1.1-.1-2.4-.4-3.4-.5-1.4-1.6-1.5-2.9-1.5zm8.4 1.2c1.1 0 1.6 0 1.7 1.1.1.7.1 1.9.1 2.7 0 .7 0 2.9-.4 3.4-.3.3-1 .4-1.5.4s-1.2 0-1.5-.4c-.4-.5-.4-2.7-.4-3.4 0-.8 0-2 .1-2.7.4-1 .9-1.1 1.9-1.1zm0-1.2c-1.3 0-2.4.1-2.8 1.5-.4 1.1-.4 2.3-.4 3.4 0 1.2.1 3.7.9 4.6.5.5 1.5.6 2.3.6.8 0 1.8-.1 2.3-.6.9-.9 1-3.4 1-4.6 0-1.1-.1-2.4-.4-3.4-.5-1.4-1.6-1.5-2.9-1.5zm8.5 1.2c1.1 0 1.6 0 1.7 1.1.1.7.1 1.9.1 2.7 0 .7 0 2.9-.4 3.4-.3.3-1 .4-1.5.4s-1.2 0-1.5-.4c-.4-.5-.4-2.7-.4-3.4 0-.8 0-2 .1-2.7.3-1 .8-1.1 1.9-1.1zm0-1.2c-1.3 0-2.4.1-2.8 1.5-.4 1.1-.4 2.3-.4 3.4 0 1.2.1 3.7 1 4.6.5.5 1.5.6 2.3.6.8 0 1.8-.1 2.3-.6.9-.9 1-3.4 1-4.6 0-1.1-.1-2.4-.4-3.4-.7-1.4-1.7-1.5-3-1.5zm8.4 1.2c1.1 0 1.6 0 1.7 1.1.1.7.1 1.9.1 2.7 0 .7 0 2.9-.4 3.4-.3.3-1 .4-1.5.4s-1.2 0-1.5-.4c-.4-.5-.4-2.7-.4-3.4 0-.8 0-2 .1-2.7.3-1 .8-1.1 1.9-1.1zm0-1.2c-1.3 0-2.4.1-2.8 1.5-.4 1.1-.4 2.3-.4 3.4 0 1.2.1 3.7.9 4.6.5.5 1.5.6 2.3.6.8 0 1.8-.1 2.3-.6.9-.9 1-3.4 1-4.6 0-1.1-.1-2.4-.4-3.4-.6-1.4-1.6-1.5-2.9-1.5zM2.4 83.5c.8 0 1.2 0 1.3.8.1.6.1 1.5.1 2s0 2.2-.3 2.5c-.2.3-.7.3-1.1.3-.3 0-.9 0-1.1-.3-.3-.4-.3-2-.3-2.5 0-.6 0-1.5.1-2 .2-.8.5-.8 1.3-.8zm0-.9c-1 0-1.8.1-2.1 1.1-.2.7-.3 1.7-.3 2.5 0 .9.1 2.8.7 3.4.4.4 1.1.4 1.7.4.6 0 1.4-.1 1.7-.4.7-.6.7-2.5.7-3.4 0-.8-.1-1.8-.3-2.6-.3-.9-1.1-1-2.1-1zm131.8.9c.8 0 1.2 0 1.3.8.1.6.1 1.5.1 2s0 2.2-.3 2.5c-.2.3-.8.3-1.1.3-.3 0-.9 0-1.1-.3-.3-.4-.3-2-.3-2.5 0-.6 0-1.5.1-2 .2-.8.5-.8 1.3-.8zm0-.9c-1 0-1.8.1-2.1 1.1-.3.8-.3 1.7-.3 2.6 0 .9.1 2.8.7 3.4.4.4 1.1.4 1.7.4.6 0 1.4-.1 1.7-.4.7-.6.7-2.5.7-3.4 0-.8 0-1.8-.3-2.6-.3-1-1.1-1.1-2.1-1.1zM10.6 0h1.2v85h-1.2zM13 0h1.2v85H13zm2.4 0h3.7v85h-3.7zm4.8 0h2.5v85h-2.5zm5.1 0h1.1v78.9h-1.1zm3.6 0h2.3v78.9h-2.3zm4.9 0h1.1v78.9h-1.1zm3.6 0h2.3v78.9h-2.3zm6 0h1.2v78.9h-1.2zm2.4 0h2.4v78.9h-2.4zm3.7 0h4.8v78.9h-4.8zm6 0h1.2v78.9h-1.2zm2.4 0h2.5v78.9h-2.5zm3.6 0h3.7v78.9h-3.7zm5 0h1.2v85h-1.2zm2.4 0h1.2v85h-1.2zm2.4 0h3.6v78.9h-3.6zm6.1 0h1.2v78.9h-1.2zm2.4 0H81v78.9h-1.2zm6.1 0h1.2v78.9h-1.2zm2.4 0h1.1v78.9h-1.1zM92 0h1.1v78.9H92zm4.9 0h1.2v78.9h-1.2zm3.6 0h3.6v78.9h-3.6zm4.9 0h3.6v78.9h-3.6zm4.8 0h1.2v78.9h-1.2zm3.7 0h1.2v85h-1.2zm2.4 0h1.2v85h-1.2zm6.1 0h1.2v85h-1.2zm2.4 0h1.2v85h-1.2z"/><path class="barcode-st1" d="M156.5 45.9H128"/><text transform="translate(158.616 50.342)" class="barcode-st0 st2 st3">06</text><path class="barcode-st1" d="M83.7 121.5V93"/><text transform="translate(75.438 133.497)" class="barcode-st0 st2 st3">07</text></svg>