<svg id="Layer_1" xmlns="http://www.w3.org/2000/svg" viewBox="0 0 189.9 309.6"><style>.st0{fill:none}.st1{fill:#606161}</style><path class="st0" d="M141.9 104.5c-1 0-1.9.5-2.6 1.5-.7.9-1.1 2.1-1 3.4 0 1.4.5 2.5 1.3 3.4.8.9 1.7 1.3 2.7 1.2 1.1 0 2-.5 2.7-1.5.7-1 1-2.1 1-3.3 0-1.2-.4-2.3-1.1-3.2-1-1-1.9-1.5-3-1.5zM28.1 109c-1 0-1.9.5-2.6 1.5-.7.9-1.1 2.1-1 3.4 0 1.4.5 2.5 1.3 3.4.8.9 1.7 1.3 2.7 1.2 1.1 0 2-.5 2.7-1.5.7-1 1-2.1 1-3.3 0-1.2-.4-2.3-1.1-3.2-1-1.1-1.9-1.6-3-1.5zm85.3 131.8l13 7.3h.1v.1l2.1 1.2 15.2-9-.2-12.4 7.3-.1-.2-17.9-22.7-12.8-22.4 13.3.2 16.1 7.5-.1.1 14.3zm-1.5-30l17.1-8.7.5.9-17.1 8.7-.5-.9zm-41.5-95.5v.1l23-5.2L95.6 86l-14.8-6.4-2.2 5.9-5.2.9-4.3-5.1-11.8 13.4 12.2 20.4v-.1zm101.9 78.4c-1 0-1.9.5-2.7 1.4-.7.9-1.1 2-1.1 3.4s.4 2.5 1.2 3.4c.8.9 1.7 1.3 2.7 1.3 1.1 0 2-.5 2.7-1.5.7-1 1-2.1 1-3.3 0-1.2-.4-2.3-1.1-3.3-.7-.9-1.6-1.4-2.7-1.4zM139.7 33l-22.2 13.7.4 16.1 7.5-.2.4 14.3 13.1 7.1h.1v.1l2.1 1.2 15-9.3-.3-12.4 7.3-.2-.5-17.9L139.7 33zm-15.5 14.7l-.5-.9 17-8.9.5.9-17 8.9zm-77 251.7c-1 0-1.9.5-2.7 1.4s-1.1 2-1.1 3.4.4 2.5 1.2 3.4c.8.9 1.7 1.3 2.7 1.3 1.1 0 2-.5 2.7-1.5.7-1 1-2.1 1-3.3 0-1.2-.4-2.3-1.1-3.3-.6-1-1.6-1.4-2.7-1.4zm13.7-49.8l-4.2-5.1-11.9 13.2 11.8 20.5v-.1l1 .4v.1l23-4.9 2.6-24.1-14.8-6.6-2.2 5.9zm-45.6 21.9c-1 0-1.9.5-2.7 1.4-.7.9-1.1 2-1.1 3.4s.4 2.5 1.2 3.4c.8.9 1.7 1.3 2.7 1.3 1.1 0 2-.5 2.7-1.5.7-1 1-2.1 1-3.3 0-1.2-.4-2.3-1.1-3.3-.6-.9-1.6-1.4-2.7-1.4zM184 40c1.1 0 2-.5 2.7-1.5.7-1 1-2.1 1-3.3 0-1.2-.4-2.3-1.1-3.2-.7-.9-1.7-1.4-2.8-1.4-1 0-1.9.5-2.6 1.5-.7.9-1.1 2.1-1 3.4 0 1.4.5 2.5 1.3 3.4S183 40 184 40zm-54.8 228.7c-1 0-1.9.5-2.7 1.4-.7.9-1.1 2-1.1 3.4s.4 2.5 1.2 3.4 1.7 1.3 2.7 1.3c1.1 0 2-.5 2.7-1.5s1-2.1 1-3.3c0-1.2-.4-2.3-1.1-3.3-.7-.9-1.6-1.4-2.7-1.4zM104.3 133l-1.9 5.4h4.4l-2.2-5.4z"/><path class="st1" d="M128.7 249.3l-2.1-1.1v1.1l2.1 1.2 2.1-1.2v-.9l1-.1v.4l12.1-7.2v-1.2zm22.9-35.8l-.5-.8.7-.4v-3l-2.7-1.5-.7.5-.5-.9.2-.1-19.6-11v.7h-1v-.7l-22.9 13.6.2 16.7h1l-.2-16.1 22.4-13.3 22.8 12.7.2 17.9h1l-.2-14.4zm-25.1 34.6l-13.1-7.3.1 1.2 12.1 6.7v-.6zm-43 .7l.2-.1-14.9-6.7-.4 1 14.8 6.6-2.6 24.1-23 4.9-.5 1.1 24.4-5.2 2.7-24.9-.2.1zm-38.7 8.9l11.9-13.2-.7-.8-12 13.4h.2l-.1 1h-.3l12.4 21.4.4-1.3z"/><path class="st1" d="M96 241.6l-12.3 7.1-.2.1.5.9.2-.1 12.3-7.2zm-38.4 36.9l-1-.4v.1l-.4 1.3-6.2 16.9.9.4 6.2-17.1.5-1.1zm70.9-81.5v-.7l-.2-15.8h-1l.2 15.8v.7zm-1.9 51.1h-1v.6l.2 17.3h1l-.2-16.7v-1.1zm4.2.3v.9l.2 16.6h1l-.2-17.2v-.4z"/><path transform="rotate(-26.893 120.647 206.907)" class="st1" d="M111 206.4h19.2v1H111z"/><path class="st1" d="M148.4 208.3l.7-.5 13-7.1-.4-.9-13.6 7.5-.2.1zm3.2 5.2l.2-.1 13.6-7.4-.5-.9-13.1 7.2-.7.4zM44.2 257.1H44l-27.2-3.9-6.5 15.1.9.4 6.2-14.4 26.4 3.8h.3zm130.3-63.4c-.7-.5-1.5-.7-2.3-.7-1.2 0-2.3.5-3.2 1.6-.9 1-1.3 2.3-1.3 4 0 1.6.5 2.9 1.4 3.9.9 1 2 1.5 3.2 1.5.8 0 1.6-.3 2.3-.7.7-.5 1.2-1.2 1.6-2s.6-1.8.6-2.8c0-1-.2-1.9-.6-2.8-.4-.9-.9-1.6-1.7-2zm.6 8c-.7 1-1.6 1.5-2.7 1.5-1 0-1.9-.4-2.7-1.3-.8-.9-1.2-2-1.2-3.4 0-1.3.3-2.4 1.1-3.4.7-.9 1.6-1.4 2.7-1.4s2 .5 2.8 1.4c.7 1 1.1 2 1.1 3.3-.1 1.2-.4 2.3-1.1 3.3zm-55.6-35c-.4.8-.6 1.5-.6 2.3v1.5c0 .5.1 1 .2 1.4.2.4.4.9.9 1.4.4.5.8.9 1 1.1.3.2.6.4 1.1.5.6.2 1.1.3 1.6.3.6 0 1.2-.2 1.8-.4.6-.3 1.1-.7 1.6-1.3.3-.3.4-.5.4-.6 0-.1 0-.2-.1-.2-.1-.1-.2-.1-.3-.1-.1 0-.2.1-.3.2-.5.6-1 1-1.5 1.3-.5.3-1.1.4-1.7.4-1.1 0-2-.4-2.8-1.2-.8-.8-1.2-1.8-1.2-2.9v-1.3c0-.5.1-1 .2-1.4.2-.6.5-1.1.9-1.6.2-.3.5-.5.9-.7.5-.3 1-.4 1.6-.4.9 0 1.7.2 2.4.8.5.4.8.8.8 1.3 0 .2.1.3.1.3.1.1.2.1.3.1.1 0 .2 0 .3-.1.1-.1.1-.2.1-.4v-2.1c0-.2 0-.3-.1-.4s-.2-.1-.3-.1c-.1 0-.2 0-.3.1s-.1.2-.1.4v.5c-.9-.8-2-1.2-3.2-1.2-.8 0-1.5.2-2.2.6-.6.6-1.2 1.2-1.5 1.9zm13.6-1.7c.1-.1.1-.2.1-.3 0-.1 0-.2-.1-.3-.1-.1-.2-.1-.4-.1h-2.2c-.2 0-.3 0-.4.1-.1.1-.1.2-.1.3 0 .1 0 .2.1.3.1.1.2.1.4.1h.5l.1 8.9h-.8c-.2 0-.3 0-.4.1s-.1.2-.1.3c0 .1 0 .2.1.3.1.1.2.1.4.1h2.6c.2 0 .3 0 .4-.1.1-.1.1-.2.1-.3 0-.1 0-.2-.1-.3s-.2-.1-.4-.1h-1l-.1-4.3 5-.1.1 4.3h-1c-.2 0-.3 0-.4.1-.1.1-.1.2-.1.3 0 .1 0 .2.1.3s.2.1.4.1h2.6c.2 0 .3 0 .4-.1.1-.1.1-.2.1-.3 0-.1 0-.2-.1-.3-.1-.1-.2-.1-.4-.1h-.8l-.1-8.9h.5c.2 0 .3 0 .4-.1.1-.1.1-.2.1-.3 0-.1 0-.2-.1-.3-.1-.1-.2-.1-.4-.1h-2.2c-.2 0-.3 0-.4.1s-.1.2-.1.3c0 .1 0 .2.1.3.1.1.2.1.4.1h1l.1 3.9-5 .1-.1-3.9h1c0 .1.1 0 .2-.1zm9.8 15.5c-.6 0-1.2-.2-1.7-.6-.1-.1-.1-.1-.2-.1s-.1 0-.1.1l-.1.1c0 .1 0 .1.1.2.2.2.4.3.8.5s.8.2 1.2.2c.6 0 1.2-.2 1.6-.6.4-.4.6-.9.6-1.4 0-.3-.1-.7-.3-1-.2-.3-.5-.6-.9-.7.3-.2.6-.4.7-.6.2-.3.2-.5.2-.8 0-.5-.2-.8-.5-1.2-.4-.3-.8-.5-1.4-.5-.5 0-1 .2-1.4.5-.3.2-.4.4-.4.5 0 .1 0 .1.1.1 0 0 .1.1.2.1h.1l.1-.1c.1-.2.4-.3.6-.4.3-.1.5-.2.8-.2.4 0 .8.1 1 .4.3.2.4.5.4.9 0 .3-.1.6-.4.8-.3.2-.6.4-1 .4h-.4c-.1 0-.2 0-.2.1 0 0-.1.1-.1.2s0 .1.1.2c0 0 .1.1.2.1.3 0 .6.1 1 .2s.6.3.7.6c.2.2.3.5.3.8 0 .4-.2.7-.5 1.1-.3-.1-.7.1-1.2.1zm-11.4 88.1c-.7-.5-1.5-.7-2.3-.7-1.2 0-2.3.5-3.2 1.6-.9 1-1.3 2.3-1.3 4 0 1.6.5 2.9 1.4 3.9.9 1 2 1.5 3.2 1.5.8 0 1.6-.3 2.3-.7.7-.5 1.2-1.2 1.6-2 .4-.9.6-1.8.6-2.8 0-1-.2-1.9-.6-2.8-.4-.8-1-1.5-1.7-2zm.5 8.1c-.7 1-1.6 1.5-2.7 1.5-1 0-1.9-.4-2.7-1.3s-1.2-2-1.2-3.4c0-1.3.3-2.4 1.1-3.4.7-.9 1.6-1.4 2.7-1.4s2 .5 2.8 1.4c.7 1 1.1 2 1.1 3.3 0 1.2-.4 2.3-1.1 3.3zM60.9 244c.8 0 1.6-.3 2.3-.7.7-.5 1.2-1.2 1.6-2 .4-.9.6-1.8.6-2.8 0-1-.2-1.9-.6-2.8-.4-.8-1-1.5-1.7-2s-1.5-.7-2.3-.7c-1.2 0-2.3.5-3.2 1.6s-1.3 2.3-1.3 4c0 1.6.5 2.9 1.4 3.9 1 1.1 2 1.6 3.2 1.5zm-3.9-5.4c0-1.3.3-2.4 1.1-3.4.7-.9 1.6-1.4 2.7-1.4s2 .5 2.8 1.4c.7 1 1.1 2 1.1 3.3 0 1.2-.3 2.3-1 3.3s-1.6 1.5-2.7 1.5c-1 0-1.9-.4-2.7-1.3-.8-.9-1.2-2-1.3-3.4zM8.6 280.8h-.8l-.1-8.9h.5c.2 0 .3 0 .4-.1.1-.1.1-.2.1-.3 0-.1 0-.2-.1-.3-.1-.1-.2-.1-.4-.1H6c-.2 0-.3 0-.4.1s-.1.2-.1.3c0 .1 0 .2.1.3.1.1.2.1.4.1h1l.1 3.9-5 .1-.1-4h1c.2 0 .3 0 .4-.1.1-.1.1-.2.1-.3 0-.1 0-.2-.1-.3-.1-.1-.2-.1-.4-.1H.8c-.2 0-.3 0-.4.1-.1.1-.1.2-.1.3 0 .1 0 .2.1.3.1.1.2.1.4.1h.5l.1 8.9H.6c-.2 0-.3 0-.4.1-.2.1-.2.2-.2.4 0 .1 0 .2.1.3s.2.1.4.1h2.6c.2 0 .3 0 .4-.1s.1-.2.1-.3c0-.1 0-.2-.1-.3-.1-.1-.2-.1-.4-.1h-1l-.1-4.3 5-.1.1 4.3h-1c-.2 0-.3 0-.4.1s-.1.2-.1.3c0 .1 0 .2.1.3.1.1.2.1.4.1h2.6c.2 0 .3 0 .4-.1.1-.1.1-.2.1-.3 0-.1 0-.2-.1-.3-.2-.1-.3-.1-.5-.1zm9-9.3c-.7-.5-1.5-.7-2.3-.7-1.2 0-2.3.5-3.2 1.6-.9 1-1.3 2.4-1.3 4s.5 2.9 1.4 3.9 2 1.5 3.2 1.5c.8 0 1.6-.3 2.3-.7s1.2-1.2 1.6-2c.4-.9.6-1.8.6-2.8 0-1-.2-1.9-.6-2.8-.4-.9-1-1.6-1.7-2zm.6 8c-.7 1-1.6 1.5-2.7 1.5-1 0-1.9-.4-2.7-1.3-.8-.9-1.2-2-1.2-3.4 0-1.3.3-2.4 1.1-3.4.7-.9 1.6-1.4 2.7-1.4s2 .5 2.8 1.4c.7 1 1.1 2 1.1 3.3-.1 1.2-.4 2.3-1.1 3.3zm81.4-37.6h2.7c.2 0 .3 0 .4-.1s.1-.2.1-.3c0-.1 0-.2-.1-.3s-.2-.1-.4-.1h-1.4l-.1-8.6 5.6 9.2h1l-.1-9.7h.6c.2 0 .3 0 .4-.1.1-.1.1-.2.1-.3 0-.1 0-.2-.1-.3-.1-.1-.2-.1-.4-.1h-2.8c-.2 0-.3 0-.4.1s-.1.2-.1.3c0 .1 0 .2.1.3.1.1.2.1.4.1h1.4l.1 8.6-5.6-9.3h-2.1c-.1 0-.2 0-.3.1-.1.1-.1.2-.1.3 0 .1 0 .2.1.3.1.1.2.1.3.1h1.1l.1 8.9h-.6c-.2 0-.3 0-.4.1l-.1.1v.4s0 .1.1.1c.2.2.3.2.5.2zm52.7-11.9h1.4l.1 8.6-5.6-9.3h-2c-.2 0-.3 0-.4.1s-.1.2-.1.3c0 .1 0 .2.1.3.1.1.2.1.4.1h1l.1 8.9h-.6c-.2 0-.3 0-.4.1-.1.1-.1.2-.1.3 0 .1 0 .2.1.3.1.1.2.1.4.1h2.7c.2 0 .3 0 .4-.1s.1-.2.1-.3c0-.1 0-.2-.1-.3s-.2-.1-.4-.1H148l-.1-8.6 5.6 9.2h1l-.1-9.7h.6c.2 0 .3 0 .4-.1.1-.1.1-.2.1-.3 0-.1 0-.2-.1-.3-.1-.1-.2-.1-.4-.1h-2.8c-.2 0-.3 0-.4.1s-.1.2-.1.3c0 .1 0 .2.1.3.2.1.3.2.5.2zM40.5 308.6h-.8l-.1-8.9h.5c.2 0 .3 0 .4-.1.1-.1.1-.2.1-.3 0-.1 0-.2-.1-.3-.1-.1-.2-.1-.4-.1h-2.2c-.2 0-.3 0-.4.1s-.1.2-.1.3c0 .1 0 .2.1.3.1.1.2.1.4.1h1l.1 3.9-5 .1-.1-3.9h1c.2 0 .3 0 .4-.1.1-.1.1-.2.1-.3 0-.1 0-.2-.1-.3-.1-.1-.2-.1-.4-.1h-2.2c-.2 0-.3 0-.4.1s-.1.2-.1.3c0 .1 0 .2.1.3.1.1.2.1.4.1h.5l.1 8.9h-.8c-.2 0-.3 0-.4.1s-.1.2-.1.3c0 .1 0 .2.1.3.1.1.2.1.4.1h2.6c.2 0 .3 0 .4-.1s.1-.2.1-.3c0-.1 0-.2-.1-.3-.1-.1-.2-.1-.4-.1h-1l-.1-4.3 5-.1.1 4.3h-1c-.2 0-.3 0-.4.1-.1.1-.1.2-.1.3 0 .1 0 .2.1.3.1.1.2.1.4.1h2.6c.2 0 .3 0 .4-.1s.1-.2.1-.3c0-.1 0-.2-.1-.3s-.4-.1-.6-.1zm9-9.3c-.7-.5-1.5-.7-2.3-.7-1.2 0-2.3.5-3.2 1.6-.9 1-1.3 2.3-1.3 4 0 1.6.5 2.9 1.4 3.9.9 1 2 1.5 3.2 1.5.8 0 1.6-.3 2.3-.7.7-.5 1.2-1.2 1.6-2 .4-.9.6-1.8.6-2.8 0-1-.2-1.9-.6-2.8-.4-.9-1-1.5-1.7-2zm.6 8c-.7 1-1.6 1.5-2.7 1.5-1 0-1.9-.4-2.7-1.3-.8-.9-1.2-2-1.2-3.4 0-1.3.3-2.4 1.1-3.4s1.6-1.4 2.7-1.4 2 .5 2.8 1.4c.7 1 1.1 2 1.1 3.3-.1 1.3-.4 2.4-1.1 3.3zm88.8-223.4l-13.1-7.1V78l12.2 6.6V84zm2.2 1.2L139 84v1.1l2.2 1.2 2-1.3v-.9h1v.3l12-7.3v-1.2zm-23.6-38.5L139.7 33l22.9 12.4.5 17.9h1l-.4-14.2-.3.2-.5-.9.8-.4-.1-3.2-2.6-1.4-.8.4-.5-.9.2-.1-19.7-10.7v.7l-1 .1v-.8l-22.8 14 .5 16.7 1-.1zM95.6 86l-2.2 24.2-23 5.2-.4 1.1 24.3-5.5 2.3-25-.2.1-.5-.8.2-.2-15-6.4-.3.9zm-38.9 9.1h-.3L69 116.3l.5-1.2-12.2-20.4 11.8-13.4-.7-.8-11.9 13.6h.3z"/><path class="st1" d="M96.4 86.1l.2-.1 12.2-7.3-.5-.9-12.2 7.3-.2.2zm-26 29.2l-.9-.3v.1l-.5 1.2-5.9 17 1 .4 5.9-17.2.4-1.1zm69.8-82.5v-.7l-.5-15.8h-1l.5 15.8v.8zM139 83.9h-.1l-.9.1v.6l.5 17.2h1l-.5-16.7V84zm4.2.2v.9l.5 16.7h1l-.5-17.3v-.3z"/><path transform="rotate(-27.69 132.473 42.815)" class="st1" d="M122.9 42.3h19.2v1h-19.2z"/><path class="st1" d="M160.2 43.8l.8-.4 12.9-7.4-.5-.8-13.5 7.6-.2.1zm3.2 5.5l.3-.2 13.4-7.5-.5-.9-12.9 7.3-.8.4zM29.9 91.7l26.5 3.4h.3l.1-1h-.3l-27.2-3.5-6.3 15.2.9.4zm140.6-15.8l6.8 2.2.4-.9-7.2-2.4z"/><path transform="rotate(-75.94 55.161 152.107)" class="st1" d="M50.9 151.6h8.4v1h-8.4z"/><path transform="rotate(-75.925 59.131 154.59)" class="st1" d="M54.9 154.1h8.4v1h-8.4z"/><path transform="rotate(-75.925 46.743 177.046)" class="st1" d="M42.5 176.6h8.4v1h-8.4z"/><path transform="rotate(-75.925 50.714 179.537)" class="st1" d="M46.5 179h8.4v1h-8.4z"/><path class="st1" d="M133.5 7.9c.2.4.4.9.9 1.4l1.1 1.1c.3.2.6.4 1.1.5.6.2 1.1.3 1.7.3.6 0 1.2-.2 1.8-.5s1.1-.7 1.6-1.3c.2-.3.4-.5.4-.6 0-.1 0-.2-.1-.2-.1-.1-.2-.1-.3-.1-.1 0-.2.1-.3.2-.5.6-.9 1-1.4 1.3-.5.3-1.1.4-1.7.5-1.1 0-2-.4-2.8-1.2-.8-.8-1.3-1.8-1.3-2.9V5.1c0-.5.1-1 .2-1.4.2-.6.5-1.1.9-1.6.2-.3.5-.5.9-.7.5-.3 1-.4 1.6-.4.9 0 1.7.2 2.4.7.5.4.8.8.8 1.3 0 .2.1.3.1.3.1.1.2.1.3.1.1 0 .2 0 .3-.1.1-.1.1-.2.1-.4l-.1-2.1c0-.2 0-.3-.1-.4s-.2-.1-.3-.1c-.1 0-.2 0-.3.1s-.1.2-.1.4v.5c-.9-.8-2-1.2-3.2-1.2-.8 0-1.5.2-2.2.7-.7.4-1.2 1-1.6 1.8-.4.8-.5 1.5-.5 2.3v1.5c-.2.6-.1 1 .1 1.5zm10.7 2.1c-.1.1-.1.2-.1.3 0 .1 0 .2.1.3.1.1.2.1.4.1l2.6-.1c.2 0 .3 0 .4-.1.1-.1.1-.2.1-.3 0-.1 0-.2-.1-.3-.1-.1-.2-.1-.4-.1h-1l-.2-4.3 4.9-.1.1 4.3h-1c-.2 0-.3 0-.4.1-.1.1-.1.2-.1.3 0 .1 0 .2.1.3s.2.1.4.1l2.6-.1c.2 0 .3 0 .4-.1.1-.1.1-.2.1-.3 0-.1 0-.2-.1-.3-.1-.1-.2-.1-.4-.1h-.8l-.2-8.9h.5c.2 0 .3 0 .4-.1.1-.1.1-.2.1-.3 0-.1 0-.2-.1-.3h-.5l-2.2.1c-.2 0-.3 0-.4.1-.1.1-.1.2-.1.3 0 .1 0 .2.1.3.1.1.2.1.4.1h1l.1 3.9H146l-.1-3.9h1c.2 0 .3 0 .4-.1s.1-.2.1-.3c0-.1 0-.2-.1-.3-.1-.1-.2-.1-.4-.1l-2.2.1c-.2 0-.3 0-.4.1-.1.1-.1.2-.1.3 0 .1 0 .2.1.3.1.1.2.1.4.1h.5l.2 8.9h-.8c-.2 0-.3 0-.4.1zm11.9 6.3c.4.1.8.2 1.2.2.6 0 1.2-.2 1.6-.6.4-.4.6-.9.6-1.4 0-.3-.1-.7-.3-1-.2-.3-.5-.5-.9-.7.3-.2.6-.4.7-.6.2-.3.2-.5.2-.8 0-.5-.2-.8-.6-1.2s-.8-.5-1.4-.5c-.5 0-1 .2-1.4.5-.3.2-.4.4-.4.5 0 .1 0 .1.1.1 0 0 .1.1.2.1h.1l.1-.1c.1-.2.3-.3.6-.4s.5-.2.8-.2c.4 0 .8.1 1.1.3.3.2.4.5.4.8 0 .3-.1.6-.4.8-.2.2-.6.4-1 .4h-.4c-.1 0-.2 0-.2.1 0 0-.1.1-.1.2s0 .1.1.2c0 0 .1.1.2.1.3 0 .6.1 1 .2.3.1.6.3.7.6.2.2.3.5.3.8 0 .4-.2.7-.5 1.1-.3.3-.7.5-1.3.5-.6 0-1.2-.2-1.7-.5-.1 0-.1-.1-.2-.1s-.1 0-.1.1l-.1.1c0 .1 0 .1.1.2.3-.1.5 0 .9.2zm33.7 70.1c-.1-.1-.2-.1-.4-.1h-.8l-.2-8.9h.5c.2 0 .3 0 .4-.1.1-.1.1-.2.1-.3 0-.1 0-.2-.1-.3s-.2-.1-.4-.1l-2.2.1c-.2 0-.3 0-.4.1-.1.1-.1.2-.1.3 0 .1 0 .2.1.3.1.1.2.1.4.1h1l.1 3.9-4.9.1-.1-3.9h1c.2 0 .3 0 .4-.1.1-.1.1-.2.1-.3 0-.1 0-.2-.1-.3s-.2-.1-.4-.1l-2.2.1c-.2 0-.3 0-.4.1-.1.1-.1.2-.1.3 0 .1 0 .2.1.3.1.1.2.1.4.1h.5l.2 8.9h-.8c-.2 0-.3 0-.4.1-.1.1-.1.2-.1.3 0 .1 0 .2.1.3s.2.1.4.1l2.6-.1c.2 0 .3 0 .4-.1.1-.1.1-.2.1-.3 0-.1 0-.2-.1-.3-.1-.1-.2-.1-.4-.1h-1l-.1-4.3 4.9-.1.1 4.3h-1c-.2 0-.3 0-.4.1s-.1.2-.1.3c0 .1 0 .2.1.3.1.1.2.1.4.1l2.6-.1c.2 0 .3 0 .4-.1s.1-.2.1-.3c-.2-.1-.2-.2-.3-.3zM184 40.7c.8 0 1.6-.3 2.3-.8.7-.5 1.2-1.2 1.6-2 .4-.9.6-1.8.5-2.8 0-1-.3-1.9-.7-2.8-.4-.8-1-1.5-1.7-1.9-.7-.5-1.5-.7-2.3-.6-1.2 0-2.2.6-3.1 1.6-.9 1-1.3 2.4-1.3 4s.5 2.9 1.5 3.9 2 1.4 3.2 1.4zm-2.9-8.7c.7-.9 1.6-1.4 2.6-1.5 1.1 0 2 .4 2.8 1.4.7.9 1.1 2 1.1 3.2 0 1.2-.3 2.3-1 3.3s-1.6 1.5-2.7 1.5c-1 0-1.9-.4-2.7-1.2s-1.2-2-1.3-3.4c.1-1.3.5-2.4 1.2-3.3zm-34.5 77.1c0-1-.3-1.9-.7-2.8s-1-1.5-1.7-1.9c-.7-.5-1.5-.7-2.3-.6-1.2 0-2.2.6-3.1 1.6-.9 1-1.3 2.4-1.3 4s.5 2.9 1.5 3.9c.9 1 2 1.5 3.2 1.4.8 0 1.6-.3 2.3-.8.7-.5 1.2-1.2 1.6-2 .3-.9.5-1.8.5-2.8zm-1.7 3.3c-.7 1-1.6 1.5-2.7 1.5-1 0-1.9-.4-2.7-1.2-.8-.9-1.2-2-1.3-3.4 0-1.3.3-2.4 1-3.4.7-.9 1.6-1.4 2.6-1.5 1.1 0 2 .4 2.8 1.4.7.9 1.1 2 1.1 3.2.2 1.4-.2 2.5-.8 3.4zM73.3 80.8c.8 0 1.6-.3 2.3-.8.7-.5 1.2-1.2 1.6-2 .4-.9.6-1.8.5-2.8 0-1-.3-1.9-.7-2.8s-1-1.5-1.7-1.9c-.7-.5-1.5-.7-2.3-.6-1.2 0-2.2.6-3.1 1.6-.9 1-1.3 2.4-1.3 4s.5 2.9 1.5 3.9c.9 1 2 1.5 3.2 1.4zm-4-5.3c0-1.3.3-2.4 1-3.4.7-.9 1.6-1.4 2.6-1.5 1.1 0 2 .4 2.8 1.4s1.1 2 1.1 3.2c0 1.2-.3 2.3-1 3.3S74.2 80 73.1 80c-1 0-1.9-.4-2.7-1.2-.6-.8-1-1.9-1.1-3.3zM13 118.6c-.1.1-.1.2-.1.3 0 .1 0 .2.1.3.1.1.2.1.4.1l2.6-.1c.2 0 .3 0 .4-.1.1-.1.1-.2.1-.3 0-.1 0-.2-.1-.3-.1-.1-.2-.1-.4-.1h-1l-.1-4.3 4.9-.1.1 4.3h-1c-.2 0-.3 0-.4.1-.1.1-.1.2-.1.3 0 .1 0 .2.1.3s.2.1.4.1l2.6-.1c.2 0 .3 0 .4-.1.1-.1.1-.2.1-.3 0-.1 0-.2-.1-.3-.1-.1-.2-.1-.4-.1h-.8l-.2-8.9h.5c.2 0 .3 0 .4-.1.1-.1.1-.2.1-.3 0-.1 0-.2-.1-.3-.1-.1-.2-.1-.4-.1l-2.2.1c-.2 0-.3 0-.4.1-.1.1-.1.2-.1.3 0 .1 0 .2.1.3.1.1.2.1.4.1h1l.1 3.9-4.9.1-.1-3.9h1c.2 0 .3 0 .4-.1.1-.1.1-.2.1-.3 0-.1 0-.2-.1-.3s-.2-.1-.4-.1l-2.2.1c-.2 0-.3 0-.4.1-.1.1-.1.2-.1.3 0 .1 0 .2.1.3.1.1.2.1.4.1h.5l.2 8.9h-.8c-.4 0-.5.1-.6.1zm17.3-9.7c-.7-.5-1.5-.7-2.3-.6-1.2 0-2.2.6-3.1 1.6-.9 1-1.3 2.4-1.3 4s.5 2.9 1.5 3.9c.9 1 2 1.5 3.2 1.4.8 0 1.6-.3 2.3-.8.7-.5 1.2-1.2 1.6-2 .4-.9.6-1.8.5-2.8 0-1-.3-1.9-.7-2.8-.4-.8-.9-1.5-1.7-1.9zm.7 8c-.7 1-1.6 1.5-2.7 1.5-1 0-1.9-.4-2.7-1.2-.8-.9-1.2-2-1.3-3.4 0-1.3.3-2.4 1-3.4.7-.9 1.6-1.4 2.6-1.5 1.1 0 2 .4 2.8 1.4.7.9 1.1 2 1.1 3.2.2 1.3-.1 2.4-.8 3.4zm34.2 19.5c.1-.1.1-.2.1-.3 0-.1 0-.2-.1-.3s-.2-.1-.4-.1l-2.8.1c-.2 0-.3 0-.4.1-.1.1-.1.2-.1.3 0 .1 0 .2.1.3.1.1.2.1.4.1h1.4l.2 8.6-5.8-9.2-2 .1c-.2 0-.3 0-.4.1s-.1.2-.1.3c0 .1 0 .2.1.3.1.1.2.1.4.1h1l.2 8.9h-.6c-.2 0-.3 0-.4.1s-.1.2-.1.3c0 .1 0 .2.1.3s.2.1.4.1l2.7-.1c.2 0 .3 0 .4-.1.1-.1.1-.2.1-.3 0-.1 0-.2-.1-.3-.1-.1-.2-.1-.4-.1h-1.4l-.2-8.6 5.8 9.2h1l-.3-9.6h.6c.4-.2.5-.3.6-.3zM56.7 160c.1-.1.1-.2.1-.3 0-.1 0-.2-.1-.3s-.2-.1-.4-.1l-2.8.1c-.2 0-.3 0-.4.1-.1.1-.1.2-.1.3 0 .1 0 .2.1.3.1.1.2.1.4.1h1.4l.2 8.6-5.8-9.2-2 .1c-.2 0-.3 0-.4.1-.1.1-.1.2-.1.3 0 .1 0 .2.1.3.1.1.2.1.4.1h1l.2 8.9h-.6c-.2 0-.3 0-.4.1s-.1.2-.1.3c0 .1 0 .2.1.3.1.1.2.1.4.1l2.7-.1c.2 0 .3 0 .4-.1.1-.1.1-.2.1-.3 0-.1 0-.2-.1-.3-.1-.1-.2-.1-.4-.1h-1.4l-.2-8.6 5.8 9.2h1l-.3-9.6h.6c.4-.2.5-.2.6-.3zm-7.1 26.2c.1-.1.1-.2.1-.3 0-.1 0-.2-.1-.3s-.2-.1-.4-.1l-2.8.1c-.2 0-.3 0-.4.1s0 .3 0 .4c0 .1 0 .2.1.3.1.1.2.1.4.1h1.4l.2 8.6-5.8-9.2-2 .1c-.2 0-.3 0-.4.1-.1.1-.1.2-.1.3 0 .1 0 .2.1.3.1.1.2.1.4.1h1l.2 8.9h-.6c-.2 0-.3 0-.4.1s-.1.2-.1.3c0 .1 0 .2.1.3.1.1.2.1.4.1l2.7-.1c.2 0 .3 0 .4-.1.1-.1.1-.2.1-.3 0-.1 0-.2-.1-.3-.1-.1-.2-.1-.4-.1h-1.4L42 187l5.8 9.2h1l-.3-9.6h.6c.3-.3.4-.3.5-.4zm51.7-53.9c-.2 0-.3 0-.4.1-.1.1-.1.2-.1.3 0 .1 0 .2.1.3.1.1.2.1.4.1h2.2l-3.2 9h-.6c-.2 0-.3 0-.4.1-.1.1-.1.2-.1.3 0 .1 0 .2.1.3.1.1.2.1.4.1h2.8c.2 0 .3 0 .4-.1.1-.1.1-.2.1-.3 0-.1 0-.2-.1-.3-.1-.1-.2-.1-.4-.1h-1.4l1-2.7 4.9-.1 1.1 2.7h-1.4c-.2 0-.3 0-.4.1s-.1.2-.1.3c0 .1 0 .2.1.3.1.1.2.1.4.1h2.8c.2 0 .3 0 .4-.1.1-.1.1-.2.1-.3 0-.1 0-.2-.1-.3-.1-.1-.2-.1-.4-.1h-.6l-3.8-9.6-3.8-.1zm1.1 6.1l1.9-5.5h.3l2.1 5.4-4.3.1zm9.6 4.1l7.2-.1-.1-3.4c0-.2 0-.3-.1-.4s-.2-.1-.3-.1-.2 0-.3.1-.1.2-.1.4v2.6l-5.7.1v-.1l5.9-8.6v-1.1l-6.4.1v2.9c0 .2 0 .3.1.4.1.1.2.1.3.1.1 0 .2 0 .3-.1.1-.1.1-.2.1-.4v-2.2l5-.1v.1l-5.9 8.6v1.2zm10.1-10.5l.1 3.3c0 .2 0 .3.1.4s.2.1.3.1c.1 0 .2 0 .3-.1.1-.1.1-.2.1-.4v-2.6h3.1l.1 8.9h-1.9c-.2 0-.3 0-.4.1-.1.1-.1.2-.1.3 0 .1 0 .2.1.3.1.1.2.1.4.1l4.6-.1c.2 0 .3 0 .4-.1s.1-.2.1-.3c0-.1 0-.2-.1-.3s-.2-.1-.4-.1H127l-.1-8.9h3.1v2.6c0 .2 0 .3.1.4s.2.1.3.1.2 0 .3-.1.1-.2.1-.4l-.1-3.3-8.6.1zm-10.2-53.8l2.7-.1c.2 0 .3 0 .4-.1s.1-.2.1-.3c0-.1 0-.2-.1-.3-.1-.1-.2-.1-.4-.1h-1.4l-.2-8.6 5.8 9.2h1l-.3-9.6h.6c.2 0 .3 0 .4-.1.1-.1.1-.2.1-.3 0-.1 0-.2-.1-.3-.1-.1-.2-.1-.4-.1l-2.8.1c-.2 0-.3 0-.4.1-.1.1-.1.2-.1.3 0 .1 0 .2.1.3.1.1.2.1.4.1h1.4l.2 8.6-5.8-9.2-2 .1h-.1c-.1 0-.3 0-.3.1-.1.1-.1.2-.1.3 0 .1 0 .2.1.3.1.1.2.1.3.1h1.1l.2 8.9h-.6c-.2 0-.3 0-.4.1v.1c0 .1-.1.1-.1.2s0 .1.1.2l.1.1c.2-.1.4-.1.5-.1zm55.3-13.6l-2.8.1c-.2 0-.3 0-.4.1-.1.1-.1.2-.1.3 0 .1 0 .2.1.3.1.1.2.1.4.1h1.4l.2 8.6-5.8-9.2-2 .1c-.2 0-.3 0-.4.1-.1.1-.1.2-.1.3 0 .1 0 .2.1.3.1.1.2.1.4.1h1l.2 8.9h-.6c-.2 0-.3 0-.4.1-.1.1-.1.2-.1.3 0 .1 0 .2.1.3.1.1.2.1.4.1l2.7-.1c.2 0 .3 0 .4-.1.1-.1.1-.2.1-.3 0-.1 0-.2-.1-.3s-.2-.1-.4-.1h-1.4l-.2-8.6 5.8 9.2h1l-.3-9.6h.6c.2 0 .3 0 .4-.1.1-.1.1-.2.1-.3 0-.1 0-.2-.1-.3.1-.3 0-.3-.2-.3zm-52.1 44.2h.2v20.9h-.2z"/></svg>