<svg id="Layer_1" xmlns="http://www.w3.org/2000/svg" viewBox="0 0 195.2 391.4"><style>.st0{fill:#606161}.st1{fill:none;stroke:#606161;stroke-width:.25;stroke-miterlimit:10}.st2{font-family:&apos;CourierNewPSMT&apos;}.st3{font-size:14px}</style><path class="st0" d="M140.1 180.4l-9.6-13.1v13.1h-4.3v-20h4.4l9.3 12.6v-12.6h4.3v20h-4.1zm7.6-18.4c0-1.3 1.1-2.3 2.3-2.3 1.3 0 2.3 1 2.3 2.3s-1 2.3-2.3 2.3c-1.2 0-2.3-1-2.3-2.3zm.4 18.4v-14.5h3.8v14.5h-3.8zm-17.3 15.8l-4.9-6.7v6.7h-.7v-7.8h.7l4.9 6.6v-6.6h.7v7.8h-.7zm2.5-7c0-.3.2-.5.5-.5s.5.2.5.5-.2.5-.5.5-.5-.2-.5-.5zm.1 7v-5.6h.6v5.6h-.6zm2.2-2.8c0-1.6 1.1-3 2.7-3 1 0 1.5.4 2 1l-.4.4c-.4-.6-.9-.8-1.5-.8-1.3 0-2.1 1.1-2.1 2.4 0 1.4.8 2.4 2.1 2.4.6 0 1.1-.2 1.5-.8l.4.4c-.5.6-1 1-2 1-1.6 0-2.7-1.3-2.7-3zm10 2.8l-2.3-2.7-1.1 1v1.7h-.6v-7.8h.6v5.4l3.3-3.2h.8l-2.6 2.5 2.6 3.1h-.7zm1.7-2.8c0-1.6 1.2-3 2.7-3 1.7 0 2.7 1.4 2.7 3v.2H148c.1 1.2.9 2.2 2.2 2.2.7 0 1.4-.3 1.8-.8l.3.4c-.6.6-1.3.9-2.2.9-1.7.1-2.8-1.2-2.8-2.9zm2.7-2.4c-1.3 0-2 1.2-2 2.2h4.1c-.1-1-.7-2.2-2.1-2.2zm4.2 5.2v-7.8h.6v7.8h-.6zm-29 10.6l.4-.4c.5.7 1.2 1.1 2.2 1.1 1.1 0 2-.8 2-1.9 0-1.2-.8-1.9-1.9-1.9-.7 0-1.3.2-1.9.8l-.5-.2v-4.1h4.5v.6h-3.8v3.1c.4-.4 1.1-.7 1.9-.7 1.3 0 2.5.9 2.5 2.5s-1.2 2.5-2.6 2.5c-1.5-.1-2.3-.6-2.8-1.4zm6.6-.8c0-1.1.9-1.8 1.9-2.1-.9-.2-1.8-.8-1.8-1.9 0-1.4 1.3-2 2.5-2s2.5.6 2.5 2c0 1-.9 1.6-1.8 1.9 1 .3 1.9 1 1.9 2.1 0 1.3-1.1 2.1-2.6 2.1s-2.6-.9-2.6-2.1zm4.6-.1c0-1.2-1.5-1.7-2-1.7-.5.1-2 .5-2 1.7 0 .9.9 1.5 2 1.5 1.1.1 2-.5 2-1.5zm-.1-3.8c0-.9-.8-1.5-1.8-1.5s-1.8.5-1.8 1.5c0 1.1 1.4 1.4 1.8 1.5.4-.1 1.8-.4 1.8-1.5zm2.2 5.4c0-.3.2-.5.5-.5s.5.2.5.5-.2.5-.5.5c-.2 0-.5-.2-.5-.5zm2.1-3.5c0-2 .8-4 3-4 1 0 1.6.4 2.1 1l-.4.5c-.4-.5-.9-.9-1.7-.9-1.7 0-2.3 1.8-2.3 3.4v.4c.3-.5 1.2-1.3 2.3-1.3 1.4 0 2.5.8 2.5 2.5 0 1.3-1 2.5-2.6 2.5-2.1 0-2.9-2-2.9-4.1zm4.8 1.6c0-1.3-.8-1.9-2-1.9-.9 0-1.7.5-2.1 1.3.1 1.1.7 2.4 2.1 2.4 1.4.1 2-1 2-1.8zm2.4 1.5l.4-.5c.4.5.9.9 1.7.9 1.7 0 2.3-1.8 2.3-3.4v-.4c-.3.5-1.2 1.3-2.3 1.3-1.4 0-2.5-.8-2.5-2.5 0-1.3 1-2.5 2.6-2.5 2.1 0 2.9 1.9 2.9 4 0 2-.8 4-3 4-1 0-1.6-.4-2.1-.9zm4.4-4.1c-.1-1.1-.7-2.4-2.1-2.4-1.3 0-2 1-2 1.9 0 1.3.8 1.9 2 1.9.8 0 1.6-.6 2.1-1.4zm1.7 3.8l.5-.4c.4.6 1.2 1.1 2.2 1.1 1.2 0 2-.6 2-1.7s-.9-1.6-2.1-1.6h-.7v-.6h.7c1 0 2-.4 2-1.5 0-1-.9-1.5-1.9-1.5-.9 0-1.5.4-2.1 1l-.4-.4c.5-.7 1.4-1.2 2.5-1.2 1.4 0 2.5.7 2.5 2.1 0 1.2-1 1.7-1.7 1.8.7.1 1.8.7 1.8 1.9 0 1.3-1 2.2-2.6 2.2-1.3.1-2.2-.5-2.7-1.2zm10.1 1.1v-2.1h-3.7v-.6l3.5-5.1h.9v5.1h1.1v.6h-1.1v2.1h-.7zm0-7.1l-3 4.4h3v-4.4z"/><path class="st0" d="M195.2 215.2h-75.1v-87.6h75.1v87.6zm-74.2-.8h73.5v-85.9H121v85.9z"/><path class="st0" d="M173.9 143v-1.4c3.9-2.9 5.4-4.3 5.4-5.7 0-1.1-.9-1.5-1.8-1.5-1.2 0-2.1.5-2.7 1.2l-1-1.2c.9-1.1 2.3-1.6 3.7-1.6 1.9 0 3.6 1.1 3.6 3.1 0 1.8-1.7 3.5-4.4 5.5h4.4v1.5h-7.2zm8.9-2.6c0-1.3 1-2.2 2.3-2.6-1.1-.4-2.1-1.1-2.1-2.4 0-1.8 1.9-2.6 3.7-2.6 1.8 0 3.7.8 3.7 2.6 0 1.3-1 2-2.1 2.4 1.2.4 2.3 1.3 2.3 2.6 0 1.8-1.8 2.7-3.8 2.7-2.2.1-4-.9-4-2.7zm5.9-.2c0-1-1.4-1.5-2.1-1.6-.6.1-2.1.5-2.1 1.6 0 .9.9 1.4 2.1 1.4 1.1 0 2.1-.5 2.1-1.4zm-.2-4.5c0-.8-.8-1.3-1.9-1.3-1.1 0-1.9.5-1.9 1.3 0 .9 1.3 1.3 1.9 1.4.6-.1 1.9-.5 1.9-1.4zM52 259.1v-12h4.3V259c0 2.8 1.6 4.7 4.7 4.7s4.7-1.9 4.7-4.7v-11.9H70v12c0 5-2.9 8.4-9 8.4s-9-3.4-9-8.4zM50.9 280v-4.8h.7v4.8c0 1.6.8 2.5 2.4 2.5 1.5 0 2.4-1 2.4-2.5v-4.8h.6v4.8c0 1.9-1 3.1-3 3.1s-3.1-1.2-3.1-3.1zm8 3v-5.6h.6v1c.5-.6 1.1-1.1 1.9-1.1v.7h-.3c-.6 0-1.3.5-1.6 1v4.1h-.6zm7.3 0v-.7c-.5.5-1.1.8-1.9.8-1 0-2-.7-2-1.9s1-1.9 2-1.9c.8 0 1.4.3 1.9.8V279c0-.8-.7-1.3-1.5-1.3-.7 0-1.3.2-1.8.8l-.3-.4c.6-.6 1.2-.9 2.2-.9 1.1 0 2.1.5 2.1 1.8v4h-.7zm0-1.1v-1.2c-.4-.5-1-.8-1.7-.8-.9 0-1.5.6-1.5 1.4 0 .8.6 1.4 1.5 1.4.7-.1 1.3-.3 1.7-.8zm6.3 1.1v-3.8c0-1.1-.5-1.4-1.4-1.4-.7 0-1.5.5-1.8 1v4.3h-.6v-5.6h.6v.9c.4-.5 1.2-1 2-1 1.1 0 1.8.6 1.8 1.8v4h-.6zm2.4-7c0-.3.2-.5.5-.5s.5.2.5.5-.2.5-.5.5c-.3-.1-.5-.3-.5-.5zm.1 7v-5.6h.6v5.6H75zm6.3 0v-.8c-.5.5-1.2 1-2 1-1.2 0-1.8-.5-1.8-1.8v-4h.6v3.8c0 1.1.5 1.4 1.4 1.4.7 0 1.5-.4 1.8-.9v-4.3h.7v5.6h-.7zm9.3 0v-4c0-.8-.3-1.3-1.1-1.3-.6 0-1.3.4-1.6 1v4.3h-.6v-4c0-.8-.3-1.3-1.1-1.3-.6 0-1.3.5-1.6 1v4.3H84v-5.6h.6v.9c.2-.4 1-1 1.8-1 .9 0 1.3.5 1.5 1.1.3-.5 1.1-1.1 1.9-1.1 1 0 1.5.6 1.5 1.7v4.1h-.7zm-40 11.7v-.5c2.7-2.1 4.4-3.7 4.4-5.2 0-1.1-.9-1.6-1.8-1.6-1 0-1.7.4-2.1 1l-.5-.4c.5-.7 1.5-1.2 2.6-1.2s2.5.7 2.5 2.2c0 1.7-1.8 3.3-4.1 5.1h4.1v.6h-5.1zm6.5-1.2l.5-.4c.4.6 1.2 1.1 2.2 1.1 1.2 0 2-.6 2-1.7s-.9-1.6-2.1-1.6H59v-.6h.7c1 0 2-.4 2-1.5 0-1-.9-1.5-1.9-1.5-.9 0-1.5.4-2.1 1l-.4-.4c.5-.7 1.4-1.2 2.5-1.2 1.4 0 2.5.7 2.5 2.1 0 1.2-1 1.7-1.7 1.8.7.1 1.8.7 1.8 1.9 0 1.3-1 2.2-2.6 2.2-1.3.1-2.2-.5-2.7-1.2zm6.7-.8c0-1.1.9-1.8 1.9-2.1-.9-.2-1.8-.8-1.8-1.9 0-1.4 1.3-2 2.5-2s2.5.6 2.5 2c0 1-.9 1.6-1.8 1.9 1 .3 1.9 1 1.9 2.1 0 1.3-1.1 2.1-2.6 2.1-1.4 0-2.6-.8-2.6-2.1zm4.6 0c0-1.2-1.5-1.7-2-1.7-.5.1-2 .5-2 1.7 0 .9.9 1.5 2 1.5s2-.6 2-1.5zm-.1-3.9c0-.9-.8-1.5-1.8-1.5s-1.8.5-1.8 1.5c0 1.1 1.4 1.4 1.8 1.5.5 0 1.8-.4 1.8-1.5zm2.3 5.5c0-.3.2-.5.5-.5s.5.2.5.5-.2.5-.5.5-.5-.3-.5-.5zm2-3.5c0-1.9.8-4 2.9-4 2.1 0 2.9 2.2 2.9 4 0 1.8-.8 4-2.9 4-2.1 0-2.9-2.2-2.9-4zm5.1 0c0-1.6-.5-3.4-2.2-3.4-1.6 0-2.2 1.8-2.2 3.4 0 1.6.5 3.4 2.2 3.4 1.6 0 2.2-1.8 2.2-3.4zm2 3.9v-.5c2.7-2.1 4.4-3.7 4.4-5.2 0-1.1-.9-1.6-1.8-1.6-1 0-1.7.4-2.1 1l-.5-.4c.5-.7 1.5-1.2 2.6-1.2s2.5.7 2.5 2.2c0 1.7-1.8 3.3-4.1 5.1h4.1v.6h-5.1zm6.8-2c0-1.1.9-1.8 1.9-2.1-.9-.2-1.8-.8-1.8-1.9 0-1.4 1.3-2 2.5-2s2.5.6 2.5 2c0 1-.9 1.6-1.8 1.9 1 .3 1.9 1 1.9 2.1 0 1.3-1.1 2.1-2.6 2.1-1.4 0-2.6-.8-2.6-2.1zm4.7 0c0-1.2-1.5-1.7-2-1.7-.5.1-2 .5-2 1.7 0 .9.9 1.5 2 1.5 1 0 2-.6 2-1.5zm-.2-3.9c0-.9-.8-1.5-1.8-1.5s-1.8.5-1.8 1.5c0 1.1 1.4 1.4 1.8 1.5.5 0 1.8-.4 1.8-1.5zm2.6 5l.4-.5c.4.5.9.9 1.7.9 1.7 0 2.3-1.8 2.3-3.4v-.4c-.3.5-1.2 1.3-2.3 1.3-1.4 0-2.5-.8-2.5-2.5 0-1.3 1-2.5 2.6-2.5 2.1 0 2.9 1.9 2.9 4 0 2-.8 4-3 4-1 .1-1.7-.3-2.1-.9zm4.3-4c-.1-1.1-.7-2.4-2.1-2.4-1.3 0-2 1-2 1.9 0 1.3.8 1.9 2 1.9.9-.1 1.7-.7 2.1-1.4zm3.4 4.9v-6.9l-1.3 1.3-.4-.4 1.7-1.8h.6v7.8h-.6z"/><path class="st0" d="M120.9 301.9H45.8v-87.6h75.1v87.6zm-74.3-.8h73.5v-85.9H46.6v85.9z"/><path class="st0" d="M99.9 228.8l.8-1.3c.5.5 1.1.9 2.1.9 1.8 0 2.6-1.7 2.6-3.3v-.3c-.5.7-1.5 1.4-2.7 1.4-1.8 0-3.4-1.1-3.4-3.2 0-1.8 1.5-3.4 3.7-3.4 2.9 0 4.1 2.4 4.1 5.2 0 2.9-1.5 5.2-4.4 5.2-1.2-.1-2.1-.6-2.8-1.2zm5.5-5.4c-.1-1.1-.7-2.4-2.2-2.4-1.3 0-2 .9-2 1.7 0 1.2 1 1.8 2 1.8.8.1 1.7-.3 2.2-1.1zm3.2 6.3v-1.4c3.9-2.9 5.4-4.3 5.4-5.7 0-1.1-.9-1.5-1.8-1.5-1.2 0-2.1.5-2.7 1.2l-1-1.2c.9-1.1 2.3-1.6 3.7-1.6 1.9 0 3.6 1.1 3.6 3.1 0 1.8-1.7 3.5-4.4 5.5h4.4v1.5h-7.2zM124.9 351l2.3-3.2c1.4 1.5 3.6 2.7 6.4 2.7 2.3 0 3.5-1.1 3.5-2.2 0-3.5-11.5-1.1-11.5-8.7 0-3.3 2.9-6.1 7.6-6.1 3.2 0 5.8 1 7.8 2.8l-2.4 3.1c-1.6-1.5-3.8-2.2-5.8-2.2-1.8 0-2.9.8-2.9 2 0 3.2 11.5 1.1 11.5 8.5 0 3.7-2.6 6.4-8 6.4-3.8.1-6.6-1.2-8.5-3.1zm-.1 17.6l.4-.5c.5.6 1.3 1.1 2.4 1.1 1.6 0 2.1-.9 2.1-1.6 0-2.3-4.7-1.1-4.7-3.8 0-1.3 1.1-2.1 2.6-2.1 1.2 0 2 .4 2.6 1.1l-.4.5c-.6-.7-1.4-1-2.2-1-1 0-1.8.6-1.8 1.4 0 2 4.7.9 4.7 3.8 0 1-.7 2.2-2.8 2.2-1.3.1-2.3-.4-2.9-1.1zm11 1v-.8c-.5.5-1.2 1-2 1-1.2 0-1.8-.5-1.8-1.8v-4h.6v3.8c0 1.1.5 1.4 1.4 1.4.7 0 1.5-.4 1.8-.9V364h.6v5.6h-.6zm2.5 0v-7.8h.6v7.8h-.6zm2.7 0v-5.1h-.9v-.5h.9v-.5c0-1.1.6-1.8 1.5-1.8.4 0 .7.1 1.1.4l-.3.4c-.2-.2-.4-.3-.7-.3-.6 0-1 .4-1 1.2v.5h1.1v.5h-1.1v5.1h-.6zm2.6-2.8c0-1.6 1.2-3 2.7-3 1.7 0 2.7 1.4 2.7 3v.2h-4.7c.1 1.2.9 2.2 2.2 2.2.7 0 1.4-.3 1.8-.8l.3.4c-.6.6-1.3.9-2.2.9-1.6.1-2.8-1.1-2.8-2.9zm2.7-2.4c-1.3 0-2 1.2-2 2.2h4.1c0-1-.7-2.2-2.1-2.2zm4.3 5.2V364h.6v1c.5-.6 1.1-1.1 1.9-1.1v.7h-.3c-.6 0-1.3.5-1.6 1v4.1h-.6zm-25.9 10.6l.5-.4c.4.6 1.2 1.1 2.2 1.1 1.2 0 2-.6 2-1.7s-.9-1.6-2.1-1.6h-.7v-.6h.7c1 0 2-.4 2-1.5 0-1-.9-1.5-1.9-1.5-.9 0-1.5.4-2.1 1l-.4-.4c.5-.7 1.4-1.2 2.5-1.2 1.4 0 2.5.7 2.5 2.1 0 1.2-1 1.7-1.7 1.8.7.1 1.8.7 1.8 1.9 0 1.3-1 2.2-2.6 2.2-1.3.1-2.3-.5-2.7-1.2zm6.6 1.1v-.5c2.7-2.1 4.4-3.7 4.4-5.2 0-1.1-.9-1.6-1.8-1.6-1 0-1.7.4-2.1 1l-.5-.4c.5-.7 1.5-1.2 2.6-1.2s2.5.7 2.5 2.2c0 1.7-1.8 3.3-4.1 5.1h4.1v.6h-5.1zm6.9-.4c0-.3.2-.5.5-.5s.5.2.5.5-.2.5-.5.5c-.2.1-.5-.2-.5-.5zm2.1-3.5c0-1.9.8-4 2.9-4 2.1 0 2.9 2.2 2.9 4 0 1.8-.8 4-2.9 4-2.1.1-2.9-2.1-2.9-4zm5 0c0-1.6-.5-3.4-2.2-3.4-1.6 0-2.2 1.8-2.2 3.4 0 1.6.5 3.4 2.2 3.4 1.7.1 2.2-1.8 2.2-3.4zm2.1 0c0-2 .8-4 3-4 1 0 1.6.4 2.1 1l-.4.5c-.4-.5-.9-.9-1.7-.9-1.7 0-2.3 1.8-2.3 3.4v.4c.3-.5 1.2-1.3 2.3-1.3 1.4 0 2.5.8 2.5 2.5 0 1.3-1 2.5-2.6 2.5-2.2 0-2.9-2-2.9-4.1zm4.8 1.6c0-1.3-.8-1.9-2-1.9-.9 0-1.7.5-2.1 1.3.1 1.1.7 2.4 2.1 2.4 1.4.1 2-1 2-1.8z"/><path class="st0" d="M195.2 388.6h-75.1V301h75.1v87.6zm-74.2-.8h73.5v-85.9H121v85.9z"/><path class="st0" d="M179.2 316.4v-7.7l-1.6 1.7-1-1.1 2.9-2.9h1.5v10h-1.8zm3.5-5c0-2.9 1.5-5.2 4.4-5.2 1.2 0 2.2.5 2.9 1.1l-.8 1.3c-.5-.6-1.1-.9-2.1-.9-1.7 0-2.6 1.5-2.6 3.3v.3c.5-.7 1.5-1.4 2.7-1.4 1.8 0 3.4 1.1 3.4 3.2 0 1.9-1.5 3.4-3.7 3.4-3.1.1-4.2-2.3-4.2-5.1zm6 1.9c0-1.2-1-1.8-2.1-1.8-.9 0-1.7.5-2.2 1.2.1 1.1.7 2.3 2.2 2.3 1.4 0 2.1-.9 2.1-1.7zM51 83.6c0-6.3 4.8-10.4 10.7-10.4 4.2 0 6.8 2.1 8.3 4.5l-3.5 1.9c-.9-1.4-2.6-2.6-4.7-2.6-3.6 0-6.3 2.8-6.3 6.6s2.6 6.6 6.3 6.6c1.8 0 3.5-.8 4.3-1.5v-2.4h-5.3v-3.7h9.6v7.7c-2 2.3-4.9 3.8-8.5 3.8C55.8 94 51 89.9 51 83.6zm21.6 2.8c0-4.2 3.1-7.6 7.5-7.6 4.3 0 7.3 3.2 7.3 8v.8H76.6c.2 1.8 1.7 3.4 4.2 3.4 1.2 0 2.9-.5 3.9-1.4l1.7 2.5c-1.4 1.3-3.7 2-6 2-4.5-.1-7.8-3.1-7.8-7.7zm7.5-4.6c-2.4 0-3.4 1.8-3.6 3.2h7.1c0-1.4-1-3.2-3.5-3.2zm-29.4 23.8c0-2.4 1.8-4 4-4 1.3 0 2.2.5 2.9 1.3l-.5.4c-.5-.7-1.4-1.1-2.4-1.1-1.8 0-3.2 1.4-3.2 3.4s1.4 3.4 3.2 3.4c1 0 1.9-.5 2.3-.9v-1.9h-2.9v-.6h3.6v2.7c-.7.8-1.7 1.3-3 1.3-2.3 0-4-1.6-4-4zm8.2 1c0-1.6 1.2-3 2.7-3 1.7 0 2.7 1.4 2.7 3v.2h-4.7c.1 1.2.9 2.2 2.2 2.2.7 0 1.4-.3 1.8-.8l.3.4c-.6.6-1.3.9-2.2.9-1.6.1-2.8-1.1-2.8-2.9zm2.7-2.4c-1.3 0-2 1.2-2 2.2h4.1c0-1-.7-2.2-2.1-2.2zm4.3 5.3v-5.6h.6v1c.5-.6 1.1-1.1 1.9-1.1v.7h-.3c-.6 0-1.3.5-1.6 1v4.1h-.6zm10.4 0v-4c0-.8-.3-1.3-1.1-1.3-.6 0-1.3.4-1.6 1v4.3H73v-4c0-.8-.3-1.3-1.1-1.3-.6 0-1.3.5-1.6 1v4.3h-.6v-5.6h.6v.9c.2-.4 1-1 1.8-1 .9 0 1.3.5 1.5 1.1.3-.5 1.1-1.1 1.9-1.1 1 0 1.5.6 1.5 1.7v4.1h-.7zm6.1 0v-.7c-.5.5-1.1.8-1.9.8-1 0-2-.7-2-1.9s1-1.9 2-1.9c.8 0 1.4.3 1.9.8v-1.1c0-.8-.7-1.3-1.5-1.3-.7 0-1.3.2-1.8.8l-.3-.4c.6-.6 1.2-.9 2.2-.9 1.1 0 2.1.5 2.1 1.8v4h-.7zm0-1.1v-1.2c-.4-.5-1-.8-1.7-.8-.9 0-1.5.6-1.5 1.4 0 .8.6 1.4 1.5 1.4.6-.1 1.3-.3 1.7-.8zm6.3 1.1v-3.8c0-1.1-.5-1.4-1.4-1.4-.7 0-1.5.5-1.8 1v4.3h-.6V104h.6v.9c.4-.5 1.2-1 2-1 1.1 0 1.8.6 1.8 1.8v4h-.6zm2.3-7c0-.3.2-.5.5-.5s.5.2.5.5-.2.5-.5.5c-.3-.1-.5-.3-.5-.5zm.2 7v-5.6h.6v5.6h-.6zm6.3 0v-.8c-.5.5-1.2 1-2 1-1.2 0-1.8-.5-1.8-1.8v-4h.6v3.8c0 1.1.5 1.4 1.4 1.4.7 0 1.5-.4 1.8-.9v-4.3h.6v5.6h-.6zm9.2 0v-4c0-.8-.3-1.3-1.1-1.3-.6 0-1.3.4-1.6 1v4.3h-.6v-4c0-.8-.3-1.3-1.1-1.3-.6 0-1.3.5-1.6 1v4.3h-.7v-5.6h.6v.9c.2-.4 1-1 1.8-1 .9 0 1.3.5 1.5 1.1.3-.5 1.1-1.1 1.9-1.1 1 0 1.5.6 1.5 1.7v4.1h-.6zm-55.3 11.7l3.3-7.2h-4.3v-.6h5.1v.5l-3.3 7.3h-.8zm5.1 0v-.5c2.7-2.1 4.4-3.7 4.4-5.2 0-1.1-.9-1.6-1.8-1.6-1 0-1.7.4-2.1 1l-.5-.4c.5-.7 1.5-1.2 2.6-1.2s2.5.7 2.5 2.2c0 1.7-1.8 3.3-4.1 5.1h4.1v.6h-5.1zm6.9-.4c0-.3.2-.5.5-.5s.5.2.5.5-.2.5-.5.5-.5-.3-.5-.5zm2.1-3.5c0-2 .8-4 3-4 1 0 1.6.4 2.1 1l-.4.5c-.4-.5-.9-.9-1.7-.9-1.7 0-2.3 1.8-2.3 3.4v.4c.3-.5 1.2-1.3 2.3-1.3 1.4 0 2.5.8 2.5 2.5 0 1.3-1 2.5-2.6 2.5-2.2-.1-2.9-2-2.9-4.1zm4.8 1.5c0-1.3-.8-1.9-2-1.9-.9 0-1.7.5-2.1 1.3.1 1.1.7 2.4 2.1 2.4 1.3.1 2-.9 2-1.8zM72 120l.5-.4c.4.6 1.2 1.1 2.2 1.1 1.2 0 2-.6 2-1.7s-.9-1.6-2.1-1.6h-.7v-.6h.7c1 0 2-.4 2-1.5 0-1-.9-1.5-1.9-1.5-.9 0-1.5.4-2.1 1l-.4-.4c.5-.7 1.4-1.2 2.5-1.2 1.4 0 2.5.7 2.5 2.1 0 1.2-1 1.7-1.7 1.8.7.1 1.8.7 1.8 1.9 0 1.3-1 2.2-2.6 2.2-1.3.1-2.3-.5-2.7-1.2z"/><path class="st0" d="M120.9 128.4H45.8V40.9h75.1v87.5zm-74.3-.8h73.5V41.7H46.6v85.9z"/><path class="st0" d="M99.5 54.8l.9-1.2c.6.8 1.7 1.2 2.8 1.2 1.3 0 2.1-.6 2.1-1.5 0-1-.8-1.4-2.2-1.4h-1.2v-1.6h1.2c1.2 0 2.1-.4 2.1-1.3s-.9-1.4-2-1.4c-1 0-1.9.4-2.6 1.1l-.9-1.1c.8-.9 2-1.6 3.7-1.6 2.2 0 3.6 1 3.6 2.7 0 1.3-1.1 2.1-2.2 2.3 1 .1 2.3.9 2.3 2.4 0 1.7-1.5 2.9-3.8 2.9-1.8.1-3.1-.6-3.8-1.5zm9.1 1.4v-1.4c3.9-2.9 5.4-4.3 5.4-5.7 0-1.1-.9-1.5-1.8-1.5-1.2 0-2.1.5-2.7 1.2l-1-1.2c.9-1.1 2.3-1.6 3.7-1.6 1.9 0 3.6 1.1 3.6 3.1 0 1.8-1.7 3.5-4.4 5.5h4.4v1.5h-7.2z"/><path class="st1" d="M48.5 84.6H20"/><text transform="translate(0 89.052)" class="st0 st2 st3">02</text><path class="st1" d="M122.9 377.4H94.4"/><text transform="translate(74.414 381.85)" class="st0 st2 st3">05</text><path class="st1" d="M48.5 291.8H20"/><text transform="translate(0 296.175)" class="st0 st2 st3">04</text><path class="st1" d="M108.3 44.7V16.2"/><text transform="translate(99.981 11)" class="st0 st2 st3">01</text></svg>