<svg xmlns="http://www.w3.org/2000/svg" viewBox="0 0 235.6 11.2"><path d="M3.4 11V1.4H0V.2h8.2v1.2H4.8V11H3.4zm14.3 0V6h-6.3v5H10V.2h1.3v4.7h6.3V.2H19V11h-1.3zm3.9 0V.2h7.1v1.2H23v3.5h5.6v1.2H23v3.7h5.7V11h-7.1zm19.6 0l-2.8-4.3h-2.2V11H35V.2h4.4c2 0 3.4 1.3 3.4 3.3 0 1.9-1.3 3-2.8 3.1l2.9 4.4h-1.7zm.1-7.6c0-1.2-.9-2.1-2.2-2.1h-2.8v4.1h2.8c1.3.1 2.2-.7 2.2-2zm3.5 7.6V.2h7.1v1.2h-5.7v3.5h5.6v1.2h-5.6v3.7h5.7V11h-7.1zm8.6-1.5l.8-1c.7.8 1.9 1.5 3.4 1.5 1.9 0 2.5-1 2.5-1.9 0-2.8-6.4-1.2-6.4-5.1 0-1.8 1.6-3 3.7-3 1.7 0 2.9.6 3.8 1.5l-.8 1c-.8-.9-1.9-1.3-3.1-1.3-1.3 0-2.2.7-2.2 1.7 0 2.4 6.4 1 6.4 5.1 0 1.6-1.1 3.2-4 3.2-1.8 0-3.2-.7-4.1-1.7zM63.6 11V.2h7.1v1.2H65v3.5h5.6v1.2H65v3.7h5.7V11h-7.1zm17 0l-1-2.4h-5.4l-1 2.4h-1.5L76.1.2h1.7L82.1 11h-1.5zm-3.7-9.4l-2.3 5.8h4.6l-2.3-5.8zM89.8 11L87 6.7h-2.2V11h-1.3V.2h4.4c2 0 3.4 1.3 3.4 3.3 0 1.9-1.3 3-2.8 3.1l2.9 4.4h-1.6zm.1-7.6c0-1.2-.9-2.1-2.2-2.1h-2.8v4.1h2.8c1.3.1 2.2-.7 2.2-2zm3 2.2c0-3.3 2.5-5.6 5.6-5.6 1.9 0 3.2.9 4.1 2.1l-1.1.6c-.6-.9-1.7-1.6-3-1.6-2.4 0-4.2 1.8-4.2 4.4 0 2.6 1.8 4.4 4.2 4.4 1.2 0 2.4-.7 3-1.6l1.2.6c-.9 1.2-2.2 2.1-4.1 2.1-3.2.2-5.7-2.1-5.7-5.4zM112 11V6h-6.3v5h-1.3V.2h1.3v4.7h6.3V.2h1.3V11H112zm10.8 0V1.4h-3.4V.2h8.2v1.2h-3.4V11h-1.4zm12.8 0l-2.8-4.3h-2.2V11h-1.3V.2h4.4c2 0 3.4 1.3 3.4 3.3 0 1.9-1.3 3-2.8 3.1l2.9 4.4h-1.6zm.1-7.6c0-1.2-.9-2.1-2.2-2.1h-2.8v4.1h2.8c1.3.1 2.2-.7 2.2-2zm3.5 7.6V.2h1.3V11h-1.3zm11.6 0l-1-2.4h-5.4l-1 2.4H142L146.4.2h1.7l4.4 10.8h-1.7zm-3.6-9.4l-2.3 5.8h4.6l-2.3-5.8zm14.2 9.4l-6.3-8.6V11h-1.3V.2h1.4l6.2 8.5V.2h1.3V11h-1.3zm3.4-5.4c0-3.4 2.5-5.6 5.6-5.6 1.9 0 3.2.8 4.2 2l-1.1.7c-.7-.9-1.8-1.5-3.1-1.5-2.4 0-4.2 1.8-4.2 4.4 0 2.6 1.8 4.4 4.2 4.4 1.3 0 2.4-.6 2.9-1.2V6.6h-3.7V5.4h5.1v3.9c-1 1.1-2.5 1.9-4.3 1.9-3.1 0-5.6-2.2-5.6-5.6zm12 5.4V.2h1.3v9.6h5V11h-6.3zm8.3 0V.2h7.1v1.2h-5.7v3.5h5.6v1.2h-5.6v3.7h5.7V11h-7.1zm13.4 0V.2h4.4c2.2 0 3.4 1.5 3.4 3.3 0 1.8-1.3 3.3-3.4 3.3h-3V11h-1.4zm6.4-7.6c0-1.2-.9-2.1-2.2-2.1h-2.8v4.1h2.8c1.3.1 2.2-.7 2.2-2zm9.6 7.6l-1-2.4h-5.4l-1 2.4h-1.5L210 .2h1.7l4.4 10.8h-1.6zm-3.6-9.4l-2.3 5.8h4.6l-2.3-5.8zm12.9 9.4L221 6.7h-2.2V11h-1.3V.2h4.4c2 0 3.4 1.3 3.4 3.3 0 1.9-1.3 3-2.8 3.1l2.9 4.4h-1.6zm0-7.6c0-1.2-.9-2.1-2.2-2.1h-2.8v4.1h2.8c1.4.1 2.2-.7 2.2-2zm10.1 7.6l-4.1-4.9-1.1 1.2V11h-1.3V.2h1.3v5.6l4.8-5.6h1.7l-4.5 5.1 4.9 5.7h-1.7z" fill="#fff"/></svg>