<svg xmlns="http://www.w3.org/2000/svg" width="97.562" height="45.219" viewBox="0 0 97.562 45.219"><path fill="#56A1D4" d="M30.47 0L2.812 34.352h44.734L12.71 28.916z"/><path fill="#00549B" d="M22.318 23.386L35.224 2.523 92.766 45.22 36.873 10.382z"/><path fill="#E51D38" d="M44.54 21.154L82.673 45.22 0 39.784h63.946z"/><path fill="gray" d="M97.562 43.23c0 1.114-.875 1.99-2.015 1.99-1.127 0-2.026-.876-2.026-1.99 0-1.093.9-1.968 2.027-1.968 1.14 0 2.015.875 2.015 1.967zm-3.538 0c0 .874.648 1.57 1.535 1.57.863 0 1.498-.696 1.498-1.56 0-.875-.635-1.583-1.51-1.583s-1.524.708-1.524 1.572zm1.212 1.03h-.456v-1.967c.18-.036.432-.06.756-.06.372 0 .54.06.684.144.107.084.19.24.19.432 0 .215-.167.383-.406.455v.024c.19.07.3.214.36.478.06.3.095.42.144.492h-.492c-.06-.072-.096-.252-.156-.48-.035-.215-.155-.31-.407-.31h-.216v.79zm.012-1.115h.216c.252 0 .456-.084.456-.287 0-.18-.132-.3-.42-.3l-.252.023v.565z"/></svg>
